<?xml version="1.0" encoding="UTF-8"?>
<!DOCTYPE svg PUBLIC "-//W3C//DTD SVG 1.1//EN" "http://www.w3.org/Graphics/SVG/1.1/DTD/svg11.dtd">
<!-- Creator: CorelDRAW 2018 (64-Bit) -->
<svg xmlns="http://www.w3.org/2000/svg" xml:space="preserve" width="14.3613mm" height="14.3612mm" version="1.1" style="shape-rendering:geometricPrecision; text-rendering:geometricPrecision; image-rendering:optimizeQuality; fill-rule:evenodd; clip-rule:evenodd"
viewBox="0 0 527.18 527.17"
 xmlns:xlink="http://www.w3.org/1999/xlink">
 <defs>
  <style type="text/css">
   <![CDATA[
    .fil1 {fill:rgb(73, 73, 73)}
    .fil0 {fill:rgb(73, 73, 73)}
   ]]>
  </style>
 </defs>
 <g id="Layer_x0020_1">
  <metadata id="CorelCorpID_0Corel-Layer"/>
  <g id="_2862642017888">
   <path class="fil0" d="M263.59 0c72.79,0 138.69,29.51 186.39,77.2 47.7,47.7 77.2,113.6 77.2,186.38 0,72.79 -29.51,138.69 -77.2,186.39 -47.7,47.7 -113.6,77.2 -186.39,77.2 -72.79,0 -138.69,-29.51 -186.38,-77.2 -47.7,-47.7 -77.2,-113.6 -77.2,-186.39 0,-72.79 29.51,-138.68 77.2,-186.38 47.7,-47.7 113.6,-77.2 186.39,-77.2zm-183.86 424.23l344.56 -344.46c-42.94,-37.57 -99.16,-60.35 -160.7,-60.35 -134.85,0 -244.16,109.31 -244.16,244.16 0,61.52 22.76,117.71 60.3,160.65zm367.67 -321.35l-344.56 344.47c42.94,37.6 99.19,60.4 160.75,60.4 134.85,0 244.17,-109.32 244.17,-244.17 0,-61.54 -22.78,-117.76 -60.35,-160.7z"/>
   <path class="fil1" d="M368.82 295.37c-3.7,1.6 -5.56,3.93 -8.98,5.75 -2.18,-1.05 -2.52,-2.03 -4.23,-4.09 -1.33,-1.6 -2.71,-2.99 -4.06,-4.64 -11.12,-13.63 -22.59,-24.02 -32.93,-35.85 -8.78,-10.05 -14.34,-17.65 -27.09,-25.06 -35.65,-20.71 -57.21,29.12 -73.47,14.85 -12.79,-11.22 10.47,-48.32 12.03,-49.32 2.21,-1.41 27.68,-2.95 32.01,-2.88 18.33,0.32 40.18,7.34 56.74,12.29 17.7,5.29 13.24,2.01 18.95,14.99 3.92,8.94 30.33,69.66 31.03,73.95zm-28.24 -95.25c-2.48,-7.27 4.87,-8.59 14.99,-12.98 6.77,-2.94 13.11,-5.63 20.17,-8.87 19.52,-8.93 16.57,-9.53 28.16,17.63l34.91 79.73c1.98,7.38 -4.7,8 -15.34,12.77 -6.9,3.09 -13.37,5.7 -20.14,8.84 -21.33,9.9 -16.5,7.19 -28.02,-17.77l-34.72 -79.34zm-36.23 151.04c-0.36,11.89 -12.58,11.72 -18.35,5.35l-24.6 -23.88c-4.24,-3.92 -9.98,-1.03 -9.44,4.24 0.35,3.38 12.35,13.12 15.57,17.45 -0.68,0.42 -0.03,0.19 -1.62,0.8 -4.68,1.79 -14.17,2.58 -18.64,1.05 -5.29,-1.82 -64.92,-52.82 -75.45,-61.42l-12.43 -10.66c0.47,-6.38 5.16,-21.25 7.06,-28.4l11.21 -43c4.89,-18.74 -0.69,-15.66 39.01,-15.58 -3.38,9.74 -10.67,17.49 -12.75,34.62 -1.8,14.84 5.04,26.59 18.63,28.16 24.49,2.83 36.15,-36.1 67.39,-15.96 10.11,6.52 15.84,15.07 23.67,23.39 8.06,8.59 15.79,16.2 23.12,24.68 3.76,4.35 19.9,20.77 20.11,27.6 0.23,7.67 -6.51,10.37 -13.91,8.93 -7.97,-1.56 -10.26,-5.68 -14.25,-9.67l-35.62 -35.34c-5.97,-3.53 -12.64,3.13 -5.29,10.37 3.44,3.39 39.61,38.13 40.63,41.87 3.09,11.42 -7.07,16.28 -18.48,6.21l-37.25 -34.44c-5.97,-3.94 -12.89,2.89 -5.92,9.55l37.58 34.07zm-131.3 -164.07c-7.42,28.25 -14.82,56.32 -22.62,84.55 -7.43,26.86 2.43,27.09 -48.07,12.94 -8.08,-2.26 -16.65,-1.62 -14.14,-11.5 7.16,-28.2 15.09,-56.48 22.63,-84.43 7.56,-28.05 -1.55,-26.44 48.34,-13 8.2,2.21 16.43,1.67 13.86,11.43zm166.44 155.65l0.08 -3.66c2.66,-0.06 2.5,-0.35 4.13,1.07 10.5,-1.56 14.1,-0.56 20.05,-7.98 5.01,-6.25 4.76,-13.32 2.1,-21.29 1.46,-1.92 5.94,-5.04 8.47,-5.87 2.24,2.7 2.16,3.85 6.07,6.27 9.35,5.81 17.55,0.29 27.76,-4.24l34.11 -15.03c15.06,-8.93 4.71,-24.73 0.79,-33.94 -4.87,-11.46 -10.31,-22.94 -14.95,-34.23 -4.73,-11.49 -9.93,-22.87 -15.05,-34.25 -5.76,-12.83 -8.55,-26.78 -21.37,-27.93 -7.44,-0.66 -28.26,10.14 -35.87,13.47 -14.92,6.51 -25.66,7.91 -26.84,22.4 -2.71,0.14 -26.28,-7.19 -31.72,-8.59 -37.74,-9.74 -38.67,-4.74 -73.52,-3.07 -13.07,0.62 -26.47,-0.51 -39.08,0.1 0.59,-17.22 -12.15,-18.1 -26.25,-21.86 -7.43,-1.97 -31.49,-9.45 -37.46,-9.38 -14.85,0.17 -16.17,14.29 -19.6,27.22l-20.07 74.86c-3.4,12.9 -9.23,27.13 3.92,34.15 3.05,1.63 50.86,15.03 56.77,14.42 8.59,-0.9 9.39,-5.54 13.73,-9.62 5.8,4.31 12.04,9.83 17.77,14.74l53.07 43.97c17.36,14.2 19.93,16.83 47.74,9.79 6.88,-1.74 7.39,7.97 23.31,8.21 12.78,0.2 14.66,-9.25 17.38,-14.63 7.87,-0.33 10.41,1.59 17.4,-2.78 3.46,-2.16 6.76,-6.21 7.12,-12.29z"/>
   <path class="fil1" d="M414.15 268.78c1.23,8.6 -6.61,7.24 -7.69,3.45 -1.29,-4.54 3.12,-7.03 7.69,-3.45zm-18.63 5.19c1.32,7.29 8.54,13.52 17.58,11.94 7.39,-1.3 13.65,-8.54 12.17,-17.44 -3.23,-19.4 -33.46,-14.99 -29.76,5.5z"/>
   <path class="fil1" d="M111.02 266.73c-0.6,-5.95 8.18,-6.3 8.24,-0.72 0.06,5.54 -7.77,5.4 -8.24,0.72zm1.41 -15.36c-20.44,4.24 -13.46,33.81 6.01,29.55 7.24,-1.58 13.58,-8.76 11.5,-18.09 -1.58,-7.09 -8.82,-13.26 -17.52,-11.46z"/>
   <path class="fil1" d="M339.48 342.75l0.66 -3.14 3.55 0.55c-1.63,-1.42 -1.47,-1.13 -4.13,-1.07l-0.08 3.66z"/>
  </g>
 </g>
</svg>
