<?xml version="1.0" encoding="UTF-8"?>
<!DOCTYPE svg PUBLIC "-//W3C//DTD SVG 1.1//EN" "http://www.w3.org/Graphics/SVG/1.1/DTD/svg11.dtd">
<!-- Creator: CorelDRAW 2018 (64-Bit) -->
<svg xmlns="http://www.w3.org/2000/svg" xml:space="preserve" width="117.29mm" height="80.848mm" version="1.1" style="shape-rendering:geometricPrecision; text-rendering:geometricPrecision; image-rendering:optimizeQuality; fill-rule:evenodd; clip-rule:evenodd"
viewBox="0 0 14366.92 9903.13"
 xmlns:xlink="http://www.w3.org/1999/xlink">
 <defs>
  <style type="text/css">
   <![CDATA[
    .fil0 {fill:rgb(253, 250, 244);fill-rule:nonzero}
   ]]>
  </style>
 </defs>
 <g id="Layer_x0020_1">
  <metadata id="CorelCorpID_0Corel-Layer"/>
  <g id="_1796998490816">
   <path class="fil0" d="M6952.53 5476.9c0,0 -72.47,152.16 47.97,186.9 120.3,34.62 147.1,-66.41 129.89,-132.91 -16.89,-66.51 -61.75,-138.72 -177.86,-53.98z"/>
   <path class="fil0" d="M8024.14 6838.65c0,0 -74.84,157.51 49.56,193.29 124.4,36 151.72,-68.58 134.21,-137.29 -17.54,-68.71 -63.78,-143.41 -183.77,-56z"/>
   <path class="fil0" d="M22.32 4173.93c0,0 -74.81,157.56 49.56,193.29 124.41,36 151.72,-68.53 134.21,-137.29 -17.54,-68.71 -63.82,-143.38 -183.77,-56z"/>
   <path class="fil0" d="M8043.32 4950.64c0,0 -51.59,108.33 34,133.14 85.73,24.76 104.66,-47.32 92.57,-94.86 -12.02,-47.18 -43.95,-98.74 -126.57,-38.28z"/>
   <path class="fil0" d="M8034.84 4081.77c0,0 -51.59,108.37 34.02,133.09 85.68,24.72 104.61,-47.27 92.55,-94.81 -12,-47.23 -43.95,-98.74 -126.57,-38.28z"/>
   <path class="fil0" d="M596.47 3826c0,0 -51.63,108.37 33.97,133.09 85.73,24.77 104.66,-47.32 92.57,-94.81 -12.02,-47.23 -43.95,-98.74 -126.53,-38.28z"/>
   <path class="fil0" d="M14366.92 2784.75l0 -71.08c-5.51,6.35 -11.11,12.14 -16.76,17.28 -89.2,-36.89 -181.67,-91.65 -270.64,-158.67 144.42,-186.23 217.4,-459.29 277.25,-728.38 0.09,0.09 0.13,0.13 0.26,0.22l9.9 9.2 0 -57.78 -1.51 -1.37c-1.86,-7.83 -7.86,-14.39 -16.25,-16.17 -0.43,-0.12 -0.86,0 -1.29,-0.04l0 -0.17c-27.4,-24.6 -54.75,-49.14 -82.98,-73.2 -0.04,0 -0.04,-0.05 -0.09,-0.1 0.65,-9.28 -4.53,-18.36 -13.78,-21.73 -4.15,-1.51 -8.34,-1.3 -12.36,-0.31 -38.07,-32.67 -77.35,-64.38 -117.37,-95.46 -31.24,-24.07 -65.07,-51.25 -100.98,-80.76 -10.41,-9.03 -21.73,-18.36 -32.67,-28.17 -43.95,-37.11 -88.84,-78.04 -132.83,-121.73 -10.12,-9.93 -20.19,-19.88 -30.29,-29.81 -163.61,-167.62 -306.94,-368.55 -304.78,-558.64 19.37,-33.62 39.11,-67.32 58.12,-100.47 -1.98,216.62 140.52,424.21 319.73,610.2 0.51,0.77 0.65,1.64 1.56,1.98 0.7,1.64 1.73,2.81 3.2,3.88 0.96,0.78 1.52,1.56 2.43,1.86l1.47 1.13c116.02,120.08 246.95,231.14 362.93,328.97 34.06,28.74 67.11,56.71 97.75,83.22l0 -73.25 -3.32 1c-3.37,0.91 -6.19,2.58 -8.43,5.1 -18.8,-16.16 -38.07,-32.28 -57.82,-49.18 -14.31,-11.97 -28.61,-23.93 -43.01,-36.38 -0.12,-0.13 -0.29,-0.26 -0.43,-0.39 37.58,-18.28 74.99,-37.91 113,-58.62l0 -49.17c-50.4,27.99 -99.39,54.21 -148.61,77.41 0,0 0,0 -0.04,-0.04 -89.97,-76.57 -184.35,-159.97 -271.07,-247.87 136.59,-143.02 283.92,-210.23 419.71,-236.25l0 -43.77c-145.16,26.1 -303.4,96.19 -449.32,248.78 -193.5,-204.05 -338.74,-431.82 -285.2,-663.4l-0.04 -0.43c109.02,-189.96 211.26,-375.08 308.57,-558.21 2.46,-4.62 4.89,-9.3 7.3,-14l-48.58 0c-93.3,174.6 -190.64,351.1 -293.78,532.25 0,0 0,0 -0.34,0.48l-0.43 0.04c-5.28,2.94 -9.08,6.92 -10.85,13.27 -0.77,3.64 -1.68,6.79 -2.46,10.41 -30.89,54.41 -62.65,108.94 -95.11,164.47 -10.33,0.96 -18.79,9.16 -19.53,19.71 -0.56,5.32 -0.7,10.58 -0.87,15.81 -85.47,145.72 -174.4,294.53 -268.05,447.46 -307.54,502.6 -568.27,968.25 -771.97,1448.64 -3.03,0.48 -6.01,1.38 -8.73,3.2 -10.02,6.53 -12.87,19.88 -6.39,29.91 0.26,0.34 0.51,0.65 0.73,0.99 -0.05,0.09 -0.05,0.17 -0.13,0.26 -123.32,294.92 -224.92,595.5 -302.96,915.14 -54.62,223.84 -101.37,454.07 -146.57,676.7 -127.34,629.6 -259.57,1280.33 -586.22,1859.76 -29.68,52.81 -61.92,112.52 -95.49,178.03 -1.78,1.69 -3.42,3.54 -4.58,5.92 -4.37,8.82 -8.26,17.9 -12.05,26.92 -0.48,0.99 -0.96,1.86 -1.43,2.82 -0.43,0.09 -0.43,0.09 -0.39,0.47 -21.9,43.61 -44.76,89.54 -68.14,138.54 -19.71,40.27 -39.2,82.63 -59.33,126.4 -116.84,253.4 -242.89,560.03 -363.63,905.6 -5.06,13.78 -9.68,27.92 -15.04,42.65 -47.92,139.66 -95.36,285.76 -140.78,437.3l0.09 0.43c-3.11,9.13 -5.74,18.67 -8.38,27.74 -65.04,217.96 -125.97,446.6 -180.11,683.52 84.82,-413.01 181.96,-796.31 291.42,-1150.78 4.54,-14.6 9.13,-28.74 13.66,-43.34 175.74,-562.97 382.09,-1049.88 617.45,-1456.21 22.56,-38.89 44.21,-78.09 64.96,-117.15 1.56,-1.51 2.67,-2.98 3.76,-4.45 2.19,-2.89 3.49,-6.14 3.45,-9.64 311.86,-594.82 429.7,-1226.57 543.26,-1838.97 90.06,-482.69 183.09,-981.43 369.03,-1464.24 36,-93.08 81.46,-177.86 129.68,-267.83 26.02,-48.53 52.72,-98.45 77.92,-149.95 86.16,-175.43 175.87,-350.05 269.55,-521.79 118.62,-218.34 243.5,-432.72 372.57,-641.61l4.63 -7.61c78.52,-126.43 156.6,-252.78 233.3,-379.83 127.9,-211.28 256.43,-431.52 374.34,-661.45l-48.48 0c-114.98,221.72 -239.42,434.7 -362.89,639.5 -76.79,126.61 -154.91,252.58 -233.04,378.93l-4.54 8.04c-77.08,124.06 -152.57,250.51 -225.21,378.32 -0.09,0.12 -0.18,0.26 -0.22,0.34 -7.13,-0.73 -14.48,1.69 -19.18,7.78 -172.12,219.09 -525.55,320.2 -824.31,398.46 32.33,-109.03 13.01,-210.97 -57.78,-304.05 -112.78,-147.14 -335.11,-244.27 -544.81,-293.88 -0.13,-0.05 -0.26,-0.05 -0.39,-0.09 -1.08,-0.7 -2.07,-1.52 -3.11,-2.2 -5.44,-3.59 -11.83,-4.15 -17.68,-2.46 -0.12,-0.05 -0.29,-0.05 -0.43,-0.09 -143.17,-32.15 -278.46,-42.31 -366.39,-31.47 -0.31,0.05 -0.56,0.1 -0.82,0.13 -7.64,-5.66 -18.19,-6.05 -26.05,0.17 -1.52,1.21 -2.51,2.81 -3.64,4.32 -0.09,0 -0.17,0.04 -0.26,0.04 -47.35,7.01 -93.94,16.85 -139.27,29.21 -8.68,-3.2 -18.24,-0.56 -24.02,6.75 -0.17,0.09 -0.36,0.09 -0.53,0.17 -218.9,63.78 -415.78,186.03 -579.77,356.97 -2.94,0.86 -5.4,2.02 -7.73,4.1 -3.07,3.06 -5.23,6.39 -5.97,10.46l-0.43 0.04c-0.05,0.13 0.04,0.31 0,0.48 -27.62,29.39 -54.53,60.88 -80.38,93.51 0,0 -0.05,0 -0.09,0.09 -6.65,-1.6 -13.88,-0.39 -19.37,4.5 -7.47,6.7 -8.81,17.33 -4.4,25.88 -0.09,0.09 -0.13,0.22 -0.27,0.31 -114.25,151.89 -207.28,331.35 -273.06,534.53 0,0.09 -0.04,0.17 -0.09,0.31 -4.19,0.43 -8.29,1.73 -11.75,4.72 -9.04,7.81 -10.03,21.47 -2.17,30.46 0.65,0.82 1.52,1.51 2.2,2.29 0.05,0.04 0,0.04 0,0.04 -56.82,191.96 -48.87,376.25 21.66,523.56 -11.45,2.41 -18.75,12.62 -17.2,24.16 1.59,11.58 12.4,20.14 24.36,18.45 52.68,-7.26 99.73,24.2 149.25,57.52 25.93,17.32 52.89,35.42 82.28,49.25 46.11,21.13 93.56,39.45 142.38,54.97 13.66,4.23 27.32,8.42 41.4,12.18 157.38,43.69 329.14,58.82 514.74,44.6l0.43 -0.09 0.05 0c0.34,0.05 0.6,0.22 0.86,0.26 1.6,0.13 3.11,0.05 4.58,-0.17 0.82,-0.09 1.56,-0.51 2.34,-0.73 36.72,-2.41 74.06,-6.74 112.13,-11.97 114.72,-15.81 234.51,-42.39 358.96,-79.21 265.76,-78.5 597.15,-281.69 738.75,-558.17 72.55,-141.31 87.9,-286.06 44.82,-430.6 229.58,-56.14 444.18,-125.83 591.18,-226.87 -75.92,141.82 -149.51,285.42 -219.91,429.53 -24.46,50.43 -51.16,100.38 -77.22,148.48 -46.45,87.12 -94.67,177.07 -131.67,272.49 -136.16,353.78 -222.85,715.15 -294.44,1071.83 -3.85,0.51 -7.61,1.9 -10.72,4.5 -151.8,120.43 -324.83,219.3 -505.29,308.75 -0.04,0 -0.04,0 -0.04,0.04 -309.83,-314.02 -623.59,-431.17 -978.92,-357.45 -6.49,-1.59 -13.27,-0.04 -18.55,4.2 -142.64,32.1 -291.76,93.72 -450.4,186.8 -4.45,2.63 -8.51,5.66 -12.92,8.34 -0.09,-0.05 -0.17,-0.09 -0.29,-0.09 -10.98,-1.69 -20.75,5.27 -23.73,15.51 -112.57,72.21 -211.74,163.73 -295.4,272.15 -6.48,1.69 -12.27,6.01 -14.86,12.84 -1.13,2.94 -1.47,5.97 -1.35,8.99 -91.73,124.32 -163.94,268.9 -214.33,429.1 -9.25,0.38 -17.63,6.39 -20.09,15.76 -2.34,9.04 1.51,18.12 8.77,23.08 -51.68,179.2 -77.27,376.17 -72.33,585.18 0.94,39.25 -0.18,77.32 -1.26,114.17 -1.59,56.52 -3.2,109.92 1.95,167.22 0.26,3.16 1.3,6.05 2.81,8.65l0 0.09c-0.77,0.6 -1.08,1.47 -0.6,1.86 -0.34,0.51 -0.73,0.94 -0.7,1.42 -1.64,3.71 -3.28,7.86 -4.48,11.49 -0.39,0.48 -0.36,0.96 -0.27,1.35 -3.54,9.25 0,19.18 8.65,24.55 4.27,2.89 9.68,3.93 14.39,3.23 4.27,-0.56 8.38,-2.46 11.88,-5.52 223.67,5.74 460.94,2.24 698.52,-30.51 323.19,-44.6 646.71,-143.77 935.12,-348.85 86.93,-62.18 175.05,-141.04 252.87,-231.62 0,0 0,0 0.43,-0.09 4.5,-2.33 7.86,-6.31 9.77,-11.37 141.91,-166.58 248.77,-368.89 256.12,-568.8 2.46,-70.57 0.69,-149.72 -22.82,-225.43 19.92,-10.63 39.8,-21.22 59.37,-31.33 123.8,-63.73 241.09,-124.4 351.32,-207.24 -13.44,69.92 -26.05,139.7 -39.2,209.1 -103.31,553.46 -209.74,1122.95 -459.6,1664.31 -6.31,1.78 -12.14,6.92 -14.65,13.83 -31.54,97.27 -182.92,153.92 -316.01,204.13 -57.68,21.44 -112.01,42.05 -152.97,64.26 -126.09,69.32 -260.22,143.68 -393.92,221.43 -296.08,-160.71 -603.5,-162.79 -891.38,-4.85 -47.4,26.15 -92.99,55.54 -137.24,88.67 -9.69,-1.59 -19.4,3.11 -23.33,12.53 -0.87,2 -1.04,4.12 -1.26,6.19 -0.04,0 -0.04,0 -0.04,0 -290.25,226.3 -509.48,591.57 -628.48,952.61 -0.05,0.17 -0.09,0.31 -0.13,0.48 -5.52,2.5 -10.11,7.08 -11.97,13.35 -1.81,6.17 -0.6,12.4 2.55,17.45 -0.04,0.04 -0.04,0.09 -0.04,0.13 -55.97,176.51 -86.91,350.45 -90.7,506.27 -0.43,12.75 -1.21,25.97 -2.03,39.15 -3.54,68.93 -7.61,147.18 42.43,203.05 5.19,5.83 11.98,7.95 19.28,6.96 2.98,-0.43 5.97,-1.25 8.26,-3.33 57.9,5.54 126.69,1.3 199.02,-8.68 156.26,-21.56 331.48,-69.73 461.77,-105.56l13.49 -3.63c81.11,-22.09 158.2,-51.51 230.66,-85.92l0.44 -0.04c0.17,-0.09 0.34,-0.17 0.51,-0.26 -6.79,8.34 -13.31,16.63 -19.57,24.84 -241.21,317.09 -310.87,692.65 -215.16,1026.37 -7.69,7.3 -9.33,19.15 -2.98,28 3.2,4.5 7.95,6.74 12.96,7.86 51.29,157.63 140.23,305.04 266.7,431 46.63,46.41 95.98,89.01 143.64,130.24 111.22,96.06 216.27,186.8 278.63,315.54 0.09,0.09 0.21,0.12 0.26,0.21 -5.74,8.65 -4.1,20.19 3.8,27.35l0.09 0.44 0.22 1.73c0.73,11.66 10.75,21.17 22.51,20.87l2.12 -0.31c11.15,-1.51 19.01,-10.89 18.75,-22.21 -0.31,-5.62 -0.17,-10.89 -0.51,-16.51l-0.05 -0.43c57.64,-65.95 122.04,-120.65 190.39,-178.51 31.68,-26.58 63.74,-53.28 95.2,-81.59 308.75,-279.02 676.58,-724.1 675.32,-1264.39l-0.09 -0.43c4.67,-7.21 5.11,-16.85 -0.21,-23.98l-0.09 -0.43c-1.86,-83.05 -12.49,-236.03 -61.71,-387.13 97.39,146.23 283.35,267.13 565,367.42 119.26,42.44 356.88,89.06 558.51,61.23 86.47,-11.93 166.28,-37.29 227.6,-83.27 1.56,1.95 3.63,4.27 5.97,5.71 4.36,2.89 9.71,3.88 14.43,3.23 5.97,-0.82 11.62,-4.23 15.25,-9.54 5.06,-7.66 10.03,-15.73 14.09,-24.16l0.39 -0.48c3.33,-3.07 5.37,-6.96 6.31,-11.28 0.13,-0.22 0.22,-0.34 0.34,-0.56 0,0 -0.04,-0.38 -0.09,-0.69 0.05,-0.13 0.09,-0.26 0.09,-0.43 86.6,-174.23 48.45,-428.41 -112.74,-756.31l-4.36 -9.42c-18.28,-37.63 -36.99,-75.18 -56.91,-112.13 0,0 0.39,-0.05 -0.04,-0.44l0 0c0.94,-1.98 1.85,-4.05 2.16,-6.39 1.59,-11.62 -6.48,-22.29 -18.02,-24.11 -0.05,-0.13 -0.13,-0.26 -0.22,-0.39l-0.43 0.05c-91.53,-170.13 -204.49,-324.7 -407.83,-388.7 -187.89,-59.54 -454.04,-41.61 -623.77,100.38 -102.59,-234.9 -150.72,-488.98 -64.52,-680.29 37.08,-72.72 72,-138.97 104.79,-196.73 193.46,-342.97 318.78,-709.2 415.78,-1081.16 64.87,87.89 129.42,179.33 192.81,269.16 0.13,0.13 0.22,0.26 0.31,0.39 -142.69,161.05 -187.28,368.86 -128.33,601.86 1.47,5.7 3.49,11.35 5.05,17.03 -1.42,7.3 0.61,14.74 5.88,19.75 119.53,405.32 503.07,764.64 802.4,870.54 152.98,54.1 304.52,70.44 445.56,50.96 171.77,-23.73 327.64,-101.12 451.95,-227.17 0.36,-0.09 0.61,-0.17 0.96,-0.26l0.43 -0.05c15.08,-4.23 29.61,-9.76 41.44,-15.73 276.87,-146.4 45.64,-661.92 -52.84,-882.61l-11.97 -26.7c-148.65,-334.55 -518.33,-715.42 -911.34,-762.82 -214.29,-25.83 -407.18,55.75 -559.43,235.94 -4.14,-4.62 -8.29,-9.76 -12.92,-14.77 -96.01,-107.61 -133.17,-206.3 -176.47,-321.16 -9.11,-24.89 -19.23,-50.55 -29.47,-77.48l-0.09 -0.43c40.23,-176.57 76.09,-352.96 111.75,-527.54 44.81,-222.54 91.61,-452.33 145.89,-675.32 65.51,-268.6 148.04,-523.81 246.17,-773.8 0.05,0 0.05,0 0.05,-0.04 103.01,66.59 200.33,134.56 291.98,204.22 -53.32,12.87 -104.14,49.49 -149.03,108.25 -134,175.19 -187.84,499.58 -137.97,642.27 95.67,273.62 311.3,479.26 509.6,644.33 121.38,101.08 254.56,190.06 383.33,276.13 141.73,94.72 275.6,184.16 396.42,288.96 15.74,13.66 31.68,26.14 47.32,38.38 38.81,30.38 75.45,59.11 99.95,100.38 4.58,7.64 13.23,11.49 21.56,10.33 2.77,-0.39 5.49,-1.3 8.08,-2.81 6.01,-3.59 9.25,-9.64 10.03,-16.08 0.09,-0.04 0.21,-0.04 0.29,-0.04 118.53,-29.43 231.36,-178.95 336.54,-444.26 6.82,-17.08 13.22,-34.1 19.13,-51.08 5.14,-13.35 10.25,-27.09 14.44,-40.79 79.9,-233.52 111.14,-465.53 93.17,-684.22 -0.82,-12.49 -1.69,-25.02 -3.42,-37.47 -18.8,-177.51 -70.43,-346.21 -154.06,-500.01 -57.17,-104.66 -116.88,-195.87 -179.5,-273.62l-0.05 -0.43c-0.47,-0.51 -0.94,-1.08 -1.42,-1.68 -1.04,-1.69 -2.33,-3.11 -3.76,-4.46 -0.39,-0.43 -0.73,-0.86 -1.08,-1.3 -124.41,-152.49 -260.35,-252.39 -411.2,-302.7 -302.36,-101.37 -537.34,19.62 -789.8,178.78 0,0 -0.04,0.04 -0.04,0.04 -11.2,-7.9 -22.34,-15.95 -33.45,-23.81 -113.17,-79.99 -229.41,-162.81 -302.82,-264.63 203.43,-482.54 464.83,-949.5 773.8,-1454.43 81.84,-133.87 160.61,-264.71 235.84,-392.84 26.24,180.45 158.76,363.28 308.71,517.46 -180.2,135.7 -263.64,312.08 -240.78,512.67 11.23,97.01 46.15,195.14 98.48,290l18.45 32.36c155.87,263.77 438.95,497.37 694.16,595.64l7.04 2.72zm-1763.78 -2784.75l-75.09 0 -3.26 20.44 -1.34 8.12c-52.07,55.57 -110.36,100.69 -167.44,136.07 -0.39,0.26 -0.82,0.48 -1.21,0.73 15.92,-53.1 25.8,-109.07 30.92,-165.37l-42.96 0c-6.17,67.81 -19.33,133.66 -41.33,192.3 -0.65,1.59 -0.6,3.33 -0.82,4.97 -0.22,0.12 -0.43,0.26 -0.65,0.38 -17.54,8.99 -34.17,17.81 -50.17,25.28 16.56,-50.74 24.07,-103.66 30.86,-155.65 2.85,-17.42 5.19,-35.18 8,-52.59 0.78,-4.91 1.48,-9.81 2.12,-14.7l-43.68 0 -1.22 7.95c-2.84,17.42 -5.13,35.61 -7.9,53.42 -8.68,63.61 -17.33,124.14 -41.06,179.76 -0.65,1.78 -1.25,3.64 -1.38,5.84 -15.29,6.04 -28.94,11.4 -41.44,15.76 -70.65,25.4 -157.85,47.92 -252.96,63.7 -0.26,0 -0.53,0.05 -0.78,0.09 31.47,-92.24 42.3,-209.96 34.14,-326.51l-42.66 0c8.87,120.19 -3.53,241.96 -39.36,332.56 -0.12,0.34 -0.09,0.69 -0.17,0.99 -106.13,14.65 -219.6,20.31 -330.26,14.61 -0.44,0 -0.82,-0.05 -1.26,-0.09 34.95,-94.65 29.75,-222.6 14.01,-348.08l-43.41 0c16.55,127.46 22.53,256.78 -14.81,344.7 -42.21,-3.71 -83.39,-9.33 -123.58,-17.28 -0.09,0 -0.17,0 -0.26,-0.04 25.81,-85.58 42.75,-213.22 29.94,-327.38l-43.31 0c13.07,110.41 -4.18,237.9 -29.02,318.52 0,-0.05 -0.05,-0.05 -0.05,-0.05 -40.53,-9.2 -79.63,-20.82 -116.15,-35.44 0,0 -0.05,0 -0.05,-0.04 0.09,-0.48 0.34,-0.87 0.39,-1.35 6.55,-72.01 -12.71,-164.59 -58.39,-281.66l-46.6 0c44.18,109.8 65.15,198.74 62.42,264.94 -75.75,-35.3 -139.36,-83.53 -184.61,-146.45 27.49,-25.18 51.81,-51.25 75.85,-76.35 13.51,-14.14 27.02,-28.32 40.57,-42.14l-99.63 0c-16.78,24.35 -31.63,49.56 -44.51,75.63 -1.52,-1.56 -3.47,-3.03 -5.28,-3.63 -0.04,-0.36 -0.26,-0.1 -0.34,0.04 -20.55,-17.82 -30.72,-40.84 -41.32,-72.04l-45.54 0 1.64 5.06c13.61,41.18 27.71,75.92 60.67,102.62 0.26,0.39 0.48,0.83 0.73,1.26 161.1,279.14 601,315.32 948.59,267.4 119.44,-16.51 227.89,-42.82 310.13,-72.91 87.68,-31.76 248.77,-103.27 375.95,-234.64 0.04,-0.04 0.09,-0.12 0.12,-0.17 0.09,0 0.26,0.05 0.39,0 9.25,-1.25 16.89,-8.38 18.41,-18.06l0.47 -2.82c13.5,-15.18 26.53,-31.09 38.94,-47.75zm1345.4 2462.74c-0.04,-0.04 -0.04,-0.09 -0.12,-0.12 140.95,-134.65 197.09,-340 251.23,-538.68 16.77,-61.32 32.84,-119.75 50.86,-174.33 0.05,0.05 0.1,0.1 0.13,0.13 23.64,20.19 46.41,40.53 69.18,60.84 -59.71,271.93 -131.15,550.35 -274.39,735.13 -33.19,-25.93 -65.39,-53.71 -96.89,-82.98zm61.71 -909.26c29.56,24.67 57.99,47.35 84.79,67.66 40.96,31.42 81.27,64.26 120.42,98.09 0.05,0.05 0.1,0.13 0.18,0.18 -20.84,60.49 -39.03,124.79 -57.66,193.19 -52.76,193.43 -107.33,393.45 -240.34,519.75 -84.26,-82.96 -159.36,-175.48 -215.84,-271.93 128.86,-128.55 261.77,-410.77 308.44,-606.95zm-418.51 305.5c-21.64,-188.53 55.37,-348.33 228.3,-476.45 51.03,50.55 103.36,97.83 152.84,140.31 -39.42,185.59 -169.96,469.27 -292.99,598.78 -46.88,-86.89 -78.35,-175.91 -88.16,-262.64zm-842.68 1122.14c78,55.18 151.68,107.25 212.56,165.15 26.41,25.18 52.89,50.12 79.3,74.96 41.83,39.42 82.96,78.39 123.46,117.54 0.29,1.73 0.39,3.5 1.13,5.18 3.2,7.26 9.89,11.54 17.2,12.45 151.5,147.7 290.08,299.5 394.74,489.77 214.54,389.86 323.91,720.39 326.99,986.58 -25.07,-145.15 -76.05,-297 -112.53,-405.63l-2.29 -6.87c-56.99,-169.87 -132.74,-337.88 -218.95,-488.13 -0.17,-7.21 -3.67,-14.17 -10.29,-18.1 -29.12,-49.74 -59.32,-97.49 -90.43,-142.47 -251.84,-364.19 -594.34,-682.84 -1046.51,-973.91 0.05,-0.05 0.05,-0.09 0.05,-0.17 9.06,-23.04 18.48,-46.15 27.95,-69.27 0.09,-0.13 0.13,-0.27 0.17,-0.44 77.44,97.75 189.05,176.69 297.47,253.36zm95.76 15.16c237.75,-148.43 459.95,-258.03 738.88,-164.77 129.9,43.61 248.64,126.23 358.67,250.64 0.09,0.09 0.12,0.17 0.22,0.26 -250.46,-29.3 -596.68,-55.49 -842.12,135.63 -9.98,-9.37 -19.83,-18.75 -29.9,-28.21 -26.36,-24.85 -52.81,-49.74 -79.17,-74.84 -43.56,-41.44 -94.5,-80.64 -146.74,-118.58 0.04,-0.04 0.12,-0.09 0.17,-0.12zm287.62 251.96c246.87,-187.58 607.21,-147 850.93,-117.49 0.09,0.09 0.12,0.17 0.21,0.26 14.61,17.55 28.53,36.13 42.57,55.57 -262.2,-58.24 -593.12,20.79 -831.44,121.39 -20.6,-19.88 -41.3,-39.85 -62.26,-59.73zm1146.67 472.31l0 0c-215.98,-78.74 -438.26,-57.34 -653.54,-36.26 -26.45,2.55 -52.81,5.1 -79.13,7.52 -4.36,0.34 -8.07,2.29 -11.27,4.89 -89.58,-131.2 -194.2,-245.45 -306.73,-355.98 245.45,-100.69 583.11,-176.04 835.25,-99.7 0,0.05 0.04,0.09 0.09,0.17 31.85,47.49 62.45,98.7 92.82,154.26 55.56,102.24 96.31,211.36 122.5,325.09zm-60.36 858.93c-95.98,-41.27 -213.39,-85.69 -319.55,-77.61 -0.09,0 -0.17,0 -0.22,0 -5.32,-20.36 -10.84,-40.89 -16.98,-61.71 2.93,0.39 6,0.31 9.06,-0.56 71.61,-21.08 321.98,-16.55 346.22,45.33 1.6,4.05 4.45,7.21 7.83,9.54 -0.05,0.09 -0.05,0.18 -0.1,0.27 -7.9,28.12 -16.63,56.38 -26.26,84.74zm91.13 -445.39c-6.49,101.54 -23.6,205 -50.65,308.92 -0.04,0.17 -0.09,0.34 -0.12,0.51 -75.8,-73.29 -321.98,-62.48 -380.27,-45.37 -3.25,0.96 -5.92,2.68 -8.26,4.8 -37.94,-120.57 -89.53,-248.9 -155.6,-385.28 175.99,-7.01 416.21,20 594.9,116.42zm-671.83 -266.66c174.88,-47.66 497.12,-55.06 669.62,35 5.7,60.29 7.17,121.61 4.88,183.87 -0.04,0.34 -0.09,0.69 -0.09,1.08 -191.04,-96.45 -441.15,-121.99 -618.84,-112.3 -17.71,-35.31 -36.26,-71.18 -55.78,-107.61 0.09,0 0.12,0 0.21,-0.04zm649.43 -97.7c0.61,0.26 1.3,0 1.9,0.21 0,0.09 0.05,0.13 0.05,0.22 5.01,26.79 9.16,53.71 12.49,81.15 -195.58,-86.43 -516.3,-71.39 -684.92,-22.82l0 0c-0.65,-1.08 -1.11,-2.12 -1.73,-3.15 -17.32,-31.54 -35.56,-61.97 -54.53,-91.49 22.94,-2.11 45.93,-4.31 69.05,-6.57 218.23,-21.34 443.88,-43.39 657.69,42.44zm-103.01 903.04c-86.12,216.49 -176.69,353.69 -266.78,402.35l-0.48 0.05c0,0 0,0 -0.05,0.04 42.43,-150.42 40.1,-327.63 -7.35,-530.73 0.05,0 0.05,0 0.05,0 94.5,-4.32 203.57,36.91 294.44,75.83 -6.31,17.42 -13.05,34.96 -19.83,52.46zm-454.89 297.21c-8.29,-7.18 -17.23,-13.87 -25.71,-20.96 36.21,-90.79 78.43,-165.2 126.91,-248.94 36.21,138.32 60.07,284.2 34.4,390.11 -25.83,-32.53 -57.12,-57.47 -89.97,-83.18 -15.08,-11.8 -30.46,-23.85 -45.63,-37.03zm-239.96 -182.92c1.35,-5.27 0.87,-10.94 -1.98,-15.9 9.33,-27.49 39.8,-93.39 59.93,-132.71l7.09 -13.78c45.41,-88.89 96.88,-188.32 173.5,-248.39 6.96,19.23 14,38.41 20.48,57.69l2.29 6.86c19.32,57.39 42.69,127.22 64.04,201.41 -0.6,0.78 -1.42,1.3 -1.9,2.2l-15.43 26.58c-48.91,84.4 -91.39,159.07 -128.59,249.5 -57.69,-46.36 -117.89,-90.66 -179.42,-133.48zm-271.15 -183.7c64.38,-166.58 168.87,-346.91 269.95,-521.31 20.04,-34.69 39.63,-68.74 59.07,-102.79 62.05,111.14 118.19,231.35 165.07,354.51 -90.53,65.07 -146.79,174.27 -196.4,271.23l-7.04 13.74c-36.64,71.47 -54.66,113.27 -62.35,138.54 -39.32,-26.83 -78.77,-53.36 -117.89,-79.51 -36.55,-24.45 -73.51,-49.3 -110.4,-74.41zm-215.89 -156.73c0.09,-0.31 0.39,-0.48 0.48,-0.82 47.87,-224.1 221.45,-515.09 406.76,-684.17 8.21,11.49 16.55,22.91 24.58,34.48 30.41,43.99 59.93,90.7 88.41,139.32 -23.42,41.18 -47.4,82.79 -71.82,124.92 -100,172.64 -203.1,350.89 -268.92,517.9 -61.01,-42.17 -121.2,-85.82 -179.5,-131.63zm-108.38 -88.93c0.43,-1.56 0.99,-3.11 1.08,-4.8 8.73,-207.19 268.78,-570.53 433.85,-697.92 0.22,-0.21 0.34,-0.48 0.56,-0.65 18.63,23.78 36.94,47.71 54.75,71.87 -187.33,169.31 -363.54,460.55 -418.91,691.13 -5.39,-4.4 -11.01,-8.55 -16.33,-13.01 -18.24,-15.12 -36.6,-30.76 -55.01,-46.62zm-330.1 -358.02c-32.62,-49.22 -61.44,-101.12 -85.47,-155.77 60.89,-247.05 195.15,-450.02 377.81,-675.4 34.57,29.17 68.06,58.67 100.9,88.4 -136.81,192.13 -354.26,500.53 -393.23,742.77zm738.63 -378.96l0 0.04c-163.99,126.57 -419.29,475.34 -447.64,702.58 -90.95,-81.06 -180.83,-171.38 -256.07,-273.49 1.59,-2.68 2.85,-5.71 3.15,-9.03 19.45,-233.77 245.79,-555.79 387.4,-754.65 115.42,107.2 219.43,218.61 313.16,334.55zm-718.53 -443.49c50.82,-66.5 105.95,-98.83 164.11,-96.28 25.37,19.93 50.31,39.93 74.76,60.07 -172.63,213.04 -302.39,407.32 -370.58,637.16 -45.03,-130.45 7.78,-438.95 131.71,-600.95zm-691.74 1731.47c44.68,118.14 83.23,220.59 184.39,334.41 6.22,7.01 12.45,14 18.15,20.65 8.82,10.12 17.63,20.22 25.97,30 79.03,92.47 144.37,180.28 205.6,269.98 0.17,0.26 0.34,0.48 0.53,0.73 0.64,1.6 1.03,3.2 2.02,4.67 0.7,0.91 1.73,1.21 2.51,2 0.51,0.73 0.99,1.46 1.51,2.19 47.15,69.8 92.26,140.79 139.84,216.67 139.27,222.75 317.23,391.32 511.12,529.43 3.15,5.92 8.68,10.07 15.3,11.2 0,0 0.09,0.04 0.09,0.09 101.46,71.47 207.07,135 313.42,194.49 -215.2,-96.74 -428.62,-240.39 -618.97,-415.95 -1.64,-5.27 -5.28,-9.93 -10.55,-12.7 -1.38,-0.73 -2.85,-0.87 -4.27,-1.26 -103.66,-96.91 -199.94,-203.6 -284.99,-317.08 -66.16,-87.68 -131.58,-179.03 -196.49,-269.95 0,-0.05 -0.04,-0.09 -0.04,-0.09 5.66,-9.13 4.14,-21.14 -4.41,-28.09 -5.32,-4.32 -12.02,-5.37 -18.24,-3.94 0,-0.04 0,-0.09 -0.04,-0.09 -27.14,-38.58 -54.28,-77.13 -81.33,-115.29 -78.25,-111.79 -159.58,-227.07 -240.51,-336.27 11.28,-44.77 22.17,-89.01 32.62,-133.61 2.51,5.74 4.72,12.02 6.79,17.81zm784 127.39c102.93,12.4 205.91,50.55 304.29,106.33 0.26,0.13 0.48,0.31 0.73,0.44 -213.51,-37.21 -567.59,107.82 -714.24,264.49 -0.09,-0.09 -0.13,-0.17 -0.22,-0.26 -35.35,-47.49 -73.8,-95.41 -116.37,-144.89 145.05,-174.92 322.19,-250.8 525.8,-226.12zm522.39 264.24c0.13,0.13 0.26,0.26 0.39,0.39 -264.29,-49.4 -641.36,88.62 -846.01,225.69 -19.1,-28.21 -38.98,-55.87 -59.81,-83.87 143.77,-160.36 533.67,-313.5 721.47,-247 11.28,3.98 23.55,-1.95 27.57,-13.13 0.26,-0.73 0.13,-1.47 0.31,-2.17 0.12,0.09 0.26,0.13 0.38,0.22 54.19,35.3 106.43,75.66 155.7,119.87zm283.77 339.13c-271.67,-92.26 -701.5,37.76 -909.4,222.03 -0.05,-0.09 -0.09,-0.17 -0.13,-0.22 -22.04,-30.12 -43.42,-61.63 -63.61,-94.16 -44.67,-71.39 -87.2,-139.19 -131.97,-204.95 210.37,-140.48 627.75,-288.92 874.36,-203.75 3.2,1.08 6.43,1.21 9.59,0.82 0,0.05 0.04,0.09 0.09,0.09 85.99,85.87 161.17,181.92 220.37,278.85 0.27,0.43 0.48,0.87 0.7,1.3zm70.48 133.18c-253,-78.05 -605.02,77.48 -841.56,182.44l-47.06 20.74c-0.04,-0.04 -0.12,-0.12 -0.17,-0.17 -22.29,-25.71 -44.24,-51.94 -65.07,-79.59 207.36,-186.42 651.8,-317.26 906.24,-201.93 3.03,1.37 6.22,1.85 9.33,1.76 13.96,25.45 26.58,50.65 37.81,75.63 0.04,0.26 0.31,0.69 0.48,1.13zm120.38 293.19c0,0.04 0,0.09 0.05,0.09 -211.39,-67.33 -482.94,15.47 -703.42,82.91 -32.06,9.81 -62.78,19.15 -91.7,27.57 -2.07,0.61 -3.75,1.78 -5.49,2.89 -62.09,-52.06 -121.77,-108.37 -178.16,-169.47 -0.04,-0.05 -0.04,-0.1 -0.09,-0.1l34.36 -15.16c240.52,-106.64 603.84,-267.83 841.34,-170.64 1.98,0.82 4.05,0.96 6.14,1.13 0.04,0.09 0.09,0.17 0.12,0.29 27.32,62.05 64.82,147.61 96.84,240.49zm-584.61 246.26c208.37,-47.78 444.52,-102.11 639.54,-41.92 0.69,0.18 1.38,0 2.07,0.13 0,0.17 0.09,0.34 0.09,0.51 6.53,31.42 10.85,62.67 12.84,92.91 0,0.05 0,0.05 0,0.09 -153.49,-51.99 -378.97,-12.75 -528.31,54.7 -0.09,-0.09 -0.17,-0.12 -0.29,-0.21 -52.68,-31.08 -104.75,-64.05 -155.87,-99.3 -0.05,0 -0.09,-0.05 -0.09,-0.09 10.07,-2.29 19.79,-4.46 30.03,-6.83zm602.15 -194.49c0.05,0.09 0.09,0.21 0.13,0.34 11.37,35.01 21.44,70.26 29.39,105.35 -201.58,-54.02 -434.72,-0.73 -641.35,46.71 -23.25,5.32 -45.81,10.46 -68.15,15.43 -33.27,-23.3 -66.37,-48.4 -98.3,-74.07l-0.05 -0.04c22.56,-6.7 45.76,-13.79 70.05,-21.18 225.52,-69.01 506.22,-154.74 707.42,-72.69 0.29,0.17 0.6,0.05 0.86,0.13zm-46.28 504.88c-0.17,0.09 -0.31,0.17 -0.43,0.27 -0.65,-0.78 -1.04,-1.69 -1.81,-2.38 -8.91,-7.91 -22.6,-7.09 -30.51,1.76 -1.38,1.6 -2.89,2.99 -4.32,4.54l-20.74 -8.87c-26.87,-11.54 -52.46,-22.86 -77.78,-35.95 -82.67,-43.47 -165.41,-87.76 -247.74,-135.63 140.57,-56.22 342.94,-87.81 475.03,-39.71 2.85,1.08 5.74,1.11 8.65,0.94 -0.05,0.05 -0.05,0.05 -0.05,0.09 -0.56,93.86 -27.61,172.64 -100.3,214.93zm-509.55 245.06c-0.31,-1.76 -0.44,-3.63 -1.21,-5.35 -48.75,-108.86 -51.81,-257.5 -9.86,-384.55 140.01,79.21 283.21,140.53 424.14,179.07 -3.38,3.98 -5.23,9.47 -4.46,15.04 0.65,4.92 2.94,9.2 5.79,12.22 -116.67,104.31 -259.06,166.45 -414.4,183.56zm-256.3 -11.18c-41.22,-124.19 -22.6,-287.11 56.87,-497.2 49.3,34.62 99.47,66.5 149.77,96.19 0.13,0.09 0.22,0.13 0.34,0.17 -47.92,137.37 -45.93,294.41 5.49,415.87 -69,3.85 -140.18,-1.25 -212.47,-15.03zm-367.51 -155l6.57 -30c38.84,-178.46 76.26,-347.56 160.74,-517.67 70.7,64.3 144.37,124.71 220.34,179.53 0.05,0 0.05,0.05 0.09,0.05 -53.32,138.4 -115.85,337.32 -69.1,512.37 -32.67,-8 -65.42,-17.28 -98.3,-28.91 -70.22,-24.85 -145.29,-64.56 -220.34,-115.37zm-322.02 -298.34c0.99,-1.78 2.58,-3.11 3.06,-5.23 42.05,-179.07 105.31,-398.41 222.63,-523.43 70.96,88.16 148.13,171.07 230.63,248.51 -91.01,178.81 -129.63,354.08 -169.99,539.29l-2.65 12.05c-99.94,-72.98 -198.17,-165.55 -283.68,-271.19zm-103.76 -145.32c4.07,-2.99 7.44,-6.92 8.6,-12.22 38.68,-173.32 145.54,-320.12 250.46,-461.77l0.05 0c4.92,7.21 9.76,13.95 15.04,20.6 9.11,12.32 18.14,24.12 27.65,35.91 0.05,0.09 0.13,0.13 0.17,0.22 -121.07,125.87 -187.14,340.03 -230.92,521.26 -25.28,-33.57 -48.87,-68.4 -71.04,-104.01zm232.23 -510.08c-0.22,0.31 -0.56,0.43 -0.78,0.73 -105.13,141.82 -212.9,288.56 -258.49,463.97 -44.46,-78.14 -80.16,-160.19 -104.28,-244.32 55.57,-143.25 118.84,-292.16 216.28,-423.4 48.57,68.19 97.58,136.3 147.27,203.02zm-259.75 -362.51c0.13,0.22 0.26,0.39 0.51,0.56 28.22,40.19 56.96,80.72 85.74,121.65 0.04,0.09 0.04,0.13 0.09,0.22 -92,120.47 -154.57,254.85 -207.6,386.96 -38.19,-196.23 3.11,-371.2 121.25,-509.39zm-414.79 2146.91c64.69,73.59 132.28,139.61 205.12,201.07 2.43,3.37 5.32,6 8.99,7.52 45.25,37.68 92.74,73.63 143,108.25 0.34,0.48 0.43,0.99 0.77,1.47 3.03,3.85 7.18,5.92 11.59,7.08 55.7,37.76 114.5,74.24 178.25,109.85 27.78,15.56 58.07,30.72 89.14,46.24 44.51,22.29 89.58,44.89 130.89,70.09 -0.13,0 -0.17,-0.09 -0.31,-0.09 -0.09,-0.44 -0.51,-0.36 -0.99,-0.73 -28.77,-12.63 -58.69,-23.73 -89.49,-35.23 -45.93,-16.76 -92.77,-33.87 -138.49,-58.5 -94.81,-51.51 -188.06,-123.68 -278.03,-194.15 -30.29,-23.3 -60.11,-46.67 -89.27,-68.41 -57.91,-43.47 -116.67,-89.88 -173.94,-141.34 -0.04,0 -0.09,-0.09 -0.17,-0.13 0.73,-7.73 -2.5,-15.59 -9.46,-20.14 -4.85,-3.11 -10.46,-3.97 -15.69,-3.03 -0.05,-0.09 -0.13,-0.12 -0.17,-0.21 -14.96,-13.66 -30.03,-28.14 -44.29,-42.74l-0.05 -0.44c-0.04,-0.09 -0.09,-0.12 -0.17,-0.17 0.17,-8.72 -4.88,-17.06 -13.47,-20.48 -2.77,-1.08 -5.62,-1.56 -8.39,-1.47 -74.33,-77.82 -143.38,-167.62 -202.54,-274.48 -8.16,-15.04 -16.98,-31.25 -25.01,-48.45 -6.53,-12.62 -12.7,-25.76 -18.92,-39.28 -68.07,-148.95 -129.6,-348.12 -116.07,-503.12 15.04,-33.01 29.81,-65.17 44.68,-96.45 0.04,-0.09 0.09,-0.21 0.17,-0.29 -25.02,351.66 217.23,775.78 412.33,997.76zm350.53 -554.41c0.91,0.34 1.83,0.6 2.73,0.94 0.12,0.05 0.21,0.09 0.34,0.13 -48.1,8.91 -95.76,27.66 -142.43,46.24 -21.61,8.64 -42.74,17.06 -63.17,24.11 -111.54,38.24 -221.26,101.81 -310.7,179.29 -28.17,-48.45 -54.67,-98.79 -78.86,-150.55 155.91,-137.63 417.03,-155.73 592.08,-100.16zm198.69 115.68c0.05,0.04 0.09,0.09 0.13,0.12 -67.63,2.99 -137.42,12.36 -208.37,28.7 -111.83,25.88 -211.44,78.86 -307.76,130.11 -44.99,23.9 -91.48,48.31 -138.28,69.7 -11.97,-18.1 -23.64,-36.94 -35.22,-55.87 86.38,-76.23 193.46,-138.81 302.27,-176.18 21.13,-7.26 42.91,-15.9 65.17,-24.77 65.94,-26.26 134.08,-53.36 197.09,-47.87 4.88,0.47 9.37,-1.13 13.27,-3.59 41.44,22.17 78.69,48.91 111.7,79.64zm171.99 229.88c-73.11,1.52 -150.12,23.55 -206.56,44.21 -63.7,23.33 -130.89,49.91 -190.78,86.04l-15.91 9.55c-62.18,37.34 -138.15,83.18 -189.26,131.92 -29.35,-29.34 -58.21,-59.51 -86.26,-91.44 -37.54,-42.74 -75.53,-92.17 -112.65,-145.53 45.59,-21.18 90.36,-44.51 133.7,-67.54 93.86,-49.91 190.91,-101.56 297.21,-126.14 81.98,-18.97 162.52,-28.74 239.27,-28.99 0.43,-0.05 0.77,-0.22 1.16,-0.26 0.05,0 0.05,0.04 0.05,0.04 50.42,55.44 92.04,119.92 129.72,187.58 0.09,0.18 0.17,0.36 0.31,0.56zm23.8 43.61c19.88,37.25 38.68,75.53 57.39,113.43 0.05,0.09 0.13,0.22 0.17,0.31 -186.28,-2.25 -367.22,97.83 -527.45,186.71 -16.67,9.25 -32.88,18.15 -49.13,27.01 -26.14,-22.29 -51.85,-45.06 -76.74,-68.79 47.54,-45.11 120.91,-89.36 180.97,-125.41l15.95 -9.59c56.79,-34.26 121.65,-59.89 183.34,-82.45 48.84,-17.93 138.11,-45.24 215.5,-41.22zm125.71 264.07c0.04,0.05 0.04,0.09 0.09,0.13 -34.57,0.04 -85.47,13.91 -139.44,29.85l-11.93 3.5c-121.82,35.47 -247.86,76.23 -343.15,145.19 -39.85,-27.61 -78.09,-56.04 -114.6,-85.6 11.45,-6.31 22.73,-12.45 34.4,-18.92 160.67,-89.06 342.72,-190.01 523.26,-181.07 1.3,0.05 2.43,-0.38 3.67,-0.56 0.09,0.22 0.17,0.39 0.26,0.61 17.72,36.82 33.49,72.16 47.45,106.86zm77.44 244.97c-76.62,5.79 -146.96,33.57 -215.03,60.8 -28.74,11.49 -57.39,22.98 -86.33,32.71 -0.31,0.09 -0.48,0.31 -0.73,0.43 -26.84,-13.44 -53.11,-26.7 -77.3,-40.18 -54.72,-30.65 -106.09,-61.8 -154.71,-93.9 87.68,-59.56 200.11,-95.68 317.48,-129.85l12.05 -3.59c31.85,-9.33 116.37,-34.31 137.37,-27.35 2.58,0.86 5.18,1.04 7.73,0.94 0,0.05 0.05,0.1 0.05,0.1 27.27,71.25 46.93,137.89 59.42,199.86 0,0.04 0,0.04 0,0.04zm-9.86 304.95c0,0.04 0,0.04 0,0.04 -53.45,-82.75 -147.56,-137.46 -239.4,-184.42 16.77,-6.36 33.54,-12.92 50.26,-19.62 66.21,-26.49 134.65,-53.59 206.16,-58.16 15.73,101.58 9.9,188.7 -17.03,262.17zm-515.39 133.96c-0.12,-2.08 -0.17,-4.1 -0.91,-6.1 -34.6,-96.53 -11.37,-228.2 8.04,-335.06 29.26,19.44 58.26,37.25 87.9,53.2 48.14,26.48 96.84,44.24 144.16,61.66 86.38,31.71 168.18,61.87 230.7,138.75 -105.78,90.06 -295.61,104.88 -469.89,87.56zm-177.69 -29.18c-0.09,-0.04 -0.12,-0.04 -0.21,-0.04 -14.92,-125.7 3.75,-243.84 23.71,-368.73 2.85,-17.93 5.57,-35.99 8.39,-54.06 0.04,0.05 0.04,0.05 0.09,0.05 37.54,28.86 75.15,57.68 113.68,84.21 0,0 0,0 0.05,0.05l-2.63 14.48c-19.67,108.2 -43.3,241.55 -10.68,348.29 -0.26,-0.05 -0.6,-0.1 -0.82,-0.13 -46.23,-6.27 -90.96,-14.48 -131.58,-24.12zm-375.3 -146.74c-0.09,-0.04 -0.17,-0.09 -0.26,-0.12 -26.92,-163.17 30.29,-379.49 106.48,-514.28 55.65,49.4 112.83,94.29 169.21,136.6 29.18,21.73 58.56,44.72 88.38,68.1l4.36 3.32 0 0c-3.8,25.88 -7.95,51.76 -12.05,77.57 -18.72,117.22 -37.64,238.35 -25.5,364.28 0,0 -0.04,0 -0.09,-0.05 -24.36,-6.17 -46.75,-13.18 -66.93,-20.39 -100.47,-35.87 -188.15,-73.94 -263.6,-115.03zm73.51 -544.17c-76.57,130.76 -138.57,341.08 -120.95,517.16 -20.65,-12.22 -40.5,-25.01 -59.16,-38.36 2.51,-46.55 8.68,-94.04 15.38,-138.67 16.12,-108.04 56.05,-198.44 98.35,-294.1 11.16,-25.32 22.39,-51.25 33.4,-77.48 0.05,0.26 0.05,0.34 0.05,0.34 11.45,10.58 22,20.87 32.93,31.11zm-359.74 299.45c1.18,-2.67 2,-5.57 1.95,-8.68 -0.91,-158.97 84.87,-379.66 185.21,-480.21l0.05 0.05c34.09,44.59 69.87,85.9 106.55,124.45 0.05,0.04 0.05,0.04 0.05,0.04 -13.06,31.93 -26.53,63.05 -39.97,93.47 -43.47,98.43 -84.57,191.34 -101.59,305.2 -5.49,36.77 -10.15,75.63 -13.4,114.52 -0.21,-0.22 -0.48,-0.34 -0.73,-0.56 -58.69,-46.36 -104.62,-95.32 -138.11,-148.26zm-534.1 35.44c128.55,11.4 274.05,64 391.85,142.43l7.78 5.13c40.02,26.53 94.84,62.87 109.07,104.14 1.16,3.47 3.37,6.22 5.88,8.56 2.81,26.67 4.88,51.2 6.17,73.24 -106.13,-105.34 -252.7,-152.71 -395.17,-198.9 -52.6,-17.63 -102.76,-33.4 -150.38,-53.01 8,-27.14 15.99,-54.32 24.8,-81.59zm420.11 -98.86c42.17,87.54 67.59,183.04 82.11,269.59 0,0.05 0,0.05 0,0.09 -24.85,-23.29 -54.14,-42.99 -78.74,-59.24l-7.64 -5.14c-120.86,-80.42 -269.77,-134.83 -402.99,-148.47 0.04,-0.22 0.09,-0.44 0.17,-0.65 33.97,-108.07 68.71,-213.65 103.97,-315.33 129.89,24.8 231.79,111.97 303.13,259.15zm195.36 -588.34c25.06,45.76 52.21,87.76 79.9,127.48 -97.58,94.24 -180.67,286.53 -198.78,449.87 -71.03,-177.81 -57.3,-486.39 96.36,-620.48 7.35,15.13 14.99,29.78 22.51,43.13zm-41.57 -83.27c-155.65,127.04 -188.27,408.96 -139.7,606.44 -74.45,-128.91 -177.51,-208.9 -302.92,-235.64 106.26,-301.71 215.77,-573.34 319.38,-805.73 10.6,146.44 64.96,309.49 123.24,434.93zm-50.69 1178.64c0.22,115.59 -16.72,226.57 -46.62,332.31 -0.05,0.13 -0.09,0.22 -0.09,0.39 -30.26,-43.44 -80.59,-81.89 -113.05,-104.02 -111.61,-75.96 -237.14,-123.67 -358.62,-169.77 -41.7,-15.86 -83.48,-31.9 -125.05,-48.96 0.04,-0.05 0.04,-0.09 0.04,-0.13 26.32,-100.04 54.19,-198.51 82.75,-294.96 48.09,19.57 99.65,35.99 149.43,52.24 153.53,50.38 312,101.8 410.99,225.09l0.04 0.43c-0.04,2.63 0.31,5.23 0.17,7.39zm-92.95 467.82c0,0.05 -0.04,0.09 -0.04,0.13 -18.37,-45.25 -63.27,-90.88 -137.12,-138.67 -151.29,-97.87 -317.09,-152.23 -447.54,-188.75 7.21,-29.78 14.91,-59.11 22.64,-88.55 0,-0.04 0.05,-0.12 0.05,-0.17 40.31,16.43 80.81,32.1 121.25,47.45 124.57,47.32 242.25,92.04 349.63,165.15 64.21,43.73 108.21,90.09 117.66,124.11 0.26,0.94 0.87,1.68 1.26,2.58l0 0c-8.17,26.02 -17.76,51.34 -27.79,76.7zm-595.19 -285.33c127.38,35.66 288.53,88.59 434.57,183.05 76.02,49.22 118.36,94.84 125.83,135.6 1.47,7.78 7.04,13.57 13.91,16.12 -18.53,42.14 -39.32,83.7 -61.61,124.19 -0.05,0.12 -0.09,0.21 -0.13,0.29 -16.03,-33.95 -46.02,-68.45 -91.35,-104.31 -131.02,-103.75 -300.07,-187.31 -452.16,-223.57 -0.31,-0.09 -0.61,0.04 -0.96,-0.05 10.46,-43.99 20.96,-87.63 31.9,-131.32zm249.24 828.04c-32.67,-24.99 -64.22,-51.47 -97.32,-79.69 -82.66,-70.38 -168.27,-142.76 -275,-186.06 0,-0.13 0.05,-0.22 0.05,-0.36 24.58,-131.58 52.02,-261.35 81.54,-388.81 0.17,0.09 0.34,0.21 0.56,0.26 146.27,34.87 309.01,115.41 435.36,215.41 55.83,44.24 85.61,85.08 88.5,121.43 0.05,0.21 0.13,0.34 0.17,0.56 -69.1,115.41 -149.9,221.59 -233.86,317.26zm-76.92 82.91c-19.35,-10.11 -37.8,-22.72 -57.3,-36.25 -9.2,-6.36 -18.36,-12.75 -27.7,-18.85 -23.25,-15.2 -47.44,-34.17 -73.07,-54.26 -52.12,-40.8 -106,-82.58 -162.48,-101.85 0.05,-0.13 0.09,-0.27 0.09,-0.39 5.28,-31.28 10.98,-62.62 16.77,-93.51l-0.04 -0.17c96.83,41.18 177.43,109.24 255.3,175.57 31.2,26.53 63.39,53.54 96.19,78.77 -0.05,0.05 -0.1,0.09 -0.1,0.09 -15.85,17.37 -31.71,34.31 -47.66,50.86zm-144.97 140.18c-31.5,27.92 -62.75,54.45 -93.99,81.03 -57.78,48.96 -112.88,95.41 -163.99,148.69 19.35,-181.75 44.72,-361.25 74.84,-537.51 47.58,18.02 96.19,55.32 143.38,92.3 26.36,20.66 51.3,40.15 76.05,56.39 8.99,5.88 17.88,12.02 26.79,18.19 16.25,11.33 33.28,22.48 50.82,32.55l-0.17 0.21c-38.29,38.43 -76.48,74.67 -113.73,108.16zm-695.67 -195.19c-50.34,-50.16 -94.12,-103.96 -132.09,-160.35 17.8,-12.02 35.34,-24.24 52.93,-36.6 41.7,-29.21 84.79,-59.46 131.24,-84.87 49.35,-26.96 104.35,-48.43 157.51,-69.27 19.13,-7.47 38.24,-14.94 57.03,-22.69l10.98 -4.5c58.82,-24.11 156.21,-63.9 210.45,-55.05 -13.74,70.74 -26.92,142.73 -39.63,215.07 -35.66,202.97 -54.41,411.89 -54.02,610.71 0.09,0.43 0.09,0.43 0.09,0.43 -0.05,0.34 0,0.65 0,0.99 -66.11,-103.61 -157.2,-182.95 -253.14,-265.76 -47.1,-40.7 -95.84,-82.79 -141.34,-128.13zm-257.33 -418.89c52.16,-35.9 102.5,-65.63 159.84,-93.9 93.82,-46.19 181.84,-73.11 303.74,-92.9 16.89,-2.73 35.13,-6.19 54.23,-9.77 85.56,-16.07 192.04,-36.07 263.94,-6.74 0.13,0.09 0.31,0.05 0.43,0.09 -9.9,48.45 -19.35,96.79 -28.65,146.01 -0.04,0.09 -0.04,0.22 -0.09,0.36 -66.67,-11.45 -167.62,29.81 -234.94,57.51l-10.89 4.45c-18.63,7.66 -37.51,15.04 -56.48,22.43 -54.4,21.35 -110.71,43.35 -162.43,71.64 -48.57,26.54 -92.69,57.47 -135.34,87.42 -16.89,11.84 -33.8,23.59 -50.86,35.13 -43.3,-70.57 -77.92,-144.71 -102.5,-221.72zm-14.74 -576.88c1.52,-0.34 3.07,-0.43 4.53,-1.11 214.59,-100.6 523.43,-83.4 613.05,-75.71 95.93,8.21 181.32,22.09 267.88,43.25 -28.05,118.93 -54.45,240.22 -80.04,364.46 0,0.12 -0.04,0.26 -0.04,0.34 -82.98,-30.17 -192.33,-10.07 -280.8,6.65 -18.7,3.5 -36.6,6.87 -53.19,9.55 -126.48,20.48 -218.01,48.52 -315.93,96.79 -54.79,26.96 -103.36,55.22 -152.97,88.62 -46.33,-171.5 -47.54,-353.78 -2.51,-532.85zm895.48 -75.87c-0.04,0.09 -0.04,0.12 -0.09,0.26 -88.67,-21.69 -176.01,-35.87 -274.13,-44.29 -88.45,-7.61 -384.67,-23.76 -606.7,67.63 23.46,-77.49 55.57,-153.97 96.45,-228.38 66.46,0.96 132.4,-1.2 196.18,-3.45 143.63,-5.01 279.36,-9.76 421.92,19.57 63.92,13.14 128.82,32.33 197.82,58.34 -0.04,0.17 -0.09,0.26 -0.12,0.39 -10.63,42.91 -21.22,86.25 -31.33,129.94zm-681.06 -364.8c26.7,-35.08 58.33,-70.91 93.12,-106.3 41.01,-22.56 80.16,-46.55 117.02,-71.13 0.05,-0.04 0.1,-0.04 0.13,-0.04 35.78,7.3 74.11,10.53 111.53,13.44 31.9,2.46 62.05,4.79 90.36,9.59 83.53,14.09 156.33,32.62 222.63,56.6 43.78,15.9 98.57,39.03 143.98,74.76 -19.01,70.62 -37.42,142.35 -55.65,215.46 -69.44,-25.93 -135,-45.28 -199.73,-58.55 -147.61,-30.38 -292.24,-25.33 -432.11,-20.44 -55.32,1.95 -112.28,3.5 -169.48,3.33 23.89,-39.59 49.3,-78.74 78.21,-116.72zm65.64 -140.48c-83.54,45.98 -167.37,83.27 -250.25,111.75l-0.04 0c-0.09,-0.56 0.09,-1.16 0,-1.78 0.17,-1.03 0.6,-1.94 0.6,-3.01 3.03,-166.42 -62.79,-365.49 -200.16,-607.65 89.15,-92.91 184.04,-182.27 281.57,-267.62 93.99,135.22 145.03,306.9 192.69,485.97 19.23,72.21 37.34,148.35 29.42,215.76 -0.56,4.8 0.82,9.16 3.03,13.05 -19.66,17.55 -38.5,35.44 -56.43,53.5l-0.43 0.04zm-323.49 134.04l-13.49 3.59c-43.34,11.67 -92,25.37 -142.95,38.51 -29.25,-154.14 -63.44,-326.78 -157.94,-461.56 49.27,-62.48 102.19,-123.27 157.17,-181.79 128.68,229.58 190.69,417.68 187.79,573.38 0,0.78 0.36,1.42 0.39,2.2 0,0.09 -0.09,0.13 -0.09,0.22 -0.87,3.58 -1.69,10.28 -1.9,17.06 0,0.05 0,0.05 -0.05,0.05 -9.63,3.06 -19.32,5.7 -28.94,8.33zm-272.97 70.4c-0.09,0 -0.17,0.05 -0.27,0.05 -0.6,-2.68 -1.59,-5.37 -2.89,-7.78 -9.37,-80.51 -39.88,-252.8 -130.37,-357.93 0.04,-0.09 0.09,-0.17 0.17,-0.26 20.57,-29.69 41.66,-58.98 64.09,-87.59 83.87,126.53 116.15,289.74 143.8,435.8 -0.09,0 -0.13,0.04 -0.22,0.04 -24.45,5.97 -49.39,12.07 -74.32,17.68zm-108.25 23.25c-1.83,-90.01 -65.13,-207.07 -105.01,-265.84 0.17,-0.21 0.31,-0.48 0.39,-0.69 17.32,-29.43 35.69,-57.69 54.02,-85.95 0,-0.04 0.04,-0.04 0.04,-0.09 80.94,101.42 106.48,267.05 113.82,336.24 0.09,1.08 0.7,2.02 0.96,3.06 -21.18,4.67 -42.35,8.91 -63.57,13.14 -0.21,0.04 -0.43,0.09 -0.64,0.12zm-248.08 24.58c32.96,-86.5 72.98,-169.21 118.61,-249.16 41.14,64.96 88.41,163.73 86.6,231.75 -74.16,12.45 -144.67,19.97 -205.21,17.41zm-60.46 -163.07c0.73,-13.66 1.47,-27.27 1.86,-40.41 3.54,-151.37 33.83,-320.46 87.03,-491.36 35.47,7.69 71.47,10.84 106.6,13.74 48,3.97 93.6,8.43 137.24,23.16 -80.11,107.77 -152.06,224.01 -211.96,349.06 -58.94,122.85 -94.11,218.92 -106.43,290.82 -19.61,-40.92 -16.84,-93.64 -14.34,-145.02zm266.32 -950.2c0,0 0,-0.04 0.04,-0.09 85.27,2.85 186.04,27.14 277.86,67.71 10.2,4.5 25.63,14.56 40.58,24.33 17.28,11.28 31.54,20.14 44.12,26.63 -0.1,0.09 -0.18,0.17 -0.27,0.29 -66.16,64.52 -130.54,132.28 -191.69,204.4 0,0.04 0,0.04 0,0.04 -67.32,-38.28 -162.52,-45.85 -247.38,-52.16 -16.77,-1.3 -32.55,-2.6 -47.8,-3.97 0,-0.05 0,-0.05 0,-0.05 35.47,-90.4 76.74,-180.28 124.54,-267.14zm235.72 -343.62c170.16,15.61 324.78,70.22 471.7,166.07 -103.61,79.2 -208.71,166.92 -310.39,263.67 -9.11,-0.48 -37.81,-19.23 -54.96,-30.38 -17.11,-11.2 -33.32,-21.78 -46.72,-27.66 -88.76,-39.18 -185.94,-64.12 -271.42,-70.3 61.75,-107.82 132.58,-209.89 211.79,-301.41zm218.09 -208.41c0.34,-0.26 0.65,-0.43 0.99,-0.69 42.48,13.39 90.7,17.28 137.92,20.48 41.1,2.76 79.86,5.4 114.12,14.04 57.44,14.53 111.18,34.57 164.3,61.23 28.14,14.17 51.94,35.01 74.98,55.18 10.58,9.25 21.47,18.45 32.67,27.18 -0.05,0.05 -0.09,0.09 -0.13,0.13 -7.18,4.92 -14.34,9.8 -21.52,14.74 -68.93,47.49 -140.35,98.78 -213.04,153.7 -0.17,0.12 -0.34,0.26 -0.51,0.39 -147.61,-98.87 -302.78,-156.95 -472.69,-177.34 0.12,-0.09 0.21,-0.22 0.34,-0.36 57.17,-62.83 117.89,-119.17 182.57,-168.69zm150.33 -99.25c17.5,-9.38 35,-18.32 52.63,-26.45 0.09,-0.05 0.17,-0.05 0.26,-0.13 23.85,9.93 47.7,19.49 71.25,28.87 130.16,51.63 253.05,100.55 337.09,216.27 -0.04,0 -0.04,0.05 -0.09,0.05 -16.24,10.45 -32.41,21.3 -48.62,32.14 -14,-9.76 -27.73,-21.22 -42.09,-33.78 -25.06,-21.91 -50.98,-44.6 -84,-61.23 -55.95,-28.14 -112.61,-49.22 -173.19,-64.52 -37.98,-9.64 -80.55,-12.53 -121.73,-15.3 -32.5,-2.2 -65.37,-4.84 -95.54,-10.46 33.49,-24.11 68.58,-45.85 104.02,-65.46zm255.16 -94.94c0.09,-0.04 0.13,-0.04 0.17,-0.04 1.69,1.25 3.3,2.58 5.37,3.37 104.01,40.27 281.88,125.36 305.33,242.59 -22.82,14.43 -46.11,28.99 -68.53,43.42 -0.04,0.05 -0.12,0.09 -0.22,0.13 -91.43,-126.91 -220.51,-178.21 -357.18,-232.44 -10.68,-4.24 -21.52,-8.73 -32.33,-13.06 0.13,-0.04 0.22,-0.12 0.34,-0.17 48.79,-19.35 97.8,-33.97 147.05,-43.81zm570.92 87.85c-75.05,43.95 -149.6,88.67 -221.84,134l0 0c-30.63,-104.14 -151.63,-181.72 -268.27,-233.91l0 0c162.57,-16.72 327.72,16.77 490.11,99.9zm-1570.8 967.43l0 -0.05c18.92,2 39.15,3.64 60.58,5.23 77.35,5.79 163.82,12.62 222.63,42.96 0,0 0,0 0,0.04 -16.41,20.14 -33.23,40.8 -49.08,61.71 -0.05,0.05 -0.09,0.09 -0.09,0.13 -53.03,-20.48 -107.69,-25.59 -160.76,-29.95 -33.66,-2.77 -65.85,-5.49 -96.96,-11.93 7.69,-22.81 15.51,-45.24 23.68,-68.14zm1658.39 -968.17c125.97,-73.2 252.4,-143.42 371.28,-208.28 38.55,-20.99 91.61,-40.96 147.56,-62.23 85.05,-31.76 176.69,-66.24 245.19,-113.65 -4.75,9.81 -9.98,19.28 -14.74,29.08 0.04,0.44 -0.39,0.53 -0.73,1 -29.56,35.47 -71.73,52.62 -119.18,72.25 -19.83,8 -40.1,16.03 -60.06,26.19 -178.52,87.89 -368.6,183.43 -556.71,287.06 -1.16,1.03 -2.38,1.64 -3.63,2.24l-29.47 4.5c-3.28,4.41 -4.75,9.81 -4.53,14.56 -128.43,71.39 -255,146.88 -376.51,227.34 -0.09,0.04 -0.17,0.09 -0.26,0.12 -7.69,-0.12 -15.16,3.64 -19.19,10.85 -0.38,0.65 -0.38,1.42 -0.69,2.12 -0.09,0.09 -0.17,0.12 -0.26,0.17 -93.51,62.18 -183.17,126.91 -268.05,194.45 -196.44,157.12 -391.2,323.09 -565.34,505.92 -0.43,0.04 -0.39,0.48 -0.82,0.51 -0.21,0.22 -0.43,0.44 -0.65,0.7 -0.69,0.29 -1.47,0.29 -2.16,0.69 -4.32,2.51 -7.13,6.39 -8.91,10.72 -0.17,0.17 -0.31,0.34 -0.48,0.51 -121.03,128.35 -231.35,264.42 -324.09,411.13 255.69,-486.31 696.36,-833.3 1056.27,-1083.16 150.81,-105 321.28,-210.05 493.36,-309.69 14.09,-8.51 28.65,-17.03 42.77,-25.11zm62.92 1223.85c-117.2,-45.16 -244.45,-38.41 -368.56,0.51 160.11,-160.88 374.52,-434.58 404.26,-769.05 9.71,-109.49 25.58,-285.33 -58.65,-390.16 185.29,-101.89 372.19,-195.32 548.67,-282 18.75,-9.59 38.16,-17.5 57.2,-24.94 17.72,-7.21 35.91,-14.56 53.5,-23.08 -5.19,9.86 -10.46,18.89 -16.08,28.82 -235.93,408.1 -443.39,895.96 -620.34,1459.88zm-634.83 -771.99c0.05,-0.09 0.13,-0.12 0.22,-0.17 13.18,15.86 26.4,31.33 39.27,46.07 49.35,56.47 91.95,105.31 123.34,179.33 18.84,44.46 30.84,89.06 43.64,136.25 8.29,30.63 16.59,61.36 26.79,91.92 29.64,88.76 44.6,156.51 32.93,240.39 -0.65,4.84 0.6,9.28 2.81,13.27 0,0 0,0 -0.04,0.04 -34.48,36.99 -70.57,72.43 -108.94,106.43 -0.17,0.09 -0.38,0.17 -0.56,0.26 -0.21,0.05 -0.51,0.09 -0.51,0.09 -0.09,0.09 -0.26,0.22 -0.34,0.34 -43.25,19.88 -85.52,43.21 -126.31,68.89l-0.34 -4.54c-6.48,-80.33 -13.13,-163.43 -40.27,-239.74l-4.58 -12.7c-25.1,-70.69 -51.12,-143.77 -79.42,-213.72 -26.96,-66.68 -64.09,-120.82 -100.04,-173.24 -12.57,-18.32 -25.06,-37.08 -37.34,-56.22 46.02,-38.58 92.22,-76.31 138.59,-113.22 29.86,-23.71 60.24,-47.1 91.13,-69.7zm173.58 -122.47c195.62,119.53 282.73,384.29 280.32,584.66 -0.05,2.34 0.6,4.54 1.25,6.65 0,0.05 0,0.05 -0.04,0.13 -40.72,65.3 -88.55,128.98 -142.48,190.04 3.76,-74.11 -11.49,-138.88 -38.36,-219.34 -9.95,-29.73 -18.02,-59.63 -26.1,-89.49 -12.58,-46.5 -25.58,-94.64 -45.54,-141.82 -34.1,-80.42 -80.98,-134.09 -130.64,-190.91 -12.1,-13.83 -24.55,-28.52 -36.94,-43.39 45.03,-33.13 91.53,-65.29 138.54,-96.53zm400.23 -242.85c78.69,89.88 63.44,260.4 53.8,364.67 -11.58,131.15 -58.02,268.44 -132.49,402.57 0.05,0.43 0.05,0.43 0.05,0.43 -0.05,0.05 -0.05,0.13 -0.09,0.17 -13.44,-196.7 -102.59,-430.95 -282.13,-551.29 0.12,-0.05 0.22,-0.13 0.31,-0.17 116.49,-75.83 237.79,-147.96 360.55,-216.37zm-706.64 1140.11c-49.18,-184.64 -101.85,-361.98 -201.55,-503.51 0.05,0 0.09,-0.09 0.13,-0.09 23.37,-20.26 46.75,-40.48 70.6,-60.36 0.13,-0.09 0.26,-0.22 0.39,-0.31 11.66,17.93 23.37,35.74 35.25,53.03 36.22,52.84 70.4,102.72 95.59,165.03 27.95,69.1 53.8,141.73 78.77,211.99l4.53 12.7c25.25,71 31.73,151.15 37.95,228.73l1.95 24.24c0.12,1.25 0.69,2.29 1.03,3.45 -31.97,21.9 -62.7,45.11 -92.08,69.27 2.07,-66.89 -14.74,-137.24 -32.58,-204.18zm659.62 365.62c-0.09,0.29 -0.17,0.56 -0.26,0.86 -46.89,-33.35 -99.17,-55.56 -141.7,-71 -68.74,-24.89 -144.02,-44.07 -230.1,-58.64 -30.24,-5.1 -62.79,-7.56 -94.24,-10.03 -20.65,-1.59 -41.61,-3.28 -62.1,-5.61 58.82,-41.27 110.33,-81.89 154.4,-119.35 9.98,-8.21 20.31,-17.37 31.73,-27.52 145.1,-65.39 299.42,-89.83 437.6,-35.3 -32.88,106.13 -64.52,215.11 -95.32,326.6zm1007.28 -3825.35c-18.29,9.47 -36.6,18.97 -54.97,28.48 -6.91,3.59 -13.74,7.56 -21.13,11.2 -5.66,2.98 -11.37,5.92 -17.03,9.37 -65.46,34.31 -129.07,69.7 -191.43,104.48 -55.87,31.25 -111.01,61.97 -165.84,91.35l-34.1 18.24c-96.02,50.29 -192.94,97.27 -297.3,137.41 -131.36,50.39 -248.17,101.42 -353.73,155.22 -12.27,6.05 -24.07,12.05 -35.87,18.5 -127.3,66.81 -238.75,138.06 -342.77,218.69 -11.4,8.99 -22.81,17.97 -33.83,26.92 -23.11,18.88 -46.19,38.19 -68.79,57.9 -25.32,21.78 -50.43,42.26 -76.1,61.53 -11.06,8.51 -22.12,17.03 -32.84,24.63 -19.32,14.82 -38.76,28.87 -58.24,42.48 -40.1,28.65 -81.03,57.82 -121.85,90.53 13.13,-12.27 26.18,-24.98 39.83,-36.91 44.68,-39.75 88.11,-78.91 130.72,-117.92 165.11,-150.16 320.93,-291.64 517.33,-411.21 218.87,-133.56 465.75,-241.33 704.41,-345.39 133.31,-58.07 268.21,-117.24 399.83,-181.19 11.88,-5.57 24.16,-11.67 36,-17.63 167.75,-83.35 329.49,-175.87 473.82,-286.97 -4.32,22.43 -8.65,44.81 -12.62,66.76 -118.02,96.11 -247.05,163.17 -383.51,233.52zm-60.24 293.54c-5.83,172.72 -91.53,348.51 -209.45,499.15 -0.34,-49.69 -4.15,-102.81 -18.37,-158.42 -3.85,-15.16 -7.9,-32.07 -12.18,-50.21 -23.55,-101.47 -55.49,-234.9 -117.06,-307.98 51.25,-27.13 102.19,-56 154.04,-84.95 59.98,-33.15 121.52,-67.81 184.57,-100.91 19.83,67.88 20.96,139.32 18.45,203.31zm-441.49 733.14c-0.22,0.17 -0.44,0.29 -0.65,0.47 3.93,-66.67 -4.32,-139.39 -12.7,-207.76 -10.89,-88.72 -45.59,-169.53 -79.17,-247.69 -25.8,-60.07 -49.87,-116.98 -63.74,-176.14 69.06,-30.41 135.51,-63.56 201.72,-98.38 58.72,62.09 91.53,201.53 113.77,296.6 4.85,18.97 8.43,35.91 12.27,51.08 18.07,70.82 18.67,138.33 16.34,200.64 -58.6,68.28 -122.59,129.41 -187.93,180.75 0.09,0.44 0.09,0.44 0.09,0.44zm-59.25 44.81c-108.02,76.83 -220.81,138.15 -336.97,187.33 19.67,-80.68 26.75,-161.01 20.41,-238.83 -4.63,-57.08 -19.59,-110.45 -34.1,-162.09 -6.31,-22.46 -12.62,-45.03 -18.19,-68.06 -4.63,-19.28 -8.26,-41.74 -12.05,-65.34 -10.63,-64.94 -22.43,-137.37 -58.38,-185.68 72.5,-33.57 150.37,-66.11 234.03,-98.14 23.2,-8.86 45.51,-18.02 67.76,-27.22 0.17,-0.09 0.34,-0.17 0.51,-0.22 15.04,60.24 39.66,118.79 64,175.49 32.4,75.41 65.85,153.31 76.43,239.74 8.82,71.51 18.8,152.54 10.63,220.85 -0.43,3.67 0.34,7.04 1.56,10.24 -0.09,0.05 -0.17,0.13 -0.31,0.22 -5.05,4.19 -10.24,7.95 -15.34,11.71zm-476.8 240.25c63.34,-182.78 -6.96,-521.6 -80.12,-716.53 24.89,-12.62 50.17,-25.23 76.4,-37.59 0.05,-0.05 0.13,-0.09 0.17,-0.09 34.31,38.45 46.33,109.97 56.74,173.88 4.07,24.8 7.91,48.31 12.75,68.53 5.66,23.55 12.14,46.63 18.58,69.66 14.6,51.9 28.39,100.94 32.67,153.89 6.22,76.14 -0.96,154.95 -21.3,234.25 -1.64,6.35 -0.05,12.62 3.41,17.63 -0.04,0 -0.04,0.05 -0.09,0.05 -32.62,13.17 -65.85,25.23 -99.21,36.33zm-314.29 80.89c22.26,-177.12 -33.49,-404.16 -137.07,-563.87 100.81,-78.47 209.36,-148.43 333.03,-213.46 71.95,195.97 134.57,520.14 76.88,683.83 -3.15,8.77 -0.09,18.37 7.21,23.9 -92.33,29.3 -186.03,52.24 -280.05,69.61zm-177.34 26.62c0.99,-2.33 1.51,-5.01 1.13,-7.56 -1.52,-33.4 -7.91,-111.01 -21.35,-164.55 -19.01,-77.65 -57.69,-149.07 -91.65,-211.99 -10.63,-19.92 -20.66,-39.03 -30.21,-57.78 27.61,-20.82 55.53,-42.99 83.22,-66.89 21.44,-18.67 42.91,-36.89 64.86,-54.74 98.53,154.35 151.77,379.05 127.05,544.73 -44.33,7.44 -88.33,13.95 -133.05,18.79zm-600.34 24.38c26.48,-32.45 50.25,-68.88 74.28,-106.64 39.88,-61.76 80.76,-125.88 140.09,-176.4 51.9,-44.21 105.17,-82.11 156.33,-118.83 17.5,-12.45 34.92,-25.28 52.77,-38.24 8.46,17.15 17.37,34.26 27.22,52.11 34.14,63.78 69.8,129.51 87.59,201.63 11.71,46.84 18.24,119.61 20.31,156.42 0.09,3.93 1.47,7.66 3.59,10.42 -190.83,20.65 -380.65,23.29 -562.18,19.53zm-29.09 -286.89c-2.98,-127.39 5.93,-249.89 24.8,-366.74 38.85,20.27 80.94,34.22 122.07,47.4 78.22,25.11 151.97,49.44 200.85,115.07 -27.35,25.02 -55.13,50.14 -83.31,75.28 -115.85,102.28 -207.89,218.78 -266.83,335.49 -0.26,-29.73 0.29,-59.49 1.16,-90.13 1.08,-37.38 2.2,-76.05 1.25,-116.38zm1151 -791.2c-0.26,-1.83 -0.38,-3.67 -1.21,-5.49 -99.51,-225.92 -396.64,-400.15 -638.63,-457.58 28.44,-22.04 57.83,-42.65 88.33,-61.75 224.1,38.67 585.91,193.89 650.87,462.76 0.94,4.02 3.2,7.21 5.92,9.93 -35.13,17.03 -70.26,34.1 -104.83,51.95 -0.13,0.04 -0.27,0.12 -0.44,0.17zm-335.45 195.79c-0.09,0.05 -0.17,0.13 -0.31,0.22 -75.53,-205.7 -239.21,-358.24 -499.31,-465.35 46.45,-58.55 97.49,-112.09 153.05,-159.75 1.18,0.48 2.25,1.21 3.55,1.47 236.15,47.44 539.89,217.57 637.72,439.55 1.25,2.82 3.71,4.41 5.83,6.36 -0.26,0.17 -0.56,0.31 -0.82,0.48 -67.33,34.17 -133.36,70.74 -196.92,109.63 -35.4,21.42 -69.8,44.07 -102.81,67.41zm-302.48 241.94c-0.17,0.13 -0.36,0.31 -0.53,0.43 -55.27,-135.77 -295.66,-221.67 -430.18,-259.88 48.7,-153.87 118.28,-292.67 206.13,-412.16 259.23,104.36 419.85,253.48 490.2,455.32 -94.33,67.98 -180.23,140.4 -265.62,216.28zm-132.67 119.92c0,0 0,0 0.05,0.43 -0.09,0.04 -0.17,0.12 -0.26,0.26 -56.99,-74.5 -139.61,-101.77 -220.08,-127.6 -45.98,-14.78 -89.41,-29.18 -127.78,-51.52 10.24,-54.66 23.16,-107.68 38.03,-159.41 117.75,33.59 368.42,118.84 406.57,244.8 0.39,1.38 1.21,2.43 1.86,3.59 -27.92,25.23 -55.75,50.91 -84,76.57 -4.7,4.15 -9.73,8.77 -14.39,12.89zm686.34 -1280.9c143.77,95.24 382.51,286.49 462.98,547.02 -78.99,34.44 -158.29,69.8 -236.9,106.82 -0.12,0 -0.26,0.09 -0.34,0.13 -0.12,-1 0.13,-1.95 -0.12,-2.9 -65.81,-272.53 -395.57,-432.02 -637.21,-485.7 144.37,-81.71 280.97,-136.85 411.59,-165.37zm502.9 529.26c-0.12,0.05 -0.21,0.09 -0.34,0.13 -79.2,-249.72 -293.79,-436.48 -442.74,-540.88 41.27,-6.53 81.97,-10.07 122.16,-11.06 2.84,4.36 7.13,7.81 12.57,9.2 171.9,44.51 446.43,281.88 447.29,479.27 0,0.73 0.39,1.38 0.48,2.12 -0.13,0.09 -0.26,0.09 -0.39,0.17 -26.7,11.97 -53.88,23.54 -80.59,35.52 -19.37,8.33 -39.06,17.2 -58.43,25.53zm440.12 -198.08c-85,40.96 -171.65,79.94 -258.32,118.06 -0.34,0.13 -0.65,0.31 -0.99,0.43 -12.1,-181.45 -212.22,-381.08 -385.37,-468.2 225.35,25.06 436.05,141.43 644.68,349.71zm670.48 -2069.03l-27.83 6.86c-89.54,21.14 -180.71,40.24 -268.56,58.04 -14,2.77 -28,5.57 -42,8.39 -29.3,5.78 -57.78,11.45 -86.21,17.15 -10.2,1.86 -20.36,4.1 -30.55,5.97 -10.63,1.9 -20.84,4.15 -31.03,6 -150.3,29.91 -290.25,58.82 -397.85,91.53 -62.79,19.15 -131.32,37.78 -202.76,57.64 -125.83,34.79 -261.77,72.29 -394.65,118.88 57.47,-28.69 112.26,-54.74 160.92,-77.82l52.03 -24.77c237.11,-113.73 502.13,-177.86 758.45,-239.86 100.99,-24.42 205.43,-49.74 306.08,-77.57 41.13,-11.4 85.39,-22.91 131.7,-34.96 6.1,-1.59 12.32,-3.2 18.41,-4.79l0.53 -0.17 0 0c269.72,-70.31 590.75,-156.82 793.1,-333.64 -0.04,0.17 -0.17,0.34 -0.26,0.51 -0.39,0.04 -0.34,0.48 -0.34,0.48 -26.02,45.46 -51.16,90.83 -75.41,136.45 -134,132.31 -391.54,219.34 -663.78,285.69zm-64.21 451.17c-69.49,135.25 -186.38,252.1 -318.9,344.58 52.54,-178.73 65.15,-374.99 77.68,-565.6 2.65,-40.92 4.94,-81.37 8.13,-121.08 91.3,-18.29 183.74,-37.56 274.17,-58.77 40.32,134.43 26.58,268.95 -41.08,400.88zm-490.59 447.2c87.2,-234.51 98.04,-509.94 107.51,-754.22l0.09 -5.66c10.24,-1.86 20.35,-4.15 31.03,-6.05 24.63,-4.7 49.65,-9.9 74.76,-14.65 -2.85,36.13 -4.75,73.08 -7.13,109.54 -13.49,203.02 -26.75,413.32 -88.93,598.15 -1,2.33 -1.47,4.96 -1.18,7.13 -38.16,24.02 -77,45.97 -116.15,65.77zm-221.99 89.06c-84.13,25.15 -166.45,45.2 -245.88,60.53 6.19,-66.5 12.32,-140.13 18.8,-217.7 15.38,-184.64 32.84,-393.13 56.65,-572.64 26.02,-7.52 51.59,-14.94 75.88,-22.26 102.15,-31.11 236.1,-59.15 380.48,-87.8 -9.98,253.48 -21.57,539.5 -119.22,773.71 -0.7,1.38 -0.96,2.72 -0.78,4.02l-0.43 0.04c-56.65,25.71 -112.23,46.5 -165.51,62.1zm-441.06 87.94l-0.04 0c4.02,-66.89 5.27,-140.09 6.39,-217.53 2.72,-185.81 5.97,-395.9 54.1,-541.96 0.04,-0.05 0.09,-0.05 0.09,-0.05 27.7,-7.73 55.01,-15.47 81.93,-22.69 28.09,-7.78 55.78,-15.08 83,-22.69 -22.77,176.26 -39.63,377.32 -54.57,556.22 -6.65,80.43 -13.06,156.78 -19.49,225.14 -0.13,1.35 0.29,2.55 0.43,3.9 -0.04,0 -0.09,0 -0.13,0l-0.43 0.09c-51.64,8.38 -101.77,14.91 -151.29,19.57zm-243.14 5.14l0.43 -13.23c6.7,-201.67 15.08,-452.43 35.87,-670.91 0.09,-0.05 0.13,-0.05 0.17,-0.05 72.98,-24.5 145.89,-46.31 217.65,-66.67 0.22,-0.05 0.44,-0.13 0.7,-0.22 -42.48,150.08 -45.93,349.67 -48.53,527.8 -1.16,79.2 -2.38,154.04 -6.61,221.45 -68.57,5.06 -135.12,5.59 -199.67,1.83l0 0zm-311.52 -285.07c-10.2,-80.12 -21.22,-163.26 -17.16,-241.43l0.44 -0.09c0,-0.04 0,-0.09 0,-0.17 98.47,-56.65 207.98,-102.71 319.81,-141.65 -19.62,215.07 -27.79,457.49 -34.31,653.76l-0.44 11.88c-87.37,-7.56 -171.03,-22.65 -250.46,-45.25 3.25,-77.65 -7.51,-158.63 -17.88,-237.06zm-151.77 174.06c-26.09,-12.05 -51.54,-29.08 -76.09,-45.76 -26.96,-18.1 -54.79,-36.51 -84.43,-49.01 -6.36,-2.94 -13.06,-5.4 -19.79,-7.86 28.6,-68.57 80.72,-133.39 147.05,-193.98 38.07,-33.49 79.73,-64.21 124.06,-91.9 -0.86,72.98 8.99,147.52 18.19,220.37 9.95,75.41 19.57,148.21 17.81,217.84 -43.35,-14.05 -85.82,-30.9 -126.79,-49.69zm-242.54 -600.78c0.04,-0.09 0.04,-0.17 0.09,-0.34 44.98,33.23 105.56,59.29 168.88,86.47 54.14,23.25 109.07,47.44 152.1,75.66 -49.9,34.48 -96.88,70.82 -138.97,109.03 -64.04,55.48 -119.75,118.79 -161.87,191.86 -59.51,-130.98 -66.94,-292.2 -20.22,-462.67zm43.81 -134.3c0.09,-0.17 0.17,-0.34 0.26,-0.56 32.46,15.08 66.38,29.42 102.41,44.29 111.7,46.06 226.3,93.99 296.31,174.54 -24.76,14.64 -49.22,29.73 -73.29,45.28 -0.05,0 -0.05,-0.05 -0.09,-0.05 -2.38,-1.42 -5.14,-2.38 -8.26,-2.81 -3.97,-0.31 -8.26,0.31 -11.49,2.03 -0.17,0.09 -0.26,0.26 -0.44,0.34 -46.93,-31.68 -105.51,-57.56 -163.26,-82.36 -64.77,-27.78 -131.22,-56.48 -172.76,-91.56 0.05,-0.09 0.09,-0.18 0.13,-0.31 9.38,-30.12 19.66,-59.9 30.46,-88.84zm234.17 -437.1c0.05,-0.09 0.09,-0.09 0.13,-0.17l1.94 2.17c124.16,137.5 332,367.59 351.93,547.93 0.04,0.6 0.43,1.03 0.51,1.64 -49.87,25.32 -101.07,52.41 -152.06,81.58 -76.14,-91.9 -198.35,-143.15 -317.43,-192.29 -36.51,-15.09 -70.87,-29.52 -103.2,-44.68 58.17,-147.05 131.8,-280.1 218.18,-396.17zm406.11 573.73c-0.04,0.09 -0.12,0.04 -0.21,0.17 -0.05,0 -0.13,0.04 -0.22,0.09 0.17,-0.09 0.31,-0.17 0.43,-0.26zm-11.45 -42.48c-29.34,-191.09 -227.81,-411.3 -360.51,-558.21l-7.04 -7.78c22.65,-28.87 46.28,-56.57 70.48,-83.44 169.22,192.59 305.72,363.49 389.17,604.53 -29.51,14.14 -60.33,29.09 -92.09,44.91zm-160.35 -779.37l22.46 23.33c178.59,185.29 362.94,376.94 380.53,640.36 -11.84,5.4 -23.9,10.37 -35.61,15.99l-51.85 24.68c-7.78,3.71 -16.17,7.73 -24.25,11.53 -85.94,-246.73 -225.6,-421.1 -397.89,-617.59 33.97,-34.69 69.44,-67.92 106.6,-98.3zm453.12 -241.94c123.2,97.83 264.24,585.09 276.39,784.9 -96.93,29.26 -192.47,62.48 -284.95,102.07 -24.53,-270.73 -210.52,-464.45 -390.98,-651.68l-19.61 -20.41 0 0c126.39,-98.56 267.26,-171.63 419.15,-214.89zm157.6 -34.36c134.86,182.79 232.7,549.84 237.14,775.61 0.09,3.28 0.99,6.27 2.34,9.08 -26.19,7.04 -52.24,14.52 -78.31,22.04 -14.69,-183.56 -135.72,-640.19 -270.03,-785.15 0.05,0 0.13,-0.05 0.17,-0.05 35.69,-8.82 72.09,-16.03 108.69,-21.52zm390.41 31.64c0.09,0 0.17,0.04 0.31,0.09 185.03,127.51 334.2,404.46 334.55,625.09 0,2.03 0.65,3.85 1.21,5.76 -67.8,17.37 -135.9,34.26 -202.84,50.47 -80.62,19.54 -162.04,39.45 -243.33,60.84 -4.62,-224.18 -98.91,-584.01 -230.87,-779.41 86.03,-5.76 210.65,6.26 340.98,37.16zm527.07 278.84c66.67,88.11 80.98,185.6 41.35,290.47 0,0.09 -0.05,0.22 -0.09,0.31 -45.81,11.88 -89.68,23.33 -130.42,34.6 -19.71,5.45 -40.05,10.46 -60.02,15.74 -2.2,-204.23 -117.24,-443.75 -275.79,-592.75 0.09,0.05 0.13,0.05 0.22,0.09 170.35,51.99 335.85,135.56 424.74,251.53z"/>
   <path class="fil0" d="M10602.3 0l-58.58 0c61.47,66.62 122.27,136.79 183.66,210.4 171.94,206.16 180.25,282.22 169.53,309.01 -1.91,5.06 -7.69,19.83 -40.67,24.38 0,0 0,0 -0.43,0.09 -120.69,16.63 -414.32,-116.45 -613,-250.89l-10.63 -7.31c-113.98,-77.06 -258.08,-174.54 -405.73,-285.67l-71.46 0c164.15,126.28 326.83,236.39 452.95,321.76l10.58 7.26c204.49,138.45 508.78,276.17 643.17,257.62 0.47,-0.04 0.47,-0.04 0.47,-0.04 48.36,-6.7 67.63,-31.59 75.32,-51.38 24.72,-64.52 -33.1,-179.98 -176.86,-352.52 -52.94,-63.45 -105.45,-124.36 -158.32,-182.71zm-355.11 0l-72.18 0c8.82,6.38 17.52,12.75 26.07,19.11 71.42,52.98 138.11,118.78 209.28,188.83 131.32,129.72 267.52,263.59 433.63,310.05 3.16,0.86 6.22,0.91 8.77,0.56 8.56,-1.21 15.64,-7.01 17.93,-15.61 3.25,-11.32 -3.23,-23.51 -15.03,-26.7 -155.56,-43.13 -287.36,-173.24 -415.1,-299.11 -62.37,-61.51 -126.79,-125.21 -193.36,-177.13zm-1250.05 0l-44.72 0c-23.48,97.09 -49.44,193.2 -78.26,288.1 -1.34,-0.26 -2.72,-0.48 -4.02,-0.73 -11.58,-1.47 -22.6,6.99 -24.07,18.58 -0.65,4.89 0.48,9.51 2.25,13.22 -5.66,-0.12 -11.54,1.6 -15.73,6.1 -8.91,8.17 -9.21,21.73 -0.99,30.63 5.13,5.4 10.28,11.23 15.47,17.08 -68.55,211.86 -152.33,417.08 -254.87,612.7 -88.76,169.31 -182.96,330.61 -281.45,483.32 -19.44,29.73 -38.45,59.42 -58.04,88.28 -241.76,359.66 -510.32,670.61 -801.48,928.5 -8.55,7.69 -17.11,14.94 -25.71,22.29 -28.77,25.32 -57.68,49.83 -86.64,73.85 -2.51,0.82 -4.97,1.98 -7.52,2.38 -0.17,1.78 -1.59,4.1 -3.11,6.09 -228.89,187.33 -470.93,342.8 -723.8,463.66 -1.08,-1.2 -2.51,-2.28 -4.32,-2.89 236.88,-122.98 463.15,-272.84 675.45,-447.41 27.44,-22.51 54.75,-45.9 81.63,-69.28 0,0 0,0 0.39,-0.47 -0.1,-0.44 0.34,-0.53 0.34,-0.53 0.43,-0.04 0.34,-0.43 0.77,-0.51 2.17,-0.26 4.19,-1.42 5.66,-3.37 0.78,-0.61 2.03,-1.16 2.85,-1.3 0.34,-0.91 1.08,-1.86 0.96,-2.77 0.39,-0.43 0.73,-0.94 0.65,-1.38l0.39 -0.47c0.43,-0.1 0.34,-0.48 0.34,-0.48 0,0 -0.05,-0.48 0.48,-0.09l0.34 -0.48c5.01,-1.6 10.36,-4.07 15.3,-6.05 -2.25,-0.56 -4.85,-0.65 -7.14,-1.16 13.71,-11.5 27.28,-23.86 41.28,-36.26l8.51 -7.69c291.54,-264.46 554.17,-577.23 780.39,-932.56 9.38,-14.39 18.72,-28.77 27.66,-43.08 1.04,-1.9 2.16,-3.33 3.2,-5.23 137.12,-220.42 254.22,-452.95 354.38,-694.5 0,0 0,0 0.36,-0.48l1.85 -2.46c-0.39,0.51 -0.77,0.6 -1.25,0.65 7.18,-17.59 14.34,-35.14 21.13,-52.63 2.94,-6.96 5.92,-13.91 8.46,-20.84 92.88,-233.66 169.97,-474.87 233.8,-720.34l-44.38 0c-66.26,253.07 -146.73,501.55 -244.08,741.44 -176.61,44.86 -448.72,51.85 -691.64,58.29 -123.84,3.63 -240.73,6.65 -342.24,14.09 -722.46,53.01 -1740.53,265.45 -2258.04,691.04 -22.43,4.84 -44.89,9.64 -66.84,14.91 -11.88,2.51 -19.06,13.91 -16.55,25.8 2.84,10.98 12.96,17.85 24.11,16.29l2.12 -0.29c11.88,-2.51 23.68,-5.4 35.56,-7.91 3.72,4.72 10.12,6.87 16.55,6.44 182.09,-14.7 370.38,-25.37 552.16,-35.61 330.7,-18.58 671.74,-38.16 1003.47,-83.92 39.42,-5.45 78.74,-11.32 117.54,-17.54 306.46,-48.84 1171.69,-186.5 1562.53,-537.48 -89.7,203.44 -192.16,399.88 -308.96,587.43 -4.97,8.12 -10.37,16.29 -15.35,24.41 -15.03,8.17 -29.59,16.29 -44.55,24.89 -19.01,7.81 -37.54,15.64 -57.03,23.11 -0.39,0.05 -0.82,0.13 -1.21,0.61 -1.21,0.47 -2.51,0.91 -3.72,1.37 -136.49,34.44 -272.57,81.25 -407.6,135.08 -0.26,0.05 -0.56,0.13 -0.78,0.22 -87.67,25.2 -177.69,49.39 -269.42,73.8 -265.84,71.56 -540.88,145.76 -787.59,251.76 -228.03,98.62 -519.14,233.43 -743.71,401.4 -4.75,3.71 -7.56,8.46 -8.08,14.17 -508.17,60.11 -993.06,203.79 -1356.25,458.01 -7.17,4.92 -10.75,13.69 -9.16,22.21 2.03,8.46 8.7,15.38 17.59,16.77 326.85,60.93 691.74,-13.44 1044.27,-85.61 176.95,-35.78 343.7,-69.65 503.58,-86.94 126.79,-14 258.37,-21.25 386.02,-28.77 160.18,-9.03 322.87,-18.41 481.68,-40.32 81.8,-11.27 162.21,-25.83 240.65,-45.41 -206.73,161.57 -425.85,299.54 -655.4,412.81 -789.44,-8.91 -1563.14,317.69 -2248.27,606.78l-42.87 18.1c-1.64,0.69 -2.89,1.25 -3.97,2.77 -149.05,-46.2 -297.78,-96.8 -444.22,-146.4 -778.07,-264.73 -1583.12,-538.43 -2417.8,-169.83 -7.83,3.28 -12.87,10.94 -12.97,19.66 -0.17,8.34 4.8,15.91 12.32,19.71 31.2,14.43 63.13,27.92 95.46,40.5l0.39 -0.09c4.1,4.27 9.63,6.52 15.76,6.57 0.05,0.43 0.48,0.39 0.91,0.31 285.94,109.27 611.8,156.81 927.89,203.09 220.34,31.98 448.33,65.51 653.33,119.22 32.58,8.6 65.68,17.59 99.21,26.49 174.84,46.96 360.56,96.79 547.12,117.75 -24.72,7.35 -49.05,14.6 -73.34,21.86 -1.21,0.6 -2.07,0.73 -2.94,0.87 -124.93,30.29 -248.34,62.14 -370.5,93.85 -7.18,-7.74 -19.92,-8.6 -28.14,-1.78 -5.52,4.24 -11.44,8.95 -16.94,13.23 0,0 -0.43,0.09 -0.38,0.48l-21.44 5.57 -0.48 0.09c-600.43,-134.43 -1208.51,-30.03 -1796.88,71.64 -143.6,24.58 -316.8,75.1 -324.87,174.83 -6.31,77.61 89.79,151.15 285.37,218.83 241.82,83.13 542.23,88.36 824.74,49.39 181.45,-25.02 355.68,-68.28 502.43,-120.78 194.54,-69.61 345.83,-193.41 492.52,-312.68 12.92,-10.5 26.24,-21.47 39.2,-32.02 1.78,0.21 3.59,0.82 4.97,1.04 0.91,0.34 2.16,0.17 3.03,0.04 -1.04,-1.16 -1.64,-2.38 -2.25,-3.59 -1.25,-2.94 -1.3,-6.39 -0.86,-9.51 8.89,-2.07 17.68,-4.62 26.57,-6.7l-0.09 -0.43c128.52,-33.01 259.1,-66.72 390.82,-98.43 0.86,-0.09 2.07,-0.7 2.93,-0.82 60.33,-14.87 120.35,-28.82 180.81,-42.82 7.13,-1.86 12.18,-6.48 14.86,-12.53 96.41,3.28 192.81,-3.03 287.19,-23.9 4.79,3.23 10.28,5.1 16.29,4.27l2.12 -0.31c22.86,-5.32 45.71,-10.19 68.96,-15.59 107.12,-23.51 218.01,-48.4 315.28,-86.26 2.5,-0.77 4.88,-2.41 6.82,-4.4 24.07,4.05 48.48,6.82 72.81,9.54 -334.72,492.01 -1283.61,823.15 -1857.72,996.56 -0.44,0.09 -0.87,0.12 -1.26,0.6l-2.55 0.34c-0.86,0.13 -2.07,0.73 -2.89,1.3 -95.89,28.91 -181.07,53.33 -250.71,73.42 -11.33,3.28 -17.68,14.17 -15.21,25.66 2.38,10.98 13.95,18.97 24.93,16.17 189.05,-33.49 369.73,-48.84 544.39,-63.35 126.31,-10.89 250.93,-21.08 374.65,-38.16 288.53,-39.8 574.68,-115.46 881.7,-312.25 91.05,-57.9 545.03,-362.19 560.42,-636.51 1.11,-20.22 -0.26,-39.71 -3.72,-58.42 52.43,-2.85 104.93,-7.91 157.17,-15.13 572.64,-79.42 1131.89,-405.25 1460.78,-629.91 262.95,-109.49 515.36,-254.56 754.4,-433.49 -23.59,35.08 -47.4,69.78 -71.42,104.01 -198.56,207.63 -479.22,383.16 -736.24,544.08 -140.14,87.81 -272.24,170.61 -383.42,253.1 -508.43,377.66 -906.73,712.65 -1321.26,1214.34 -5.97,7.39 -6.79,17.55 -1.73,25.59 4.92,7.13 12.84,10.84 21.44,9.68 0.82,-0.13 1.69,-0.26 2.46,-0.78 640.7,-168.22 1580.78,-601.07 2119.9,-1265.64 196.52,-241.77 311.86,-509.34 423.22,-767.7 34.35,-79.77 69.7,-161.83 107.38,-242.9 308.46,-255.9 593.21,-569.57 849.33,-935.54 -90.88,337.09 -328.92,638.2 -560.32,930.95 -122.16,154.71 -237.28,300.58 -330.57,449.54 -121.82,195.27 -207.55,418.21 -290.39,633.31 -101.2,262.6 -205.94,533.97 -375.08,753.18 -7.44,9.33 -5.57,22.6 3.71,30.03 4.89,3.67 10.77,5.06 16.29,4.27 5.14,-0.69 10.46,-3.2 13.83,-7.61 126.26,-159.58 292.89,-285.98 454.47,-408.18 183.99,-139.61 374.34,-284.12 515,-481.95 238.87,-336.05 400.04,-647.57 507.47,-979.04 128.25,-395.01 172.28,-717.8 145.58,-1072.65 106.26,-162.57 207.29,-334.42 302.27,-515.44 99.51,-189.53 181.23,-387.52 249.04,-591.83 277.2,380.96 193.36,1202.54 115.33,1673.95 -88.33,533.02 -284.46,986.27 -492.23,1465.97l-55.22 127.6c-3.25,8.26 -1.52,17.64 5.05,24.16 4.58,4.63 11.42,6.7 17.81,5.84 2.16,-0.31 4.24,-1.04 6.26,-2.17 856.77,-404.38 1293.91,-1242 1169.63,-2240.8 -34.53,-275.7 -363.63,-998.07 -686.46,-1153.29l-0.44 0.04 -42 -19.92c29.4,-97.26 55.84,-195.75 79.68,-295.23zm-395.25 0l-71.53 0c-439.72,302.38 -1094.41,451.57 -1594.19,449.88 314.54,-119.75 625.79,-282.61 927.29,-440.24l18.42 -9.64 -93.19 0c-303.57,158.6 -616.41,319.46 -930.78,432.77 -1.64,0.65 -3.32,1.34 -4.5,2.38 103.54,-137.58 276.83,-290.66 484.99,-435.15l-71.73 0c-214.48,153.42 -388,314.38 -481.06,455.8 -3.97,6.27 -4.53,14.61 -0.99,21.52 3.2,7.01 10.33,11.28 17.81,11.97 164.98,9.98 352.26,1.56 547.02,-25.32 438.64,-60.49 914.93,-214.82 1252.44,-463.97zm1001.61 1473.88c117.11,940.42 -273.49,1735.91 -1048.53,2147.72 82.74,-162.3 187.75,-311.59 289.47,-456.49 174.32,-247.82 354.48,-503.9 433.29,-837.1 141.1,-596.15 8.39,-988.78 -144.97,-1443.06 -54.53,-161.32 -110.58,-327.16 -159.03,-513.75 290.56,174.1 596.25,837.27 629.77,1102.69zm-565.64 620.65c53.19,-319.64 108.02,-797.87 53.27,-1198.18 0.13,0.87 0.56,1.21 0.7,2.07 151.33,448.5 281.88,835.29 143.94,1419.64 -76.88,324.7 -254.87,577.79 -427.03,822.28 -77.99,111.1 -157.89,224.62 -228.94,345.23 194.67,-451.3 373.96,-884.76 458.05,-1391.04zm-141.92 -1730.94c-8.98,-11.4 -18.36,-22.29 -28.09,-32.75 12.02,1.86 23.73,4.58 36,8.12 6.39,2.17 12.84,4.36 18.8,6.57 7.3,30.86 15.42,61.15 23.37,90.53 -15.34,-25.75 -31.76,-50.12 -50.09,-72.47zm-1664.07 2466.93c-115.34,267.62 -224.4,520.4 -416.79,757.59 -483.19,595.38 -1292.42,1002.78 -1912.44,1197.8 -0.43,0.04 -0.43,0.04 -0.43,0.04 0,0 -0.04,0.05 -0.09,0.05 302.05,-127.99 640.15,-382.69 942.76,-610.8 94.28,-71.04 183.39,-138.19 264.84,-196.36 378.75,-270.5 746.58,-654.62 1073.01,-1119.01 0.12,-0.09 0.21,-0.22 0.34,-0.34 0.39,-0.48 0.31,-0.91 0.73,-0.96 25.23,-25.71 47.88,-51.51 70.21,-79.03 -7.25,16.68 -14.52,33.83 -22.16,51.03zm-1178.48 836.11c109.59,-81.46 241.34,-163.72 380.65,-250.97 195.58,-122.12 403.95,-252.92 581.21,-400.4l0.13 -0.05c-289.35,379.83 -606.06,696.53 -930.75,928.46 -81.93,58.5 -171.21,125.79 -265.76,197.05 -319.81,241.03 -679.64,512.18 -989.86,628.08 380.4,-441.89 755.27,-753.54 1224.37,-1102.17zm-1219.31 100.17c-15.64,0.82 -31.25,1.25 -46.89,1.64 -21.35,0.34 -42.26,0.6 -63.7,0.04 -14.86,-0.09 -29.77,-0.69 -44.72,-1.64 -3.5,0 -6.61,-0.43 -10.07,-0.39 -15.86,-0.86 -32.15,-2.07 -48.09,-3.85 -45.47,-3.75 -91.27,-10.07 -136.52,-18.67 56.48,-14.29 113.01,-28.21 169.14,-42.09 12.67,-3.03 25.32,-6.14 37.98,-9.15 5.45,-1.6 10.55,-2.73 15.61,-3.9 3.8,-0.96 7.17,-1.86 10.98,-2.81l17.32 -4.15c10.94,-2.81 22.31,-5.71 33.32,-8.08 498.54,-123.75 1011.21,-252.48 1500.59,-432.98 -368.21,230.54 -906.25,501.05 -1434.94,526.02zm-26.96 98.78c-11.28,196.52 -298.17,447.25 -540.64,602.85 -430.08,275.26 -822.01,308.41 -1236.85,343.37 -78.09,6.39 -156.52,13.3 -237.33,21.82 100.77,-22.16 204.78,-39.58 314.29,-58.59 299.62,-50.94 609.55,-103.32 860.61,-240.44 236.11,-128.98 641.26,-420.45 743.9,-722.94 30.68,1.04 61.18,0.73 91.56,-0.43 4.15,17.33 5.37,35.49 4.46,54.36zm-163.61 -57.22c7.48,0.7 14.48,1 21.57,1.38 -99.65,267.62 -457.15,544.18 -718.41,686.65 -244.61,133.65 -550.99,185.94 -847.29,235.98l-6.01 0.82c577.31,-194.76 1277.22,-496.81 1550.15,-924.83zm-333.55 7.61c0.31,-0.91 0.22,-1.76 0.09,-2.63 2.68,0.48 5.32,0.56 8.39,0.6 -2.94,0.82 -5.54,1.18 -8.48,2.03zm-319.81 56.31c-58.46,6.31 -118.06,7.61 -177.34,4.84 -220.68,-9.25 -444.91,-69.49 -652.84,-125.44 -33.49,-8.86 -66.6,-17.85 -99.61,-26.36 -206.9,-54.75 -436.14,-88.16 -657.86,-120.38 -283.55,-41.57 -571.77,-84.7 -832.78,-171.25 524.08,-46.11 1030.99,71.08 1522.06,184.35 324.48,75.18 657.9,152.23 998.02,182.95l0.44 -0.09c44.59,3.9 89.1,7.35 134.3,9.42 6.17,0.43 12.36,0.87 18.89,0.87 -82.24,33.13 -167.19,52.72 -253.27,61.1zm-229.5 -303.78c178.55,60.88 361.6,122.85 543.91,176.69 27.36,8.38 54.97,15.95 82.19,23.51 2.77,0.94 5.54,1.86 8.22,2.38 -6.1,0.43 -11.76,0.34 -17.9,0.31l-0.82 0.12c-51.94,-0.26 -103.66,-1.86 -155.09,-4.79 -381.86,-20.19 -756.26,-106.4 -1119.88,-190.57 -521.31,-120.43 -1060.68,-245.4 -1623,-176.09 -1.34,-0.26 -3.06,0 -4.36,0.18 -18.41,-7.09 -36.91,-14.56 -54.92,-22.13 803.87,-332.46 1585.1,-66.84 2341.66,190.4zm2661.22 -478.36c24.76,-0.77 50.07,-0.82 74.93,-0.73 -16.34,11.42 -33.88,23.42 -51.78,35.91 -16.46,7.08 -33.35,14.21 -50.38,20.48 -2.85,1.3 -6.17,2.6 -9.08,3.88 -533.75,209.72 -1101.73,351.79 -1652.17,488.3 -8.43,2.08 -17.28,4.15 -25.75,6.22 -3.81,0.96 -8,2 -11.81,2.94 -1.85,-0.65 -3.54,-0.39 -4.84,-0.21 -4.84,-0.22 -9.33,1.73 -13.27,4.88 -94.54,23.08 -189.87,46.72 -285.5,71.22 -34.87,-9.11 -69.48,-20.05 -103.97,-32.75 653.37,-275.52 1387.28,-583.96 2133.61,-600.13zm22.33 -413.54c-128.11,7.18 -260.17,14.53 -388.17,28.7 -26.65,2.81 -53.27,6 -80.67,9.81 -136.98,18.88 -278.29,47.53 -426.76,78.04 -289.83,58.77 -587.26,119.44 -862.35,104.57 486.01,-166.93 986.41,-194.97 1470.38,-222.03 262.25,-14.82 530.25,-29.56 798.69,-66.59 104.01,-14.31 208.41,-32.19 312.2,-54.41 -3.93,3.16 -8.26,6.41 -12.19,9.55 -254.13,80.42 -536.73,96.71 -811.13,112.35zm-1870.69 210.49c707.95,-465.34 1846.71,-529.96 2728.29,-384.63 -381.91,87.12 -770.6,108.89 -1147.68,129.94 -492.13,27.79 -1001.61,56.19 -1498.93,229.94 -11.2,4.19 -16.94,16.29 -13.23,27.56 0.7,1.65 1.35,3.3 2.85,4.85 -24.19,-1.47 -47.7,-4.32 -71.3,-7.66zm2056.2 -838.91c233.26,-100.64 494.04,-172.37 747.87,-240.56 -54.91,24.76 -109.75,49.65 -164.11,74.54 -106.91,48.87 -207.89,95.07 -308.49,137.94 -110.23,46.93 -226,88.93 -337.96,129.55 -177.69,64.48 -361.42,131.15 -525.72,218.69 -8.72,4.67 -12.62,14.48 -10.53,23.76l-0.05 0c-24.07,2.85 -48.62,4.94 -73.2,7.04 210.78,-144.67 466.74,-262.46 672.2,-350.96zm1058.74 -326.56c0.22,-0.09 0.48,-0.12 0.65,-0.21 95.85,-26.27 189.1,-55.32 280.65,-87.54 -55.94,40.4 -110.78,82.45 -164.46,123.41 -127.34,98.31 -259.53,199.38 -409.3,277.21 -343.01,177.51 -766.79,292.67 -1288.92,349.71 150.08,-75.1 314.45,-135.77 474.68,-193.94 112.53,-40.79 228.85,-83.01 340.17,-130.42 101.12,-43.08 202.32,-89.36 309.49,-138.4 150.33,-68.75 303.13,-138.54 457.05,-199.82zm-321.93 747.49c-304.51,-53.97 -642.22,-82.84 -983.93,-78.04 405.89,-64.69 746.88,-170.18 1033.5,-318.34 153.1,-79.17 286.41,-181.72 415.73,-281.14 99.13,-76.36 194.32,-149.51 297.08,-211.99 0.82,-0.22 1.59,-0.44 2.41,-0.61 -223.13,338.92 -480.51,637.72 -764.8,890.13zm-427.19 -1088.77c-366.22,58.38 -747.52,80.04 -1116.77,100.86 -104.31,5.66 -210.75,12.05 -317.14,18.89 285.5,-58.56 575.55,-109.51 857.89,-159.32 716.77,-125.97 1457.37,-256.03 2145.08,-513.63 -361.52,361.35 -1257.47,503.73 -1569.06,553.21zm599.57 -523.26c100.64,-7.35 217.14,-10.33 340.5,-13.87 190.34,-5.28 384.14,-10.68 545.28,-31.59 -664.88,239.62 -1377.8,365.01 -2068.98,486.52 -322.4,56.7 -653.75,115.08 -978.7,184.73 527.87,-382.07 1477.89,-575.49 2161.9,-625.79zm602.84 1723.21c-105.78,327.33 -265.27,635.04 -501.26,967.26 -136.93,192.98 -324.96,335.37 -506.18,472.91 -37.98,28.34 -75.8,57.56 -113.73,86.33 -1.16,1.04 -2.34,2.08 -3.45,3.11 -0.22,0.13 -0.44,0.34 -0.61,0.48 249.16,-232.7 420.89,-520.62 600.56,-822.67 25.06,-42.09 50.22,-84.4 75.8,-126.86 163.94,-272.24 260.22,-560.38 353.42,-839.05 70.65,-211.44 143.94,-429.44 246.05,-638.72 0,0 0,0 0,0.04 4.15,289.09 -43.34,567.85 -150.59,897.17zm-1296.1 1668.85c0.09,-0.09 0.13,-0.22 0.18,-0.31 2.93,-0.6 5.78,-1.51 8.33,-3.42 -4.58,4.1 -8.86,7.74 -13.05,11.8 1.38,-2.81 2.77,-5.22 4.53,-8.07zm45.55 -87.37c75.32,-149.56 136.42,-307.64 196.13,-462.84 82.19,-213.77 167.32,-434.46 286.97,-626.32 91.87,-147.01 206.21,-291.9 327.64,-445.65 127.39,-161.1 256.63,-324.61 363.01,-495.9 0.17,-0.26 0.34,-0.51 0.51,-0.86 -20.65,59.63 -40.53,119.05 -60.19,177.89 -92.42,276.47 -187.96,562.32 -349.44,830.5 -25.63,42.52 -50.82,84.91 -75.88,127.04 -200.51,336.97 -390.55,656.48 -689.54,897.48 0.13,-0.31 0.26,-0.56 0.39,-0.87l0.39 -0.47zm1395.9 -2553.41c0.05,-0.17 0.09,-0.31 0.09,-0.43 1.21,-4.1 1.9,-8.56 2.63,-12.58 0.09,3.9 0.22,7.83 0.31,11.76 0.04,0.09 0,0.17 0.04,0.21 -1.08,0.27 -2.02,0.56 -3.06,1.04zm-5629.39 2790.2c-355.46,127.12 -913.24,203.62 -1298,70.86 -126.4,-43.59 -212.47,-91.95 -243.84,-136.07 203.4,-33.7 440.54,-38.07 690.82,-42.04 232.78,-4.19 471.7,-8.39 688.29,-38.24 72.38,-10.03 142.13,-22.69 208.8,-39.28 131.89,-33.49 262.82,-67.68 393.35,-101.85 8.43,-1.98 16.82,-4.45 25.71,-6.57 -138.79,113.39 -283.95,228.03 -465.13,293.19zm-1265.76 -239.4c172.15,-29.39 346,-59.46 520.66,-83.58 389.95,-53.8 783.9,-78.47 1173.51,-5.32 -130.5,34.19 -261.05,68.28 -392.97,101.34 -260.53,65.59 -579.09,71.17 -887.23,76.18 -254.13,4.5 -493.96,8.39 -701.98,43.61 7.73,-42.05 86.47,-97.44 288.01,-132.23z"/>
  </g>
 </g>
</svg>
