<?xml version="1.0" encoding="UTF-8"?>
<!DOCTYPE svg PUBLIC "-//W3C//DTD SVG 1.1//EN" "http://www.w3.org/Graphics/SVG/1.1/DTD/svg11.dtd">
<!-- Creator: CorelDRAW 2018 (64-Bit) -->
<svg xmlns="http://www.w3.org/2000/svg" xml:space="preserve" width="80.1085mm" height="97.135mm" version="1.1" style="shape-rendering:geometricPrecision; text-rendering:geometricPrecision; image-rendering:optimizeQuality; fill-rule:evenodd; clip-rule:evenodd"
viewBox="0 0 2178.67 2641.73"
 xmlns:xlink="http://www.w3.org/1999/xlink">
 <defs>
  <style type="text/css">
   <![CDATA[
    .fil0 {fill:#494949;fill-rule:nonzero}
   ]]>
  </style>
 </defs>
 <g id="Layer_x0020_1">
  <metadata id="CorelCorpID_0Corel-Layer"/>
  <g id="_1796998477440">
   <path class="fil0" d="M326.19 243.73c0,0 -29.03,44.15 6.85,60.07 35.93,15.92 48.46,-14.34 45.99,-35.67 -2.4,-21.38 -13.23,-45.71 -52.84,-24.4z"/>
   <path class="fil0" d="M436.6 1003.7c0,0 -20.55,31.27 4.88,42.57 25.41,11.26 34.37,-10.15 32.6,-25.3 -1.7,-15.14 -9.38,-32.38 -37.49,-17.27z"/>
   <path class="fil0" d="M1812.53 2006.49c0,0 -20.55,31.27 4.88,42.56 25.4,11.26 34.37,-10.14 32.6,-25.29 -1.7,-15.14 -9.37,-32.38 -37.48,-17.27z"/>
   <path class="fil0" d="M1960.63 2262.67c0,0 -21.24,32.38 5.03,44.02 26.27,11.69 35.45,-10.48 33.69,-26.13 -1.78,-15.65 -9.68,-33.47 -38.71,-17.9z"/>
   <path class="fil0" d="M2151.85 2136.36c0,0 -14.64,22.26 3.43,30.31 18.1,8.05 24.46,-7.22 23.24,-18.05 -1.21,-10.74 -6.67,-23.05 -26.67,-12.26z"/>
   <path class="fil0" d="M2033.35 1716.14c0,0 -14.64,22.27 3.43,30.31 18.1,8.04 24.46,-7.23 23.24,-18.04 -1.21,-10.76 -6.67,-23.05 -26.67,-12.26z"/>
   <path class="fil0" d="M1347.82 1035.22c0,0 -14.64,22.28 3.43,30.32 18.1,8.04 24.46,-7.23 23.24,-18.05 -1.21,-10.75 -6.67,-23.05 -26.67,-12.27z"/>
   <path class="fil0" d="M541.05 4.17c0,0 -14.64,22.27 3.43,30.31 18.11,8.04 24.45,-7.23 23.24,-18.04 -1.21,-10.76 -6.67,-23.05 -26.67,-12.26z"/>
   <path class="fil0" d="M101.7 2641.73l13.83 0c-10.51,-11.22 -20.7,-23.12 -30.59,-35.83 -12.71,-16.4 -26.63,-38.41 -40.04,-59.76 -13.02,-20.58 -26.29,-41.63 -39.09,-58.53 -1.47,-2.08 -3.04,-4.05 -4.6,-5.93 2.84,1.41 5.68,2.84 8.63,4.34 54.92,28.89 112.5,82.97 163.84,131.21 8.88,8.34 17.6,16.54 26.18,24.5l15.01 0c-11.13,-10.2 -22.56,-20.91 -34.25,-31.9 -49.5,-46.6 -104.64,-98.4 -158.51,-128.76 0.6,-0.18 1.19,-0.45 1.78,-0.61 87.94,16.61 191.59,98.84 264.05,161.26l15.67 0c-69.68,-60.53 -172.31,-144.27 -263.24,-168.15 71.65,-29.63 141.21,-63.22 206.15,-102.85l7.06 8.41 0.02 0.11c54.7,64.6 239.48,96.9 304.6,88.39 235.81,-30.99 401.37,-180.77 442.9,-400.78 0.14,-0.53 0.18,-1.04 0.12,-1.56 -0.17,-1.51 -1.07,-2.95 -2.39,-3.73 -1.87,-1.1 -4.13,-0.95 -5.83,0.28l-25.89 20.23c-97.35,76.05 -189.34,147.88 -306,199.75 -103.16,45.91 -286.07,113.95 -389.69,73.21 42.7,-27.67 83.12,-58.14 120.55,-92.16 35.74,-32.49 69.04,-65.83 99.89,-99.78 82.76,-15 153.95,-44.26 236.66,-97.1 69.43,-44.26 131.07,-99.68 193.73,-174.29 36.87,-43.94 58.59,-96.06 79.59,-146.44 18.32,-44.21 37.32,-89.85 66.33,-128.24 0.79,-1.02 1.04,-2.38 0.89,-3.59 -0.14,-1.32 -0.8,-2.58 -1.94,-3.47 -2.27,-1.7 -5.4,-1.34 -7.1,0.93 -40.07,51.71 -95.88,91.82 -149.93,130.58 -44.28,31.75 -90.16,64.62 -127.56,104.07 -28.53,30.22 -55.03,65.2 -83.15,102.35 -53.2,70.33 -107.9,142.7 -179.59,183.52 68.48,-80.35 123.26,-164.12 163.42,-249.89 16.3,-13.43 32.98,-26.39 49.18,-39.01 52.46,-40.81 106.79,-83.12 150.39,-142.44 119.93,-162.81 163,-403.55 163.38,-560.09 0.07,-0.21 0.04,-0.41 0.02,-0.61 -0.23,-2.03 -1.55,-3.63 -3.49,-4.31 -2.14,-0.69 -4.41,0.11 -5.74,1.9 -90.08,124.64 -143.01,235.68 -199.14,374.39 -12.25,30.37 -23.33,65.48 -35.07,102.75 -21.52,68.37 -44.96,143 -80.64,200.74 -6.39,7.55 -12.93,15.04 -19.53,22.54 26.71,-65.31 44.87,-131.67 54.27,-198.32 31.82,-88.57 73.06,-235.84 57.16,-371.54 -1.46,-12.4 -3.41,-24.7 -5.89,-36.84 4.5,-0.33 9.02,-1.17 13.58,-2.62 61.82,-19.84 104.4,-141.76 112.23,-166.04 26.74,-81.92 27.03,-151.86 18.97,-220.22 -3.45,-29.29 -8.53,-58.41 -13.55,-87.96 -7.07,-40.81 -14.31,-83.02 -17.9,-128.26 -0,-2.67 -2.52,-4.84 -5.18,-4.74 -2.77,0.13 -4.88,2.23 -4.97,5.03 -0.45,17.11 -0.95,38.04 -1.87,61.69 -0.07,0.22 -0.14,0.53 -0.12,0.73l0.07 0.62c-0.08,0.11 -0.08,0.19 -0.05,0.32 -5.53,141.61 -24.81,378.31 -117.4,484.14 -2.08,-5.41 -4.17,-10.82 -6.53,-16.1 0.35,-0.56 0.58,-1.2 0.6,-1.82 2.88,-24.5 1.98,-51.33 0.98,-77.22 -0.16,-5.64 -0.4,-11.16 -0.54,-16.7l-0.05 -0.51c-0.17,-1.4 -0.92,-2.56 -1.94,-3.47 -0.85,-22.83 -5.14,-45.24 -11.63,-67.08 1.23,-0.98 1.98,-2.41 1.97,-4.16 -0.38,-14.66 -0.75,-29.2 -0.97,-43.9 -0.01,-0.21 0.04,-0.52 0.02,-0.72 -0.58,-32.03 -0.64,-63.89 -0.73,-95.24l0.11 -0.01c-0.05,-2.15 0,-4.31 -0.05,-6.47 0.68,-0.29 1.48,-0.5 2.22,-0.37 0.32,0.09 0.63,0.14 0.95,0.32 -0.02,-0.21 -0.06,-0.53 -0.18,-0.7 -0.14,-0.29 -0.38,-0.68 -0.53,-1.07 1.62,-3.58 3.35,-7.28 4.99,-10.88 18.53,-40.64 37.86,-82.6 42.2,-131.24 3.29,-36.67 2.81,-79.09 -2.25,-122.09 -7.89,-66.92 -26.96,-135.32 -60.35,-185.66 -27.11,-40.71 -49.65,-58.31 -67.03,-52.26 -22.31,7.78 -23.56,50.39 -20.64,84.7 11.74,140.61 24.04,285.89 90.47,415.21l0.01 0.1 0.01 5.25c-0.1,-0.01 -0.08,0.1 -0.08,0.1 -0.65,1.52 -1.39,3.17 -2.02,4.66 -1.07,2.29 -0.11,5.15 2.08,6.32 0.03,29.83 0.09,59.94 0.57,90.33 0.02,0.2 0.04,0.41 -0.02,0.73 -0.22,5.98 -0.44,11.97 -0.64,18.06 -15.9,-41.4 -38.34,-80.93 -59.47,-118.11 -4.04,-7.14 -8.06,-14.16 -11.96,-21.12 -24.48,-43.68 -45.71,-93.82 -66.13,-142.31 -29.37,-69.54 -59.62,-141.24 -101.63,-200.15 -0.01,-0.1 -0.02,-0.2 -0.13,-0.19 -0.38,-1.38 -1.22,-2.52 -2.43,-3.2l-0.01 -0.1c-4.79,-6.65 -9.78,-13.14 -14.93,-19.43 -1.32,-1.5 -3.35,-2.18 -5.23,-1.64 -2,0.54 -3.46,2.15 -3.74,4.13 -34.66,212.82 75.83,380.65 182.65,542.86 20.05,30.54 40.47,61.54 59.89,92.88 -0.28,0.34 -0.34,0.64 -0.38,1.07l-1.6 10.89c-25.36,173.87 -54.03,370.24 -5.04,550.25 -12.25,59.24 -30.76,117.56 -55.43,174.45 -0.19,-19.1 -1.63,-38.37 -3.92,-57.74 -4.43,-37.61 -11.97,-75.39 -19.43,-112.54 -5.86,-29.66 -12.03,-60.18 -16.36,-90 -5.57,-37.6 -7.73,-77.74 -10.08,-120.35 -4.45,-84.91 -9.17,-172.78 -42.54,-243.92 -0.84,-1.96 -2.82,-3.05 -4.88,-3.01 -2.03,0.14 -3.83,1.48 -4.54,3.41 -36.54,98.19 -40.56,217.63 -24.07,337.41 -1.29,0.46 -2.2,1.39 -2.77,2.7 -25.05,61.37 -38.56,135.94 -47.56,193.98 -9.58,62.71 -10.18,130.02 -10.73,195.06 -0.14,22.45 -0.32,44.46 -0.87,66.03 0,0.07 0.01,0.13 0,0.2 -4.28,34.08 -6.89,68 -6.64,101.27 -0.04,0.3 -0.07,0.61 -0.11,0.92 -0.08,0.11 -0.07,0.21 -0.06,0.32 -0.56,4.88 -1.23,9.6 -1.91,14.41 -1.07,3.92 -2.06,7.75 -3.04,11.67 -1.56,1.63 -3.1,3.36 -4.66,4.98 -35.94,37.86 -74.77,72.98 -115.97,105.59 57.03,-110.26 37.05,-316.31 29.99,-389.33 -0.89,-9.24 -1.89,-18.57 -2.99,-27.91 -9.27,-78.6 -25.08,-157.76 -40.51,-234.5 -8.46,-42.17 -17.2,-85.87 -24.68,-128.38 -0.29,-1.51 -1.17,-2.84 -2.47,-3.41 -0.13,-2.86 -0.17,-5.74 -0.31,-8.6l-0.05 -0.52c-0.31,-2.62 -2.48,-4.52 -5.15,-4.53 -2.87,0.14 -5.06,2.46 -4.93,5.32 0.12,5.33 0.35,10.75 0.57,16.18 -66.54,143.67 -54.57,389.12 -23.72,557.51 4.32,23.67 10.59,50.57 17.12,79.11 12.98,55.95 27.56,118.59 27.81,161.65 -66.44,49.47 -138.35,92.82 -213.03,130.91 75.81,-93.86 93.19,-256.12 76.99,-393.52 -5.44,-46.14 -14.66,-89.47 -26.74,-126.61 -0.61,-1.68 -2.01,-3.07 -3.79,-3.36 -1.8,-0.41 -3.69,0.23 -4.87,1.49 -89.76,99.42 -175.99,418.06 -114.26,556.98 -14,6.39 -28.07,12.62 -42.19,18.69l0 11.04c15.59,-6.66 31.12,-13.51 46.56,-20.57 3.12,-1.4 6.24,-2.8 9.27,-4.28 0.88,-0.31 1.76,-0.72 2.64,-1.14 -0.39,1.08 -0.46,2.22 -0.01,3.41 -0.02,-1.13 0.03,-2.37 0.19,-3.54 3.53,-1.53 6.95,-3.18 10.44,-4.82 8.96,-4.23 17.9,-8.58 26.85,-12.93 80.76,-39.75 158.57,-85.32 230.41,-138 1.42,-1 2.84,-2.08 4.25,-3.19 3.59,-2.56 7.18,-5.25 10.78,-7.94 0.01,0.11 0.02,0.2 -0.07,0.33l0.45 -0.58c0.09,-0.11 0.09,-0.11 0.09,-0.11 49.28,-37.26 95.49,-77.88 137.74,-122.35 0.37,-0.36 0.63,-0.69 1.01,-1.04 2.74,-2.9 5.49,-5.89 8.21,-8.88 67.81,-72.88 123.73,-151.55 166.85,-233.96l1.25 -2.41c2.01,-3.95 4.03,-7.78 5.83,-11.59 0.27,0.49 0.44,1.09 0.69,1.57 0.17,-1.26 0.42,-2.62 0.47,-3.87l0.1 -0.11c-0.13,-0.1 -0.02,-0.1 -0.02,-0.1 0,0 0.1,-0.01 0.1,-0.11l0.09 -0.13c0.1,-0.01 0.19,-0.1 0.27,-0.24 0.2,-0.01 0.39,-0.23 0.58,-0.38 -0.02,-0.18 0.04,-0.51 0.12,-0.72 0.36,-0.46 0.51,-0.99 0.45,-1.51 -0.01,-0.1 0.09,-0.1 0.08,-0.2 0,0 -0.01,-0.12 0.08,-0.13 0.09,-0.11 0.09,-0.11 0.09,-0.11 3.74,-7.54 7.47,-15.18 11,-22.79 27.28,-58.95 48.1,-119.59 62.14,-181.08 0.26,0.36 0.59,0.65 0.93,0.82 -12.6,65.02 -33.77,129.61 -63,193.1 -0.35,0.45 -0.82,0.93 -1.2,1.07 0.07,0.61 -0.07,1.25 -0.1,1.87 -3.78,8.05 -7.66,16.11 -11.74,24.21 -1.16,2.4 -2.32,4.79 -3.58,7.2 -41.65,81.93 -96.8,161.85 -164.66,238.52 -5.44,6.19 -11.1,12.3 -16.74,18.53 -29.07,31.59 -60.37,62.74 -93.79,93.11 -38.64,35.09 -80.59,66.46 -124.98,94.71 -1.65,-0.83 -3.28,-1.66 -4.82,-2.5 -2.52,-1.36 -5.61,-0.47 -6.96,2.05 -0.78,1.24 -0.81,2.67 -0.45,3.95 -0.95,-0.18 -2.07,-0.16 -3.15,0.27 -2.55,1.04 -3.83,4.06 -2.83,6.62 0.14,0.29 0.28,0.57 0.42,0.87 -68.86,42.15 -143.05,77.43 -219.37,108.53 -7.79,-1.37 -15.45,-2.2 -22.95,-2.51l0 29.6c11.8,16.01 24.15,35.57 36.29,54.72 13.55,21.53 27.58,43.75 40.67,60.6 8.05,10.36 16.3,20.19 24.74,29.55zm165.54 -262.66c45.55,-0.02 86.81,2.93 126.96,5.8 113.02,8.06 210.7,15.06 338.64,-52.67 71.53,-37.84 119.37,-94.27 165.67,-148.88 27.08,-31.89 54.97,-64.78 87.18,-93.36 -48.08,201.75 -206.77,338.39 -428.82,367.55 -62.7,8.13 -232.54,-22.34 -289.65,-78.44zm688.83 -275.33c-23.36,23.41 -44.56,48.43 -65.33,72.88 -45.68,53.93 -92.99,109.69 -162.65,146.59 -125.45,66.29 -221.68,59.44 -333.24,51.51 -0.21,0.03 -0.32,-0.07 -0.52,-0.04 94.82,-11.28 200.93,-52.26 270.87,-83.45 110.78,-49.36 199.24,-116.12 290.88,-187.5zm-675.63 265.15c-7.2,-0.07 -14.62,-0.12 -22.11,0.02 -0.85,-1.23 -1.74,-2.55 -2.61,-3.91 -1.55,-2.59 -2.86,-5.1 -4.01,-7.75 2.97,1.6 6.03,3.1 9.16,4.48 6.2,2.86 12.75,5.17 19.56,7.15zm435.29 -526.35c4.96,-6.75 9.52,-13.46 13.9,-20.77 -0.01,-0.1 0.09,-0.1 0.18,-0.22 0.02,-0.03 0.04,-0.06 0.05,-0.1 86.79,-102.29 152.76,-209.24 192.1,-311.95 8.46,-22.1 18.52,-46.47 29.16,-72.24 34.16,-82.78 72.29,-175.25 83.6,-251.95 -0.01,0.02 0,0.03 0,0.02 0,0 0,0 0.01,0.12 -7.72,153.38 -52.75,362.68 -160.18,508.6 -42.8,58.11 -94.12,98.09 -148.46,140.37 -3.49,2.79 -6.97,5.48 -10.36,8.12zm310.71 -672.93c-8.05,77.84 -48.66,176.26 -84.77,263.76 -10.66,25.84 -20.74,50.26 -29.26,72.49 -33.71,88.05 -87.31,179.33 -156.98,268.07l0 -0.02c23.19,-49.31 40.71,-104.74 57,-156.73 11.66,-37.06 22.65,-72.07 34.76,-101.99 51.82,-128.02 100.8,-232.29 179.24,-345.58zm-263.81 420.22c12.17,-122.65 11.13,-247.55 9.76,-368.95 -0.1,-2.65 -0.11,-5.43 -0.13,-8.1l-0.07 -4.2c-0,-0.94 0,-1.75 -0.01,-2.66 -0.04,-1.24 -0.08,-2.47 -0.03,-3.82 -0.05,-3.07 -0.11,-6.15 -0.17,-9.24 -0.18,-13.66 -0.35,-27.41 -0.43,-41.18 4.66,9.85 8.81,19.95 12.38,30.12 1.35,3.53 2.61,7.2 3.74,10.78 0.19,0.79 0.48,1.46 0.68,2.27 1.1,3.36 2.13,6.74 3.04,10.13 1.4,4.87 2.58,9.66 3.78,14.56 0.84,3.6 1.68,7.2 2.41,10.82 25.75,122.39 -4.13,261.54 -34.95,359.47zm43.25 -369.29c-1.54,-7 -3.3,-14 -5.34,-20.96 63.07,-41.47 105.62,-151.47 121.07,-213.12 16.44,-65.58 9.98,-139.56 3.8,-211.12 -2.16,-26.16 -4.37,-51 -5.3,-75.37 2.86,19.01 5.96,37.35 9.12,55.59 16.68,96.95 32.41,188.54 -4.94,303.29 -21.17,64.7 -61.44,145.22 -105.71,159.49 -4.28,1.34 -8.5,2.15 -12.7,2.22zm109.19 -445.74l0.18 1.42c6.17,70.73 12.44,143.92 -3.59,207.8 -17.04,68.24 -59.03,166.45 -114.3,205.13 -0.51,-1.56 -1,-3.16 -1.61,-4.83 81.66,-87.89 109.11,-265.91 119.32,-409.52zm-137.37 334.84c-0.19,-0.7 -0.36,-1.31 -0.64,-1.87 0.21,-0.04 0.42,-0.07 0.61,-0.18 -0.02,0.73 0.05,1.32 0.04,2.05zm-5.1 -16.98c-0.38,-1.51 -0.85,-2.88 -1.32,-4.27 -3.16,-10.22 -6.61,-20.19 -10.14,-30.16l-0.01 -0.11c-27.26,-75.96 -64.71,-147.63 -101.2,-217.35 -55.12,-105.58 -112.07,-214.54 -132.69,-337.14 35.32,54.55 62.31,117.89 88.7,180.28 20.57,48.78 41.83,99.22 66.65,143.29 3.92,7.03 7.94,14.08 11.97,21.21 25.15,44.22 52.27,91.92 67.52,141.84 4.14,13.39 7.41,27.09 9.43,40.84 3.2,20.18 3.79,40.78 1.09,61.56zm-267.03 -620.2c2.8,3.68 5.6,7.47 8.32,11.25 0.03,0.3 0.08,0.71 0.22,1.01 17.59,132.72 78.25,248.65 136.82,360.71 40.87,78.16 82.85,158.64 110.18,244.77 3.74,11.6 7.16,23.33 10.31,35.18l0.02 0.21c0.38,1.4 0.74,2.68 1,4.11 -0.27,-0.58 -0.66,-1.18 -1.02,-1.73 -3.36,-5.78 -6.73,-11.66 -10.3,-17.41 -23.14,-38.5 -48.2,-76.67 -72.74,-113.89 -103.84,-157.72 -211.04,-320.59 -182.82,-524.21zm242.04 637.63c4.95,7.14 9.53,14.41 13.69,21.84 0.09,23.33 0.34,46.55 0.7,69.53 -0.49,1.09 -0.66,2.24 -0.33,3.33 0.04,0.31 0.09,0.71 0.32,1.09 0.02,0.93 0.04,1.96 0.04,2.88 0.03,2.05 0.07,4.19 0.12,6.26 1.5,134.01 2.8,272.35 -13.41,406.89 -0.13,0.74 -0.23,1.56 -0.35,2.3 -0.43,4.27 -1.06,8.56 -1.69,12.75 -1.79,4.82 -3.5,9.56 -5.13,13.96 -1.5,-5.66 -3.01,-11.47 -4.28,-17.17 -40.71,-171.63 -13.82,-357.83 10.33,-523.66zm-81.03 745.54c-0.48,1.1 -0.97,2.28 -1.46,3.38 -1.09,-25.06 -3.22,-50.01 -6.12,-74.65 -7.49,-63.58 -20.07,-125.74 -32.28,-186.62 -22.59,-112.29 -45.94,-228.39 -36.67,-349.46 19.75,62.02 23.58,133.64 27.37,203.44 1.86,35.78 3.7,69.78 7.53,102.23 0.76,6.5 1.62,12.76 2.56,19.02 4.37,30.13 10.55,60.76 16.53,90.5 12.75,63.69 25.83,129.28 22.55,192.16zm-79.7 -616.67c-0.42,-0.25 -0.86,-0.31 -1.26,-0.35 -2.8,-0.19 -5.23,1.84 -5.52,4.66 -10.16,124.06 13.64,242.28 36.56,356.47 17.63,87.49 35.76,177.67 38.54,270.21 -85.66,-192.97 -138.63,-457.25 -74.29,-646.83 2.14,5.2 4.2,10.4 5.97,15.85zm-35.25 329.7c0.98,5.74 1.97,11.48 2.74,17.14 -0.01,0.01 0,0.01 0,0.01 -2.24,0.09 -4.26,1.54 -4.8,3.84 -10.26,42.78 -14.59,88.77 -18.74,133.22 -2.63,28.03 -5.35,57.01 -9.54,85 -3.81,25.56 -8.37,51.4 -13.2,78.76 -2.45,13.92 -4.88,27.93 -7.27,41.98 0.5,-62.12 1.38,-126.02 10.53,-185.35 8.01,-52.26 19.73,-117.81 40.29,-174.6zm-33.48 319.75c4.84,-27.42 9.4,-53.32 13.25,-79.02 4.22,-28.27 6.96,-57.39 9.59,-85.54 3.76,-40.1 7.86,-81.32 16.13,-120.11 18,122.81 16.87,226.59 -3.33,315.59 -8.89,38.88 -24.14,75.13 -39.05,110.1 -6.18,14.71 -12.53,29.75 -18.45,44.94 1.94,-22.85 3.02,-45.9 3.34,-69.39 -0,-0.05 0.01,-0.11 0.01,-0.18 4.85,-38.83 11.72,-77.93 18.51,-116.39zm-24.8 226.18c0.01,-0.21 -0.01,-0.39 0,-0.6 8.18,-27.2 19.25,-53.33 30.83,-80.56 15.03,-35.49 30.55,-72.07 39.55,-111.79 16.84,-74.37 20.68,-158.62 11.34,-255.31 19.21,78.45 45.91,153.97 76.36,220.41 -40.81,80.03 -93.84,156.68 -158.08,227.85zm-149.51 130.95c18.01,-172.61 3.71,-349.72 -10.13,-521.14 -5.38,-67.54 -11,-136.9 -14.58,-205.68 4.77,24.74 9.64,49.45 14.54,73.66 17.19,85.69 34.93,174.19 43.37,261.41 7.2,74.2 27.94,287.58 -33.2,391.75zm-36.28 -755.16c3.39,78.46 9.74,157.71 15.96,234.82 13.32,165.29 27.04,335.8 11.79,502.11 -4.8,-38.08 -15.09,-82.74 -25.21,-126.6 -6.54,-28.41 -12.78,-55.24 -17.08,-78.67 -29.18,-159.45 -41.45,-388.21 14.54,-531.66zm-217.35 917.59l-0.11 0.02c-6.7,3.25 -13.51,6.54 -20.23,9.78 6.76,-90.14 27.99,-182 48.66,-271.12 18.11,-78.32 36.85,-159.19 45.53,-238.26 40.91,155.17 35.15,392.35 -73.84,499.58zm65.54 -517.62c-0.17,0.35 -0.23,0.76 -0.27,1.17 -7.66,83.37 -27.62,169.52 -46.9,252.82 -21.22,91.34 -43,185.62 -49.23,278.39 -2.63,1.22 -5.27,2.47 -7.91,3.6 -58.96,-131.24 19.25,-428.88 104.31,-535.98zm371 254.86l0 0c41.78,-35.81 87.28,-65.54 131.44,-94.26 58.18,-37.89 118.35,-77.06 170.86,-130.72 8.19,-8.4 16.38,-16.68 24.51,-24.9 58.39,-59.05 114.02,-115.45 152.41,-186.28 -0.01,0.06 -0.05,0.11 -0.07,0.16 -0.17,0.33 -0.33,0.65 -0.5,1 -4.34,10.37 -8.76,20.76 -12.99,31.13 -20.67,49.63 -42.05,101.1 -78.04,143.89 -61.95,73.73 -122.83,128.51 -191.41,172.18 -68.94,44.1 -129.86,71.56 -196.22,87.81zm502.38 -485.01c-0.66,1.2 -1.26,2.4 -1.9,3.69 0.27,-0.7 0.31,-1.4 0.27,-2.11 0.02,-0.02 0.04,-0.04 0.06,-0.07 0.56,-0.57 1.03,-1.04 1.57,-1.51zm-18.77 17.02c0.07,-0.05 0.13,-0.1 0.18,-0.14 -37.34,82.71 -99.1,145.17 -164.24,211.06 -8.15,8.24 -16.33,16.53 -24.54,24.94 -51.72,52.87 -111.41,91.73 -169.14,129.29 -12.29,8.01 -24.69,16.11 -37.09,24.36 0.06,-0.06 0.11,-0.12 0.16,-0.17 32.84,-34.52 62.55,-73.8 91.81,-112.52 27.93,-36.91 54.28,-71.69 82.43,-101.44 36.76,-38.77 82.17,-71.37 126.16,-102.87 31.96,-22.9 64.46,-46.26 94.19,-72.39l0.09 -0.11zm-501.07 472c-0.02,0 -0.04,0 -0.06,0.01 -0.9,0.21 -1.8,0.42 -2.7,0.62 0.88,-0.4 1.86,-0.84 2.73,-1.34 0.02,-0.02 0.05,-0.03 0.08,-0.04 -0.03,0.24 -0.06,0.49 -0.05,0.75zm263.95 -1330.37c-0.05,-2.14 0.02,-4.21 -0.03,-6.27 0.06,-31.88 0.08,-63.85 -0.11,-96 -0.16,-16.23 -1.43,-32.96 -3.44,-50.09 -6.05,-51.31 -19.3,-106.2 -32.19,-159.7 -13.97,-57.47 -27.08,-111.97 -31.47,-160.49 11.95,4.57 28.13,21.36 45.62,47.68 53.24,80.09 68.92,212.22 60.99,301.06 -4.11,45.33 -21.71,85.33 -39.38,123.81zm-77.54 -472.78c4.31,49.68 17.69,104.74 31.78,163.13 17.18,70.78 34.85,143.95 35.35,207.43 0.29,32.16 0.25,64.05 0.21,95.91 -39.92,-84.74 -57.71,-176.3 -68.59,-268.7 -4.88,-41.38 -8.34,-82.92 -11.85,-124.05 -4.04,-48.16 3.94,-69.44 13.1,-73.73z"/>
   <path class="fil0" d="M1537.33 2105.59c-2.55,-0.65 -5.18,0.93 -5.8,3.5 -3.26,13.26 -10.98,26.71 -21.17,36.9 -1.87,1.87 -1.87,4.91 0,6.78 0.98,0.98 2.28,1.45 3.57,1.4 1.17,-0.04 2.32,-0.51 3.21,-1.4 11.4,-11.4 20.03,-26.48 23.7,-41.39 0.63,-2.57 -0.95,-5.17 -3.51,-5.8z"/>
   <path class="fil0" d="M1495.07 2083.41c-2.42,1.09 -3.5,3.93 -2.42,6.36 4.01,8.94 4.38,18.81 1.02,27.1 -1,2.46 0.18,5.25 2.64,6.24 0.64,0.26 1.32,0.38 1.99,0.36 1.82,-0.08 3.53,-1.19 4.26,-2.98 4.35,-10.69 3.93,-23.33 -1.14,-34.65 -1.09,-2.42 -3.94,-3.46 -6.34,-2.42z"/>
   <path class="fil0" d="M1444.12 2107.68c-0.73,-2.55 -3.4,-4.02 -5.94,-3.28 -2.54,0.73 -4.01,3.38 -3.28,5.93 3.78,13.12 9.4,25.87 16.73,37.91 0.93,1.53 2.6,2.35 4.28,2.3 0.79,-0.04 1.58,-0.27 2.31,-0.71 2.26,-1.37 2.97,-4.33 1.6,-6.59 -6.88,-11.29 -12.16,-23.26 -15.71,-35.56z"/>
   <path class="fil0" d="M1571.13 2019.43c32.38,-36.11 63.4,-86.42 85.09,-125.13 1.28,-2.32 0.46,-5.23 -1.84,-6.53 -2.32,-1.31 -5.24,-0.48 -6.53,1.83 -36.27,64.75 -71.17,113.48 -100.94,140.95 -0.1,0.08 -0.13,0.2 -0.21,0.29 -0.53,-0.14 -1.1,-0.32 -1.61,-0.41 2.99,-7 5.99,-14 9.12,-21.18 4.45,-10.24 8.93,-20.58 13.33,-30.98 1.29,-0.46 2.38,-1.44 2.87,-2.84 22.76,-64.49 100.1,-155.61 154.05,-193.99 16.1,-11.48 39.38,-26.21 55.49,-21.46 6.78,1.99 11.83,7.31 15.44,16.29 13.08,32.5 -37.42,72.75 -61.68,92.07l-3.33 2.67c-34.81,27.87 -66.54,59.09 -97.24,89.28 -20.03,19.71 -40.63,39.91 -62,59.14zm-434 622.3l10.94 0c-40.74,-76.29 -76.78,-163.89 -58.31,-200.55 1.04,1.32 1.88,2.8 2.88,4.16 -2.67,-0.38 -4.82,2.1 -4.84,4.76 -0.17,21.07 9,49.77 17.65,69.59 19.02,43.62 41.27,84.65 66.04,122.04l11.54 0c-25.89,-38.33 -49.09,-80.69 -68.8,-125.88 -9.91,-22.77 -16.34,-47.28 -16.75,-63.49 12.42,18.8 21.78,39.85 30.72,60.5 12.44,28.79 25.31,58.57 46.99,82.63l8.4 9.3c11.7,12.95 22.55,24.96 32.86,36.94l12.62 0c-11.96,-14.14 -24.57,-28.11 -38.36,-43.37l-8.38 -9.28c-20.63,-22.9 -33.18,-51.95 -45.32,-80.03 -11.87,-27.49 -24.17,-55.89 -44.1,-79.19 -0.94,-1.09 -2.32,-1.71 -3.76,-1.68 -1.68,-0.14 -2.79,0.72 -3.67,1.85 -29.86,38.55 11.78,136.65 51.66,211.69zm321.63 0l9.61 0 -0.64 -12.39c-1.43,-27.22 -2.87,-54.89 -3.11,-82.2 0.66,-1.25 0.83,-2.76 0.22,-4.16 -0.08,-0.16 -0.15,-0.31 -0.23,-0.47 -0.1,-26.66 1,-52.94 4.52,-78.04 2.11,-15.12 4.33,-30.15 6.54,-45.16 5.63,-38.29 11.46,-77.89 15.54,-117.94 1.09,-10.66 1.66,-20.87 1.92,-30.83 2.7,43.42 -1.78,88.73 -6.21,132.71 -2.45,24.37 -4.99,49.58 -6.21,73.9 -2.74,54.44 -3.37,110.42 -3.97,164.58l9.59 0c0.6,-54.05 1.22,-109.9 3.96,-164.1 1.21,-24.08 3.73,-49.16 6.17,-73.42 4.91,-48.83 10,-99.34 5.26,-147.56 -0.96,-9.77 -2.41,-19.39 -3.93,-28.93 3.12,-20.75 17.89,-40.36 33.58,-60.87 15.31,-20.02 31.14,-40.72 35.45,-63.29 2.34,-12.35 3.73,-44.72 -6.37,-61.97 27.76,-23.67 54.01,-49.48 79.39,-74.47 30.52,-30.02 62.08,-61.07 96.51,-88.63l3.31 -2.63c26.09,-20.79 80.36,-64.03 64.61,-103.17 -4.71,-11.72 -12,-19.1 -21.64,-21.91 -19.89,-5.83 -44.53,9.14 -63.75,22.84 -37.81,26.89 -86.9,79.25 -121.53,130.82 12.5,-21.81 26.04,-43.45 40.42,-66.3 57.76,-91.71 117.33,-186.53 104.86,-296.22 0.03,-0.01 0.07,-0.02 0.1,-0.03 9.7,-4.79 15.34,-13.06 15.8,-23.94 0.86,-17.6 -12.3,-38.32 -28.78,-45.08 -11.32,-4.67 -22.17,-2.04 -30.64,7.21 -7.65,8.55 -9.27,19.07 -4.53,29.93 5.99,13.8 21.83,26.35 36.46,29.93 0.01,0.28 0.12,0.57 0.14,0.86 0.32,1.11 1.1,2.02 1.97,2.56 11.91,106.23 -46.68,199.47 -103.49,289.67 -9.08,14.43 -17.74,28.37 -26.15,42.22 3.48,-10.61 7.84,-22.7 12.74,-36.15 26.21,-72.04 62.13,-170.69 18.64,-212.95 -1.23,-1.18 -2.98,-1.62 -4.62,-1.18 -68.78,18.87 -93.04,106.11 -101.3,175.97 -1.31,11.13 -2.58,22.23 -3.86,33.32 -3.42,29.88 -6.78,59.13 -10.8,88.03 -0.53,-3.78 -0.96,-7.58 -1.3,-11.38 -0.01,-0.07 0,-0.13 -0.01,-0.2 1.29,-27.45 2.32,-60.25 2.25,-94.49 0.02,-0.09 0.02,-0.17 0.03,-0.27 0,0 0,-0.09 -0.01,-0.18 1.75,-17.35 3.96,-34.81 6.09,-52.08 5.83,-46.59 11.87,-94.83 8.96,-138.69 -5.76,-88.68 -12.42,-188.95 -52.71,-284.4 9.68,-5.64 15.36,-15.27 15.68,-27.18 0.35,-16.15 -9.5,-32.68 -22.86,-38.32 -7.02,-2.9 -21.04,-5.44 -36.56,10.61 -17.1,17.54 -13.83,40.26 -2.03,52.69 5.8,6.11 14.21,10.11 23.79,9.75 4.22,-0.15 8.79,-1.19 13.4,-3.39 39.46,93.84 46.01,193.07 51.72,280.9 2.61,38.49 -1.93,80.91 -7.17,122.59 0,0 0,0 0,0.1 -0.02,0.16 -0.05,0.35 -0.07,0.51 -4.75,-89.31 -20.46,-171.17 -61.58,-177.1 -10.98,-1.57 -20.23,1.59 -27.51,9.43 -46.37,50 4.85,297.01 30.37,413.22l-3.2 -7.25c-0.01,-0.06 -0.03,-0.12 -0.04,-0.17 -7.08,-30.08 -20.22,-60.11 -32.84,-89.11 -8.31,-18.99 -16.92,-38.63 -23.6,-57.88 -11.31,-32.6 -17.25,-65.11 -23.54,-99.53 -3.38,-18.11 -6.76,-36.81 -11.02,-55.46 -15.86,-69.1 -36.79,-150.4 -72.2,-233.46 9.12,-4.85 15.83,-13.08 18.78,-23.84 4.32,-15.44 -0.16,-32.16 -10.63,-39.92 -5.53,-3.92 -17.24,-8.96 -34.85,2.46 -16.77,10.82 -18.57,31.92 -11.88,46.35 4.08,8.68 10.73,14.48 18.49,16.69 0.83,1.7 2.6,2.78 4.52,2.72l0.29 -0.02c2.2,-0.19 4.3,-0.55 6.29,-1 35.19,82.47 56.01,163.39 71.87,232.22 2.38,10.25 4.47,20.6 6.38,30.87 -15.03,-49.39 -35.32,-94.92 -66.01,-103.83 -15.25,-4.42 -26.68,-2.52 -34,5.67 -17.72,19.83 -7.67,75.6 29.9,165.75l0.62 1.52c21.73,52.28 48.68,101.83 75.11,149.82 -1.69,-1.85 -3.39,-3.68 -5.07,-5.53 -0.13,-0.13 -0.23,-0.28 -0.35,-0.4 -0.47,-0.7 -0.95,-1.42 -1.42,-2.11 -11.49,-16.9 -23.36,-34.38 -34.33,-51.59 -12.67,-19.9 -26.05,-37.81 -39.25,-54.01 -0.03,-0.05 -0.05,-0.09 -0.08,-0.14 -22.82,-39.56 -41.85,-78.29 -54.61,-105.94 -32.4,-69.63 -52.73,-124.93 -65.39,-177.73 8.89,-3.5 16.25,-11.94 20.6,-23.92 4.88,-13.24 5.47,-30.65 -3.81,-39.81 -4.18,-4.06 -11.91,-7.9 -24.97,-2.88 -12.87,4.89 -20.39,16.8 -20.21,31.86 0.18,14.97 7.44,28.91 17.94,35.04 0.29,0.28 0.6,0.46 0.88,0.63 12.7,53.97 33.35,110.02 66.18,180.88 8.55,18.46 19.88,41.88 33.28,67.13 -2.19,-2.4 -4.38,-4.82 -6.51,-7.12 -11.99,-12.99 -23.73,-28.14 -36.16,-44.17 -20.98,-27.07 -42.7,-55.07 -66.53,-73.11 -1.15,-0.86 -2.64,-1.17 -4.04,-0.84 -1.4,0.35 -2.57,1.31 -3.2,2.62 -26.6,56.11 41.67,152.32 82.45,209.81 6.37,8.99 12.08,17.04 16.66,23.83l3.55 5.3c25.6,38.14 54.6,81.37 88.82,112.06 7.54,6.77 16.55,13.17 25.27,19.36 21.03,14.93 42.64,30.4 48.01,53.28 3.15,22.17 12.3,51.16 27.5,86.89 12.92,30.39 25.85,49.27 54.68,60.46 0.98,20.16 0.84,40.95 -1.46,63.55 -4.08,39.83 -9.88,79.32 -15.5,117.52 -2.22,15.03 -4.43,30.09 -6.55,45.23 -2.71,19.35 -4,39.33 -4.44,59.59 -12.22,-24.36 -26.05,-47.17 -39.58,-69.31 -13.6,-22.27 -27.67,-45.3 -39.79,-69.57 -8.16,-16.36 -15.94,-34.1 -24.19,-52.87 -26.58,-60.53 -56.69,-129.15 -108.45,-165.55 -1.28,-0.9 -2.93,-1.11 -4.39,-0.58 -1.48,0.53 -2.59,1.75 -3.01,3.27 -15.31,57.45 52.15,161.56 74.32,195.77 19.95,30.77 44.72,59.94 68.68,88.17 26.85,31.61 54.61,64.3 74.81,98.57 0.38,0.64 0.95,1.07 1.53,1.46 0.35,25.89 1.68,52.02 3.03,77.74l0.62 11.88zm38.33 0l22.78 0c14.23,-15.12 31.25,-28.88 48.74,-42.98 23.62,-19.06 48.05,-38.78 65.62,-62.73 32.07,-43.78 89.55,-182.01 61.95,-235.26 -0.12,-0.41 -0.12,-0.95 -0.24,-1.33 -0.34,-0.99 -1.01,-1.75 -1.79,-2.31 -0.02,-0.03 -0.03,-0.06 -0.05,-0.08 -0.79,-1.23 -2.1,-2.02 -3.56,-2.17 -1.43,-0.11 -2.89,0.39 -3.91,1.44 -22.24,22.97 -39.05,59.01 -55.31,93.86 -8.99,19.26 -17.47,37.44 -26.61,53.01 -8.07,13.74 -15.74,27.95 -23.16,41.68 -12.24,22.66 -24.91,46.1 -39.49,67.7 -15.13,22.4 -25.72,46.24 -35.95,69.31 -3,6.75 -5.98,13.37 -9.02,19.87zm221.43 0l10.51 0c8.87,-19.46 18.39,-38.09 27.88,-52.74 -1.47,8.94 -4.21,17.95 -7.08,27.23 -2.57,8.31 -5.22,16.88 -6.86,25.51l9.77 0c1.54,-7.45 3.84,-14.89 6.25,-22.68 3.94,-12.73 7.91,-25.76 8.5,-39.23 6.22,21.26 9.82,41.83 11.1,61.9l9.82 0c-1.56,-24.82 -6.55,-50.4 -15.51,-77.1 -0.53,-1.59 -1.85,-2.78 -3.48,-3.16 -1.28,-0.29 -2.51,0.09 -3.58,0.79 -0.98,-1.75 -2.93,-2.76 -5.04,-2.38 -2.6,0.49 -4.3,3.01 -3.8,5.61 0.36,1.89 0.6,3.77 0.76,5.66 -13.38,17.14 -27.01,43.35 -39.24,70.58zm-161.12 -539.96c-3.88,20.34 -19.01,40.12 -33.65,59.26 -11.19,14.63 -22.47,29.55 -29.46,45.27 -3.47,-20.84 -6.7,-42.25 -6.2,-64.25 0.06,-2.65 -2.04,-4.84 -4.69,-4.9 -0.71,-0.01 -1.39,0.19 -2.02,0.48 -0.85,-0.52 -1.81,-0.84 -2.81,-0.68 -2.65,0.25 -4.58,2.58 -4.33,5.22 1.08,11.56 2.29,22.67 3.47,33.55 1.86,16.97 3.63,33.58 4.76,50.47 -22.94,-10.19 -33.72,-26.55 -45.19,-53.56 -15.77,-37.09 -23.41,-63.06 -26.42,-81.38 0.13,-0.63 0.14,-1.26 0.01,-1.9 -0.14,-0.76 -0.44,-1.41 -0.61,-2.14 -1.43,-10.55 -1.22,-18.29 -0.11,-23.93 0.24,-0.07 0.49,-0.07 0.73,-0.16 2.43,-1.05 3.55,-3.87 2.5,-6.3 -0.2,-0.46 -0.44,-0.89 -0.64,-1.35 0.96,-1.83 2.02,-3.25 3.09,-4.31 3.07,-3.01 6.42,-4.38 10.23,-4.53 7.32,-0.28 16.29,4.03 28.07,10.05 4.74,2.43 9.68,4.91 14.76,7.1 0.89,1.17 2.25,1.99 3.86,1.94 0.02,0 0.05,0 0.08,0 0.17,-0.01 0.32,-0.1 0.49,-0.12 10.66,4.05 21.87,6.12 33.27,2.29 8.6,-2.88 14.48,-10.05 19.66,-16.38 3.92,-4.8 6.98,-8.32 10.11,-10.23 1.68,0.3 3.34,-0.29 4.43,-1.57 1.63,-0.16 3.38,0.1 5.35,0.82 13.06,4.83 14.74,42.92 11.26,61.23zm-7.39 456.14c14.84,-21.99 27.62,-45.63 39.98,-68.51 7.38,-13.65 15.02,-27.79 23,-41.39 9.36,-15.92 17.94,-34.33 27.03,-53.8 14.44,-30.95 29.35,-62.79 47.76,-84.74 0.98,30 -29.36,106.52 -57.67,167 -17.96,38.36 -46.82,70.05 -74.72,100.69 -13.08,14.34 -26.33,28.95 -38.63,44.35 9.51,-21.34 19.51,-43.23 33.25,-63.61zm76.48 -27.58c-16.82,22.95 -40.76,42.27 -63.91,60.94 -8.88,7.16 -17.79,14.4 -26.42,21.88 8.62,-10.07 17.5,-19.87 26.32,-29.54 28.39,-31.17 57.74,-63.4 76.32,-103.09 12.18,-26 44.7,-97.99 55.2,-145.4 1.44,59.55 -40.67,158.58 -67.5,195.2zm-308.34 -171.65c-54.23,-83.68 -79.25,-144.49 -74.48,-180.95 0.6,0.46 1.17,1 1.78,1.49 -1.59,1.32 -2.25,3.56 -1.37,5.56 14.64,33.19 32.37,63.34 49.52,92.52 13.15,22.37 26.75,45.52 38.85,69.85 15.59,31.31 36.1,60.51 55.93,88.75 14.99,21.33 30.27,43.13 43.47,65.92 -14.54,-19.1 -30.25,-37.72 -45.74,-55.95 -23.76,-28 -48.34,-56.94 -67.95,-87.18zm24.71 -23.84c8.22,18.75 16.01,36.47 24.22,52.93 -9.47,-14.58 -18.39,-29.52 -26.05,-44.9 -12.24,-24.63 -25.93,-47.91 -39.17,-70.43 -15.51,-26.39 -31.39,-53.72 -45.03,-83.12 38.36,37.11 63.51,94.24 86.02,145.52zm15.66 -306.45c-8.9,-6.3 -17.28,-12.26 -24.43,-18.68 -33.32,-29.87 -61.98,-72.59 -87.26,-110.26l-3.55 -5.3c-4.62,-6.86 -10.38,-14.99 -16.81,-24.04 -38.14,-53.76 -101.04,-142.41 -83.87,-194.45 20.95,17.35 40.68,42.78 59.78,67.43 12.56,16.19 24.42,31.49 36.7,44.8 11.39,12.34 23.69,26.07 36.12,41.32 22.17,38.47 47.99,77.52 75.21,108.03 0,0.01 0.01,0.01 0.01,0.02 22.77,33.5 46.08,68.08 63.95,103.03 -1.79,1.06 -3.54,2.36 -5.23,4.02 -0.41,0.41 -0.76,0.91 -1.14,1.35 -20.7,-41.32 -54.14,-76.98 -86.73,-111.48 -20.48,-21.69 -39.82,-42.18 -56.16,-63.94 -1.58,-2.12 -4.6,-2.55 -6.71,-0.96 -2.12,1.59 -2.54,4.6 -0.96,6.71 16.66,22.19 37.09,43.84 56.86,64.76 33.67,35.65 68.28,72.52 87.99,115.08 -0.97,2.89 -1.63,6.12 -2.03,9.64 -10.38,-14.64 -26.16,-26.03 -41.72,-37.08zm7.99 -84.49c0.09,-0.18 0.17,-0.38 0.16,-0.66 0.36,0.65 0.73,1.34 1.1,2 0.55,1 1.1,2.02 1.65,3.02 -0.97,-1.46 -1.95,-2.89 -2.93,-4.34 0,-0.01 0.01,-0.02 0.01,-0.02zm-70.16 -161.93c-48.99,-117.59 -38.42,-148.03 -31.59,-155.67 4.71,-5.28 12.6,-6.23 24.17,-2.86 39.82,11.55 62.59,104.36 77.67,165.76 4.77,19.45 8.88,36.23 12.72,47.24 17.88,51.36 40.26,101.97 61.89,150.91l6.84 15.47c1.66,3.77 3.41,7.49 5.14,11.22 6.03,12.93 11.74,25.29 13.81,38.32 -2.83,-1.35 -5.66,-2.78 -8.47,-4.22 -0.65,-0.34 -1.31,-0.67 -1.96,-1 0.35,-1.41 0.13,-2.94 -0.86,-4.16 -29.35,-35.75 -51.86,-93.55 -71.72,-144.56 -6.23,-16 -12.11,-31.09 -17.92,-44.85 -1.04,-2.44 -3.86,-3.55 -6.29,-2.53 -2.44,1.03 -3.58,3.84 -2.55,6.28 5.77,13.62 11.62,28.65 17.82,44.57 18.63,47.84 39.64,101.38 66.71,138.4 -4.82,-1.83 -9.58,-3.06 -14.2,-3.25 -16.27,-32.76 -34.11,-65.11 -51.37,-96.44 -27.75,-50.31 -56.43,-102.34 -79.2,-157.13l-0.63 -1.51zm135.13 -194.27c5.07,-5.48 11.3,-7.6 19.09,-6.45 42.11,6.05 54.65,119.53 55.5,229.69 -3.63,35.07 -5.72,69.88 -2.27,102.81 -1.4,27.55 -3.27,51.95 -5.21,70.43l-0.74 7.09c-2.22,21.71 -4.72,43.99 -11.11,63.77 -14.6,-50.44 -12.23,-118.39 -10.25,-173.24l0.58 -17c0.09,-2.64 -1.99,-4.87 -4.63,-4.94 -2.62,-0.14 -4.88,1.99 -4.95,4.64l-0.6 16.96c-1.48,41.07 -3.15,89.4 2.13,132.81 -0.08,-0.35 -0.14,-0.67 -0.23,-1.03 -20.6,-93 -83.3,-376 -37.32,-425.55zm45.69 469.06c-0.02,-0.23 -0.03,-0.47 -0.05,-0.69 0.07,0.24 0.11,0.5 0.19,0.74 -0.05,-0.02 -0.1,-0.04 -0.14,-0.05zm57.49 -221.41c1.26,-11.07 2.54,-22.18 3.86,-33.3 7.79,-65.98 30.02,-148.01 91.61,-167.05 35.94,39.17 2,132.41 -22.89,200.81 -7.61,20.91 -14.18,38.95 -17.78,52.79 -10.07,38.74 -27.34,78.44 -44.03,116.83 -3.91,8.95 -7.69,17.72 -11.36,26.36 -5.15,2.31 -9.34,6.59 -12.96,10.91 13.32,-27.31 20.98,-55.3 27.09,-80.15 2.91,-11.82 4.41,-24.43 5.84,-36.62 2.3,-19.55 4.69,-39.76 12.98,-56.73 1.16,-2.38 0.17,-5.26 -2.21,-6.42 -2.38,-1.19 -5.26,-0.16 -6.42,2.21 -9,18.44 -11.48,39.47 -13.88,59.81 -1.48,12.46 -2.86,24.23 -5.62,35.46 -7.41,30.06 -16.94,64.81 -36.43,96.82 -0.41,0.67 -0.57,1.39 -0.63,2.12 -1.81,0.48 -3.62,0.79 -5.44,0.92 20.94,-74.14 29.41,-147.36 38.27,-224.77zm58.38 75.27c0.38,-0.23 0.64,-0.64 0.95,-0.98 -0.43,0.65 -0.84,1.32 -1.28,1.97 0.11,-0.33 0.22,-0.66 0.33,-1z"/>
   <path class="fil0" d="M1470.47 1841.83c0.82,0.5 1.74,0.71 2.64,0.68 1.56,-0.07 3.07,-0.89 3.94,-2.33 5.05,-8.47 7.04,-20.69 5.2,-31.9 -0.43,-2.62 -2.85,-4.42 -5.52,-3.95 -2.61,0.43 -4.38,2.89 -3.95,5.5 1.48,8.92 -0.09,18.91 -3.97,25.42 -1.36,2.29 -0.61,5.23 1.66,6.58z"/>
   <path class="fil0" d="M1561.46 1845.5c0.25,0.03 0.51,0.04 0.76,0.03 2.31,-0.08 4.29,-1.85 4.58,-4.22 0.59,-4.96 1.46,-9.94 2.57,-14.78 0.6,-2.58 -1.01,-5.15 -3.59,-5.76 -2.58,-0.57 -5.16,1.02 -5.76,3.6 -1.2,5.17 -2.12,10.48 -2.75,15.79 -0.32,2.62 1.56,5.02 4.19,5.34z"/>
   <path class="fil0" d="M1678.7 1861.29c-2.36,-1.26 -5.25,-0.39 -6.49,1.94 -2.2,4.06 -5.41,6.68 -9.85,7.98 -2.54,0.76 -3.99,3.44 -3.24,5.97 0.63,2.14 2.65,3.51 4.78,3.44 0.39,-0.02 0.79,-0.08 1.19,-0.2 6.81,-2.02 12.19,-6.39 15.55,-12.62 1.26,-2.33 0.38,-5.25 -1.94,-6.49z"/>
   <path class="fil0" d="M1344.6 1804.99c-1.07,-2.43 -3.91,-3.49 -6.32,-2.45 -2.43,1.06 -3.52,3.9 -2.46,6.32l8.11 18.38c0.82,1.86 2.67,2.93 4.57,2.85 0.6,-0.02 1.18,-0.14 1.76,-0.4 2.43,-1.06 3.52,-3.9 2.46,-6.32l-8.11 -18.37z"/>
   <path class="fil0" d="M1243.89 1836.18c-1.38,-2.27 -4.34,-2.98 -6.59,-1.6 -2.25,1.39 -2.97,4.35 -1.59,6.59 3.31,5.41 6.75,10.81 10.24,16.07 0.96,1.45 2.57,2.21 4.18,2.14 0.85,-0.03 1.71,-0.28 2.48,-0.79 2.21,-1.48 2.81,-4.45 1.34,-6.66 -3.44,-5.17 -6.82,-10.46 -10.06,-15.75z"/>
  </g>
 </g>
</svg>
