<?xml version="1.0" encoding="UTF-8"?>
<!DOCTYPE svg PUBLIC "-//W3C//DTD SVG 1.1//EN" "http://www.w3.org/Graphics/SVG/1.1/DTD/svg11.dtd">
<!-- Creator: CorelDRAW 2018 (64-Bit) -->
<svg xmlns="http://www.w3.org/2000/svg" xml:space="preserve" width="89.95mm" height="84.8697mm" version="1.1" style="shape-rendering:geometricPrecision; text-rendering:geometricPrecision; image-rendering:optimizeQuality; fill-rule:evenodd; clip-rule:evenodd"
viewBox="0 0 14388.61 13575.95"
 xmlns:xlink="http://www.w3.org/1999/xlink">
 <defs>
  <style type="text/css">
   <![CDATA[
    .fil0 {fill:#494949;fill-rule:nonzero}
   ]]>
  </style>
 </defs>
 <g id="Layer_x0020_1">
  <metadata id="CorelCorpID_0Corel-Layer"/>
  <g id="_1796998585280">
   <path class="fil0" d="M9608.66 13575.95l87.45 0c-382.97,-360.64 -653.99,-828.28 -785.29,-1378.3 189.62,168.14 353.82,361.63 512.97,549.09 254.18,299.56 516.23,608.45 891.39,829.21l123.65 0 -12.27 -6.4c-410.26,-217.02 -688.45,-544.94 -957.07,-862.15 -121.89,-143.85 -246.6,-290.94 -384.29,-428.71 539.49,419.79 1059.78,812.5 1710.99,1102.86 137.42,61.27 298.59,128.95 473.07,194.4l176.92 0c-232.95,-81.64 -449.22,-171.21 -625.72,-249.78 -686.19,-305.06 -1227.37,-727.56 -1800.15,-1174.89l-151.8 -118.95c-10.16,-7.18 -23.69,-8.13 -34.41,-1.65 -7.9,4.62 -12.99,13.08 -14.11,21.95 -0.58,3.04 0,6.05 0.56,9.15 114.17,604.61 387.65,1119.03 788.12,1514.17zm3239.91 0l104.31 0c-178.18,-125.23 -348.62,-260.18 -508.9,-405.98 -196.93,-178.66 -380.9,-361.85 -551.89,-547.66 -33.3,-36.55 -66.59,-72.51 -98.2,-108.97 -399.52,-451.01 -724.01,-921.01 -968.91,-1402.89 -7.34,-14.22 -14.11,-28.33 -20.89,-42.44 -24.27,-47.57 -46.84,-94.95 -68.85,-142.37 -0.56,-3.62 -1.12,-7.39 -0.56,-11.01 -2.26,-0.8 -5.07,-3.66 -7.34,-6.33 -171.54,-373.38 -296.25,-753.28 -370.18,-1135.78 1.7,-0.94 3.95,-2.58 5.09,-4.85 82.96,361.77 204.85,718.44 365.67,1065.14 20.88,44.74 42.89,89.74 64.32,134.02 0,0 0,0 0.58,0.69 0.56,0 0.56,0.69 0.56,0.69 0,0.66 0.56,0.66 0.56,1.17 -0.56,3.1 0.58,6.21 2.83,8.86 0,1.3 0.56,3.17 0.56,4.29 1.12,0.74 2.26,2.1 3.39,2.21 0.56,0.77 1.12,1.3 1.68,1.41l0.58 0.66c0,0.7 0.56,0.7 0.56,0.7 0,0 0.56,0 0,0.5l0.56 0.8c0,7.26 1.7,15.34 2.26,22.68 1.7,-2.83 2.83,-6.37 4.53,-9.26 10.72,22.41 22.57,45 34.42,68.11l7.33 14.22c253.38,484.75 582.37,947.42 981.34,1376.08 15.8,17.55 32.17,35.16 47.97,52.28 2.26,2.06 3.95,4.05 6.21,6.14 248.29,261.55 520.29,500.43 809.78,719.61 0,0 0,0 0.58,0.56l2.82 3.44c-0.56,-0.67 -0.56,-1.25 -0.56,-1.92 21.43,15.92 42.33,31.67 63.76,46.79 7.9,6.48 16.36,12.86 24.83,18.72 127.78,93.66 258.74,183.48 392.42,269.71l110.93 0c-175.81,-110.68 -347.02,-227.4 -512.38,-350.61 1.14,-253.28 86.91,-621.65 163.66,-950.75 38.36,-167.85 75.05,-326.13 100.44,-465.35 181.7,-990.42 251.68,-2434.05 -139.39,-3279.15 1.14,-31.91 2.83,-63.71 3.39,-95.15 0.56,-16.78 -12.41,-30.42 -29.34,-31.26 -15.24,0.11 -28.22,11.23 -29.91,26.63l-0.56 3.1c-0.58,16.86 -1.14,33.75 -1.7,50.55 -7.9,3.33 -12.99,11.17 -14.67,20.09 -44.02,250.01 -95.37,507.1 -145.04,755.1 -90.86,451.35 -183.96,917.02 -238.14,1379.24 -6.77,54.92 -12.41,109.75 -17.5,164.22 -41.75,429.43 -159.13,1641.36 176.07,2289.84 -242.09,-191.75 -470.64,-398.27 -682.26,-621.02 -9.02,-9.49 -18.06,-19.61 -27.08,-29.23 -5.65,-23.02 -11.85,-45.56 -18.06,-68.67 -3.95,-28.22 -7.9,-55.99 -11.29,-84.76 0,-0.61 0.58,-1.18 0,-1.87 -0.56,-1.73 -0.56,-3.62 -0.56,-5.42 1.14,-195.59 -14.11,-395.12 -39.49,-595.57 0,-0.43 0,-0.78 0,-1.12 -2.83,-126.87 -3.95,-256.36 -5.09,-388.4 -2.82,-382.57 -6.77,-778.47 -62.64,-1147.25 -53.04,-341.36 -132.61,-779.98 -279.89,-1140.98 -3.39,-7.68 -8.48,-13.1 -16.36,-15.85 97.05,-704.49 73.36,-1407 -141.65,-1984.57 -3.95,-11.34 -14.67,-19.31 -26.52,-20.03 -11.85,-0.24 -23.71,6.25 -28.78,17.71 -196.39,418.38 -224.04,935.24 -249.99,1434.7 -14.11,250.56 -26.54,486.72 -59.27,707.82 -25.95,175.32 -62.07,355 -96.49,529.4 -44.02,218.56 -88.03,440.71 -113.99,661.91 -13.55,114.02 -22.01,227.32 -23.15,339.63 -145.02,-334.64 -253.94,-677.63 -326.16,-1026.03 288.36,-1058.84 119.64,-2213.8 -29.91,-3236.5l-9.02 -64.05c-0.58,-2.43 -0.58,-4.29 -2.26,-6.27 113.99,-184.31 234.18,-366.68 352.13,-546.26 628.08,-954.13 1278.16,-1941.22 1074.45,-3192.98 -1.7,-11.69 -10.16,-21.16 -22.01,-24.27 -11.29,-3.17 -23.13,0.78 -31.03,9.58 -29.91,36.97 -59.83,75.17 -87.47,114.34l-0.58 0.5c-6.77,4.02 -11.85,10.73 -14.11,18.86 -0.56,-0.11 -0.56,0.56 -0.56,1.12 -247.17,346.43 -424.92,768.2 -597.6,1177.21 -120.2,285.15 -245.48,580.12 -389.38,836.99 -22.57,40.92 -46.28,82.22 -69.97,124.21 -124.72,218.78 -256.77,451.27 -349.87,694.72 -1.14,-35.72 -2.83,-70.99 -3.95,-106.13 0,-1.87 0,-3.23 0,-4.3 2.82,-178.77 3.38,-355.9 3.38,-531.35 12.99,-6.83 18.62,-23.71 11.85,-37.13 -3.39,-8.86 -7.9,-18.52 -11.85,-27.48 0,0 0.58,-0.62 0,-0.51l0 -31.54c390.52,-760.59 462.74,-1615.12 532.15,-2442.18 16.94,-201.79 9.6,-452.36 -121.32,-498.17 -102.71,-35.5 -235.32,68 -394.47,307.38 -196.37,296.14 -308.68,698.44 -354.94,1092 -29.91,252.98 -32.73,502.41 -13.55,718.09 25.96,286.11 139.39,532.87 248.29,771.98 9.6,21.16 19.76,42.82 29.35,63.87 -0.58,2.37 -2.26,4.69 -2.83,6.43 -1.12,0.96 -1.12,2.88 -1.12,4.06 1.7,-1.01 3.95,-1.3 5.63,-1.86 3.95,-0.67 9.04,0.56 12.99,2.19 -0.56,12.7 0,25.47 -0.56,38.04l0.56 0.11c0,184.36 -0.56,371.77 -3.95,560.08 0,1.25 0,3.1 0,4.35 -1.14,86.4 -3.39,171.94 -5.65,258.12 0,10.22 4.51,18.73 11.85,24.44 -38.37,128.55 -63.76,260.37 -68.29,394.61 -6.21,5.37 -10.72,12.08 -11.84,20.38l0 2.99c-1.14,32.62 -2.27,65.12 -3.39,98.3 -5.65,152.32 -11.29,310.15 5.65,454.21 0.56,3.62 1.68,7.41 3.95,10.67 -14.11,31.1 -26.52,62.82 -38.37,94.7 -545.14,-622.38 -658.55,-2014.65 -690.72,-2847.57 0,-0.69 0,-1.25 -0.58,-1.87l0.58 -3.66c0,-1.18 -0.58,-2.94 -0.58,-4.29 -5.63,-139.1 -8.46,-262.18 -11.28,-362.86 -0.56,-16.54 -12.99,-28.84 -29.35,-29.51 -15.23,-0.67 -30.47,12.14 -30.47,27.88 -20.88,266.07 -63.2,514.36 -104.95,754.32 -29.35,173.8 -59.25,345.12 -79.57,517.35 -47.41,402.08 -45.72,813.52 111.16,1295.26 46.28,142.78 296.83,859.96 660.24,976.67 27.1,8.46 53.62,13.42 80.14,15.34 -14.67,71.5 -25.96,143.79 -34.98,216.75 -93.11,798.12 148.97,1664.33 336.32,2185.31 55.3,392.02 161.96,782.3 319.4,1166.43 -38.93,-44.09 -77.31,-88.11 -115.11,-132.5 -209.93,-339.68 -347.61,-778.6 -474.03,-1180.78 -69.41,-219.18 -134.3,-425.77 -206.53,-604.32 -330.13,-815.82 -641.62,-1468.95 -1171.52,-2201.99 -7.34,-10.61 -20.88,-15.36 -33.29,-11.23 -11.29,4.06 -19.2,13.42 -20.89,25.34 0,1.18 0,2.43 0.58,3.62 1.68,920.77 255.06,2336.76 960.45,3294.39 256.77,348.86 576.17,597.72 884.85,837.75 95.37,74.16 192.99,150.44 289.48,229.45 235.9,504.51 558.11,997.27 961.02,1469.88 -421.53,-240.18 -743.76,-665.84 -1056.39,-1079.49 -165.34,-218.43 -321.09,-424.28 -489.24,-602 -219.52,-231.98 -489.82,-425.31 -749.98,-612.1 -318.26,-227.93 -646.14,-463.81 -882.02,-768.04 -10.16,-13.31 -28.22,-15.39 -41.75,-5.45 -6.78,5.23 -10.73,12.64 -11.29,20.48 -1.12,7.05 0.56,15.13 5.09,21.05 170.42,225.83 282.16,494.24 390.5,754.32 123.01,296.27 251.12,602.8 467.81,861.25 368.51,438.87 731.35,764.8 1139.35,1025.13 486.43,310.81 905.16,482.97 1392.15,571.13 181.72,199.71 376.97,395.81 587.45,586.89 141.49,128.67 290.19,248.69 445.22,361.23zm937.62 0l63.14 0c-314.18,-708.22 -295.07,-1727 -105.18,-2446.3 50.79,465.11 160.84,940.82 267.49,1401.41 79.58,343.84 160.87,694.6 218.54,1044.89l60.95 0c-57.86,-355.34 -140.03,-710.5 -220.8,-1058.45 -113.43,-489.93 -230.81,-996.66 -275.95,-1487.06 -0.56,-2.43 -0.56,-4.85 -1.7,-6.81 233.38,293.67 457.88,831 595.92,1399.16l0 -221.26c-151.76,-539.06 -373.93,-1025.98 -599.87,-1276.44 -7.33,-7.41 -18.04,-11.1 -28.78,-8.69 -10.16,1.63 -18.62,9.81 -22.01,19.74 -71.1,218.44 -125.84,473.25 -157.43,744.62 -74.29,629.47 -28.71,1347.57 205.68,1895.19zm-3348.33 -2881.32c-319.4,-248.65 -621.31,-483.85 -872.99,-825.66 -632.03,-858.26 -896.68,-2089.24 -941.83,-2991.45 0,-0.69 0,-0.69 0,-0.69 0,0.11 0,0 0,-0.11 66.58,451.11 290.62,995.06 491.52,1481.87 62.63,151.64 121.89,295.03 171.54,424.99 231.37,604.1 619.61,1233.15 1129.75,1834.8 0,0.24 0,0.35 0.56,0.51 0.58,0.78 1.14,0.78 1.14,1.36 25.39,43 52.48,82.44 81.26,122.13 -19.76,-15.55 -40.07,-31.34 -60.95,-47.75zm-712.17 -1877.64c71.1,175.88 136,381.86 204.29,599.79 95.93,305.86 199.2,631.85 335.2,921.86l0 0.11c-409.7,-521.99 -724.58,-1058.85 -923.21,-1576.68 -49.67,-130.8 -108.92,-274.42 -172.12,-426.38 -212.19,-514.66 -450.89,-1093.47 -498.28,-1551.36 461.03,666.4 749.39,1279.63 1054.12,2032.66zm291.76 -1675.33c4.51,-21.27 9.6,-42.44 14.11,-63.6 7.34,-28.83 14.11,-56.93 22.57,-85.6 5.09,-19.98 11.29,-39.89 17.5,-59.65 1.12,-4.73 3.38,-8.69 4.51,-13.32 6.21,-21.04 13.55,-42.66 22.01,-63.36 20.88,-59.87 45.14,-119.3 72.8,-177.14 -0.58,80.92 -1.7,161.79 -2.83,242.15 0,18.17 -0.56,36.28 -1.12,54.34 0.56,7.95 0,15.23 0,22.46 0,5.31 0,10.16 0,15.69l-0.58 24.65c0,15.69 0,32.12 -0.56,47.64 -7.9,714.07 -14.11,1448.7 56.99,2170.05 -181.14,-575.99 -356.64,-1394.34 -205.41,-2114.3zm-123.59 -70.88c-260.15,-83.85 -497.16,-557.42 -621.31,-937.94 -220.08,-674.98 -127.52,-1213.67 -29.34,-1783.84 18.62,-107.33 36.68,-215.23 53.6,-327.03 -5.63,143.39 -18.62,289.44 -31.03,443.32 -36.12,420.92 -74.49,856.01 22.57,1241.77 90.86,362.63 340.85,1009.62 712.17,1253.51 -12.41,41.01 -22.57,82.11 -31.61,123.35 -24.83,-0.45 -49.65,-5.18 -75.05,-13.15zm134.3 -199.94c-3.38,9.82 -6.21,19.2 -9.02,28.44 -325.04,-227.47 -572.22,-805.2 -672.66,-1206.48 -94.25,-375.78 -56.99,-806.29 -20.89,-1222.26l1.14 -8.35c59.81,844.73 221.21,1891.75 701.43,2408.65zm106.66 -451.33c1.12,0.69 2.26,0.91 3.38,1.14 -1.68,3.33 -2.26,6.83 -3.94,11.01 0,-4.29 0.56,-7.79 0.56,-12.14zm36.12 -449.86c11.84,-80.81 31.03,-161.51 55.3,-240.17 89.72,-293.61 249.43,-574.25 397.27,-834.35 23.71,-41.97 47.41,-83.34 70.54,-124.75 145.6,-259.25 270.86,-555.85 391.64,-842.75 155.76,-367.03 314.33,-739.54 521.99,-1060.41 -121.33,721.08 -456.53,1361.97 -780.44,1982.94 -214.45,410.08 -435.1,831.68 -595.35,1278.39l0 0.67c-20.89,58.64 -41.21,117.27 -59.83,177.32 -2.26,8.29 -5.65,16.36 -7.33,25.16 -16.38,-122.23 -12.43,-243.38 6.21,-362.06zm488.68 -202.48c-143.9,218.89 -291.74,443.38 -427.74,669.89 -20.89,33.86 -40.63,68.46 -60.39,102.38 -2.26,3.22 -4.51,6.77 -6.21,10.16 1.7,-8.35 3.95,-15.85 6.21,-24.15l0 -1.18c18.62,-69.74 38.37,-138.77 60.39,-206.99 160.83,-506.58 407.98,-979.93 648.39,-1439.68 344.22,-659.06 701.43,-1340.96 804.71,-2121.53 0.56,-1.79 1.12,-4.22 1.12,-5.97 15.8,-22.23 32.74,-44.53 49.11,-66.14 165.9,1197.64 -464.43,2155.62 -1075.59,3083.23zm-287.23 3747.15c-7.9,33.5 -16.36,67.65 -25.4,100.95 -9.58,-25.9 -19.74,-53.67 -29.9,-82.11 -3.95,-24.67 -7.9,-49.84 -10.16,-74.94 -0.58,-4.4 -1.14,-9.26 -2.27,-13.55 -95.37,-791.4 -87.47,-1605.13 -78.43,-2393.24 0,-12.13 0.56,-24.71 0.56,-36.84 0,-5.36 0,-11.45 0,-16.94 1.7,-2.19 1.7,-4.62 2.26,-6.43 1.7,-6.37 0.56,-13.2 -2.26,-19.58 2.26,-135.15 3.95,-271.71 3.95,-408.9 24.83,-43.69 51.92,-86.46 80.7,-128.43 142.21,975.29 300.22,2070.44 60.95,3080.01zm548.51 174.71c34.98,-174.93 71.1,-355.12 97.07,-532.26 5.63,-36.92 10.72,-73.71 15.23,-111.96 22.57,-190.82 33.29,-390.85 44.02,-601.23 22.57,-410.58 45.14,-831.84 161.39,-1196.61 54.18,712.09 -82.96,1394.98 -216.13,2055.52 -71.68,357.98 -145.6,723.61 -189.62,1097.58 -17.48,145.02 -29.9,291.68 -36.1,439.08 -2.83,-6.37 -5.65,-13.37 -8.48,-19.85 -19.74,-369.85 57.57,-755.63 132.62,-1130.26zm371.32 -2590.03c378.09,1115.08 66.58,2669.47 -437.35,3804.46 16.36,-544.21 123.03,-1074.72 226.86,-1589.19 134.86,-671.65 274.82,-1367.01 215.01,-2096.64 -1.7,-16.65 -15.8,-28.55 -32.17,-27.43 -2.82,0.22 -5.09,0.51 -7.9,2.1 10.72,-32.12 22.57,-62.75 35.56,-93.29zm409.12 3059.42c53.6,348.97 58.69,724.79 61.51,1090.18 -13.53,-82.65 -28.22,-164.99 -42.33,-246.89 -28.78,-160.94 -55.3,-312.9 -77.87,-463.23 -24.83,-164.67 -40.63,-335.09 -55.86,-499.96 -24.84,-261.51 -50.23,-531.99 -110.61,-783.61 -2.82,-13.48 -14.67,-22.07 -28.22,-22.52 0,0 0,0 0,-0.11 4.51,-33.32 10.72,-67.1 16.36,-100.86 120.77,334.07 189.62,719.61 237.02,1027.01zm68.85 1538.29c0,0.46 0,0.8 0,1.02 1.7,138.21 7.9,273.76 19.76,408.11 -35,-89.27 -72.24,-177.77 -108.92,-264.32 -87.47,-205.63 -177.19,-418.89 -229.67,-647.59 -118.5,-523.4 -125.28,-1133.83 -19.2,-1856.19 48.53,228.14 72.8,470.63 94.81,706.51 15.24,165.5 31.61,336.83 56.43,503.15 22.57,151.1 49.09,303.43 77.87,464.77 40.07,226.15 80.14,456.18 108.92,684.54zm-892.75 -694.38c178.89,-390.77 335.78,-835 449.19,-1296.45 -55.3,568.71 -32.73,1064.25 66.59,1501.69 52.48,233.67 143.9,448.81 232.51,657.53 68.27,160.17 133.17,313.81 181.14,473.87 0,1.17 0,2.32 0,3.49 -377.53,-418.72 -689.6,-869.49 -929.43,-1340.13zm1613.94 -193.83c49.65,-512.98 153.48,-1033.56 255.06,-1537.53 28.79,-142.32 57.57,-287.69 85.21,-433.16 -20.88,404.5 -54.16,812.48 -85.77,1209.7 -81.26,1008.19 -165.34,2049.98 -59.25,3065.18 -360.03,-612.74 -237.58,-1867.75 -195.25,-2304.19zm493.77 989.64c-25.4,137.86 -62.08,295.69 -100.46,462.77 -59.25,257.89 -119.62,520.58 -148.41,744.5 -89.16,-978.17 -8.46,-1981.02 69.42,-2953.26 36.68,-453.41 73.92,-919.61 94.23,-1381.1 328.99,843.8 257.33,2189.24 85.21,3127.09zm-2528.68 207.93c-403.47,-256.76 -761.26,-578.94 -1125.8,-1012.66 -211.61,-251.62 -337.46,-554.37 -458.79,-846.25 -24.83,-61.06 -51.35,-122.12 -76.75,-183.19 -1.12,-1.95 -1.68,-3.94 -2.82,-5.85 0,-0.29 -0.56,-0.61 -0.56,-0.94 226.28,416.62 553.02,748.37 896.68,1095.66 47.97,48.37 95.93,97.11 143.9,146.48 309.24,315.62 663.06,545.98 1005.04,768.87 260.15,168.97 527.62,343.84 773.1,554.4l0 0c-390.5,-95.61 -748.27,-257.04 -1154.02,-516.52zm-1791.69 -2327.21c0.56,0.11 0.56,0.21 0.56,0.34 0,4.18 0,8.3 1.7,12.48 -3.95,-7.63 -7.33,-14.68 -11.28,-21.74 3.38,2.77 6.21,5.53 9.02,8.93zm102.14 91.8c174.37,153.68 365.67,291.07 553.6,425.77 259.01,185.28 525.94,377.08 742.07,605.11 165.91,174.98 320.53,379.56 484.75,596.6 172.12,227.82 347.05,458.85 540.05,661.88 0.56,0.29 0.56,0.64 1.12,0.96 -72.8,-48.47 -146.16,-96.11 -218.38,-143.28 -339.15,-220.88 -690.16,-449.46 -994.89,-760.44 -47.97,-49.38 -95.93,-98.14 -143.9,-146.62 -383.16,-387.62 -746.58,-754.99 -966.09,-1241.48 0,0.34 0.56,0.56 1.12,0.85l0.56 0.67zm2946.28 2771.11c0,0.11 0,0.11 0,0.21 5.07,2.96 11.28,5.5 16.36,7.92 -5.09,-1.18 -10.72,-2.42 -15.8,-3.62 -0.56,-0.1 -0.56,-0.1 -0.56,-0.1 0,-1.49 0,-3.01 0,-4.41zm-1783.79 -8548.58c-46.84,-522.61 45.14,-1299.66 358.33,-1770.86 103.27,-154.73 198.08,-253.49 268.61,-280.35 -25.95,285.42 -103.27,605.95 -185.09,943.97 -75.61,314.55 -154.06,637.51 -189.6,939.3 -11.85,100.73 -19.2,199.15 -20.32,294.57 -0.56,189.16 -0.56,377.19 -0.56,564.65 0,12.14 0.56,24.27 0,36.86 -103.85,-226.3 -207.68,-461.6 -231.37,-728.13zm764.64 -1618.95c-20.88,241.91 -41.19,486.25 -69.97,729.65 -63.78,543.31 -168.73,1081.95 -403.49,1580.35 0,-187.35 0,-374.92 1.7,-564.09 2.82,-373.4 106.65,-803.79 207.66,-1220.1 82.96,-343.44 161.4,-667.23 186.79,-959.44 54.18,25.16 101.02,150.33 77.31,433.63z"/>
   <path class="fil0" d="M2929.69 11708.87c-15.23,-3.87 -30.47,5.5 -34.42,20.59 -19.18,78.05 -64.32,157.16 -124.15,217.04 -11.28,10.99 -11.28,28.87 0,39.89 5.65,5.81 12.97,8.57 20.88,8.22 6.78,-0.22 13.55,-2.93 18.64,-8.22 67.15,-67.06 117.94,-155.76 139.38,-243.4 3.95,-15.16 -5.07,-30.39 -20.32,-34.12z"/>
   <path class="fil0" d="M2680.84 11578.44c-14.11,6.43 -20.32,23.08 -14.11,37.35 23.69,52.61 25.95,110.66 6.21,159.42 -6.21,14.44 1.12,30.87 15.23,36.68 3.95,1.54 7.9,2.21 11.85,2.11 10.72,-0.48 20.88,-6.96 24.83,-17.52 25.96,-62.87 23.15,-137.23 -6.77,-203.81 -6.21,-14.24 -23.13,-20.4 -37.24,-14.24z"/>
   <path class="fil0" d="M2381.18 11721.21c-3.95,-15 -19.76,-23.69 -34.98,-19.28 -14.67,4.27 -23.71,19.79 -19.2,34.79 22.01,77.17 55.31,152.22 98.76,222.97 5.09,9.02 15.24,13.9 24.83,13.53 4.53,-0.18 9.6,-1.52 13.55,-4.16 13.55,-8.03 17.5,-25.47 9.6,-38.77 -40.63,-66.35 -71.68,-136.78 -92.55,-209.09z"/>
   <path class="fil0" d="M3128.33 11202.16c190.74,-212.46 373.02,-508.26 500.54,-736.03 7.34,-13.64 2.83,-30.74 -10.72,-38.42 -14.11,-7.63 -31.03,-2.75 -38.37,10.78 -213.31,380.92 -418.72,667.47 -594.21,829.07 0,0.4 -0.58,1.2 -1.14,1.66 -2.82,-0.8 -6.21,-1.89 -9.02,-2.32 17.48,-41.27 34.98,-82.33 53.6,-124.66 25.96,-60.21 52.48,-121.06 78.45,-182.23 7.33,-2.72 13.53,-8.46 16.36,-16.75 134.3,-379.22 589.14,-915.21 906.28,-1140.93 94.79,-67.49 231.37,-154.11 326.16,-126.24 40.07,11.68 69.98,43.01 90.86,95.82 77.31,191.19 -220.08,427.87 -362.86,541.57l-19.18 15.69c-204.85,163.87 -391.64,347.52 -572.22,525.17 -117.94,115.83 -238.7,234.7 -364.54,347.82zm-1275.17 2373.79l73.5 0c-102.04,-122.58 -201.92,-248.44 -286.43,-378.39 -318.84,-492.24 -466.11,-849.9 -437.9,-1064.41 3.39,2.78 6.77,6 10.16,8.86 -9.04,7.77 -12.99,20.94 -7.9,32.73 86.33,195.2 190.74,372.52 291.18,544.11 77.31,131.58 157.45,267.71 228.55,410.82 78.08,156.4 176.47,303.77 275.89,446.28l105.58 0c-43.94,-74.86 -86.81,-151.47 -126.4,-230.36 -47.96,-96.22 -93.67,-200.51 -142.21,-310.95 -156.32,-356.12 -333.51,-759.61 -637.67,-973.75 -7.89,-5.33 -17.48,-6.49 -25.95,-3.41 -8.46,3.18 -15.24,10.35 -17.5,19.24 -90.28,337.98 306.42,950.32 436.78,1151.49 77.6,119.64 167.53,235.19 260.32,347.74zm653.41 0l57.06 0 3.22 -21.85c33.29,-225.15 67.15,-458.04 91.42,-693.71 6.77,-62.69 9.58,-122.68 11.28,-181.3 15.8,255.4 -10.16,521.88 -36.68,780.55 -3.79,38.49 -7.65,77.33 -11.41,116.31l56.91 0c3.6,-37.08 7.31,-74.03 10.93,-110.66 28.78,-287.24 58.69,-584.31 31.03,-867.88 -5.65,-57.55 -14.11,-114.02 -23.13,-170.2 18.06,-121.99 104.95,-237.4 197.51,-357.93 89.72,-117.83 182.84,-239.54 208.22,-372.33 14.11,-72.62 22.01,-262.96 -37.24,-364.51 163.08,-139.2 317.7,-290.94 466.69,-437.99 179.45,-176.6 365.11,-359.2 567.69,-521.33l19.76 -15.39c153.5,-122.34 472.32,-376.63 379.78,-606.88 -27.66,-68.88 -70.54,-112.34 -126.98,-128.88 -117.36,-34.25 -262.4,53.86 -375.26,134.38 -222.35,158.15 -511.27,466.1 -714.98,769.42 73.92,-128.27 153.48,-255.57 238.14,-389.92 339.71,-539.42 690.16,-1097.15 616.8,-1742.31l0 -0.11c57.55,-28.22 90.28,-76.83 93.1,-140.86 5.09,-103.5 -72.22,-225.39 -169.29,-265.19 -66.59,-27.47 -130.35,-12.01 -180.02,42.45 -45.14,50.23 -54.72,112.18 -26.52,176.01 35,81.21 128.1,154.96 214.45,176.01 0,1.63 0.56,3.38 0.56,5.07 1.7,6.62 6.78,11.9 11.85,15.08 69.98,624.86 -274.82,1173.26 -608.9,1703.76 -53.6,84.86 -104.39,166.87 -154.04,248.29 20.88,-62.35 46.26,-133.46 75.04,-212.56 154.06,-423.69 365.67,-1004.04 109.48,-1252.55 -6.77,-6.94 -17.48,-9.49 -27.08,-6.94 -404.61,111 -546.82,624.17 -595.35,1035.07 -7.9,65.44 -15.24,130.67 -23.13,195.97 -19.76,175.67 -39.51,347.73 -63.22,517.75 -3.38,-22.22 -5.63,-44.65 -7.89,-66.98 0,-0.35 0,-0.78 0,-1.14 7.89,-161.45 13.53,-354.33 13.53,-555.79 0,-0.43 0,-1.01 0,-1.58 0,0 0,-0.51 0,-1.06 10.16,-101.98 23.15,-204.67 35.56,-306.31 34.42,-273.98 69.97,-557.71 53.04,-815.73 -33.86,-521.62 -73.36,-1111.4 -310.37,-1672.82 56.99,-33.19 90.3,-89.74 92.55,-159.88 1.68,-94.97 -55.87,-192.19 -134.88,-225.39 -41.19,-17.04 -123.59,-31.93 -215.01,62.42 -100.44,103.16 -81.26,236.84 -11.84,309.93 34.42,35.94 83.52,59.54 139.94,57.33 24.84,-0.9 51.92,-6.94 79.01,-19.87 231.95,551.95 270.3,1135.56 304.17,1652.12 15.24,226.41 -11.28,475.95 -42.33,721.09 0,0 0,0 0,0.58 0,0.94 0,1.95 0,2.93 -28.22,-525.28 -120.76,-1006.87 -362.28,-1041.67 -64.9,-9.25 -119.08,9.37 -161.96,55.47 -272.56,294.06 28.78,1746.93 178.89,2430.48l-19.18 -42.66c0,-0.32 0,-0.67 0,-0.96 -41.77,-176.9 -119.08,-353.58 -193.55,-524.18 -48.53,-111.69 -99.32,-227.19 -138.83,-340.38 -66.59,-191.76 -101.02,-382.9 -138.26,-585.37 -19.76,-106.53 -40.07,-216.57 -64.9,-326.23 -93.11,-406.48 -216.13,-884.62 -424.36,-1373.2 53.62,-28.55 93.11,-76.93 110.04,-140.17 25.4,-90.86 -0.56,-189.16 -62.07,-234.92 -32.73,-23.03 -101.58,-52.66 -205.41,14.56 -98.76,63.6 -108.92,187.68 -69.98,272.56 24.27,51.08 63.2,85.21 108.92,98.14 5.07,9.98 15.23,16.41 26.52,15.96l1.7 -0.11c12.97,-1.12 25.39,-3.22 37.24,-5.87 207.1,485.09 329.55,961.02 422.67,1365.87 14.11,60.26 26.52,121.22 37.26,181.59 -88.04,-290.51 -207.68,-558.33 -388.26,-610.7 -89.72,-26.03 -156.88,-14.78 -199.76,33.42 -104.39,116.58 -45.14,444.62 176.07,974.84l3.38 8.91c128.11,307.54 286.11,598.96 441.86,881.23 -10.16,-10.83 -19.76,-21.61 -29.91,-32.57 -0.56,-0.72 -1.12,-1.63 -2.26,-2.42 -2.26,-4.06 -5.07,-8.25 -7.9,-12.3 -67.71,-99.45 -137.7,-202.26 -202.02,-303.43 -74.49,-117.03 -153.5,-222.46 -230.81,-317.65 0,-0.35 -0.56,-0.56 -0.56,-0.78 -134.3,-232.67 -246.04,-460.48 -321.09,-623.17 -190.74,-409.6 -310.37,-734.8 -384.87,-1045.39 52.48,-20.62 95.95,-70.21 121.33,-140.64 28.78,-77.92 32.17,-180.36 -22.57,-234.12 -24.27,-23.95 -69.97,-46.52 -146.72,-17 -75.61,28.79 -119.64,98.76 -119.08,187.41 1.14,88.04 44.02,170.02 105.53,206.1 1.7,1.63 3.95,2.77 5.65,3.79 74.49,317.41 195.81,647.03 388.8,1063.88 50.23,108.58 117.38,246.33 195.83,394.8 -12.99,-14.11 -25.4,-28.33 -38.37,-41.86 -70.54,-76.43 -139.39,-165.47 -212.19,-259.83 -123.57,-159.13 -251.68,-323.91 -391.62,-429.95 -6.78,-5.2 -15.24,-6.94 -23.71,-4.97 -8.46,2.05 -15.24,7.74 -18.62,15.36 -156.88,330.07 244.9,895.96 484.73,1234.09 37.26,52.84 71.1,100.15 98.2,140.17l20.88 31.1c150.67,224.32 321.09,478.58 522.55,659.12 44.02,39.89 97.07,77.49 148.41,113.8 123.59,87.87 250.56,178.89 282.16,313.49 18.62,130.29 72.8,300.89 161.96,510.98 76.17,178.77 151.8,289.76 321.65,355.66 5.65,118.58 5.09,240.81 -8.46,373.75 -24.27,234.33 -58.13,466.64 -91.42,691.28l-4.4 29.99zm883.26 0l63.06 0c26.73,-54.1 53.24,-110.93 80.61,-169.42 84.65,-182.1 172.68,-369.34 281.04,-498.39 4.05,126.82 -86.92,394.91 -200.22,667.81l60.79 0c70.24,-170.52 142.32,-365.15 176.12,-516.93 3.54,146.35 -37.67,333.23 -98.34,516.93l58.31 0c89.11,-276.64 134.34,-561.36 52.45,-719.17 -0.56,-2.43 -0.56,-5.53 -1.14,-7.85 -2.26,-5.79 -6.21,-10.27 -10.72,-13.53 0,-0.22 0,-0.32 0,-0.46 -5.07,-7.28 -12.41,-11.9 -20.88,-12.8 -8.46,-0.62 -17.5,2.3 -23.15,8.53 -130.91,135.09 -229.67,347.05 -325.6,552.06 -31.18,67.31 -61.55,132.35 -92.31,193.23zm-342.21 -1889.62c-22.57,119.75 -111.73,236.1 -198.07,348.64 -65.47,86.11 -132.05,173.82 -173.26,266.31 -20.32,-122.58 -39.49,-248.53 -36.1,-377.93 0,-15.56 -12.41,-28.44 -27.66,-28.76 -4.51,-0.11 -8.46,1.06 -11.85,2.75 -5.07,-2.99 -10.72,-4.85 -16.92,-4.02 -15.24,1.47 -26.52,15.26 -25.4,30.74 6.78,67.9 13.55,133.3 20.89,197.3 10.72,99.88 20.88,197.51 27.64,296.84 -134.86,-59.94 -198.07,-156.16 -265.79,-315 -92.54,-218.11 -137.68,-370.87 -155.18,-478.66 0.56,-3.66 0.56,-7.39 0,-11.18 -1.14,-4.41 -2.82,-8.24 -3.95,-12.53 -8.46,-62.07 -6.77,-107.57 -0.56,-140.73 1.7,-0.45 2.82,-0.45 4.51,-1.02 14.11,-6.14 20.88,-22.68 14.67,-37.02 -1.12,-2.77 -2.82,-5.31 -3.95,-7.95 5.65,-10.78 11.85,-19.2 18.06,-25.35 18.06,-17.72 37.82,-25.79 60.39,-26.7 42.89,-1.63 95.93,23.72 165.34,59.22 27.66,14.22 56.43,28.89 86.35,41.64 5.65,7.01 13.53,11.76 23.13,11.5l0 0c1.14,0 2.26,-0.54 2.83,-0.66 63.2,23.8 128.66,35.93 195.81,13.42 50.79,-16.89 85.21,-59.07 115.68,-96.33 23.13,-28.22 41.19,-48.92 59.81,-60.16 9.6,1.74 19.2,-1.7 25.96,-9.25 9.6,-0.91 19.76,0.5 31.61,4.85 76.73,28.46 86.33,252.48 66.02,360.03zm-1261.8 1370.99c47.97,110.29 94.23,214.51 142.21,311.29 -55.86,-85.77 -108.34,-173.58 -152.92,-264.08 -72.24,-144.8 -152.92,-281.82 -230.81,-414.27 -90.86,-155.18 -184.53,-315.89 -264.66,-488.88 225.72,218.28 373.58,554.33 506.18,855.94zm91.98 -1802.47c-52.47,-37.11 -101.58,-72.16 -143.89,-109.85 -195.83,-175.85 -364.55,-427 -512.97,-648.5l-20.88 -31.21c-27.1,-40.34 -60.95,-88.09 -98.76,-141.41 -224.59,-316.15 -594.21,-837.56 -493.77,-1143.78 123.59,102.1 239.27,251.62 351.57,396.61 73.93,95.21 143.9,185.27 216.14,263.52 67.15,72.53 139.38,153.28 212.17,243.01 130.91,226.27 282.72,455.94 442.42,635.4 0,0 0,0 0.56,0.11 133.74,197.06 270.86,400.43 375.83,605.97 -10.72,6.19 -20.88,13.87 -30.47,23.71 -2.82,2.42 -4.51,5.29 -6.77,7.95 -121.89,-243.06 -318.84,-452.82 -510.14,-655.8 -120.77,-127.52 -234.76,-248.01 -330.69,-376.06 -9.04,-12.46 -27.1,-15.02 -39.51,-5.65 -12.41,9.37 -14.67,27.16 -5.63,39.57 98.18,130.51 218.38,257.83 334.63,380.9 198.08,209.63 401.79,426.57 517.48,676.82 -5.65,17 -9.6,36.07 -11.85,56.79 -60.95,-86.17 -154.06,-153.08 -245.48,-218.12zm46.84 -496.99c0.58,-1.06 1.14,-2.18 1.14,-3.84 2.26,3.84 4.51,7.85 6.21,11.69 3.39,5.89 6.77,11.92 10.16,17.72 -5.65,-8.46 -11.85,-16.94 -17.5,-25.43l0 -0.14zm-412.51 -952.5c-288.36,-691.55 -226.28,-870.55 -185.65,-915.53 27.66,-30.98 73.92,-36.63 141.65,-16.75 234.18,67.87 368.49,613.81 457.09,974.95 28.22,114.33 52.48,213.07 75.05,277.85 104.95,302.02 236.44,599.7 363.98,887.6l40.07 91.05c9.58,22.11 20.32,44.05 30.47,65.9 35.54,76.05 68.83,148.8 80.68,225.37 -16.36,-7.95 -33.29,-16.28 -49.65,-24.78 -3.95,-2.03 -7.34,-3.98 -11.29,-5.85 1.7,-8.37 0.58,-17.45 -5.07,-24.54 -172.68,-210.21 -305.3,-550.21 -422.11,-850.26 -36.68,-94.01 -71.1,-182.82 -104.97,-263.75 -6.21,-14.35 -23.13,-20.83 -37.24,-14.86 -14.11,6.05 -20.88,22.57 -15.24,36.94 33.86,80.13 68.29,168.49 104.97,262.16 109.48,281.42 233.07,596.31 392.2,813.97 -28.22,-10.67 -55.86,-17.95 -83.52,-19.07 -95.37,-192.66 -200.34,-383 -301.91,-567.27 -163.08,-295.98 -331.81,-601.87 -466.11,-924.17l-3.39 -8.97zm794.55 -1142.5c29.91,-32.28 66.59,-44.76 112.31,-37.96 247.73,35.66 321.65,703 326.74,1351.01 -21.45,206.19 -33.86,410.98 -13.55,604.66 -7.9,162.01 -19.2,305.51 -30.47,414.3l-4.51 41.67c-12.99,127.76 -27.66,258.79 -65.47,375.14 -85.77,-296.73 -71.66,-696.48 -60.37,-1019.04l3.95 -99.99c0.56,-15.52 -11.85,-28.57 -27.66,-29.05 -15.23,-0.8 -28.22,11.66 -28.78,27.31l-3.95 99.77c-8.46,241.58 -18.06,525.83 12.97,781.18 -0.56,-2.1 -1.12,-3.94 -1.68,-6.03 -120.77,-547.06 -489.84,-2211.67 -219.53,-2502.96zm269.18 2758.85c-0.56,-1.41 -0.56,-2.75 -0.56,-4.05 0.56,1.41 0.56,2.88 1.12,4.3 0,-0.11 -0.56,-0.26 -0.56,-0.26zm338.02 -1302.3c7.34,-65.12 14.68,-130.43 22.57,-195.76 45.72,-388.07 176.63,-870.63 538.93,-982.58 211.05,230.35 11.85,778.81 -134.88,1181.11 -44.58,122.84 -83.52,229.11 -104.39,310.47 -59.25,227.82 -160.83,461.33 -259.03,687.05 -23.13,52.71 -45.14,104.28 -67.15,155.07 -29.9,13.71 -54.74,38.82 -76.17,64.29 78.45,-160.65 123.59,-325.35 159.71,-471.49 16.92,-69.46 25.95,-143.61 34.41,-215.39 13.55,-114.95 27.66,-233.86 76.19,-333.62 6.77,-14.01 1.14,-31 -12.97,-37.82 -14.11,-6.94 -31.05,-0.98 -37.82,13.04 -53.04,108.45 -67.71,232.09 -81.82,351.79 -8.46,73.31 -16.36,142.41 -32.73,208.49 -43.46,176.82 -99.9,381.27 -214.45,569.53 -2.26,3.87 -3.39,8.17 -3.95,12.48 -10.16,2.75 -20.88,4.62 -31.59,5.39 123.01,-436.04 172.68,-866.77 225.15,-1322.06zm343.1 442.76c2.26,-1.36 3.95,-3.78 5.65,-5.77 -2.26,3.84 -5.07,7.85 -7.34,11.69 0.58,-1.97 1.14,-3.95 1.7,-5.92z"/>
   <path class="fil0" d="M2536.38 10157.56c4.51,2.83 10.16,4.19 15.23,3.95 9.6,-0.34 18.06,-5.18 23.13,-13.64 29.91,-49.84 41.77,-121.78 31.05,-187.7 -2.83,-15.34 -16.94,-26.01 -32.73,-23.23 -15.24,2.46 -25.4,17.04 -23.15,32.38 8.46,52.52 -0.56,111.16 -23.13,149.53 -8.46,13.32 -3.95,30.76 9.6,38.71z"/>
   <path class="fil0" d="M3071.34 10179.07c1.7,0.16 3.39,0.16 4.51,0.16 13.55,-0.51 25.4,-10.89 27.08,-24.78 3.39,-29.23 8.48,-58.5 15.24,-86.94 3.39,-15.26 -6.21,-30.31 -21.45,-33.88 -15.23,-3.38 -30.47,6 -33.85,21.16 -6.78,30.42 -12.41,61.63 -15.8,92.95 -2.26,15.4 9.02,29.51 24.27,31.32z"/>
   <path class="fil0" d="M3760.92 10271.95c-13.53,-7.39 -31.03,-2.32 -38.37,11.45 -12.41,23.82 -31.59,39.22 -57.55,46.96 -15.23,4.4 -23.71,20.2 -19.18,35.05 3.95,12.59 15.79,20.59 28.22,20.19 2.26,-0.11 4.51,-0.45 6.77,-1.12 40.07,-11.9 71.66,-37.59 91.42,-74.27 7.9,-13.77 2.26,-30.86 -11.29,-38.26z"/>
   <path class="fil0" d="M1795.99 9940.87c-6.21,-14.33 -23.13,-20.59 -37.24,-14.44 -14.11,6.27 -20.89,22.91 -14.67,37.24l47.96 108.02c4.51,10.94 15.8,17.21 27.08,16.75 3.39,-0.11 6.78,-0.8 10.16,-2.32 14.11,-6.25 20.89,-22.91 14.11,-37.24l-47.4 -108.01z"/>
   <path class="fil0" d="M1203.46 10124.27c-7.89,-13.37 -25.39,-17.44 -38.36,-9.36 -13.55,8.11 -17.5,25.56 -9.6,38.77 19.18,31.77 39.49,63.59 60.39,94.46 5.63,8.53 15.23,13.02 24.25,12.59 5.09,-0.11 10.16,-1.71 14.68,-4.64 12.97,-8.75 16.36,-26.12 7.9,-39.17 -20.32,-30.41 -40.07,-61.43 -59.27,-92.65z"/>
   <path class="fil0" d="M11726.74 33.7c0,0 -118.5,180.69 28.22,245.88 146.73,65.12 198.08,-58.63 187.92,-145.98 -9.6,-87.53 -54.18,-187.08 -216.14,-99.9z"/>
   <path class="fil0" d="M46.07 6661.44c0,0 -120.77,183.91 28.78,250.39 149.53,66.24 202.02,-59.76 191.86,-148.81 -10.16,-89.05 -55.3,-190.45 -220.64,-101.58z"/>
   <path class="fil0" d="M6406.43 11140.08c0,0 -120.77,183.86 28.78,250.28 149.53,66.24 202.02,-59.57 191.86,-148.75 -10.16,-89.05 -55.3,-190.45 -220.64,-101.53z"/>
   <path class="fil0" d="M10411.9 977.07c0,0 -124.71,190.47 29.91,258.91 154.06,68.78 208.22,-61.63 198.07,-153.66 -10.72,-92.04 -56.99,-196.83 -227.98,-105.26z"/>
   <path class="fil0" d="M7912.57 10346.89c0,0 -86.35,130.91 20.32,178.34 106.09,47.28 143.9,-42.57 136.56,-106.17 -7.33,-63.27 -39.49,-135.66 -156.88,-72.17z"/>
   <path class="fil0" d="M7358.41 9450.48c0,0 -85.77,130.98 20.32,178.28 106.66,47.22 143.9,-42.57 136.56,-106.15 -6.77,-63.27 -38.93,-135.62 -156.88,-72.13z"/>
   <path class="fil0" d="M4798.13 6695.24c0,0 -85.77,130.91 20.32,178.21 106.65,47.28 143.9,-42.55 136.56,-106.09 -6.77,-63.33 -38.93,-135.62 -156.88,-72.13z"/>
   <path class="fil0" d="M4120.96 5409.06c0,0 -85.79,131.03 20.32,178.33 106.65,47.28 143.89,-42.55 136.56,-106.15 -6.78,-63.27 -38.93,-135.55 -156.88,-72.17z"/>
  </g>
 </g>
</svg>
