<?xml version="1.0" encoding="UTF-8"?>
<!DOCTYPE svg PUBLIC "-//W3C//DTD SVG 1.1//EN" "http://www.w3.org/Graphics/SVG/1.1/DTD/svg11.dtd">
<!-- Creator: CorelDRAW 2018 (64-Bit) -->
<svg xmlns="http://www.w3.org/2000/svg" xml:space="preserve" width="73.0428mm" height="89.417mm" version="1.1" style="shape-rendering:geometricPrecision; text-rendering:geometricPrecision; image-rendering:optimizeQuality; fill-rule:evenodd; clip-rule:evenodd"
viewBox="0 0 1745.48 2136.77"
 xmlns:xlink="http://www.w3.org/1999/xlink">
 <defs>
  <style type="text/css">
   <![CDATA[
    .fil0 {fill:rgb(253, 250, 244);fill-rule:nonzero}
   ]]>
  </style>
 </defs>
 <g id="Layer_x0020_1">
  <metadata id="CorelCorpID_0Corel-Layer"/>
  <g id="_1796992858176">
   <path class="fil0" d="M1632.05 0l-18.01 0c0.81,1.96 1.52,3.92 2.12,5.85 -7.58,-2.86 -15.3,-3.92 -23.39,-4.94 -2.25,-0.28 -4.52,-0.57 -6.83,-0.91l-78.66 0c24.97,1.44 49.01,3.36 72.66,7.57 4,0.73 7.91,1.22 11.76,1.7 9.54,1.21 18.55,2.36 26.78,6.81 1.53,0.84 3.36,0.62 4.65,-0.41 0.42,-0.34 0.79,-0.77 1.06,-1.28 0.65,-1.2 0.6,-2.54 0.08,-3.69 0.02,-0.02 0.04,-0.03 0.05,-0.04 2.97,-2.95 5.54,-6.5 7.71,-10.66zm-425.79 0l-8.92 0c6.8,19.91 13.74,39.68 20.57,59.14 41.59,118.21 84.5,240.45 87.7,370.17 0.3,11.82 0.88,25.05 1.8,39.37 -0.13,0.46 -0.22,0.94 -0.18,1.45 0.14,1.92 0.41,3.82 0.67,5.72 0.02,0.21 0.03,0.41 0.05,0.62 -0.07,0.05 -0.07,0.05 -0.02,0.11 0.68,9.5 1.43,19.47 2.44,30.02 0.71,8.72 1.68,17.76 2.69,27.1 5.76,54.14 15.28,118.11 29.61,188.08 0.52,2.81 1.16,5.64 1.73,8.64 5.94,28.19 12.6,57.41 20.13,87.34l0.05 0.07c0.4,1.84 0.92,3.69 1.37,5.49 10.89,43 23.54,87.41 38.16,132.51 -27.08,-77.67 -49.11,-151.61 -66.23,-221.93 -0.69,-2.9 -1.34,-5.73 -2.03,-8.63 -26.84,-111.88 -40.94,-214.08 -42.13,-305.68 -0.11,-8.77 -0.4,-17.49 -0.83,-26.12 0.11,-0.41 0.15,-0.77 0.19,-1.12 0.08,-0.71 -0.03,-1.38 -0.38,-1.96 -7.22,-130.83 -50.63,-248.46 -92.82,-362.41 -3.43,-9.3 -6.88,-18.62 -10.31,-27.99l-8.94 0c3.79,10.32 7.63,20.58 11.39,30.84 38,103.05 77.1,209.1 89.37,324.77 -0.88,0.93 -1.35,2.37 -1.08,3.78 4.44,19.44 -15.26,44.07 -32.53,65.79 -7.52,9.36 -14.57,18.24 -19.2,26.07 -14.2,24.2 -29.24,50.08 -43.86,76.46 -65.67,2.68 -117.37,33.06 -149.82,88.3 -5.33,9.12 -10.04,18.6 -14.14,28.57 -1.77,0.7 -2.93,2.47 -2.65,4.44 0.06,0.43 0.23,0.79 0.4,1.16l0 0.01c-26.02,66.93 -26.23,150.03 -10.07,222.41 0.01,0.03 0.01,0.07 0.02,0.1 -0.67,0.97 -0.98,2.2 -0.67,3.43 0.31,1.21 1.14,2.14 2.17,2.67 0,0.01 0,0.02 0.01,0.03 8.27,35.16 20.48,67.4 35.41,93.89 1.2,2.17 2.38,4.47 3.57,6.75 6.29,11.91 13.44,25.42 27.41,29.78 1.45,0.46 2.81,0.13 3.93,-0.77 0.45,-0.36 0.86,-0.8 1.04,-1.37 10.25,-4.86 21.35,-12.45 32.46,-21.35 24.03,-19.23 48.58,-44.82 66.81,-63.85l1.9 -1.95c11.37,-11.81 21.35,-24.45 30.05,-37.46l0.07 -0.05c0.02,-0.02 0.03,-0.06 0.06,-0.08 -0.3,2.06 -0.57,4.12 -0.79,6.12 -8.72,77.23 17.16,147.11 66.55,193.46 -0.55,1.99 0.35,4.14 2.31,4.98 0.99,0.44 2,0.34 2.94,0.02 24.37,21.29 54,37.09 87.78,45.54 12.45,3.12 24.97,5.32 37.08,7.46 28.24,4.98 54.91,9.68 78.22,25.01 0.03,0.01 0.05,0 0.07,0.02 -0.09,2.01 1.32,3.79 3.37,4.2l0.04 0.07 0.22 0.26c1.29,1.88 3.93,2.47 5.86,1.25l0.32 -0.26c1.72,-1.38 2.1,-3.73 0.93,-5.6 -0.61,-0.91 -1.11,-1.8 -1.74,-2.71l-0.05 -0.07c3.06,-16.81 8.39,-32.41 14.06,-48.94 2.64,-7.63 5.34,-15.3 7.77,-23.18 23.85,-77.61 40.97,-188.95 -13.25,-279.34l-0.05 -0.06c0.06,-1.68 -0.82,-3.34 -2.44,-4l-0.06 -0.06c-8.61,-13.73 -25.69,-38.29 -49.03,-58.69 30.93,14.76 74.16,16.43 131.38,5.09 24.21,-4.82 68.69,-20.76 99.68,-45.58 13.3,-10.65 24.14,-22.88 29.8,-36.7 0.46,0.17 1.04,0.34 1.58,0.35 1.01,0.05 2.01,-0.32 2.74,-0.9 0.91,-0.73 1.52,-1.87 1.6,-3.12 0.08,-1.79 0.1,-3.64 -0.05,-5.46l0.02 -0.12c0.24,-0.84 0.2,-1.7 -0.08,-2.51 0,-0.05 0,-0.08 0,-0.13 0,0 -0.05,-0.06 -0.08,-0.1 -0.01,-0.03 -0.02,-0.06 -0.03,-0.08 -2.92,-37.84 -34.71,-76.61 -94.5,-115.44l-1.67 -1.14c-6.82,-4.48 -13.71,-8.9 -20.74,-13.1 0,0 0.07,-0.05 -0.05,-0.07l0 0c-0.04,-0.43 -0.09,-0.87 -0.27,-1.29 -0.91,-2.11 -3.32,-3.09 -5.45,-2.23 -0.02,-0.02 -0.04,-0.03 -0.07,-0.05l-0.07 0.06c-32.34,-19.36 -66.71,-33.96 -107.17,-24.36 -37.44,8.81 -80.23,38.42 -94.47,79.18 -40.68,-29.1 -74.14,-66.85 -78.82,-107.52 -1.05,-15.89 -1.83,-30.47 -2.11,-43.44 -1.86,-76.79 -17.49,-150.68 -38.42,-222.68 19.67,8.23 39.6,17.1 59.21,25.81 0.03,0.01 0.07,0.02 0.09,0.03 -7.8,41.24 5.49,80.52 38.67,113.66 0.8,0.81 1.71,1.54 2.54,2.34 0.49,1.36 1.58,2.4 2.96,2.72 60.55,55.95 160.72,77.8 221.46,65.63 31.03,-6.23 58.04,-18.64 79.74,-36.01 26.4,-21.14 44.77,-49.69 53,-83.24 0.05,-0.04 0.08,-0.09 0.13,-0.13l0.06 -0.05c2.12,-2.23 4.01,-4.6 5.38,-6.79 31.75,-52.2 -58.52,-115.45 -97.08,-142.58l-4.67 -3.28c-58.35,-41.19 -158.36,-68.04 -228.95,-36.69 -38.48,17.09 -62.63,50.03 -70.12,95.45 -1.16,-0.37 -2.37,-0.8 -3.65,-1.18 -26.83,-8.43 -42.92,-21.26 -61.67,-36.17 -4.01,-3.26 -8.27,-6.55 -12.68,-10.04l-0.05 -0.07c-10.92,-33.59 -22.54,-66.73 -34.02,-99.54 -6.56,-18.56 -13.19,-37.41 -19.69,-56.37zm-32.07 0l-9.27 0c-9.24,19.8 -20.62,38.18 -32.51,57.29 -2.11,3.42 -4.24,6.84 -6.36,10.28 -0.79,1.29 -1.54,2.64 -2.42,3.99 -0.65,1.06 -1.31,2.13 -1.91,3.27 -7.54,12.29 -14.67,24.58 -21.63,36.64 -6.24,10.83 -12.39,21.48 -18.65,31.88l-3.9 6.47c-11.05,18.03 -22.58,35.58 -36.07,52.75 -16.96,21.56 -31.43,41.79 -43.75,61.36 -1.43,2.23 -2.82,4.43 -4.15,6.67 -14.65,23.93 -26.2,47.01 -35.57,70.92 -1,2.65 -2.02,5.29 -2.98,7.89 -1.98,5.47 -3.92,11.02 -5.72,16.57 -2.07,6.19 -4.23,12.13 -6.62,17.92 -1,2.53 -1.99,5.05 -3.03,7.4 -1.75,4.42 -3.6,8.71 -5.51,12.94 -3.85,8.81 -7.8,17.8 -11.37,27.36 0.97,-3.37 1.9,-6.81 2.98,-10.17 3.52,-11.13 6.88,-22.04 10.13,-32.83 12.64,-41.67 24.62,-80.94 45.56,-120.6 23.32,-44.26 53.9,-86.99 83.48,-128.27 16.52,-23.07 33.22,-46.47 48.87,-70.33 1.44,-2.12 2.89,-4.37 4.28,-6.55 13.18,-20.48 25.5,-41.39 36.13,-62.83l-9.41 0c-10.41,20.47 -22.35,40.5 -35.06,60.23 0,0 0,0 -0.01,0.01 -83.29,-21.64 -147.57,-9.89 -199.73,37.97 -1.25,0.39 -2.23,1.32 -2.69,2.56 -20.69,19.63 -39.51,44.87 -56.78,76.32 -0.49,0.88 -0.87,1.8 -1.33,2.69 -0.02,0 -0.03,0 -0.06,0.02 -2.01,0.81 -2.95,2.94 -2.42,4.97 -11.64,23.35 -19.12,48.61 -22.29,75.13 -0.92,0.93 -1.46,2.22 -1.21,3.63 0.1,0.61 0.36,1.15 0.68,1.63 -2.94,30 -0.6,61.46 6.98,93.32 -1.51,0.99 -2.32,2.82 -1.79,4.65 0.51,1.75 2.06,2.89 3.77,3 9.26,35.18 24.66,70.74 46.38,105.26 4.07,6.48 7.7,12.97 11.2,19.25 5.39,9.63 10.46,18.73 17.05,27.82 0.36,0.51 0.83,0.88 1.34,1.17l0.01 0.02c-0.08,0.17 -0.04,0.36 0.08,0.36 -0.01,0.12 -0.03,0.24 0.02,0.31 0.1,0.78 0.24,1.64 0.4,2.38 -0.01,0.12 0.04,0.18 0.1,0.24 0.33,1.9 1.92,3.21 3.89,3.26 1.02,0.05 2.02,-0.33 2.74,-0.9 0.66,-0.52 1.16,-1.26 1.44,-2.12 38.05,-21.4 77.45,-45.7 113.98,-74.94 49.69,-39.77 93.97,-88.73 121.78,-151.91 8.35,-19.11 15.24,-41.14 19.22,-64.1 0,0 0,0 0.06,-0.05 0.51,-0.84 0.68,-1.84 0.51,-2.88 7.11,-42.09 4.8,-86.66 -13.96,-120.9 -6.64,-12.06 -14.85,-25.15 -26.37,-35.48 2.28,-3.77 4.56,-7.54 6.83,-11.19 12.79,-20.51 24.95,-40.11 34.66,-61.73zm-321.08 0l-24.94 0c-2.88,0.88 -5.76,1.71 -8.64,2.48 -0.45,-0.83 -0.91,-1.66 -1.37,-2.48l-9.8 0c0.92,1.5 1.81,3.01 2.67,4.53 -8.67,1.99 -17.47,3.41 -26.21,4.36 -5.58,0.58 -11.54,0.28 -17.33,-0.06 -6.32,-0.35 -12.82,-0.65 -19.04,0.23 -1.36,0.14 -2.73,0.4 -4.11,0.66 -0.45,-3.16 -0.7,-6.4 -0.75,-9.71l-9.7 0c-0.13,2.65 -0.17,5.31 -0.13,7.97 -3.5,-2.42 -6.86,-5.08 -10.08,-7.97l-12.1 0c5.91,6.17 12.35,11.59 19.23,16.16 -1.67,1.55 -1.88,3.99 -0.46,5.77 1.43,1.78 4.07,2.13 5.92,0.66 8.09,-6.48 19.14,-5.92 30.75,-5.29 6.09,0.31 12.41,0.66 18.71,0.03 9.84,-1.06 19.62,-2.74 29.35,-5.03 2.71,-0.66 5.42,-1.32 8.13,-2.1 10.02,-2.74 19.98,-6.14 29.89,-10.2zm414.42 172.65c19.29,15.33 35.99,28.64 64.32,37.59 1.75,0.55 3.49,1.11 5.11,1.64 2.49,0.82 4.98,1.63 7.34,2.44 22.5,7.59 42.22,15.77 61.44,24.68 0.06,0.02 0.11,0.05 0.17,0.08 0.26,0.19 0.49,0.43 0.79,0.57 0.21,0.09 0.42,0.04 0.63,0.09 0.15,0.07 0.31,0.14 0.46,0.22 14.89,6.98 29.53,14.37 45.08,22.32 45.61,23.39 92.28,33.84 138.55,37.6 1.12,0.68 2.46,0.83 3.68,0.34 0.01,0 0.02,0 0.02,0 24.15,1.84 48.2,1.92 71.95,1.26 -45.73,5.31 -95.84,2.58 -145.28,-7.81 -0.8,-0.71 -1.88,-1.13 -3.03,-1.07 -0.3,0.01 -0.57,0.14 -0.83,0.21 -27.07,-5.88 -53.86,-14.12 -79.46,-24.63 -19.85,-8.08 -39.92,-16.84 -59.9,-25.59 -0.01,-0.01 -0.02,-0.02 -0.02,-0.02 0.03,-2.09 -1.41,-3.95 -3.54,-4.26 -1.33,-0.2 -2.55,0.3 -3.46,1.15 0,0 -0.01,-0.01 -0.02,-0.01 -8.4,-3.74 -16.8,-7.49 -25.15,-11.18 -24.29,-10.9 -49.44,-22.09 -73.92,-32.29 -2.58,-8.62 -5.18,-17.13 -7.89,-25.65 1,0.71 1.99,1.53 2.92,2.3zm144.07 -57.02c18.49,-8.22 39.56,-12.11 61.62,-12.61 0.04,0 0.11,0 0.16,0 -39.49,15.11 -84.31,74.8 -93.22,115.71 -0.02,-0.01 -0.05,-0.01 -0.07,-0.03 -10.67,-4.42 -21.89,-8.6 -33.98,-12.64 6.83,-43.8 28.92,-74.22 65.49,-90.43zm113.94 -7.96c0.02,0.02 0.06,0.02 0.09,0.03 -49.21,18.14 -98.58,78.96 -119.16,122.38 -6.02,-2.82 -12.12,-5.46 -18.41,-8.07 8.06,-41.23 58.07,-105.88 96.18,-113.5 2.28,-0.46 3.75,-2.69 3.3,-4.97 -0.03,-0.14 -0.12,-0.25 -0.16,-0.39 0.03,0 0.06,0 0.08,0 12.6,0.5 25.39,2.03 38.07,4.51zm81.44 28.45c-54.74,11.7 -113.75,76.45 -130.15,128.1 -0.02,0 -0.04,-0.01 -0.05,-0.02 -6.7,-2.83 -13.43,-5.98 -20.06,-9.42 -14.62,-7.49 -28.53,-14.6 -42.61,-21.13 21.2,-44.58 76.29,-111.17 126.11,-121.56 0.65,-0.14 1.21,-0.44 1.69,-0.82 0.01,0.01 0.02,0.01 0.03,0 22.99,5.79 45.19,14.37 64.8,24.69 0.08,0.04 0.15,0.1 0.24,0.14zm25.12 15.27c-50.19,12.21 -93.62,73.46 -122.75,114.68l-5.8 8.19c-0.02,-0.01 -0.03,-0.02 -0.06,-0.02 -6.31,-2.07 -12.6,-4.28 -18.85,-6.82 16.1,-51.96 77.48,-118.31 131.64,-124.42 0.65,-0.07 1.21,-0.32 1.74,-0.64 4.87,2.87 9.51,5.84 13.89,8.89 0.03,0.03 0.12,0.08 0.19,0.14zm49.48 37.09c0,0 0.01,0.01 0.02,0 -42.14,9.86 -79.36,50.87 -109.56,84.21 -4.39,4.85 -8.6,9.49 -12.59,13.79 -0.3,0.3 -0.46,0.67 -0.64,1.03 -15.6,-2.51 -31.24,-5.98 -46.79,-10.58 0,-0.01 -0.01,-0.01 -0.02,-0.01l4.24 -5.98c29.62,-41.91 74.4,-105.24 123.89,-112.7 0.41,-0.06 0.78,-0.24 1.14,-0.42 0.02,0.02 0.03,0.02 0.04,0.03 10.79,7.68 25.64,18.25 40.27,30.62zm-73.31 99.69c30.11,-28.83 64.25,-61.53 102.93,-70.96 0.14,-0.03 0.24,-0.12 0.36,-0.18 0.02,0.03 0.04,0.05 0.07,0.09 4.23,4.6 8.07,9.41 11.44,14.28 0,0 0,0.01 0.01,0.01 -30.91,6.64 -64.76,35.74 -83.04,61.97 -0.03,0 -0.04,0 -0.07,0 -11.95,0.06 -23.97,-0.25 -36.05,-1.06 -0.01,0.01 -0.02,0.01 -0.02,0 1.46,-1.39 2.87,-2.72 4.36,-4.15zm81.43 -92.77c0.02,0.02 0.04,0.02 0.05,0.04 5.4,4.73 10.61,9.63 15.45,14.72 -39.17,11.09 -72.9,43.33 -102.77,71.93 -3.36,3.21 -6.63,6.33 -9.88,9.4 -7.9,-0.57 -15.96,-1.47 -23.87,-2.59 -0.01,0 -0.02,0 -0.02,0 3.1,-3.38 6.29,-6.88 9.63,-10.56 30.88,-34.1 69.33,-76.53 111.24,-82.88 0.06,-0.02 0.1,-0.06 0.16,-0.07zm42.71 89.22c-0.01,0.03 -0.02,0.05 -0.04,0.08 -0.19,-0.07 -0.34,-0.18 -0.53,-0.23 -2.29,-0.44 -4.5,1.07 -4.93,3.35 -0.09,0.41 -0.2,0.79 -0.28,1.2l-4.37 0.59c-5.65,0.75 -11.06,1.42 -16.62,1.75 -18.19,0.98 -36.49,1.83 -55.07,2.05 17.93,-23.47 48.68,-49 75.62,-54.14 0.58,-0.11 1.08,-0.4 1.53,-0.71 0,0.01 0.01,0.01 0.01,0.01 9.29,15.79 12.63,31.69 4.68,46.05zm-60.86 91.99c-0.24,-0.27 -0.43,-0.57 -0.74,-0.77 -19.04,-13.38 -34.42,-37.96 -40.09,-63.45 31.37,-0.73 61.5,-4.76 88.96,-12.39 -0.17,1 0.08,2.11 0.76,2.96 0.62,0.76 1.4,1.26 2.19,1.47 -9.11,29.13 -26.76,53.78 -51.07,72.18zm-44.06 23.74c-19.32,-16.68 -32.5,-45.83 -40.18,-88.98 11.72,0.87 23.31,1.2 34.71,1.14 0.02,0 0.05,0 0.07,0 5.72,27.8 21.74,53.91 42.5,69.13 -11.18,7.54 -23.61,13.8 -37.09,18.71zm-77.08 10.78l-1.89 -5.68c-11.33,-33.77 -21.97,-65.85 -24.82,-102.8 18.28,3.7 36.65,6.46 54.85,8.06 0.01,-0.01 0.02,-0.01 0.02,0 4.91,28.51 14.31,68.08 39.65,92.74 -6.27,1.92 -12.69,3.64 -19.36,4.98 -14.24,2.86 -30.78,3.71 -48.45,2.7zm-83.77 -17.79c0,-0.4 0.13,-0.79 0,-1.19 -10.86,-34.2 -22.19,-77.27 -15.02,-109.94 20.69,7.67 41.91,13.85 63.47,18.57 2.62,39.06 13.68,72.29 25.43,107.34l0.76 2.28c-24.04,-2.23 -49.74,-7.92 -74.64,-17.07zm-31.9 -13.98c0.38,-0.91 0.55,-1.9 0.22,-2.92 -10.85,-32.9 -7.62,-68.17 -4.21,-102.39 0,0 0.01,0 0.01,0 1.54,0.71 3.03,1.35 4.59,1.94 2.75,1.15 5.45,2.22 8.21,3.25 0.03,0.01 0.04,0.02 0.06,0.02 -7.71,33.19 2.64,75.67 13.41,110.42 -7.58,-3.1 -15,-6.58 -22.29,-10.33zm-12.08 -108.67c-0.02,0.07 -0.07,0.13 -0.07,0.21 -3.43,34.26 -6.82,69.63 3.08,103.57 -15.26,-8.66 -29.45,-18.83 -41.89,-30.52 -5.01,-29.56 -9.31,-60.82 -6.1,-92.56 14.95,6.57 29.98,13.08 44.98,19.29zm-79.76 -34.76c0.04,0.02 0.09,0.03 0.14,0.04 8.74,3.91 17.6,7.83 26.51,11.81 0.02,0.01 0.03,0.01 0.04,0.02 -3.36,29.39 -0.42,58.15 3.91,85.58 -26.03,-29.05 -36.59,-62.49 -30.61,-97.45zm145.13 401.13c18.18,5.86 36.12,10.17 54.46,13.18 0.75,0.33 1.5,0.47 2.25,0.36 11.35,1.8 22.91,3.07 34.79,3.84 0.1,0.04 0.17,0.13 0.27,0.17 0.89,0.34 1.8,0.27 2.66,0.02 13.1,0.76 26.6,1 40.83,0.59 6.21,-0.18 12.8,-0.66 19.55,-1.16 9.69,-0.72 19.5,-1.44 28.95,-1.34 -0.03,0 -0.05,0 -0.07,0.02 -0.06,-0.07 -0.13,-0.02 -0.23,-0.03 -6.09,0.76 -12.21,1.89 -18.51,3.04 -9.37,1.78 -18.93,3.6 -29.06,4.04 -21.01,0.85 -43.86,-1.92 -65.98,-4.73 -7.4,-0.88 -14.73,-1.81 -21.79,-2.54 -14.04,-1.49 -28.54,-3.39 -43.26,-6.29 -0.02,0 -0.02,-0.01 -0.04,-0.02 -0.66,-1.37 -1.99,-2.36 -3.61,-2.42 -1.11,-0.04 -2.14,0.38 -2.92,1.06 -0.01,-0.02 -0.03,-0.02 -0.05,-0.02 -3.87,-0.8 -7.85,-1.71 -11.69,-2.74l-0.05 -0.07c-0.02,0 -0.03,-0.01 -0.05,-0.01 -0.84,-1.47 -2.52,-2.36 -4.3,-2.08 -0.58,0.1 -1.09,0.29 -1.56,0.59 -20.22,-5.61 -40.77,-13.75 -61.36,-25.74 -2.87,-1.7 -5.96,-3.54 -9.04,-5.62 -2.35,-1.47 -4.7,-3.05 -7.09,-4.69 -26.3,-18.15 -56.52,-45.36 -69.74,-72.69 -0.78,-7.04 -1.52,-13.89 -2.16,-20.63 -0.01,-0.02 0,-0.04 0,-0.07 30.96,61.41 113.93,108.26 168.82,125.94zm3.3 -127.92c0.19,-0.03 0.36,-0.07 0.56,-0.12 0.03,0 0.05,0 0.07,0 -7.17,6.29 -13.28,14.2 -19.23,21.98 -2.77,3.6 -5.46,7.13 -8.19,10.35 -14.86,17.55 -26.88,39.16 -34.12,61.09 -9.56,-5.3 -19.04,-11.09 -28.27,-17.33 12.37,-38.65 54.3,-67.79 89.18,-75.97zm44.86 -0.48c0.01,0.01 0.02,0 0.03,0.01 -11.04,7.26 -21.79,15.81 -32.04,25.64 -16.15,15.51 -27.55,34.34 -38.56,52.56 -5.15,8.51 -10.5,17.24 -16.19,25.5 -3.81,-1.84 -7.64,-3.84 -11.5,-5.84 6.86,-21.41 18.55,-42.59 33.04,-59.74 2.81,-3.31 5.6,-6.95 8.44,-10.66 8.42,-10.99 17.14,-22.36 28.23,-27.73 0.88,-0.41 1.46,-1.12 1.87,-1.93 9.15,-0.42 18.07,0.33 26.67,2.18zm51.79 21.32c-12.09,7.56 -22.8,18.95 -30.18,28.05 -8.34,10.28 -16.94,21.45 -23.36,33.49l-1.7 3.19c-6.68,12.47 -14.84,27.74 -18.54,41.03 -7.84,-1.99 -15.68,-4.17 -23.58,-6.7 -10.56,-3.41 -21.87,-7.89 -33.42,-13.12 5.52,-8.09 10.68,-16.48 15.64,-24.69 10.75,-17.75 21.83,-36.09 37.19,-50.83 11.85,-11.38 24.36,-21.06 37.18,-28.77 0.08,-0.05 0.12,-0.12 0.19,-0.17 0.01,0 0.01,0.01 0.01,0.01 13.99,4.24 27.41,10.88 40.48,18.46 0.04,0.02 0.06,0.05 0.1,0.07zm8.35 4.92c7.05,4.26 14.04,8.78 20.95,13.26 0.03,0.02 0.04,0.03 0.07,0.04 -31.44,18.24 -51.75,53.09 -69.71,84 -1.86,3.22 -3.68,6.33 -5.52,9.44 -6.62,-1.12 -13.2,-2.37 -19.74,-3.85 3.46,-12.32 11.32,-27.05 17.78,-39.1l1.72 -3.2c6.08,-11.41 14.39,-22.2 22.47,-32.14 6.38,-7.88 18.62,-21.38 31.99,-28.44zm47.45 31.67c0,0.01 0.01,0.02 0.02,0.02 -5.78,3.46 -12.93,10.87 -20.37,18.94l-1.64 1.79c-16.86,18.12 -33.91,37.55 -42.99,58.63 -9.43,-0.65 -18.67,-1.59 -27.74,-2.89 1.29,-2.2 2.56,-4.36 3.86,-6.61 18.02,-30.98 38.43,-66.09 69.57,-82.64 0.23,-0.12 0.36,-0.31 0.56,-0.47 0.03,0.03 0.07,0.05 0.1,0.08 6.65,4.39 12.82,8.74 18.63,13.16zm37.46 33.3c-12.25,8.62 -21.27,20.32 -29.94,31.68 -3.67,4.81 -7.32,9.59 -11.19,14.11 -0.04,0.04 -0.04,0.09 -0.09,0.14 -5.83,0.43 -11.56,0.83 -16.97,0.99 -12.23,0.35 -23.94,0.26 -35.3,-0.26 8.74,-18.75 23.97,-36.03 40.21,-53.5l1.66 -1.79c4.4,-4.76 16.07,-17.39 20.28,-18.33 0.52,-0.11 0.97,-0.33 1.39,-0.61 0,0.01 0.01,0.01 0.01,0.02 11.7,9.2 21.65,18.4 29.94,27.54 0.01,0 0.01,0 0.01,0zm28.84 52.07c0,0 -0.01,0.01 0,0.01 -17.22,-8.52 -38.47,-8.27 -58.56,-6.96 2.18,-2.74 4.33,-5.52 6.47,-8.31 8.44,-11.06 17.2,-22.43 28.72,-30.36 12.8,15.44 20.53,30.63 23.37,45.62zm-72.96 73.96c-0.22,-0.32 -0.43,-0.67 -0.75,-0.93 -15.45,-12.71 -24.72,-37.09 -32.16,-56.94 6.85,0.35 13.49,0.41 20.05,0.13 10.72,-0.37 20.64,-2.27 30.32,-4.07 17.65,-3.33 34.36,-6.45 52.52,0.18 -8.72,25.66 -39.04,47.12 -69.97,61.63zm-32.69 12.88c-0.01,0.01 -0.02,0.01 -0.03,0.02 -15.08,-19.58 -23.75,-41.23 -32.89,-64.15 -1.31,-3.3 -2.65,-6.59 -4,-9.9 0.02,0 0.02,0 0.02,0 9.16,1.09 18.35,2.16 27.46,2.75 0,0 0,0 0.01,0l1 2.69c7.53,20.1 16.9,44.79 33.03,59.41 -0.03,0.02 -0.1,0.05 -0.14,0.08 -8.36,3.57 -16.69,6.67 -24.47,9.1zm-77.53 12.94c-0.03,0 -0.03,0 -0.06,0 -20.82,-24.65 -32.86,-66.61 -33.57,-96.81 14.25,2.71 28.32,4.51 42.01,5.97 7.05,0.72 14.27,1.63 21.6,2.58l1.06 0.12 0 0c1.95,4.71 3.84,9.47 5.73,14.2 8.59,21.51 17.53,43.69 32.15,63.57 -0.01,0 -0.01,0.01 -0.02,0.01 -4.71,1.39 -9.15,2.46 -13.25,3.27 -20.43,4.04 -38.91,6.43 -55.66,7.09zm-42.08 -98.52c0.24,29.56 10.88,71 31.45,98.72 -4.7,0.02 -9.29,-0.13 -13.75,-0.51 -4.24,-8.03 -7.95,-16.62 -11.29,-24.76 -8.1,-19.72 -10.44,-38.85 -12.93,-59.1 -0.67,-5.36 -1.38,-10.83 -2.16,-16.32 0.04,0.05 0.05,0.05 0.05,0.05 2.98,0.63 5.77,1.3 8.62,1.92zm-30.34 86.14c-0.06,-0.57 -0.21,-1.14 -0.53,-1.66 -16.04,-26.54 -23.74,-72.08 -16.99,-98.96 0.01,0 0.02,0.01 0.02,0.01 10.17,4.06 20.29,7.4 30.3,10.19 0.01,0 0.01,0 0.01,0 1.01,6.66 1.85,13.22 2.64,19.66 2.56,20.83 4.97,40.51 13.5,61.28 2.75,6.71 5.84,13.69 9.2,20.53 -0.05,-0.02 -0.12,-0.02 -0.18,-0.02 -14.46,-1.91 -27.05,-5.51 -37.96,-11.03zm-85.93 59.32c22.67,-10.94 52.31,-16.67 79.89,-15.31l1.81 0.09c9.36,0.45 22.17,1.06 28.68,6.56 0.54,0.46 1.18,0.7 1.84,0.84 3.14,4.18 5.94,8.08 8.35,11.64 -28.31,-7.03 -57.6,-0.32 -86.08,6.19 -10.58,2.3 -20.56,4.67 -30.49,6.15 -1.37,-5.35 -2.76,-10.69 -4.01,-16.15zm60.5 -58.55c15.81,10.45 29.62,23.91 40.7,36.96 0,0 0.01,0.01 0.01,0.01 -6.5,-1.42 -13.37,-1.79 -19.12,-2.06l-1.8 -0.09c-28.28,-1.39 -58.67,4.39 -82.35,15.41 0,-0.04 -0.02,-0.08 -0.04,-0.13 -5.11,-21.5 -9.85,-42.66 -14.1,-63.22 24.25,-8.83 50.03,-4.41 76.7,13.12zm-26.08 -118.11c8.77,5.17 17.51,9.48 26.13,13.38 -6.94,25.54 -1.63,66.06 11.67,95.24 -29.67,-22.69 -58.22,-75.76 -45.88,-113.59 2.74,1.8 5.5,3.49 8.09,4.97zm-15.28 -9.79c-13.39,36.84 9.33,87.34 37.21,115.56 -25.36,-14.14 -50.62,-17.25 -74.31,-9.2 -12.35,-61.16 -21.16,-117.62 -27.04,-166.91 16.41,23.47 41.82,45.36 64.14,60.54zm109.32 202.54c11.6,19.33 19.85,39.61 25.42,60.33 0,0.03 0.01,0.04 0.02,0.07 -9.4,-4.26 -21.68,-5.66 -29.33,-6.12 -26.29,-1.57 -52.1,2.99 -77.05,7.4 -8.56,1.52 -17.17,3.01 -25.85,4.3 0,-0.01 -0.01,-0.02 0,-0.03 -5.59,-19.39 -10.77,-38.67 -15.62,-57.69 10,-1.52 20.29,-3.93 30.26,-6.18 30.75,-6.91 62.44,-14.14 91.35,-3.37l0.05 0.07c0.25,0.45 0.56,0.84 0.76,1.22zm31.21 87.66c0,0.01 0,0.03 0,0.03 -7.6,-5.76 -19.68,-8.91 -36.83,-9.53 -35.14,-1.27 -68.34,6.2 -93.84,13.12 -1.76,-5.71 -3.41,-11.4 -5.06,-17.1 -0.01,-0.01 0,-0.02 -0.01,-0.03 8.39,-1.27 16.74,-2.7 25.05,-4.17 25.6,-4.54 49.78,-8.8 75.08,-7.28 15.12,0.91 27.13,4.28 32.11,9.02 0.14,0.14 0.33,0.2 0.48,0.32l0 0c1.23,5.17 2.15,10.37 3.02,15.62zm-128.24 11.7c24.9,-6.76 57.19,-14 91.1,-12.77 17.65,0.64 29.32,4.05 34.65,10.13 1.01,1.16 2.52,1.57 3.93,1.31 1.1,8.91 1.78,17.96 2.1,26.97 0,0.02 0,0.04 0,0.07 -6.08,-4.09 -14.54,-6.87 -25.73,-8.35 -32.32,-4.28 -68.98,-1.39 -98.09,7.75 -0.07,0.03 -0.11,0.07 -0.17,0.09 -2.65,-8.42 -5.25,-16.78 -7.78,-25.19zm124.53 113.8c-7.97,-0.91 -15.92,-2.2 -24.28,-3.62 -20.87,-3.53 -42.45,-7.1 -64.67,-3.68 -0.01,-0.03 -0.03,-0.04 -0.03,-0.07 -9.04,-24.5 -17.41,-48.99 -25.21,-73.29 0.04,-0.01 0.08,0 0.13,-0.02 28,-8.78 63.32,-11.56 94.47,-7.43 13.77,1.83 22.85,5.69 26.97,11.49 0.03,0.03 0.06,0.05 0.09,0.08 -0.04,26.24 -2.97,52.11 -7.46,76.53zm-4.61 21.58c-4.25,0.25 -8.6,-0.02 -13.21,-0.34 -2.17,-0.14 -4.37,-0.29 -6.53,-0.39 -5.42,-0.22 -11.37,-0.98 -17.67,-1.78 -12.81,-1.63 -26.02,-3.24 -37.4,-0.83 -0.02,-0.02 -0.03,-0.05 -0.03,-0.07 -2.23,-5.77 -4.41,-11.59 -6.53,-17.34l-0.03 -0.03c20.34,-2.78 40.64,0.57 60.33,3.9 7.87,1.33 15.97,2.64 23.99,3.58 -0.01,0.01 -0.01,0.02 -0.01,0.03 -0.91,4.49 -1.89,8.92 -2.91,13.28zm-10.27 37.98c-2.49,7.82 -5.07,15.4 -7.65,22.96 -4.78,13.98 -9.37,27.27 -12.6,41.31 -14.93,-32.38 -28.61,-65 -41.2,-97.54 9.78,-1.73 21.65,-0.34 33.25,1.14 6.47,0.82 12.6,1.6 18.38,1.84 2.09,0.09 4.2,0.23 6.3,0.38 3.86,0.27 7.82,0.44 11.78,0.37l-0.01 0.05c-2.58,10.27 -5.35,20.16 -8.24,29.49zm-136.06 36.84c-13.44,-3.37 -26.15,-8 -38.16,-13.66 1.79,-3.79 3.5,-7.59 5.22,-11.42 4.06,-9.06 8.26,-18.44 13.51,-27.33 5.57,-9.45 12.63,-18.55 19.46,-27.35 2.47,-3.17 4.92,-6.33 7.29,-9.5l1.39 -1.85c7.44,-9.92 19.79,-26.33 29.75,-30.27 4.76,13.23 9.76,26.61 14.86,40 14.32,37.57 32.06,74.44 52,107.71 0.06,0.07 0.06,0.07 0.06,0.07 0.04,0.06 0.07,0.11 0.1,0.16 -21.44,-10.74 -44.62,-14.94 -68.98,-19.22 -11.96,-2.11 -24.34,-4.28 -36.49,-7.34zm-84.99 -44.45c5.16,-11.23 10.61,-21.24 17.4,-31.71 11.1,-17.12 23.14,-30.43 41.6,-45.93 2.55,-2.15 5.27,-4.54 8.1,-7.05 12.73,-11.25 28.57,-25.26 43.55,-27.52 0.03,-0.01 0.05,-0.03 0.07,-0.03 3.19,9.1 6.43,18.16 9.8,27.34 0.01,0.02 0.02,0.03 0.02,0.05 -12.32,4.75 -25.1,21.77 -33.62,33.13l-1.37 1.84c-2.36,3.14 -4.78,6.26 -7.22,9.4 -6.98,9.01 -14.21,18.33 -20.06,28.24 -5.49,9.3 -9.79,18.89 -13.94,28.17 -1.64,3.68 -3.3,7.33 -5.01,10.97 -14.3,-7.5 -27.52,-16.45 -39.34,-26.9zm-60.14 -95.17c0.23,-0.21 0.48,-0.38 0.66,-0.64 25.89,-38.31 79.35,-66.3 95.14,-73.97 16.89,-8.21 32.58,-14.42 49.21,-19.53 7.19,22.74 14.89,45.69 23.03,69.07 0.01,0.02 0.01,0.04 0.02,0.06 -16.92,3.24 -33.23,17.54 -46.37,29.19 -2.8,2.46 -5.45,4.81 -7.96,6.91 -19.14,16.08 -31.66,29.92 -43.26,47.8 -6.47,10 -11.79,19.59 -16.77,30.14 -24.9,-24.09 -43.32,-54.51 -53.69,-89.02zm142.45 -102.23c0,0.02 0,0.03 0.02,0.05 -17.03,5.24 -33.07,11.59 -50.35,19.98 -15.59,7.58 -66.83,34.48 -94.88,71.99 -3.82,-15.33 -6.09,-31.35 -6.67,-47.9 11.23,-6.48 22.05,-13.44 32.52,-20.19 23.56,-15.19 45.83,-29.56 72.63,-38.9 12.03,-4.2 24.82,-7.46 38.97,-10 0.01,0.02 0.02,0.04 0.02,0.07 2.51,8.25 5.07,16.57 7.74,24.9zm-150.56 6.97c0.96,-8.56 2.67,-17.71 4.97,-27.12 4.62,-7.88 8.78,-15.81 12.49,-23.62 0,0 0.01,-0.01 0.01,-0.02 6.73,-2.34 13.47,-5.63 20.04,-8.89 5.59,-2.77 10.87,-5.4 16.09,-7.43 15.4,-5.99 29.46,-10.17 42.96,-12.77 8.93,-1.71 20.41,-3.31 31.6,-1.86 3.87,13.71 7.96,27.59 12.21,41.65 -14.21,2.6 -27.14,5.91 -39.32,10.16 -27.76,9.67 -51.48,24.97 -74.44,39.77 -9.06,5.86 -18.45,11.8 -28.05,17.49 0.04,-9.01 0.39,-18.11 1.43,-27.37zm-3.04 -30.1c-9.4,16.05 -19.72,30.68 -30.76,43.74l-0.01 0c-0.07,-0.09 -0.09,-0.2 -0.17,-0.29 -0.07,-0.19 -0.1,-0.39 -0.2,-0.56 -16.13,-28.18 -47.06,-54.96 -94.27,-81.8 5.64,-24.48 12.6,-48.93 20.42,-72.98 29.25,13.26 54.96,36.92 80.85,62.16 10.45,10.17 21.08,21.11 26.5,33.2 0.38,0.86 1.05,1.46 1.81,1.88 -1.54,4.92 -2.91,9.79 -4.11,14.6l-0.07 0.06zm-40.8 54.8l-1.89 1.95c-6.1,6.28 -12.88,13.44 -20.12,20.75 -20.3,-22.91 -43.29,-48.41 -72.59,-61.55 2,-15.38 4.8,-30.86 8.16,-46.15 44.51,25.58 73.69,50.91 88.78,77.28 0.07,0.13 0.21,0.2 0.28,0.33 0.02,0.01 0.01,0.03 0.02,0.04 0.22,0.69 0.74,1.9 1.38,3.06l-0.01 0.01c-1.3,1.47 -2.65,2.89 -4.01,4.3zm-38.69 39.07c-0.02,0.01 -0.03,0.02 -0.04,0.03 -0.37,-0.39 -0.8,-0.73 -1.26,-1.01 -9.61,-12.55 -31.95,-38.37 -57.62,-46.94 0,-0.02 0,-0.03 0,-0.05 0.48,-7.03 1.09,-14.04 1.98,-21.08 26.7,12.81 48.42,36.93 67.66,58.63 -0.01,0.01 -0.02,0.02 -0.03,0.02 -3.51,3.46 -7.07,6.96 -10.69,10.4zm-15.82 14.72c-9.29,-14.9 -31.6,-28.17 -44.16,-34.04 0.01,-0.06 0,-0.1 0,-0.16 -0.05,-6.66 0.2,-13.23 0.45,-19.79 0.01,-0.01 0,-0.02 0,-0.02 23.71,8.9 44.54,34.1 52.69,44.95 0.12,0.17 0.31,0.28 0.46,0.41 -3.08,2.9 -6.21,5.73 -9.34,8.56 -0.03,0.02 -0.07,0.06 -0.1,0.09zm-39.1 28.91c-3.13,-17.79 -4.68,-35.64 -5.02,-53.6 13.38,6.77 31.18,18.59 37.67,30.17 -11.19,9.49 -22.24,17.81 -32.64,23.43zm-26.42 -21.28c-1.25,-2.35 -2.48,-4.71 -3.73,-6.95 -14.54,-25.72 -26.36,-57.08 -34.53,-91.03 6.7,-2.26 13.05,-5.32 19.23,-8.35 8.44,-4.14 16.52,-7.95 25.3,-9.84 -2.64,26.06 -3.08,52.72 -0.62,79.67 2.41,26.47 6.12,46.08 11.24,59.36 -7.38,-4.89 -12.18,-14 -16.89,-22.86zm-50.37 -185.81c-0.01,0 -0.01,0 -0.01,-0.02 14.58,-8.05 33.88,-14.04 53.32,-16.44 2.15,-0.26 5.75,-0.12 9.22,0.02 4.03,0.16 7.31,0.23 10.06,0.05 -0.01,0.03 -0.02,0.05 -0.03,0.08 -4.62,17.43 -8.63,35.2 -11.67,53.41 0,0 0,0 0,0.01 -15.1,0.32 -31.81,8.56 -46.66,15.99 -2.92,1.46 -5.71,2.82 -8.4,4.11l0 0c-3.09,-18.69 -5.17,-37.87 -5.83,-57.21zm5.13 -81.12c30.07,-14.41 61.43,-20.7 95.63,-19.34 -9.45,23.63 -18.28,48.83 -25.64,75.21 -1.58,0.82 -8.25,0.56 -12.24,0.4 -4,-0.16 -7.76,-0.31 -10.6,0.05 -18.79,2.3 -37.57,7.83 -52.5,15.34 -0.42,-24.24 1.23,-48.41 5.35,-71.66zm15.71 -56.73c0.03,-0.08 0.06,-0.14 0.08,-0.21 8.46,-2.01 16.94,-6.17 25.17,-10.36 7.16,-3.64 13.92,-7.08 20.51,-9.05 11.09,-3.3 22.09,-5.32 33.66,-6.16 6.12,-0.44 12.2,0.67 18.07,1.75 2.7,0.49 5.45,0.94 8.19,1.3 0,0.01 -0.01,0.02 -0.02,0.02 -0.71,1.54 -1.41,3.09 -2.12,4.62 -6.8,14.84 -13.64,30.58 -20.33,47.06 -0.01,0.03 -0.02,0.07 -0.04,0.11 -34.61,-1.8 -66.41,3.97 -96.92,17.54 0,-0.03 0.01,-0.06 0.02,-0.09 3.3,-16.24 7.83,-31.76 13.73,-46.52zm15.27 -31.66c1.99,-3.31 4.02,-6.57 6.17,-9.69 0.01,-0.02 0.02,-0.04 0.04,-0.06 4.97,-0.71 9.93,-1.49 14.8,-2.28 26.98,-4.36 52.44,-8.45 78.1,2.53 0,0.01 0,0.01 -0.01,0.02 -1.67,3.37 -3.31,6.81 -4.93,10.24 -3.32,-0.23 -6.78,-0.77 -10.43,-1.45 -6.38,-1.17 -13,-2.39 -20.2,-1.86 -12.18,0.88 -23.77,3 -35.46,6.49 -7.33,2.19 -14.75,5.97 -21.93,9.62 -5.66,2.87 -11.43,5.72 -17.05,7.79 3.2,-7.38 6.9,-14.53 10.88,-21.36zm33.26 -41.42c0,0 0.01,-0.02 0.03,-0.03 0.4,0.05 0.81,0.11 1.22,0.04 21.45,-3.65 59.76,-7.18 75.41,10.11 -2.37,4.7 -4.82,9.48 -7.14,14.14 0,0.02 -0.01,0.02 -0.02,0.03 -28.01,-12.11 -54.75,-7.81 -83.07,-3.23 -2.22,0.35 -4.49,0.68 -6.74,1.04 0.03,-0.02 0.03,-0.04 0.05,-0.06 6.23,-8.13 12.98,-15.48 20.26,-22.05zm104.43 -42.34c-8.18,14.87 -16.19,29.8 -23.77,44.62 0,0 0,0 0,0.01 -15.55,-14.39 -43.57,-15.29 -68.33,-12.38l0 0c25.57,-19.05 56.58,-29.96 92.1,-32.25zm-166.45 319.1c0.01,-0.01 0.01,-0.02 0,-0.02 3.37,-1.55 6.91,-3.3 10.67,-5.17 13.54,-6.77 28.7,-14.27 41.59,-15.06 0,0 0,0 -0.01,0.01 -0.73,5.02 -1.48,10.15 -2.04,15.24 -0.01,0.02 0,0.03 -0.02,0.04 -10.92,1.85 -20.59,6.47 -29.92,11.04 -5.92,2.9 -11.58,5.67 -17.44,7.7 -0.98,-4.59 -1.92,-9.13 -2.84,-13.78zm181.05 -327.98c13.79,-24.87 27.95,-49.27 41.39,-72.01 4.35,-7.38 11.25,-16.03 18.5,-25.17 11.08,-13.83 22.98,-28.76 29.72,-43.55 0.19,2.12 0.26,4.22 0.44,6.34 0.05,0.08 -0.02,0.12 -0.03,0.24 -1.41,8.91 -6.75,15.99 -12.74,24.03 -2.53,3.31 -5.13,6.69 -7.44,10.38 -21.13,32.58 -43.43,67.59 -64.57,103.75 -0.1,0.3 -0.24,0.52 -0.39,0.74l-4.49 3.7c-0.12,1.07 0.19,2.12 0.71,2.89 -14.38,24.79 -28.05,50.09 -40.37,75.72 0,0.02 0,0.03 -0.01,0.05 -1.31,0.75 -2.18,2.12 -2.14,3.73 0,0.17 0.08,0.29 0.09,0.44 -0.01,0.02 -0.02,0.03 -0.03,0.05 -9.45,19.76 -17.99,39.57 -25.47,59.37 -17.21,45.95 -33.24,93.24 -44.13,141.27 -0.07,0.05 -0.02,0.12 -0.08,0.17 -0.02,0.06 -0.03,0.12 -0.04,0.18 -0.09,0.12 -0.22,0.2 -0.29,0.34 -0.47,0.85 -0.57,1.79 -0.41,2.68 -0.02,0.04 -0.03,0.09 -0.04,0.14 -7.43,33.6 -12.32,67.42 -13.18,101.28 -5.79,-107.04 33.37,-209.23 68.67,-287.05 14.78,-32.69 32.83,-67.32 51.7,-101.22 1.51,-2.82 3.09,-5.71 4.65,-8.47zm132.89 198.73c-24.15,4.16 -44.8,18.02 -61.7,36.93 10.74,-42.95 19.3,-110.24 -9.15,-169.24 -9.31,-19.32 -24.23,-50.36 -48.82,-59.5 20.86,-35.6 42.83,-69.93 63.73,-102.1 2.17,-3.48 4.64,-6.75 7.09,-9.89 2.25,-2.98 4.57,-6.03 6.66,-9.22 0.12,2.17 0.13,4.22 0.19,6.44 1.27,91.95 15.28,194.44 42.02,306.58zm-183.53 -65.87c0,-0.02 0.01,-0.03 0.02,-0.05 3.79,1.33 7.55,2.61 11.18,3.79 13.92,4.53 25.93,8.45 38.58,17.71 7.6,5.57 14.08,11.84 20.93,18.46 4.47,4.31 8.93,8.62 13.69,12.72 13.83,11.9 23.12,21.77 29.54,36.98 0.36,0.88 1.03,1.49 1.8,1.94 -0.01,0 -0.01,0 0,0.01 -2.09,9.64 -4.59,19.19 -7.6,28.72 -0.03,0.04 -0.06,0.07 -0.08,0.1 -0.03,0.03 -0.08,0.06 -0.08,0.06 -0.02,0.03 -0.02,0.07 -0.03,0.1 -5.25,7.66 -10.01,15.79 -14.26,24.17l-0.51 -0.73c-9.11,-12.81 -18.55,-26.06 -30.72,-36.14l-2.02 -1.68c-11.28,-9.32 -22.95,-18.97 -34.67,-27.86 -11.19,-8.47 -22.82,-13.84 -34.07,-19.02 -3.95,-1.82 -7.91,-3.72 -11.9,-5.68 3.87,-11.08 7.84,-22.02 11.9,-32.82 2.63,-6.97 5.39,-13.92 8.31,-20.8zm16.84 -37.87c44.72,0.47 85.78,36.12 105.4,69.93 0.23,0.39 0.55,0.69 0.87,0.98 0,0.01 0.01,0.02 0,0.03 -0.28,15 -1.93,30.46 -4.86,46.06 -6.78,-12.78 -15.82,-22.1 -28.36,-32.89 -4.64,-4 -8.99,-8.19 -13.32,-12.39 -6.76,-6.53 -13.74,-13.29 -21.81,-19.2 -13.75,-10.07 -26.97,-14.37 -40.96,-18.93 -3.42,-1.1 -6.97,-2.32 -10.54,-3.57 4.24,-10.07 8.81,-20.09 13.56,-30.03zm42.78 -80.69c22.17,7.19 36.65,37.29 45.46,55.72 11.18,23.12 17.11,50.78 18.05,80.68 0.06,0.06 0.06,0.06 0.06,0.06 -0.01,0.03 0,0.03 -0.01,0.05 -21.91,-31.61 -60.26,-61.94 -102.37,-64.16 0.02,-0.02 0.03,-0.04 0.03,-0.06 11.94,-24.35 25.05,-48.56 38.78,-72.29zm-4.42 261.64c-26.69,-26.02 -53.24,-50.46 -84.09,-64.21 0.01,-0.01 0,-0.02 0.01,-0.03 1.9,-5.72 3.79,-11.45 5.8,-17.16 0.02,-0.03 0.02,-0.06 0.03,-0.09 3.75,1.83 7.49,3.64 11.21,5.36 11.35,5.23 22.06,10.17 32.51,18.08 11.59,8.78 23.18,18.37 34.39,27.63l2.02 1.69c11.33,9.37 20.43,22.15 29.23,34.52l2.75 3.87c0.15,0.19 0.34,0.31 0.52,0.48 -3.17,6.86 -5.99,13.83 -8.5,20.81 -6.34,-11.42 -16.19,-21.52 -25.87,-30.96zm147.06 -4.68c0.02,0.06 0.03,0.1 0.04,0.17 -11.18,-0.9 -22.16,0.61 -30.83,2.27 -14,2.7 -28.54,7.01 -44.41,13.18 -5.58,2.17 -11.28,5 -16.79,7.74 -3.63,1.8 -7.3,3.61 -10.96,5.25 5.73,-12.78 10.29,-24.74 13.93,-35.42 0.84,-2.36 1.67,-4.94 2.57,-7.78 17.77,-25.45 41.17,-44.97 69.78,-49.65 5.1,21.07 10.7,42.48 16.68,64.25zm-194.4 -686.36c16.29,29.51 19.52,67.53 14.81,104.55 -5.02,-8.29 -10.98,-16.81 -18.92,-24.71 -2.16,-2.16 -4.53,-4.58 -7.06,-7.2 -14.09,-14.63 -32.77,-33.8 -50.4,-39.89 5.87,-9.66 11.53,-19.59 17.31,-29.62 6.74,-11.55 13.59,-23.5 20.84,-35.36 10.11,9.41 17.43,21.26 23.41,32.24zm-0.67 166.94c-0.03,0.05 -0.03,0.09 -0.05,0.14 -6.01,-11.56 -14.66,-22.92 -22.9,-33.53 -10.7,-13.77 -24.6,-23.84 -38.03,-33.58 -10.33,-7.48 -20.06,-14.62 -28.28,-23.14 8.51,-12 16.34,-24.19 23.95,-36.65 16.06,4.54 35.47,24.62 48.72,38.32 2.71,2.7 5,5.18 7.16,7.33 10.11,10.06 16.95,21.31 22.79,31.98 -2.98,17.29 -7.59,33.94 -13.4,49.07 0.05,0.06 0.05,0.06 0.05,0.06zm-5.45 13.44c-10.41,23.66 -23.17,45.21 -37.73,65.07 -4.77,-15.49 -11.62,-29.66 -20.45,-42.07 -6.48,-9.1 -14.33,-16.55 -21.92,-23.74 -3.3,-3.14 -6.62,-6.29 -9.85,-9.58 -2.7,-2.76 -5.56,-6.16 -8.56,-9.75 -8.26,-9.81 -17.49,-20.76 -28.34,-25.27 8.8,-12.87 18.6,-26.11 29.4,-39.83 3.01,-3.81 5.83,-7.57 8.65,-11.34 0.02,-0.03 0.03,-0.06 0.06,-0.08 8.54,8.59 18.52,15.93 28.26,23 12.96,9.4 26.37,19.1 36.77,32.53 8.63,11.09 18.4,23.67 23.86,35.94 0.3,0.66 0.76,1.15 1.29,1.56 -0.01,0.02 -0.01,0.04 -0.03,0.06 -0.44,1.21 -0.93,2.36 -1.41,3.51zm-55.86 87.91c-7.66,-36.95 -53.3,-86.69 -85.04,-112.05 2.9,-4.59 5.88,-9.24 9.03,-13.92 0.01,-0.02 0.02,-0.03 0.03,-0.04 9.59,3.01 18.76,13.8 26.89,23.46 3.15,3.75 6.15,7.31 8.99,10.21 3.3,3.37 6.69,6.6 10.07,9.8 7.64,7.24 14.84,14.09 20.85,22.52 8.66,12.14 15.33,26.06 19.85,41.37 0.36,1.23 1.25,2.12 2.33,2.62 0,0 -0.01,0.01 -0.02,0.01 -4.14,5.47 -8.51,10.82 -12.98,16.01zm-44.56 44.97c-13.98,-31.9 -46.01,-64.36 -79.34,-80.76 9.04,-23.23 20.24,-45.8 34.45,-69.06 31.65,25.64 74.54,73.7 81.24,106.89 0.35,1.77 1.82,3.09 3.6,3.27 -12.55,14.15 -25.95,27.36 -39.96,39.66zm-27.05 22.19c-0.07,-0.48 -0.24,-0.98 -0.56,-1.38 -3.59,-5.44 -12.42,-17.81 -20.04,-25.43 -10.94,-11.11 -24.56,-19.21 -36.55,-26.36 -3.76,-2.28 -7.36,-4.48 -10.83,-6.65 2.55,-6.25 5.02,-12.76 7.26,-19.52 1.73,-5.28 3.51,-10.47 5.39,-15.66 31.93,16.01 63.32,48.34 75.75,78.56 -6.69,5.68 -13.41,11.16 -20.42,16.45zm-98.14 64.1c1.21,-8.09 1.53,-16.57 1.78,-25.29 0.52,-14.34 0.95,-29.17 5.85,-43.56 4.27,-12.6 9.41,-24.26 14.3,-35.53 1.69,-3.84 3.32,-7.73 5.01,-11.69 3.14,2.02 6.34,4 9.79,6 12.08,7.27 24.63,14.73 34.82,25.04 6.64,6.66 15.02,18.2 19.04,24.17 0.4,0.64 1.01,1.13 1.64,1.38 -29.9,22.54 -61.44,41.95 -92.23,59.47zm-33.54 -45.17c-13.24,-21.03 -23.98,-42.45 -32.51,-63.91 8.53,-0.49 16.98,-2.36 25.2,-4.27 15.6,-3.61 30.39,-6.91 45.15,-0.8 -2.08,6.92 -4.22,13.91 -6.44,20.94 -9.18,28.72 -12.96,57.45 -11.16,82.89 -3.01,-4.96 -5.9,-10 -8.82,-15.22 -3.55,-6.37 -7.23,-12.96 -11.42,-19.63zm113.74 -247.61c-0.24,-0.28 -0.44,-0.58 -0.76,-0.8 -39.26,-27.89 -106.45,-27.38 -152.74,-12.81 2.56,-6.53 5.43,-12.93 8.62,-19.17 41.42,-15.92 117.55,-26.09 155.31,12.46 0.57,0.57 1.26,0.88 1.98,1.07 -4.19,6.36 -8.36,12.74 -12.37,19.18 -0.03,0.02 -0.04,0.05 -0.05,0.07zm-36.64 66.33c-0.01,0.02 -0.02,0.04 -0.03,0.07 -33.21,-26.9 -75.89,-36.1 -130.16,-28.04 1.92,-14.46 5.12,-28.53 9.67,-42.07 0.25,-0.04 0.5,-0.01 0.74,-0.1 44.3,-15.66 112.21,-17.53 150.78,9.87 0.5,0.36 1.06,0.38 1.61,0.5 -0.04,0.05 -0.06,0.1 -0.09,0.16 -7.87,12.45 -15.27,25.18 -22.03,38.04 -3.79,7.15 -7.29,14.37 -10.49,21.57zm-26.49 70.78c-0.02,0.03 -0.03,0.08 -0.04,0.12 -22.83,-17.21 -71.7,-7.58 -98.04,-0.53 -7.23,-30.64 -9.45,-60.86 -6.67,-89.66 53.86,-8.43 95.67,0.5 127.63,27.28 -9,20.81 -16.16,41.54 -22.88,62.79zm-10.23 33.35c0,0 0,0 0.05,0.07 -0.01,0.03 -0.02,0.04 -0.02,0.06 -17,-6.77 -33.57,-3.09 -49.63,0.64 -9.19,2.11 -17.9,4.04 -26.55,4.13 -3.75,-10.18 -6.9,-20.35 -9.56,-30.5 23.07,-6.15 73.59,-16.92 92.58,0.37 0.21,0.18 0.45,0.27 0.67,0.41 -2.15,7.01 -4.26,14.1 -6.42,21.23 -0.37,1.15 -0.75,2.43 -1.12,3.59zm-13.07 -283.2c33.6,1.59 92.72,9.75 132.24,45.36 -9.79,13.66 -19.54,27.51 -29.02,41.58 -0.01,0.02 -0.03,0.04 -0.03,0.06 -0.12,-0.15 -0.17,-0.34 -0.31,-0.47 -38.27,-39.07 -109.46,-32.84 -155.31,-17.67 16.03,-28.13 33.39,-51.01 52.43,-68.85zm137.15 38.39c0,0.02 -0.02,0.03 -0.02,0.06 -38.24,-33.92 -92.87,-43.76 -128.25,-46.36 6.26,-5.22 12.72,-9.88 19.36,-14.07 0.9,0.45 1.97,0.6 3.03,0.3 33.24,-9.74 102.96,2.6 122.84,35.57 0.07,0.12 0.2,0.2 0.28,0.32 -0.01,0.02 -0.02,0.04 -0.02,0.06 -3.29,4.67 -6.68,9.33 -9.96,14.01 -2.41,3.33 -4.82,6.78 -7.25,10.12zm53.95 -77.19c-10.14,15.36 -20.76,30.55 -31.49,45.61 -0.03,0.06 -0.07,0.11 -0.12,0.17 -20.16,-29.19 -73.65,-42.62 -111.36,-39.91 40.25,-18.33 87.19,-19.9 142.97,-5.87z"/>
   <path class="fil0" d="M507.11 0c-15.32,1.51 -31.97,0.9 -48.36,0.3l-8.16 -0.3 -31.15 0c-4.28,0.25 -8.45,0.65 -12.48,1.25 -17.8,2.66 -34.37,6.47 -50.4,10.17 -32.25,7.42 -62.72,14.43 -99,11.31 -39.7,-3.42 -99.93,-11.56 -141.9,-22.72l-27.76 0c40.38,15.54 120.1,26.91 168.94,31.12 37.59,3.24 68.69,-3.91 101.62,-11.49 15.86,-3.65 32.28,-7.43 49.75,-10.03 14.78,-2.21 32.01,-1.56 50.25,-0.88 25.89,0.97 52.4,1.9 74.35,-5.19l0 0c-54.49,37.26 -159.66,58.33 -265.95,51.86 -82.16,-4.94 -148.95,-24.82 -188.49,-55.39l-13.16 0c2.8,2.5 5.74,4.93 8.83,7.29 41.15,31.27 109.19,51.55 192.34,56.53 111.68,6.74 218.88,-15.31 274.35,-55.54 -5.19,7.8 -10.4,15.61 -15.55,23.23 -20.69,30.86 -42.1,62.76 -58.44,96.52 -26.19,54.22 -52.23,109.63 -75.64,165.94 -17.49,-1.95 -38.33,-6.27 -58.76,-10.46 -20.55,-4.3 -41.78,-8.69 -59.32,-10.58 -91.57,-9.79 -168.61,10.33 -256.24,43.57 -6.03,2.29 -11.62,4.55 -16.78,6.78l0 9.2c5.73,-2.54 12.28,-5.24 19.78,-8.08 86.48,-32.84 162.47,-52.69 252.39,-43.1 17.04,1.84 38.09,6.19 58.47,10.45 19.68,4.05 39.8,8.23 57.16,10.32 2.09,0.32 4.16,0.51 6.17,0.66 -2.45,0.88 -4.93,1.76 -7.51,2.65 -48.67,16.08 -113.8,19.29 -171.88,22.15 -31.8,1.56 -61.92,3.01 -88.11,6.41 -17.75,2.17 -36.6,7.32 -54.76,12.26 -23.99,6.52 -48.54,13.21 -71.71,13.81l0 8.44c24.18,-0.6 49.35,-7.42 73.9,-14.12 18.8,-5.08 36.44,-9.9 53.64,-12.05 25.91,-3.29 55.77,-4.84 87.45,-6.37 56.05,-2.71 118.45,-5.79 167.36,-20.39 -0.24,0.45 -0.41,0.94 -0.66,1.4 -70.71,50.13 -207.5,61.35 -284.97,67.69l-2.49 0.22c-30.1,2.46 -66.86,1.05 -94.24,-4.12l0 8.5c28.37,5.22 64.94,6.52 94.91,4.05l2.49 -0.2c74.67,-6.14 203.89,-16.76 278.96,-62.42 -23.47,59.56 -43.39,120.15 -57.06,181.45l-9.05 -0.63 -0.06 -0.06c-69.74,-4.51 -194.84,86.76 -227.1,130.32 -42.25,57.14 -69.98,117.72 -83.1,178.93l0 66.74c3.41,-81.81 33.44,-164.38 89.84,-240.64 31.12,-41.9 146.57,-125.36 212.62,-127.14 -26.08,27.09 -51.48,49.92 -76.21,72.1 -69.57,62.54 -129.71,116.58 -162.81,231.42 -18.51,64.19 -12.39,124.97 -6.49,183.78 3.41,34.36 6.98,69.8 5.5,105.32 -38.86,-60.7 -59.62,-126.43 -62.45,-193.28l0 65.73c11.39,52.04 33.83,102.62 67.37,149.92 0.24,0.38 0.52,0.72 0.85,0.97 1,0.77 2.36,1.06 3.58,0.71 1.74,-0.47 2.93,-1.9 3.19,-3.62l2.82 -26.98c10.61,-101.43 20.66,-197.25 56.68,-296.3 31.88,-87.61 96.27,-235.28 179.88,-273.5 -8.05,41.21 -13.11,82.71 -14.34,124.45 -1.19,39.87 -0.46,78.74 2.03,116.54 -38.51,57.78 -61.93,116.85 -77.95,196.28 -13.49,66.63 -15.9,135 -7.48,215.01 4.98,47.09 23.5,89.87 41.4,131.23 15.77,36.23 31.99,73.66 38.17,112.89 0.14,1.06 0.82,1.99 1.62,2.61 0.89,0.67 2.01,0.99 3.19,0.83 2.29,-0.38 3.87,-2.45 3.5,-4.75 -7.76,-53.46 0.41,-109.61 8.35,-163.94 6.52,-44.5 13.3,-90.6 11.27,-135.45 -1.58,-34.25 -7.18,-70.07 -13.15,-108.07 -11.31,-71.92 -22.94,-145.89 -6.11,-211.89 8.5,86.75 26.87,167.31 54.81,240.35 -1.37,17.39 -3.22,34.72 -5.02,51.58 -5.78,54.57 -11.81,111.1 -1.54,171.01 28,164.58 146.36,328.15 239.17,418.09 0.07,0.17 0.22,0.28 0.34,0.38 1.35,1.01 3.03,1.14 4.57,0.4 1.61,-0.88 2.47,-2.68 2.16,-4.5 -22.42,-124.97 -58.07,-220.05 -108.33,-332.92 -11.01,-24.67 -25.53,-51.4 -40.94,-79.74 -28.29,-51.95 -59.19,-108.67 -73.06,-162.97 -0.81,-8.11 -1.53,-16.29 -2.18,-24.5 23.5,53.29 52.52,102.12 86.72,145.91 34.4,69.67 98.28,178.59 188.01,246.91 8.19,6.23 16.63,12.12 25.26,17.63 -2.36,2.84 -4.47,6.01 -6.22,9.57 -23.65,48.1 24.39,143.28 34.32,161.85 33.36,62.84 74.75,103.1 119.98,137.49 19.41,14.75 39.61,28.42 60.03,42.36 28.3,19.18 57.54,39.09 86.48,62.88 1.58,1.53 4.33,1.28 5.78,-0.36 1.51,-1.71 1.48,-4.17 -0.14,-5.82 -9.91,-10.08 -22.04,-22.39 -35.58,-36.49 -0.08,-0.17 -0.24,-0.39 -0.36,-0.49l-0.4 -0.31c-0.03,-0.12 -0.09,-0.17 -0.15,-0.21 -80.98,-84.45 -210.58,-231.58 -220.38,-347.27 4.42,1.88 8.81,3.75 13.32,5.36 0.13,0.52 0.36,1.02 0.72,1.4 12.92,15.75 29.36,30.59 45.32,44.85 3.45,3.14 6.86,6.16 10.23,9.25l0.34 0.26c0.94,0.71 2.06,0.92 3.19,0.83 14.04,12.58 29.83,22.88 46.54,31.56 -0.14,1.28 0.28,2.55 1.32,3.55 8.92,8.18 17.8,16.29 26.63,24.59 0.13,0.1 0.28,0.32 0.41,0.42 19.35,18.01 38.33,36.23 57,54.14l-0.06 0.07c1.31,1.21 2.56,2.48 3.89,3.69 -0.24,0.56 -0.56,1.15 -1.05,1.52 -0.22,0.14 -0.44,0.3 -0.74,0.4 0.14,0.11 0.34,0.26 0.53,0.29 0.26,0.09 0.61,0.16 0.94,0.3 1.19,3.03 2.41,6.17 3.61,9.19 13.5,34.33 27.38,69.85 53.77,100.3 19.93,22.97 45.4,47.01 73.85,68.64 44.29,33.67 95.86,61.54 144.92,70.56 39.72,7.23 63.11,3.92 69.46,-9.88 8.18,-17.71 -16.42,-42.88 -38.48,-60.82 -90.3,-73.61 -183.66,-149.58 -298.58,-184.21l-0.07 -0.06 -3.11 -3.01c0.03,-0.05 -0.01,-0.11 -0.01,-0.11 -0.55,-1.26 -1.09,-2.63 -1.63,-3.87 -0.73,-1.96 -2.99,-3.03 -4.95,-2.39 -17.72,-17.08 -35.64,-34.31 -53.99,-51.43 -0.13,-0.1 -0.26,-0.19 -0.41,-0.42 -3.43,-3.56 -6.86,-7.13 -10.36,-10.74 33.71,14.3 70.04,23.61 104.27,32.36 6.53,1.7 13.03,3.34 19.4,5 39.97,10.5 81.93,26.62 122.45,42.28 58.16,22.39 118.11,45.52 177.19,54.32 0.07,0.05 0.12,0.1 0.19,0.03 1.04,0.57 2.19,0.73 3.29,0.4l0.08 0.04c6.68,0.95 13.4,1.73 20.09,2.27 1.64,0.07 3.21,-0.74 3.98,-2.18 0.82,-1.49 0.69,-3.29 -0.32,-4.59 -106.6,-142.56 -269.63,-173.11 -427.25,-202.61 -29.63,-5.58 -59.77,-11.22 -89.51,-17.64 -0.05,-0.36 -0.2,-0.57 -0.42,-0.85l-5.55 -7.18c-88.78,-114.73 -189.03,-244.32 -324.07,-318.39 -28.16,-41.22 -52.21,-85.66 -71.89,-132.91 11.47,10.83 23.74,21.02 36.57,30.75 24.89,18.94 51.65,36.11 78.01,52.97 20.97,13.51 42.65,27.34 62.86,41.86 25.53,18.24 50.63,39.97 77.28,62.99 53,46.02 107.91,93.58 169.31,114.52 1.64,0.62 3.44,0.08 4.59,-1.17 1.09,-1.28 1.32,-3.12 0.57,-4.65 -37.4,-77.99 -106.06,-148.84 -186.7,-207.7 0.46,-1.03 0.45,-2.11 0,-3.19 -22.1,-50.06 -58.68,-100.83 -88,-139.44 -31.78,-41.64 -71.45,-80.57 -109.76,-118.18 -13.25,-12.94 -26.24,-25.67 -38.74,-38.35 -0.03,-0.03 -0.07,-0.07 -0.09,-0.12 -17.81,-22.07 -36.47,-43.06 -56.38,-61.99 -0.15,-0.19 -0.33,-0.4 -0.51,-0.59 0,-0.12 -0.06,-0.17 -0.13,-0.21 -2.6,-3.14 -5,-6.24 -7.48,-9.39 -1.71,-2.89 -3.41,-5.67 -5.2,-8.5 -0.07,-1.85 -0.2,-3.76 -0.27,-5.62 -1.91,-43.05 -0.52,-86.26 3.72,-129.42 32.85,97.07 166.72,203.31 214.15,240.95 6,4.78 12.14,9.53 18.3,14.23 52.01,39.54 108.12,75.52 162.54,110.33 29.91,19.15 60.91,39 90.45,58.92 1.05,0.69 2.34,0.94 3.43,0.49 1.79,1.56 3.51,3.19 5.3,4.76l0.32 0.26c1.74,1.32 4.14,1.11 5.65,-0.47 1.58,-1.77 1.45,-4.41 -0.33,-5.97 -3.23,-2.98 -6.59,-5.97 -9.93,-8.93 -47.22,-121.89 -199.94,-255.48 -317.68,-333.64 -16.54,-10.99 -36.11,-22.69 -56.82,-35.16 -40.68,-24.36 -86.26,-51.59 -111.99,-76.13 8.69,-67.83 24.17,-135.4 44.3,-201.61 12.33,98.85 98.77,202.17 189.71,271.29 30.53,23.22 61.56,42.57 90.56,56.67 1.35,0.62 2.97,0.57 4.17,-0.32 1.27,-0.83 1.98,-2.32 1.89,-3.75 -7.6,-110.32 -147.5,-344.18 -265.45,-387.14 36.71,-104.13 84.01,-204.37 133.94,-296.67 11.91,41.04 18.22,82.89 24.39,123.5 15.91,104.74 30.87,203.6 132.79,284.47l0.07 0.05c1.56,1.17 3.65,1.18 5.12,-0.03 1.57,-1.25 2.06,-3.41 1.22,-5.11 -18.67,-38.97 -24.71,-79.77 -31.02,-123.01 -3.25,-22.06 -6.53,-44.89 -11.77,-67.4 -20.39,-88.37 -63.58,-161.25 -101.97,-216.89 0,0 0,0 -0.07,-0.05 -0.02,-0.02 -0.03,-0.05 -0.06,-0.08 -2.48,-5.17 -5.11,-10.22 -7.91,-15.19 0.02,-0.02 0.03,-0.05 0.04,-0.07 7.42,-13.47 14.88,-26.76 22.36,-39.86l-9.65 0c-7.08,12.45 -14.15,25.07 -21.17,37.89 -1.99,3.46 -3.91,6.97 -5.78,10.53 -51.59,94.62 -100.6,197.79 -138.47,305.29 -0.96,2.65 -1.92,5.31 -2.77,7.95 -0.33,0.71 -0.58,1.47 -0.82,2.22 -0.44,-0.84 -1.06,-1.54 -2.01,-1.95 0.69,0.63 1.38,1.37 1.96,2.14 -1.1,2.97 -2.08,5.93 -3.1,8.96 -2.61,7.75 -5.18,15.56 -7.7,23.37 -22.67,70.77 -40.19,143.12 -50.06,216 -0.24,1.41 -0.4,2.87 -0.55,4.35 -0.52,3.62 -1,7.29 -1.45,10.96 -0.08,-0.06 -0.15,-0.11 -0.16,-0.22l0.08 0.6c0.02,0.12 0.02,0.12 0.02,0.12 -6.1,50.64 -8.46,101.37 -6.24,151.97 0,0.42 0.03,0.78 0.03,1.21 0.15,3.29 0.37,6.63 0.57,9.96 4.44,82.07 19.15,160.38 43.37,233.24l0.72 2.13c1.18,3.44 2.3,6.84 3.53,10.1 -0.43,-0.12 -0.88,-0.36 -1.32,-0.48 0.65,0.81 1.32,1.74 2.01,2.49l0.02 0.11c0.12,-0.02 0.07,0.05 0.07,0.05 0,0 -0.05,0.08 0.01,0.12l0.02 0.13c-0.04,0.07 -0.02,0.18 -0.01,0.31 -0.09,0.13 -0.07,0.36 -0.1,0.54 0.12,0.11 0.3,0.32 0.37,0.5 0.05,0.46 0.29,0.86 0.63,1.12 0.07,0.05 0.02,0.12 0.08,0.16 0,0 0.07,0.05 0.01,0.13 0.03,0.11 0.03,0.11 0.03,0.11 2.33,6.54 4.74,13.13 7.24,19.59 19.38,50 43.49,97.13 71.98,140.73 -0.36,-0.08 -0.71,-0.03 -1,0.07 -31.42,-44.75 -57.67,-94.37 -78.65,-148.12 -0.06,-0.48 -0.08,-1.01 0.05,-1.32 -0.39,-0.31 -0.69,-0.76 -1.05,-1.12 -2.61,-6.87 -5.18,-13.8 -7.65,-20.86 -0.76,-2.06 -1.52,-4.12 -2.23,-6.25 -24.8,-71.7 -40.67,-150.27 -47.34,-234.56 -0.56,-6.78 -0.95,-13.65 -1.42,-20.56 -2.11,-35.39 -2.68,-71.83 -1.55,-109.11 1.29,-43.06 6.7,-85.97 15.32,-128.54 1.44,-0.5 2.87,-0.99 4.27,-1.42 2.25,-0.72 3.5,-3.07 2.77,-5.32 -0.28,-1.15 -1.12,-2 -2.08,-2.54 0.65,-0.45 1.28,-1.14 1.64,-2.02 0.86,-2.11 -0.2,-4.6 -2.29,-5.47 -0.25,-0.08 -0.51,-0.17 -0.77,-0.25 14.42,-65.07 35.99,-129.37 61.24,-192.55 6.9,-5.03 13.14,-10.45 18.68,-16.2 0.34,-0.16 0.53,-0.43 0.74,-0.7 1.1,-1.17 2.16,-2.27 3.19,-3.51 1.04,-1.22 1.33,-3.01 0.6,-4.52 -0.64,-1.54 -2.16,-2.49 -3.84,-2.5 -2.53,-0.02 -5.24,-0.07 -8.08,-0.22 23.13,-55.37 48.74,-109.82 74.46,-163.13 16.04,-33.23 37.3,-64.83 57.85,-95.47 7.98,-11.83 16.08,-23.89 23.94,-36.22l-49.02 0zm-435.85 1086.72c-0.52,-27.3 -3.25,-54.25 -5.85,-80.6 -5.87,-58.03 -11.88,-118.1 6.12,-180.66 32.5,-112.53 91.73,-165.77 160.39,-227.53 0.12,-0.13 0.21,-0.14 0.31,-0.28 -47.64,62.79 -84.1,149.33 -105.66,208.77 -34.18,94.11 -45.21,184.95 -55.32,280.31zm229.7 -553.43c4.17,-4.23 8.45,-8.61 12.65,-13.15 1.23,0.2 2.53,0.45 3.82,0.68 2.43,0.57 4.69,1.23 6.91,2.07 -2.67,0.84 -5.3,1.8 -7.92,2.87 -5.26,2.04 -10.37,4.6 -15.45,7.52zm63.26 560.33c1.16,6.82 2.54,13.37 4.37,20.16 0.07,0.04 0.01,0.11 0.04,0.23 0.02,0.04 0,0.06 0.02,0.09 11.01,110.19 36.77,210.7 75.25,292.94 8.28,17.7 17,37.63 26.23,58.74 29.59,67.74 62.69,143.4 101.78,194.07 -0.02,-0.01 -0.02,-0.01 -0.02,-0.01 0,0 0,0 -0.08,-0.05 -86.71,-92.5 -185.25,-239.24 -210.41,-386.7 -9.98,-58.74 -4.32,-112.15 1.7,-168.68 0.33,-3.66 0.76,-7.27 1.11,-10.8zm221.76 570.31c-41.63,-49.38 -76.84,-129.93 -108.13,-201.52 -9.24,-21.17 -17.98,-41.15 -26.29,-58.94 -33,-70.51 -56.52,-154.67 -69.32,-246.92l0.01 0.01c16.01,42.04 38.9,84.23 60.47,123.7 15.33,28.17 29.83,54.77 40.68,79.12 46.36,104.17 80.24,193.03 102.6,304.56zm-98.49 -397.6c65.91,77.55 140.74,148.51 213.62,217.28 1.63,1.46 3.31,3.03 4.9,4.56l2.55 2.36c0.55,0.53 1.04,1 1.59,1.52 0.74,0.67 1.51,1.36 2.28,2.15 1.86,1.73 3.72,3.47 5.59,5.19 8.21,7.73 16.48,15.51 24.72,23.35 -8.51,-2.87 -16.91,-6.17 -25,-9.89 -2.87,-1.24 -5.76,-2.58 -8.55,-3.95 -0.57,-0.34 -1.16,-0.56 -1.74,-0.9 -2.64,-1.26 -5.22,-2.6 -7.76,-4.01 -3.69,-1.95 -7.22,-4 -10.82,-6.1 -2.63,-1.57 -5.24,-3.14 -7.8,-4.78 -87.49,-54.85 -153.05,-152.36 -193.57,-226.8zm194.64 237.36c5.06,3.11 10.22,6.08 15.53,8.84 -11.51,61.24 29.46,149.58 57.25,194.11 29.54,47.35 77.21,85.92 123.27,123.26 16.78,13.73 32.81,26.65 47.81,40.06 -12.93,-9.19 -25.59,-17.86 -38.25,-26.43 -67.17,-45.67 -130.61,-88.81 -177.36,-176.78 -26.32,-49.66 -51.1,-119.74 -34.19,-154.23 1.66,-3.3 3.6,-6.27 5.95,-8.82zm202.28 320.37l-0.93 -0.72c-45.56,-36.87 -92.64,-75.1 -121.42,-121.23 -30.77,-49.23 -65.06,-130.48 -56.38,-185.5 1.24,0.61 2.45,1.23 3.8,1.83 5.4,98.89 95.46,217.23 174.93,305.61zm-120.21 -273.54c0.51,0.28 0.97,0.53 1.47,0.7 -0.1,0.14 -0.19,0.27 -0.23,0.45 -0.42,-0.42 -0.83,-0.73 -1.24,-1.15zm13.01 6.71c1.1,0.63 2.19,1.15 3.29,1.65 7.88,3.99 15.79,7.67 23.74,11.28l0.07 0.05c60.74,27.34 124.81,46.16 187.16,64.44 94.32,27.76 191.69,56.37 276.37,114.38 -52.65,-10.26 -105.76,-30.54 -157.96,-50.61 -40.77,-15.75 -82.93,-32.03 -123.34,-42.52 -6.43,-1.71 -12.92,-3.36 -19.46,-5.05 -40.71,-10.39 -84.59,-21.64 -123,-41.18 -10.33,-5.22 -20.33,-11.15 -29.67,-17.81 -13.83,-9.67 -26.39,-21.13 -37.2,-34.64zm521.57 196.8c-3.79,-0.46 -7.64,-0.95 -11.46,-1.52 -0.2,-0.15 -0.46,-0.35 -0.72,-0.44 -88.95,-65.6 -192.6,-96.01 -292.76,-125.45 -69.86,-20.5 -141.75,-41.69 -208.58,-74.83 -9.04,-4.43 -17.97,-9.1 -26.83,-14.03l-0.12 -0.1c-1.05,-0.59 -2.02,-1.11 -3.01,-1.76 0.5,0.18 1.06,0.28 1.62,0.38 5.35,1.32 10.78,2.69 16.24,3.88 36.14,8.3 73.19,15.29 109.37,22.04 153.23,28.7 311.45,58.36 416.27,191.83zm-517.62 -221.65c-7.06,-1.14 -14.01,-2.6 -20.8,-4.38 -13.9,-13.32 -27.84,-26.47 -41.71,-39.44 -0.37,-0.92 -0.93,-1.68 -1.79,-2.09 -0.21,-0.16 -0.46,-0.36 -0.84,-0.44 -0.54,-0.52 -1.16,-1.09 -1.72,-1.63 -1.23,-1.15 -2.54,-2.35 -3.79,-3.51 -80.48,-75.91 -163.43,-154.44 -234.07,-241.19 -0.38,-0.49 -0.81,-1.04 -1.18,-1.52 -2.29,-2.7 -4.48,-5.54 -6.61,-8.31 -1.85,-3.84 -3.66,-7.55 -5.34,-11.06 4.22,2.37 8.52,4.8 12.66,7.31 125.31,74.18 220.53,196.88 305.21,306.27zm-396.53 -475.46c-0.38,-0.91 -0.8,-1.87 -1.17,-2.79 15.53,13.72 31.55,26.74 47.87,39.14 42.07,32 86.21,60.15 129.38,87.78 79.68,50.94 162.05,103.6 228.68,178.5 -48.19,-23.81 -92.93,-62.59 -136.56,-100.34 -22.33,-19.4 -43.59,-37.79 -65.06,-54.11 -4.32,-3.28 -8.51,-6.37 -12.78,-9.39 -20.39,-14.67 -42.14,-28.55 -63.24,-42.04 -45.14,-28.92 -91.62,-58.76 -127.11,-96.75zm412.1 306.1c0.41,-0.12 0.67,-0.34 0.95,-0.55 1.71,-1.56 1.9,-4.16 0.39,-5.94 -67.91,-77.16 -151.79,-130.75 -232.78,-182.59 -62.08,-39.67 -126.07,-80.59 -182.65,-131.96 163.78,59.69 351.15,179.71 426.92,326.59 -4.31,-1.69 -8.6,-3.46 -12.84,-5.53zm-175.69 -209.92c-3.99,-2.71 -7.95,-5.41 -11.75,-8.2 -0.02,-0.01 -0.02,-0.01 -0.02,-0.01 1.23,-1.36 1.52,-3.41 0.48,-5.04 -19.56,-30.62 -44.39,-59.54 -68.44,-87.51 -15.13,-17.63 -30.78,-35.85 -45.03,-54.37 -13,-16.93 -25.75,-34.44 -39.23,-53 -6.85,-9.42 -13.8,-18.9 -20.76,-28.37 36.62,35.9 74.08,73.05 104.1,112.49 26.44,34.71 58.68,79.23 80.65,124.01zm-170.81 -203.17c13.53,18.6 26.31,36.16 39.37,53.16 14.37,18.72 30.12,37.03 45.32,54.74 21.68,25.22 43.82,51.27 62.14,78.41 -83.3,-59.68 -144.3,-119.83 -185.61,-182.85 -18.02,-27.57 -30.8,-57.41 -43.05,-86.3 -5.19,-12.12 -10.5,-24.51 -16.14,-36.73 12.48,14.25 25.56,28.11 39.32,41.75 0.03,0.03 0.06,0.07 0.09,0.11 20.29,25.15 39.6,51.64 58.56,77.71zm-120.16 -144.36c0.1,0.11 0.21,0.22 0.35,0.32 11.47,20.47 20.64,42.02 30.18,64.48 12.48,29.29 25.31,59.48 43.76,87.59 34.54,52.64 82.39,103.22 145.22,153.07 -57.65,-33.54 -117.8,-60.96 -174.74,-80.95 -24.16,-70.13 -39.29,-145.55 -44.77,-224.52zm7.87 -163.91c92.24,109.63 205.68,202.64 315.46,292.68 43.21,35.51 87.65,71.93 130.57,109.21 -17.43,-11.32 -34.91,-22.61 -52.1,-33.57 -60.76,-38.88 -123.52,-79.07 -180.18,-124.05 -48.22,-38.26 -186.88,-148.23 -213.75,-244.26zm469.5 411.28c-48.56,-42.96 -99.31,-84.61 -148.67,-125.11 -105.85,-86.84 -215.03,-176.4 -305.11,-280.78 25.38,18.98 57.81,38.45 89.66,57.56 20.63,12.42 40.16,24.08 56.55,34.96 111.47,74.04 254.43,197.87 307.58,313.37zm-420.65 -655.07l0.06 -0.09c1.9,-5.85 3.87,-11.78 5.78,-17.64 49.7,55.69 92.1,120.96 133.21,184.31 36.16,55.65 73.46,113.14 115.47,163.61 -115.65,-64.63 -253.27,-203.98 -254.52,-330.2zm269.99 335.61c-0.08,-0.29 -0.31,-0.56 -0.53,-0.83 -45.15,-52.33 -84.89,-113.57 -123.34,-172.77 -42.12,-64.95 -85.65,-131.94 -137.18,-188.81 0.77,-2.27 1.53,-4.54 2.38,-6.74 111.78,40.18 243.8,257.24 258.67,369.16zm-115.12 -680.56c1.59,2.22 3.12,4.53 4.74,6.88 17.31,36.54 27.28,77.96 36.93,118.25 7.21,30.11 14.67,61.22 25.12,89.97 19.51,53.65 41.16,106.89 62.1,158.38l7.37 18.16c0,0 0,-0.01 -0.01,-0.02 -82.03,-75.7 -95.74,-166.72 -110.38,-262.67 -6.41,-42.26 -13.02,-85.94 -25.86,-128.84 0.04,-0.06 0.04,-0.06 -0.01,-0.11zm127.92 348.66c0.01,0.03 0.02,0.04 0.03,0.06 -18.13,-44.67 -36.47,-90.43 -53.25,-136.51 -10.29,-28.28 -17.67,-59.18 -24.84,-89.06 -6.55,-27.39 -13.32,-55.27 -22.38,-81.98 0.08,0.11 0.14,0.19 0.18,0.28 31.23,49.48 61.93,109.68 78.07,179.66 5.07,22.17 8.4,44.82 11.63,66.76 2.95,19.82 5.86,39.93 10.27,59.91 0.1,0.29 0.2,0.56 0.29,0.87zm-376.87 406.27c0.02,-0.01 0.02,-0.01 0.02,-0.01 -2.69,45.35 -11.1,89.43 -19.31,132.12 -10.84,56.29 -22.06,114.49 -20.26,176.46 0.29,9.67 0.51,19.27 0.73,28.82 1.63,68.55 3.25,133.92 23.33,197.34 -0.01,-0.04 -0.03,-0.09 -0.05,-0.15 -0.09,-0.28 -0.19,-0.57 -0.3,-0.85 -3.68,-8.52 -7.32,-17.12 -11.05,-25.55 -17.64,-40.74 -35.97,-82.95 -40.78,-128.86 -8.3,-79.07 -5.94,-146.64 7.41,-212.42 13.3,-66.24 31.92,-118.17 60.28,-166.92zm0.24 576.49c-0.31,-1.09 -0.69,-2.12 -1.09,-3.25 0.28,0.55 0.66,0.98 1.1,1.36 -0.01,0.03 0,0.04 0.01,0.07 0.03,0.67 0.03,1.21 -0.02,1.81zm0.65 -20.9c-0.01,0.05 0.01,0.12 -0.01,0.19 -27.76,-69.59 -29.46,-142.09 -31.28,-218.58 -0.23,-9.56 -0.45,-19.18 -0.75,-28.86 -1.76,-61.03 9.35,-118.78 20.11,-174.62 2.31,-11.9 4.6,-23.89 6.81,-36 0,0.06 0,0.13 0.01,0.19 1.68,39.3 7.99,79.46 14.23,119.05 5.93,37.75 11.49,73.33 13.02,107.12 1.97,44.06 -4.69,89.72 -11.19,133.93 -4.7,32.09 -9.45,64.81 -10.97,97.44l0.02 0.13zm6.74 -568.27c0.02,-0.01 0.01,-0.02 0.03,-0.03 0.39,-0.66 0.78,-1.31 1.19,-1.96 -0.27,0.75 -0.58,1.59 -0.77,2.39 0,0.02 -0.02,0.05 -0.01,0.07 -0.15,-0.17 -0.29,-0.32 -0.44,-0.46zm639.2 919.35c1.31,1.2 2.49,2.43 3.75,3.57 18.9,18.3 37.88,36.65 57.11,54.97 9.74,9.2 20.4,18.03 31.72,26.66 33.96,25.81 74.18,49.39 113.34,72.39 42.16,24.64 82.05,48.09 113.39,73.29 -9.55,4.49 -28.81,4.47 -54.47,-0.23 -78.11,-14.26 -165.6,-80.68 -213.85,-136.31 -24.56,-28.42 -38.27,-61.81 -51,-94.36zm325.37 224.9c-31.99,-25.9 -72.38,-49.53 -115.14,-74.62 -51.91,-30.35 -105.53,-61.79 -143.52,-97.88 -19.28,-18.24 -38.2,-36.55 -57.13,-54.85 73.26,24.86 137.86,66.78 198.99,113.25 27.38,20.81 54.05,42.57 80.5,64.06 30.94,25.21 39,42.15 36.3,50.04z"/>
   <path class="fil0" d="M1058.19 2096.6c0,0 -18.07,27.47 4.28,37.4 22.32,9.9 30.19,-8.91 28.64,-22.22 -1.48,-13.31 -8.23,-28.45 -32.93,-15.17z"/>
   <path class="fil0" d="M362.76 1670.34c0,0 -18.66,28.45 4.44,38.68 23.07,10.28 31.14,-9.2 29.59,-22.95 -1.56,-13.75 -8.5,-29.42 -34.02,-15.73z"/>
   <path class="fil0" d="M1567.98 1261.21c0,0 -18.66,28.45 4.44,38.67 23.08,10.28 31.15,-9.2 29.59,-22.95 -1.55,-13.75 -8.5,-29.41 -34.03,-15.72z"/>
   <path class="fil0" d="M1226.66 1222.2c0,0 -12.87,19.56 3.02,26.63 15.91,7.07 21.49,-6.35 20.42,-15.86 -1.07,-9.44 -5.86,-20.26 -23.44,-10.78z"/>
   <path class="fil0" d="M617.53 1809.18c0,0 -12.86,19.57 3.01,26.63 15.92,7.06 21.49,-6.36 20.42,-15.86 -1.05,-9.45 -5.85,-20.25 -23.43,-10.77z"/>
   <path class="fil0" d="M1573.69 1475.1c0,0 -12.86,19.57 3.02,26.63 15.91,7.06 21.49,-6.36 20.42,-15.86 -1.07,-9.45 -5.86,-20.25 -23.44,-10.77z"/>
  </g>
 </g>
</svg>
