<?xml version="1.0" encoding="UTF-8"?>
<!DOCTYPE svg PUBLIC "-//W3C//DTD SVG 1.1//EN" "http://www.w3.org/Graphics/SVG/1.1/DTD/svg11.dtd">
<!-- Creator: CorelDRAW 2018 (64-Bit) -->
<svg xmlns="http://www.w3.org/2000/svg" xml:space="preserve" width="84.3174mm" height="97.9315mm" version="1.1" style="shape-rendering:geometricPrecision; text-rendering:geometricPrecision; image-rendering:optimizeQuality; fill-rule:evenodd; clip-rule:evenodd"
viewBox="0 0 4526.87 5257.78"
 xmlns:xlink="http://www.w3.org/1999/xlink">
 <defs>
  <style type="text/css">
   <![CDATA[
    .fil0 {fill:#494949;fill-rule:nonzero}
   ]]>
  </style>
 </defs>
 <g id="Layer_x0020_1">
  <metadata id="CorelCorpID_0Corel-Layer"/>
  <g id="_1796998574336">
   <path class="fil0" d="M1568.19 4985.83c-60.25,55.12 -343.97,-18.2 -450.79,-45.83 -14.96,-3.77 -27.45,-7.22 -36.92,-9.47 -142.26,-34.47 -353.06,-108.91 -479.2,-204.93 -8.89,-6.82 -16.84,-11.72 -24.06,-15.91 -12.69,-7.76 -21.19,-12.88 -28.03,-24.83 44.51,-15.53 93.56,-25.19 141.1,-34.47 48.3,-9.66 98.11,-19.3 143.37,-35.21 1.52,-0.56 2.85,-1.51 4.17,-2.67 18.94,14.01 43.01,33.92 69.89,56.27 6.65,5.51 13.64,11.34 20.64,17.05 -10.03,10.62 -19.89,21.8 -28.98,34.07 -2.27,3.03 -2.82,7.03 -1.71,10.25 -2.46,7.96 -2.46,15.91 -0.19,23.12 4.55,14.57 17.8,23.85 35.99,25.74 1.14,0.19 2.46,0.19 3.79,0.19 15.91,0 35.61,-9.85 58.91,-29.15 1.9,-1.52 3.6,-3.03 5.49,-4.97 85.04,65.74 178.62,125.95 253.25,125.78 4.74,0 9.47,-0.19 14,-0.56 29.54,-3.39 53.81,-17.05 72.16,-40.91 3.81,-4.74 3.03,-11.76 -1.52,-15.53 -7.74,-6.63 -16.28,-11.37 -24.62,-15.91 -5.87,-3.03 -11.53,-6.06 -16.1,-9.66 -4.15,-3.03 -9.85,-2.84 -13.83,0.19 -71.02,-38.66 -142.42,-79.17 -212.5,-123.66 25.76,-35.44 44.32,-70.48 45.86,-89.97 2.63,-35.82 -9.47,-48.87 -20.29,-53.43 -17.42,-7.39 -41.65,3.05 -63.26,27.27 -13.07,14.57 -22.73,31.08 -32,46.97 -3.21,5.47 -6.42,10.98 -9.85,16.29 -45.65,-31.63 -90.34,-65.52 -133.89,-101.88 0.93,-1.33 1.87,-2.48 2.84,-3.81 5.87,1.7 12.11,-1.71 13.81,-7.77 1.33,-4.56 2.65,-10.03 4.17,-15.55 0.19,-0.19 0.38,-0.36 0.38,-0.36 4.54,-3.41 5.87,-9.47 3.22,-14.21 0,0 0,0 0,-0.19 0.76,-3.77 1.7,-7.41 2.65,-11.37 18.77,-80.31 44.89,-189.76 126.33,-185.03 52.84,3.22 125.97,106.43 179.17,181.64 25.95,36.53 48.49,68.16 65.54,85.04 36.18,35.78 64.96,74.99 95.46,116.63 23.48,31.86 47.54,64.78 75.76,96.63 6.06,6.99 13.64,15.31 22.35,24.58 44.32,48.13 118.38,128.62 126.71,176.73 2.28,14.21 -0.55,24.62 -9.26,32.77zm-509.13 -302.66c83.15,52.86 168,100.21 251.9,145.25 -12.29,11 -27.08,17.25 -44.51,19.13 -67.43,7.59 -162.68,-53.02 -247.73,-118.38 13.82,-14.01 27.46,-29.7 40.34,-46.01zm-5.68 -30.68c-4.17,6.08 -8.9,12.33 -13.64,18.36 -12.31,15.72 -25.76,31.08 -39.21,44.32 -5.66,5.7 -11.17,10.79 -16.86,15.72 -0.76,0.59 -1.32,1.15 -2.08,1.74 -27.46,22.9 -41.1,24.22 -45.83,23.86 -5.11,-0.61 -14.21,-2.67 -16.65,-10.08 -1.91,-6.25 1.14,-16.82 12.11,-26.52 2.48,-2.06 3.79,-4.92 3.79,-7.95 3.6,-3.96 7.2,-7.73 10.98,-11.54 5.12,-5.47 10.42,-10.81 15.91,-16.29 0.2,-0.36 0.76,-0.94 1.13,-1.32 8.71,-8.92 17.43,-17.62 25.95,-27.09 3.6,-4 6.82,-7.96 9.85,-12.12 4.74,-6.08 9.09,-12.33 12.88,-18.77 3.79,-5.84 7.38,-11.73 10.79,-17.59 9.09,-15.72 17.81,-30.5 29.36,-43.35 15.17,-17.07 30.88,-24.28 37.33,-21.61 4.14,1.9 7.94,10.8 6.42,30.85 -1.14,14.79 -18.37,46.42 -42.24,79.38zm-241.11 -85.59c10.8,-11.57 21.99,-24.64 32.95,-38.84 43.94,36.91 89.23,71.02 135.06,102.84 -2.67,3.39 -5.32,6.61 -8.16,9.66 -8.34,9.09 -16.86,17.59 -25.38,26.32 -0.94,0.93 -1.7,1.71 -2.65,2.67 -7.58,-6.25 -14.96,-12.33 -21.97,-18.21 -34.47,-28.6 -64.39,-53.41 -85.99,-67.99 -7.96,-5.29 -16.08,-10.8 -23.86,-16.46zm-18.37 -13.47c-5.68,6.06 -11.17,11.53 -16.46,16.1 -11.01,9.28 -20.66,14.8 -27.48,13.05 -4.91,-1.12 -9.09,-10.21 -11.37,-24.05 -0.57,-3.96 0.76,-9.47 3.98,-16.08 2.86,-5.7 7.01,-12.33 12.69,-19.32 9.11,-11.34 21.8,-23.84 37.69,-35.98 0.94,-0.74 1.9,-1.52 2.84,-2.07 6.82,-5.15 13.45,-9.47 19.53,-13.11 14.38,-8.14 26.12,-12.1 32.94,-12.1 1.9,0 3.41,0.19 4.56,0.76 0.55,0.36 2.44,1.13 2.82,7.19 0.19,2.28 0.94,4.38 2.29,6.08 -2.86,3.58 -6.46,8.5 -11.39,14.94 -1.33,1.87 -3.03,3.99 -4.92,6.44 -3.79,5.1 -8.52,11.53 -13.82,18.2 -10.04,12.86 -21.95,27.44 -33.9,39.94zm-69.13 -25.74c-2.65,4.32 -4.53,8.69 -6.06,12.86 -25.95,-1.51 -39.77,-9.47 -40.91,-24.26 -0.55,-7.54 1.51,-16.1 5.87,-24.79 3.22,-6.84 7.39,-13.64 12.69,-20.27 11.37,-14.75 26.9,-29.19 43.58,-39.58 6.8,-4.54 13.82,-8.32 20.81,-11.17 6.46,-2.65 12.71,-4.55 18.75,-5.69 23.11,-3.96 38.64,4.74 47.35,26.71 -10.23,3.77 -20.25,9.09 -28.98,14.56 -7.58,4.74 -14.21,9.47 -18.75,12.88 -0.19,0.23 -0.19,0.23 -0.38,0.4 -14.21,10.82 -29.17,24.61 -40.91,39.22 -5.12,6.25 -9.66,12.69 -13.07,19.13zm-157.58 -197.55c15.36,-7.03 28.03,-17.07 38.45,-29.19 3.41,-3.96 6.46,-8.14 9.09,-12.5l3.22 4.17c33.52,43.73 68.94,84.46 105.69,122.33 -16.66,10.98 -31.8,25.19 -43.75,40.36 -39.76,-38.66 -77.26,-80.68 -112.69,-125.17zm-14.59 -18.58c-4.92,2.27 -9.85,3.96 -14.58,5.3 -3.41,1.14 -6.63,2.06 -9.85,2.65 -5.87,1.51 -11.36,2.25 -16.64,2.63 -24.27,1.93 -44.72,-5.28 -59.66,-21.38 -20.84,-22.52 -27.86,-58.89 -19.91,-92.99 1.52,-6.25 3.41,-12.5 5.87,-18.58 1.51,-3.2 3.05,-6.61 4.74,-9.83 0,-0.19 0.19,-0.19 0.19,-0.38 2.27,-4.36 5.3,-9.09 8.9,-13.83 9.09,-12.14 22.54,-24.83 42.62,-32.59 4.56,-1.87 9.3,-3.39 14.58,-4.55 2.46,-0.74 5.12,-1.29 7.96,-1.7 0.97,-0.19 2.08,-0.36 3.03,-0.55 2.67,3.99 7.58,6.25 12.52,4.92 1.3,-0.38 2.44,-0.57 3.6,-0.93 48.66,-10.98 67.6,20.46 74.42,40.49 7.96,22.16 7.76,49.47 0.19,74.43 -1.9,5.7 -3.96,11.18 -6.44,16.5 -1.33,2.67 -2.46,5.12 -3.98,7.6 -2.63,4.74 -5.49,9.28 -8.71,13.43 -9.28,11.93 -21.02,21.78 -35.04,27.84 -1.33,0.57 -2.46,1.15 -3.79,1.51zm-223.49 -382.02c24.43,-1.87 49.06,-7.77 73.68,-18.01 0.76,-0.36 1.51,-0.55 2.27,-0.93 27.1,68.18 57.2,133.15 90.53,193.74 0.56,1.15 1.13,2.29 1.89,3.45 -4.9,1.29 -9.64,3.03 -14.2,4.9 -17.05,7.01 -31.81,17.81 -43.94,31.82 -41.29,-69.32 -78.2,-141.5 -110.23,-214.97zm-36.18 -23.3c-38.07,-3.77 -74.43,-19.32 -106.61,-45.84 25.74,-3.03 53.77,-8.5 82.18,-15.91 7.78,-1.87 15.53,-3.99 23.3,-6.44 25.96,-7.58 51.9,-16.67 76.7,-27.3 7.01,-2.8 13.83,-5.85 20.66,-9.07 47.35,-21.78 89.58,-48.49 118,-78.05 4.36,-4.54 4.15,-11.72 -0.38,-16.08 -4.57,-4.38 -11.76,-4.18 -16.12,0.36 -17.99,18.77 -42.42,36.37 -70.64,52.28 4.74,-19.87 7.78,-41.65 11.17,-64.36 6.46,-43.77 13.07,-89.23 30.87,-120.5 2.1,-3.22 2.1,-7.18 0.38,-10.4 2.65,-0.17 5.49,-0.17 8.14,-0.17 4.35,0 8.16,-2.29 10.04,-5.89 10.23,18.94 17.82,39.4 22.94,59.85 23.84,93.92 0.38,208.72 -86.58,260.07 -6.44,3.96 -13.07,7.54 -20.26,10.4 -0.76,0.59 -1.69,0.94 -2.65,1.33 -24.81,10.43 -50.01,15.91 -74.43,16.69 -8.9,0.36 -17.81,0.19 -26.71,-0.97zm-129.17 -67.07c-42.81,-45.25 -68.37,-103.95 -73.28,-160.99 18.56,17.46 36.92,36.18 54.53,54.38 29.36,30.3 59.49,61.19 92.43,87.29l0 0.19c1.35,3.03 3.98,5.32 7.39,6.08 0.19,0.17 0.57,0.17 0.94,0.17 -28.79,7.03 -56.82,11.59 -81.63,13.28 -0.19,-0.17 -0.19,-0.17 -0.38,-0.4zm96.8 -16.27c-1.15,0.36 -2.48,0.59 -3.6,0.78 -0.21,0 -0.38,0 -0.59,0.17 0.76,-0.59 1.51,-0.95 2.08,-1.69 0.57,-0.78 0.76,-1.35 1.14,-2.12l0 -0.19c1.13,-2.25 1.34,-4.54 0.96,-6.98l2.25 -17.79c1.51,-9.11 2.86,-18.2 3.62,-27.48 2.07,-21.61 3.01,-43.96 3.98,-65.74 1.3,-32.18 2.44,-63.03 7.18,-90.15 18.75,21.61 35.82,46.42 52.28,71.8 0,0 0,0 0,0.19 5.87,8.92 11.57,17.97 17.23,26.9 8.33,12.88 16.66,26.16 25.19,38.84 6.06,9.05 12.14,17.97 18.18,26.29 -2.84,1.34 -5.66,2.86 -8.52,4.18 -6.82,3.03 -13.82,6.25 -20.81,9.11 -25.21,10.57 -51.33,19.85 -77.48,27.45l-23.86 3.58c0,0 0,0 -0.19,0 0.19,0.97 0.56,1.93 0.96,2.86zm-152.67 -250.18c14.39,-30.11 36.93,-54.38 66.29,-72.37 6.82,-4.17 13.83,-7.95 21.02,-11.34 24.81,-11.59 53.6,-19.71 85.99,-23.9 7.2,-1.12 14.59,-1.9 22.16,-2.44l0.21 0c0.17,0 0.17,0 0.38,0 1.69,0.55 3.58,0.97 5.49,0.74 75.55,-7.54 128.4,28.83 161.16,78.62 -45.83,0 -96.97,1.88 -149.62,10.06 -7.39,1.1 -14.78,2.25 -22.14,3.77 -28.62,5.11 -57.41,12.5 -86.01,22.35 -7.18,2.65 -14.39,5.28 -21.59,8.12 -34.66,13.85 -68.56,31.63 -100.95,54.76 1.72,-24.22 7.58,-47.35 17.62,-68.36zm61.75 -357.99c0,0 -13.24,-1.51 -22.92,-3.22l0 0.19c-0.76,-0.19 -1.51,-0.36 -2.27,-0.59 -2.08,-0.38 -4.17,-0.93 -5.48,-1.31 -25.78,-7.03 -43.58,-20.26 -51.54,-39.02 -10.4,-24.45 -2.06,-54.76 21.02,-77.09 10.81,-10.44 23.3,-18.16 37.31,-23.32 9.09,-2.84 22.91,-5.66 22.91,-5.66 6.65,-0.94 13.45,-1.51 20.46,-1.51 17.23,0 35.8,3.03 54.74,9.07 0,0 21.97,4.55 26.91,10.61 5.87,2.67 12.48,0.19 15.13,-5.48 0.21,-0.19 0.21,-0.59 0.38,-0.78 7.95,6.44 11.93,15.91 11.93,28.22 -0.19,20.28 -11.36,44.32 -28.6,64.96 0,0 -9.47,18.39 -24.05,23.86l-0.19 0c-16.29,12.5 -34.66,20.85 -52.85,21.42 -7.95,0.19 -15.7,0.19 -22.91,-0.38zm-62.89 -552.29c14.21,18.17 30.31,35.04 46.6,51.73 7.58,7.94 15.15,15.89 22.16,23.45 0.76,0.78 1.51,1.14 2.28,1.74l0 0.17c-4.74,27.46 -8.91,54.91 -12.69,82.58 -26.5,-49.25 -45.65,-103.44 -58.34,-159.67zm-9.09 -46.21c-4.55,-26.54 -7.76,-53.43 -9.66,-80.33 24.24,21.23 45.26,48.68 65.55,75.38 12.48,16.5 25.36,33.35 39.18,48.67 -3.6,17.43 -7.01,34.49 -10.23,51.9 -4.35,-4.35 -8.52,-8.9 -12.87,-13.43 -23.49,-24.26 -47.92,-49.45 -63.07,-76.53 -1.87,-3.39 -5.3,-5.29 -8.9,-5.66zm4.35 -331.28c14.4,30.52 34.29,58.35 53.79,85.23 17.24,24.07 33.52,47.18 46.21,71.61 -3.98,-0.97 -8.14,0.17 -11.17,3.39 -2.08,2.29 -3.22,5.49 -2.84,8.54 -9.66,3.79 -18.75,9.85 -26.5,18 -15.55,16.46 -21.99,37.31 -17.06,56.04 7.22,27.3 36.55,41.88 66.48,50.97 -0.55,2.25 -1.14,4.53 -1.69,6.82 -3.81,15.53 -7.22,31.06 -10.62,46.59 -8.9,-11.01 -17.78,-22.56 -27.09,-34.68 -25.38,-33.32 -51.87,-67.98 -85.23,-92.41 -3.41,-76.35 2.65,-151.71 15.72,-220.11zm30.7 -114.78c19.87,-55.85 50.74,-121.39 89.19,-189.02 0,0 0,-0.17 0.19,-0.17 10.06,34.83 31.06,69.89 51.7,103.79 20.29,33.52 41.29,68.18 49.83,100.37 1.3,5.11 5.66,8.33 10.59,8.54 -0.19,0.74 -0.57,1.51 -0.94,2.25l-0.17 0c-13.28,-4.15 -24.26,-8.71 -30.7,-13.83 -3.79,-3.01 -8.9,-3.22 -12.88,-0.94 -10.23,-1.3 -19.49,1.54 -26.51,8.33 -13.26,12.88 -13.64,36.37 -0.93,57.2 8.33,13.47 22.33,22.94 38.26,29.55 -12.9,34.3 -24.81,69.34 -35.82,104.36 -46.03,-55.48 -98.49,-139.78 -126.9,-205.11 -0.95,-2.27 -2.85,-3.98 -4.91,-5.11 0,-0.21 0,-0.21 0,-0.21zm247.52 -418.37c0.21,-0.21 0.21,-0.21 0.38,-0.38 3.43,78.79 32.77,173.67 58.9,249.04 0.97,2.84 3.03,4.94 5.49,6.27 -25.38,31.44 -48.1,66.46 -68.92,103.77 0,0.19 -0.21,0.19 -0.21,0.4 -10.4,-36.74 -25.57,-73.11 -40.72,-108.53 -18.18,-42.44 -36.72,-86.38 -46.02,-129.55 28.41,-41.86 59.09,-82.77 91.1,-121.02zm188.85 -172c36.35,-22.73 73.09,-39.4 109.45,-47.9 -4.35,12.86 -8.89,26.14 -13.45,39.38 -35.42,103.6 -71.95,210.61 -84.28,316.3l-0.19 0c0,0 0,0 0,0.2 -24.81,13.45 -47.92,30.12 -69.7,49.44 -4.14,-22.16 -8.71,-45.08 -13.45,-68.37 -13.44,-67.64 -27.27,-137.32 -35.79,-203.99 34.85,-33.14 71.02,-62.31 107.41,-85.06zm51.33 313.08c2.07,-2.46 2.82,-5.47 2.64,-8.5 87.88,-57.58 239.4,-117.44 338.08,-122.94 -25.38,47.18 -49.62,99.26 -73.66,154.17 -40.74,-6.05 -82.39,0.2 -122.56,6.27l-29.17 4.36c-29.17,4.17 -59.47,8.31 -88.26,16.48 -15.53,4.14 -33.33,13.24 -50.57,21.78 -15.72,7.94 -32.94,16.65 -46.97,20.83 0,-0.2 0,-0.2 0,-0.2 21.97,-32.01 45.46,-62.86 70.48,-92.24zm245.07 73.68c-62.69,24.26 -130.12,41.1 -195.46,57.41 -59.07,14.75 -119.49,30.11 -176.69,50.74 0,-0.17 0.17,-0.17 0.17,-0.38 12.5,-21.78 25.57,-42.99 39.39,-63.81l2.29 0c20.84,0 45.82,-12.5 71.95,-25.57 16.29,-8.33 32.98,-16.67 46.42,-20.46 27.25,-7.58 56.82,-11.76 85.4,-15.74l29.37 -4.35c36.35,-5.49 74.04,-10.98 109.66,-7.01 -4.19,9.67 -8.35,19.32 -12.52,29.16zm-59.85 146.03c-15.91,39.02 -32.01,78.6 -48.49,118.58 -2.25,-2.46 -5.49,-3.81 -9.09,-3.43 -22.33,2.09 -45.08,4.94 -68,7.58 -71.21,8.71 -144.87,17.42 -215.9,11.95 -0.21,0 -0.4,0.19 -0.59,0.19 0,-0.19 0,-0.19 0,-0.19 -7.58,-12.12 -23.49,-20.46 -43.37,-27.3 9.47,-21.78 19.32,-42.99 29.75,-64.02l0.17 -0.17c12.31,1.69 24.81,3.01 37.5,3.01 61.55,0 125,-20.26 186.94,-39.96 50.02,-15.72 97.37,-30.68 142.81,-35.59 -3.98,9.85 -7.77,19.49 -11.75,29.34zm-116.1 274.44c-0.38,0.19 -0.76,0 -1.14,0 -87.69,14.21 -226.52,26.7 -335.05,16.12l0 -0.21c3.98,-13.82 8.33,-27.63 13.07,-41.29 63.45,-0.36 127.85,-6.99 189.97,-13.45 51.51,-5.3 104.55,-10.59 156.07,-12.29 -7.58,17.02 -15.13,34.26 -22.92,51.12zm-73.68 148.49c-0.76,-0.19 -1.33,-0.19 -2.08,-0.19 -40.53,0 -81.42,1.7 -120.82,3.22 -30.32,1.33 -61.38,2.67 -92.63,3.03 -10.78,-14.39 -38.26,-21.78 -62.48,-28.41 -4.74,-1.12 -9.3,-2.46 -13.28,-3.58 6.63,-28.41 14.01,-56.63 22.16,-84.28 30.88,3.22 63.83,4.74 97.54,4.74 81.84,0 167.24,-8.35 233.74,-18.37 -19.7,42.22 -40.36,83.71 -62.14,123.85zm-105.5 168.39c-1.13,-0.38 -2.65,-0.57 -3.98,-0.57 -27.63,1.52 -56.04,5.66 -83.69,9.66 -45.29,6.44 -92.06,13.24 -137.31,8.31 3.2,-24.03 6.8,-47.9 10.78,-71.57 88.66,-0.19 177.09,-6.25 263.27,-17.82 -15.72,25 -32.01,49.09 -49.06,71.99zm-242.43 217.81c2.65,-59.49 7.59,-118.95 14.58,-177.87 11.95,1.33 23.68,1.92 35.63,1.92 36.35,0 72.52,-5.33 107.94,-10.42 22.91,-3.22 44.72,-6.08 66.5,-7.95 -64.61,82.75 -138.29,150.74 -224.65,194.33zm30.3 -397.93c2.65,1.12 5.12,2.25 7.58,3.39 3.62,1.53 8.14,3.05 13.47,4.56 3.77,1.12 8.12,2.25 12.69,3.39 12.29,3.41 39.19,10.62 47.9,17.62l0 0.57c0.21,3.98 2.08,7.39 5.11,9.3 0,0 0,0 0.21,0.17 1.12,4.74 1.5,9.47 -1.13,12.52 -8.54,10.03 -40.36,9.47 -74.84,3.41 -7.19,-1.14 -14.58,-2.65 -21.78,-4.36 -5.3,-1.15 -10.42,-2.48 -15.51,-3.79 -5.11,-1.33 -11.57,-2.84 -18.39,-4.36 -4.93,-1.15 -10.02,-2.29 -15.52,-3.81 -7.02,-1.7 -14.58,-3.6 -21.8,-5.87 -23.49,-7.37 -45.25,-17.8 -49.81,-34.65 -2.84,-10.98 1.51,-23.88 11.55,-34.47 7.76,-8.14 17.62,-13.47 27.09,-14.98 8.54,6.63 18.01,12.69 27.86,18.57 6.61,3.97 13.45,7.59 20.43,11.17 14.96,7.76 30.5,14.98 44.89,21.61zm23.49 -239.97c15.91,4.34 32.01,7.18 44.7,9.28 -24.98,67.03 -45.83,136.73 -62.86,207.96 -14.42,-6.46 -29.57,-13.45 -44.15,-21.23 17.8,-65.51 38.26,-132.2 62.32,-196.01zm33.71 -81.65c53.05,-117.62 121.41,-219.69 212.51,-280.3 -50.38,65.13 -94.13,135.99 -132.01,211.37 -2.84,1.5 -4.91,4.15 -5.68,7.58 -0.19,1.31 -0.19,2.45 0,3.77 -11.18,22.56 -21.77,45.48 -31.61,68.75 -8.71,-2.46 -17.8,-4.74 -26.91,-6.98 -5.48,-1.33 -10.97,-2.67 -16.29,-4.19zm10.81 26.34c7.56,1.9 15.52,3.96 23.3,6.04 7.55,2.1 14.96,4.17 21.76,6.46 16.12,5.29 29.36,11.54 33.34,18.73 3.22,5.87 3.79,9.47 2.84,10.82 -0.36,0.38 -6.82,8.71 -49.81,3.98 -6.63,-0.76 -14,-1.9 -22.54,-3.22l-0.38 0 -4.35 -0.76c-11.55,-1.92 -25.95,-4.17 -40.34,-8.17 -7.39,-1.9 -14.78,-4.34 -21.59,-7.18 -11.74,-5.11 -21.59,-11.76 -26.89,-20.46 -7.96,-12.69 -7.2,-24.45 -2.65,-29 1.51,-1.49 3.6,-2.08 6.08,-2.08 3.98,0 9.26,1.9 15.13,5.49 2.27,1.54 4.94,2.1 7.58,1.71 4.94,2.27 10.44,4.17 16.31,6.08 6.8,2.27 14.2,4.34 21.95,6.42 6.63,1.71 13.45,3.43 20.28,5.13zm-122.56 820.08c-26.14,-7.55 -51.14,-9.85 -74.25,-6.82 1.71,-50.93 5.3,-101.49 10.42,-151.87l0 -0.19c1.34,-11.58 2.65,-23.13 3.97,-34.66 7.39,-61.75 17.43,-123.3 29.93,-185.04l0 -0.21c0.76,-0.19 1.35,-0.74 1.9,-1.31 4.35,-3.99 4.92,-10.42 1.51,-14.98 4.36,-20.81 9.09,-41.65 14.02,-62.69 0.57,-2.08 0.97,-3.96 1.51,-6.04 5.49,1.12 10.81,2.44 15.72,3.6 6.63,1.51 12.52,2.82 17.64,4.17 4.14,1.12 10.02,2.63 16.84,4.15 -27.84,146.61 -40.51,299.27 -39.21,451.9zm33.72 393.78c-33.89,4.36 -62.29,12.69 -85.97,23.3 -3.24,-20.65 -5.87,-40.91 -7.97,-60.82 -6.23,-56.82 -10.42,-112.49 -13.07,-167.24 4.54,0.19 9.28,0.38 14.21,0.38 2.84,0 5.7,0 8.71,-0.19 19.91,-0.74 39.78,-8.14 57.39,-19.87 5.51,75.57 14.6,150.75 26.71,224.44zm1322.39 1506.87c-9.47,-54.74 -83.32,-135.06 -132.39,-188.24 -8.5,-9.28 -16.1,-17.46 -21.95,-24.26 -27.48,-31.08 -51.33,-63.64 -74.45,-95.08 -31.06,-42.42 -60.23,-82.39 -97.73,-119.34 -15.91,-15.53 -37.69,-46.39 -63.07,-82.01 -59.07,-83.52 -132.58,-187.28 -196.39,-191.1 -97.56,-6.06 -128.22,110.25 -147.56,193.04 -1.51,-0.97 -2.82,-1.74 -4.17,-2.29 -3.77,-1.7 -7.96,-2.44 -12.48,-2.67l-0.2 0c-12.12,-34.66 -38.64,-50.93 -73.68,-44.87 -10.6,1.89 -21.4,5.7 -32,10.8 -39.02,-40.18 -76.52,-83.34 -112.13,-130.14 -1.69,-2.06 -3.41,-4.32 -4.91,-6.61 14.38,-33.52 16.08,-72.56 5.29,-103.81 -10.23,-29.34 -29.55,-48.28 -54.74,-55.08 -1.7,-1.74 -3.97,-3.03 -6.63,-3.63 -17.62,-2.61 -34.47,-3.03 -50.01,-1.1 -0.94,-1.74 -1.89,-3.63 -3.03,-5.51 -33.9,-61.55 -64.78,-127.65 -92.24,-197 99.24,-56.04 126.33,-183.32 100.4,-287.13 -19.9,-78.98 -66.5,-135.38 -127.09,-160.02 0,0 0,0 0,-0.19 0.55,-6.25 -3.98,-11.76 -10.23,-12.31 -32.98,-2.84 -62.33,-2.84 -88.66,-0.74 -13.07,-78.24 -22.54,-158.19 -28.03,-238.49 28.98,-27.08 48.87,-64.58 49.25,-96.21 0.38,-32.74 -20.08,-54.53 -55.12,-60.23 -0.38,-32.54 0,-65.13 1.13,-97.92l0 -0.17c1.14,-0.19 2.28,-0.19 3.43,-0.74 276.15,-134.11 425,-501.17 556.25,-825.04 18.94,-47.18 37.69,-93.19 56.44,-137.69 2.65,-2.29 3.99,-5.69 3.79,-9.09 33.73,-80.11 67.62,-154.57 103.41,-219.13 2.08,-3.41 1.9,-7.76 0,-11.19 -1.9,-3.39 -5.68,-5.66 -9.64,-5.66 -102.49,-3.05 -278.44,65.7 -374.45,129.91l0 -0.17c14.38,-96.21 47.73,-194.34 80.29,-289.42 6.83,-19.69 13.44,-39.18 19.7,-58.12 1.34,-3.81 0.59,-7.96 -2.09,-10.98 -2.44,-3.05 -6.42,-4.57 -10.42,-3.81 -260.79,40.91 -535.42,479.2 -597.94,704.38 -52.08,188.07 -50.76,460.07 64.78,649.66l0 0.19c-7.37,61.75 -11.93,123.66 -14.01,186.37 -20.27,5.68 -38.64,16.08 -53.98,30.87 -29.93,29.17 -40.15,69.34 -26.12,102.49 12.29,28.96 41.08,48.26 81.25,55.07 2.44,56.63 6.99,114.04 13.24,172.57 2.46,22.54 5.49,45.47 9.09,68.96 -45.83,25.93 -70.06,60.4 -82.58,86.51 -41.48,86.2 -18.18,205.9 55.51,287.14 -0.21,0.77 -0.21,1.34 -0.21,2.12 0.38,6.25 5.32,10.98 11.37,10.98l1.13 0c43,41.84 93.94,64.59 147.55,66.84 34.47,80.69 74.81,160.44 121.02,236.56 -0.56,0.74 -0.94,1.52 -1.33,2.25 -2.46,4.56 -4.53,9.11 -6.25,13.85l0 0.19c-18.75,46.61 -11.55,100.57 18.94,133.53 11.95,12.69 33.9,29.15 68.77,29.15 7.37,0 15.13,-0.74 23.68,-2.42 5.1,-0.97 10.4,-2.31 15.89,-4 38.07,48.3 79.17,93.97 123.11,136.16 -8.14,14.79 -12.5,29.56 -11.53,42.84 1.3,15.72 10.78,41.65 61.18,45.06 3.98,24.04 13.62,37.88 28.2,41.69 2.27,0.55 4.74,0.74 7.19,0.74 13.64,0 28.41,-8.73 43.96,-22.54 6.63,4.74 13.24,9.3 20.08,14.03 -41.12,13.24 -85.99,22.33 -129.76,31.03 -52.65,10.24 -107,21.06 -156.25,39.58 -5.69,2.29 -8.7,8.73 -6.63,14.62 10.23,27.45 25.19,36.53 42.45,46.75 6.98,4.18 14.21,8.56 21.95,14.58 128.99,98.15 343.2,174.08 487.54,209.12 9.47,2.25 21.95,5.48 36.72,9.28 133.91,34.66 273.49,66.48 369.15,66.48 46.59,0 82.59,-7.58 102.67,-25.93 14.37,-13.11 19.86,-31.67 16.27,-53.24z"/>
   <path class="fil0" d="M542.48 2184.63c-14.93,5.19 -31.03,7.97 -46.55,8.11 -6.29,0.04 -11.33,5.17 -11.29,11.46 0.06,6.25 5.13,11.27 11.37,11.27 0.04,0 0.05,0 0.09,0 18.22,-0.13 36.35,-3.27 53.83,-9.36 5.93,-2.06 9.07,-8.54 7.01,-14.47 -2.05,-5.93 -8.56,-9.04 -14.45,-7.01z"/>
   <path class="fil0" d="M643.41 2170.96c-10.78,0.91 -21.4,1.59 -32.35,2.16 -6.25,0.3 -11.08,5.64 -10.76,11.91 0.31,6.06 5.33,10.8 11.33,10.8 0.19,0 0.4,-0.02 0.59,-0.04 11.19,-0.55 22.09,-1.25 33.13,-2.2 6.25,-0.53 10.89,-6.02 10.36,-12.27 -0.53,-6.25 -5.64,-10.89 -12.29,-10.36z"/>
   <path class="fil0" d="M699.51 2184.78c2.76,0.42 5.57,0.61 8.35,0.61 6.74,0 13.36,-1.15 19.19,-3.43 5.85,-2.27 8.77,-8.86 6.5,-14.69 -2.27,-5.87 -8.88,-8.74 -14.69,-6.5 -4.55,1.76 -10.53,2.37 -16.1,1.53 -6.17,-0.96 -11.97,3.41 -12.88,9.63 -0.89,6.21 3.43,11.97 9.64,12.86z"/>
   <path class="fil0" d="M431.17 2472.12c-13.67,1.9 -27.73,2.63 -41.74,2.14 -6.38,-0.36 -11.52,4.72 -11.73,10.99 -0.21,6.27 4.72,11.51 10.98,11.72 3,0.1 5.99,0.16 8.96,0.16 12.29,0 24.57,-0.84 36.59,-2.46 6.23,-0.85 10.59,-6.59 9.73,-12.8 -0.83,-6.21 -6.68,-10.45 -12.8,-9.73z"/>
   <path class="fil0" d="M480.47 2489.43c5.7,2.56 13.2,3.56 19.96,3.56 2.86,0 5.61,-0.19 8.01,-0.51 6.23,-0.83 10.57,-6.55 9.74,-12.78 -0.83,-6.23 -6.67,-10.47 -12.8,-9.73 -5.76,0.79 -12.88,-0.06 -15.66,-1.27 -5.76,-2.63 -12.47,0 -15,5.74 -2.56,5.74 0.02,12.46 5.76,15z"/>
   <path class="fil0" d="M561.44 2488.22l21.84 0c6.27,0 11.36,-5.07 11.36,-11.36 0,-6.29 -5.1,-11.34 -11.36,-11.34l-21.84 0c-6.27,0 -11.36,5.06 -11.36,11.34 0,6.29 5.1,11.36 11.36,11.36z"/>
   <path class="fil0" d="M204.04 2163.87c2.23,2.37 5.25,3.58 8.28,3.58 2.78,0 5.58,-1.03 7.78,-3.09 4.56,-4.3 4.79,-11.49 0.49,-16.06 -6.86,-7.27 -12.96,-15.41 -18.14,-24.2 -3.2,-5.38 -10.15,-7.2 -15.57,-3.99 -5.4,3.2 -7.2,10.17 -3.99,15.59 6.04,10.21 13.16,19.7 21.15,28.18z"/>
   <path class="fil0" d="M349.06 1908.38c5.4,-3.21 7.18,-10.17 3.98,-15.57 -3.62,-6.1 -6.21,-13.19 -7.27,-20 -1,-6.19 -6.74,-10.43 -13.01,-9.43 -6.21,0.98 -10.44,6.8 -9.45,13.01 1.56,9.7 5.08,19.4 10.19,28.01 2.13,3.58 5.91,5.57 9.78,5.57 1.97,0 3.98,-0.51 5.79,-1.59z"/>
   <path class="fil0" d="M345.8 1956.46c4.62,5.04 8.6,11.68 10.67,17.78 1.59,4.74 6.02,7.73 10.75,7.73 1.21,0 2.44,-0.19 3.66,-0.6 5.95,-2.01 9.13,-8.47 7.12,-14.42 -3.07,-9.07 -8.7,-18.48 -15.46,-25.85 -4.24,-4.64 -11.44,-4.94 -16.04,-0.7 -4.64,4.24 -4.94,11.44 -0.7,16.06z"/>
   <path class="fil0" d="M371.15 2009.89c0,9.3 3.1,18.66 8.73,26.37 2.23,3.03 5.68,4.64 9.19,4.64 2.33,0 4.68,-0.7 6.71,-2.2 5.06,-3.69 6.15,-10.81 2.46,-15.87 -2.76,-3.79 -4.35,-8.5 -4.35,-12.94 0,-6.29 -5.07,-11.36 -11.37,-11.36 -6.29,0 -11.36,5.07 -11.36,11.36z"/>
   <path class="fil0" d="M543.98 1683.02c6.29,0 11.36,-5.1 11.36,-11.37l0 -30.55c0,-6.27 -5.07,-11.37 -11.36,-11.37 -6.27,0 -11.37,5.1 -11.37,11.37l0 30.55c0,6.27 5.1,11.37 11.37,11.37z"/>
   <path class="fil0" d="M537.46 1774.68c0.74,0 1.48,-0.08 2.23,-0.23 6.16,-1.23 10.15,-7.22 8.92,-13.37 -1.8,-8.98 -3.18,-18.28 -4.26,-27.46 -0.74,-6.23 -6.32,-10.76 -12.61,-9.96 -6.23,0.72 -10.68,6.36 -9.96,12.6 1.15,9.79 2.65,19.7 4.55,29.28 1.08,5.4 5.83,9.15 11.13,9.15z"/>
   <path class="fil0" d="M539.62 1815.23c-6.29,0 -11.36,5.1 -11.36,11.37l0 32.74c0,6.27 5.07,11.37 11.36,11.37 6.27,0 11.37,-5.1 11.37,-11.37l0 -32.74c0,-6.27 -5.1,-11.37 -11.37,-11.37z"/>
   <path class="fil0" d="M3564.42 4685.82c4.93,-3.99 9.85,-7.96 14.78,-11.95 45.27,-36.53 91.86,-74.25 140.92,-92.03 5.11,6.63 10.23,15.73 13.26,23.86 -58.9,22.33 -114.78,51.71 -168.95,80.12zm-279.56 293.38c-1.51,1.35 -3.22,2.64 -4.73,3.96 6.44,-39.76 4.54,-80.31 2.84,-119.89l-1.14 -26.12c28.22,-12.5 55.12,-25 80.88,-37.5l0.19 0c0.57,0.36 1.14,0.36 1.7,0.36 1.14,0 2.28,-0.17 3.41,-0.55 28.04,-8.92 55.12,-19.72 81.63,-31.44 -22.54,82.74 -96.03,151.9 -164.78,211.18zm-32 23.32c-0.19,0.74 0,1.29 0,2.06 -20.84,15.36 -43.56,30.12 -68.18,44.32 13.64,-41.46 16.48,-95.25 18.94,-143.94 0.76,-12.5 1.33,-24.45 2.08,-35.43 18.37,-7.58 36.37,-15.11 53.79,-22.71 0.19,5.89 0.38,11.73 0.76,17.43 2.28,48.5 4.36,94.15 -7.38,138.28zm-71.79 -98.7c-2.84,52.44 -6.25,117.82 -25.19,156.44 -0.94,1.71 -1.13,3.39 -1.13,5.28 -17.8,9.28 -36.74,18.39 -56.25,27.3 -0.38,-70.29 -4.55,-124.44 -13.26,-177.3 33.34,-11.72 65.72,-24.03 97.16,-36.55 -0.57,7.95 -0.94,16.1 -1.33,24.83zm-157.77 -172.36l-0.38 -1.51c35.99,-1.71 69.13,-2.65 100.57,-3.03 1.13,3.6 2.08,7.18 3.03,11.18 10.8,39.94 24.43,88.81 54.36,117.05 -33.52,13.47 -68.18,26.52 -103.79,39.4 -24.06,-50.57 -39.21,-107.58 -53.79,-163.07zm-39.97 407.04c7.77,-30.53 0.19,-72.96 -6.82,-110.61 -5.11,-28.83 -10.98,-60.82 -6.06,-73.89 31.44,-9.83 62.5,-20.07 93,-30.7 8.52,52.86 12.31,107.2 12.31,179.74 -29.17,12.52 -60.23,24.46 -92.43,35.46zm-77.46 24.58c-42.99,12.52 -88.26,23.68 -135.04,33.75 10.03,-53.43 8.52,-110.25 6.63,-165.18 -0.19,-8.5 -0.38,-17.05 -0.76,-25.38 40.15,-9.28 79.93,-19.3 118.95,-30.11 1.13,10.81 2.46,21.97 3.79,33.52 6.06,50 12.69,106.23 6.44,153.39zm-159.1 38.66c-16.1,3.22 -32.38,6.25 -48.86,9.3 11.36,-59.11 9.66,-121.24 7.95,-181.45l-0.38 -8.38c16.29,-3.22 32.57,-6.44 48.67,-10.02 0.19,6.99 0.38,14.02 0.57,21.2 1.9,57.04 3.6,115.93 -7.96,169.34zm-72.73 13.26c-32.96,5.51 -66.48,10.25 -100.76,14.38 -12.12,1.34 -24.62,2.29 -37.13,3.05 20.27,-54.72 23.3,-136.73 22.73,-188.08 41.29,-4.92 82.77,-11.37 124.06,-18.94l0.19 4.74c1.7,61.91 3.6,125.95 -9.09,184.85zm-161.75 18.94c-11.55,0.59 -23.1,0.94 -34.85,0.94 16.86,-62.88 18.18,-127.65 16.67,-183.93 14.01,-1.1 28.03,-2.43 42.04,-3.96 0.38,45.47 -2.08,131.63 -23.1,182.98 -0.38,1.28 -0.57,2.61 -0.76,3.96zm-58.33 0.59c-39.21,-0.77 -79.36,-4.18 -120.27,-9.88 15.91,-46.01 26.9,-99.98 34.47,-168.17 34.28,0 68.75,-1.33 103.22,-3.81 1.52,56.08 0.19,120.5 -17.42,181.86zm-322.93 -56.82c-10.03,-3.26 -19.32,-6.25 -28.41,-9.28 29.73,-36.59 44.88,-84.87 57.96,-127.84 17.99,3.03 35.98,5.47 54.17,7.54 1.9,1.15 3.79,1.74 5.87,1.74 0.94,0 1.89,-0.41 2.84,-0.77 19.5,2.25 39.2,3.99 58.9,5.1 -7.19,52.5 -15.72,111.03 -30.11,156.08 -39.77,-8.69 -80.31,-19.5 -121.22,-32.56zm-50.57 -16.87c-11.74,-4 -22.73,-8.13 -32.95,-12.12 26.14,-44.13 44.32,-81.24 58.33,-118.75 10.8,2.25 21.41,4.54 32.2,6.63 -13.26,43.56 -27.47,88.08 -55.5,120.86 -0.94,0.91 -1.51,2.25 -2.08,3.39zm-121.41 -64.21c24.81,-29.34 40.72,-56.04 55.49,-92.05 10.8,3.6 21.59,6.99 32.39,10.21 1.9,1.15 4.17,1.93 6.44,1.93 10.04,2.8 20.08,5.47 30.12,7.95 -13.64,36.14 -31.45,72.12 -57.01,115.16 -26.52,-12.14 -47.35,-25.19 -67.43,-43.2zm-17.43 -253.04c3.41,25.38 20.08,84.26 37.88,123.85 -57.96,-23.06 -112.5,-52.82 -162.89,-90.13 43.56,-15.13 85.04,-25.95 125,-33.72zm223.88 -17.78c2.27,15.3 4.35,32.37 6.25,50.15 5.87,49.47 12.12,104.36 29.74,148.13 -14.78,-1.9 -29.55,-4.38 -44.32,-6.82 -0.38,-0.19 -0.57,-0.55 -1.14,-0.78 -1.51,-0.36 -3.22,-0.55 -4.92,-0.19 -30.31,-5.47 -60.23,-12.69 -89.4,-21 -18,-43.39 -28.6,-93 -38.64,-141.09 -1.51,-7.4 -3.03,-14.62 -4.55,-21.97 50.76,-5.34 99.44,-6.67 146.98,-6.44zm98.87 1.1c10.42,67.07 25.38,133.93 39.96,196.81 1.14,5.28 5.87,8.92 10.99,8.92 0.76,0 1.7,-0.23 2.46,-0.42 6.25,-1.51 10.04,-7.54 8.53,-13.62 -14.02,-61.18 -28.6,-126.31 -38.83,-191.5 30.3,0 60.61,-0.36 91.1,-1.88 9.47,42.05 22.35,87.33 34.66,130.88 7.58,26.71 14.78,52.64 21.02,76.54 -53.03,2.44 -105.5,2.07 -157.01,-1.34 -0.19,-0.78 -0.19,-1.33 -0.38,-2.1 -18.37,-42.61 -27.65,-102.66 -35.99,-155.67 -2.65,-16.49 -5.11,-32.22 -7.76,-47.16 10.42,0.19 20.84,0.38 31.25,0.55zm246.6 -18.52c4.36,-0.97 8.71,-1.93 12.88,-2.86 13.83,72.73 37.13,144.13 59.66,213.07 -10.98,1.54 -22.16,3.05 -33.15,4.34 -1.13,-0.38 -2.27,-0.55 -3.22,-0.55 -1.9,0 -3.6,0.77 -5.3,1.51 -14.96,1.7 -29.93,3.22 -44.89,4.35 -12.88,-50.93 -23.49,-105.87 -33.52,-159.28 -3.22,-17.05 -6.63,-34.11 -9.85,-50.76 18.94,-2.65 37.88,-5.68 57.39,-9.83zm218.38 -43.94l4.74 16.82c18.18,63.85 38.63,136.39 73.48,192.26 0.57,0.78 1.33,1.14 2.09,1.87 -46.78,11.4 -93.94,21.61 -141.49,30.11 -22.16,-42.03 -32.39,-111.34 -40.53,-167.62 -2.85,-18.94 -5.49,-36.72 -8.34,-52.25 36.74,-7.59 73.3,-14.77 110.05,-21.19zm76.33 -12.52c4.17,15.32 7.95,33.15 11.93,51.92 11.18,52.99 24.05,113.22 51.9,152.81 0.76,1.15 1.9,1.74 2.84,2.48 -14.77,3.99 -29.54,7.95 -44.51,11.72 1.14,-2.99 0.95,-6.44 -0.94,-9.47 -33.15,-53.02 -53.22,-123.85 -70.84,-186.37l-4.17 -14.57c17.8,-3.05 35.79,-5.89 53.79,-8.52zm112.12 -14.02c15.53,58.91 36.93,126.33 77.84,184.48 -12.5,4.14 -25,7.96 -37.69,11.91 -1.33,0.19 -2.65,0.61 -3.98,1.34 -21.4,6.42 -43.18,12.86 -64.96,19.11 1.51,-3.58 1.51,-7.77 -0.94,-11.16 -25.19,-35.78 -37.5,-93.56 -48.3,-144.49 -3.79,-18.03 -7.39,-35.08 -11.55,-50.4 29.54,-4.17 59.28,-7.94 89.58,-10.8zm51.52 -4.54c10.6,-0.74 20.46,-1.33 30.49,-1.9l1.52 5.66c14.58,55.72 29.93,113.09 54.35,164.98 -12.69,4.55 -25.57,8.69 -38.26,13.07 -0.38,-1.15 -0.76,-2.27 -1.51,-3.22 -39.02,-54.76 -60.04,-119.12 -75,-176.12 9.47,-0.78 18.75,-1.93 28.41,-2.48zm217.24 -6.25c10.98,44.49 23.49,76.73 41.86,108.35 -8.34,3.39 -16.29,6.99 -24.81,10.38 -0.57,-0.91 -1.33,-1.87 -2.27,-2.61 -28.79,-21.97 -42.05,-71.44 -52.85,-111.02 -0.56,-1.88 -0.94,-3.58 -1.51,-5.48 13.45,0 26.7,0.19 39.58,0.38zm123.87 3.41c41.1,1.51 83.72,3.03 130.49,3.81 -40.91,21.97 -86.56,44.68 -136.18,67.58 -12.69,-22.16 -19.89,-46.57 -27.09,-72.31l-0.19 -0.23c10.98,0.4 21.97,0.78 32.95,1.16zm409.67 -172.55c-55.5,17.62 -106.25,58.72 -155.31,98.3 -29.17,23.67 -58.9,47.52 -89.4,66.46 0,0 0,0 -0.19,0 -0.19,-5.84 -4.93,-10.8 -10.98,-10.8 -55.87,-0.55 -105.31,-2.44 -152.85,-4.15 -104.55,-3.81 -203.23,-7.22 -343.76,2.86 -162.5,11.73 -307.59,42.61 -461.38,75.34 -95.27,20.46 -183.15,19.13 -275.96,17.65 -71.02,-1.15 -143.57,-2.1 -221.41,6.8 -2.08,-0.97 -4.55,-1.33 -6.82,-0.97 -1.7,0.38 -3.22,1.15 -4.55,2.12 -63.82,8.12 -131.44,22.9 -205.12,50.15 -3.79,1.35 -6.06,4.55 -7.01,8.18 -1.7,0.19 -3.41,0.74 -4.92,1.71 -5.3,3.58 -6.82,10.57 -3.22,15.72l23.86 35.95c57.01,86 92.05,138.66 127.66,175.2 -1.14,4.18 0,8.54 3.22,11.59 2.28,1.87 4.92,2.8 7.77,2.8 1.13,0 2.27,-0.19 3.41,-0.55 42.61,38.24 90.53,57.96 180.88,86.93 121.59,39.02 238.46,58.5 348.68,58.5 35.23,0 69.51,-1.87 103.23,-5.83 148.87,-17.65 517.25,-77.69 723.89,-255.5 76.14,-65.74 157.59,-143.2 175.77,-240.16 33.9,-16.14 66.67,-33.37 99.06,-50.21 56.64,-29.74 115.16,-60.44 176.33,-82.79 5.12,-1.87 8.14,-7.18 7.2,-12.5 -2.65,-16.27 -14.78,-38.81 -26.9,-50.38 -3.03,-2.81 -7.39,-3.77 -11.17,-2.45z"/>
   <path class="fil0" d="M2096.05 4890.08c1.42,5 5.99,8.26 10.91,8.26 1.04,0 2.1,-0.15 3.15,-0.46 6.04,-1.72 9.52,-8.01 7.78,-14.05l-6.32 -22.09c-1.71,-6.02 -7.99,-9.55 -14.03,-7.8 -6.05,1.74 -9.53,8.03 -7.81,14.06l6.32 22.08z"/>
   <path class="fil0" d="M2104.41 4924.86c-6.12,1.4 -9.92,7.52 -8.5,13.62l4.74 20.49c1.23,5.25 5.89,8.8 11.06,8.8 0.85,0 1.72,-0.11 2.6,-0.3 6.1,-1.41 9.91,-7.54 8.48,-13.64l-4.74 -20.5c-1.42,-6.12 -7.52,-9.96 -13.64,-8.48z"/>
   <path class="fil0" d="M2420.14 5088.71c-6.12,-0.49 -11.63,4.43 -11.99,10.68l-1.59 26.78c-0.38,6.25 4.38,11.65 10.64,12.03 0.23,0.04 0.48,0.04 0.7,0.04 5.96,0 10.97,-4.62 11.33,-10.66l1.61 -26.9c0.36,-6.25 -4.43,-11.61 -10.7,-11.97z"/>
   <path class="fil0" d="M2407.54 5159.73c-6.44,-0.53 -11.63,4.43 -12,10.68l-1.59 28.44c-0.34,6.25 4.45,11.61 10.72,11.95 0.21,0.04 0.42,0.04 0.62,0.04 6.01,0 11.01,-4.69 11.35,-10.74l1.59 -28.37c0.36,-6.29 -4.41,-11.65 -10.68,-12.01z"/>
   <path class="fil0" d="M2681.51 4850.29c1.28,5.13 5.93,8.58 11,8.58 0.93,0 1.86,-0.11 2.79,-0.34 6.08,-1.56 9.77,-7.73 8.26,-13.79l-6.29 -25.23c-1.54,-6.1 -7.73,-9.85 -13.79,-8.26 -6.08,1.52 -9.79,7.69 -8.26,13.81l6.29 25.23z"/>
   <path class="fil0" d="M2692.67 4902.7l6.33 22.12c1.42,5 5.98,8.26 10.91,8.26 1.04,0 2.1,-0.15 3.14,-0.46 6.05,-1.72 9.53,-8.01 7.78,-14.05l-6.32 -22.12c-1.72,-6.02 -8.01,-9.51 -14.03,-7.8 -6.04,1.74 -9.53,8.03 -7.81,14.06z"/>
   <path class="fil0" d="M2840.91 5070.39c6.27,0 11.37,-5.11 11.37,-11.36l0 -22.12c0,-6.29 -5.1,-11.34 -11.37,-11.34 -6.29,0 -11.36,5.06 -11.36,11.34l0 22.12c0,6.25 5.07,11.36 11.36,11.36z"/>
   <path class="fil0" d="M2843.87 5095.11c-6.29,-0.81 -11.9,3.69 -12.65,9.91l-3.18 26.82c-0.74,6.25 3.69,11.91 9.95,12.65 0.43,0.04 0.91,0.08 1.36,0.08 5.66,0 10.57,-4.26 11.27,-10.02l3.16 -26.82c0.76,-6.23 -3.68,-11.88 -9.91,-12.62z"/>
   <path class="fil0" d="M3097.99 4785.78l-6.32 -20.54c-1.84,-6 -8.18,-9.41 -14.21,-7.52 -5.99,1.86 -9.36,8.22 -7.5,14.21l6.32 20.53c1.5,4.89 5.99,8.03 10.85,8.03 1.1,0 2.22,-0.16 3.36,-0.52 5.99,-1.85 9.36,-8.22 7.5,-14.2z"/>
   <path class="fil0" d="M3110.18 4824.06c-2.5,-5.78 -9.21,-8.43 -14.95,-5.91 -5.76,2.46 -8.41,9.16 -5.93,14.94l9.45 22.04c1.84,4.32 6.04,6.92 10.45,6.92 1.5,0 3.01,-0.31 4.47,-0.93 5.76,-2.44 8.45,-9.13 5.99,-14.9l-9.49 -22.16z"/>
   <path class="fil0" d="M4484.91 3330.09c-12.12,21.19 -34.66,46.38 -74.24,49.06 -2.28,0.36 -4.74,0.36 -7.2,0.36l-0.57 0c-5.3,0 -10.23,-0.36 -15.15,-1.1 -27.65,-3.81 -49.06,-18.01 -62.5,-41.69 -22.73,-40.74 -18.94,-103.81 8.9,-150.01 10.61,-17.61 32.96,-45.65 69.7,-50.94 2.08,3.03 5.87,4.92 9.47,4.74l3.6 0c8.33,0.19 15.91,1.34 22.73,3.41 23.3,6.63 37.88,22.7 46.4,36.91 24.43,40.91 24.05,104.95 -1.14,149.27zm-67.05 -457.78c-29.93,4.15 -49.62,-10.6 -61.55,-25 -25.76,-31.82 -30.87,-83.9 -11.37,-116.12 10.04,-16.46 25.57,-26.31 45.65,-28.96 1.9,0.74 3.98,0.94 6.06,0.74 1.14,-0.19 2.27,-0.19 3.41,-0.38 8.33,-0.74 16.1,-0.19 23.3,1.51 32.39,7.6 53.98,37.14 60.99,66.48 7.76,32.78 0.76,76.53 -43.94,95.29 -1.7,0.74 -3.41,1.51 -5.3,2.08 -6.06,2.06 -11.93,3.58 -17.23,4.35zm-274.06 -449.63c0.76,-33.92 4.92,-65.93 10.98,-97.37 18.18,15.17 34.85,35.63 50.76,55.89 18.37,23.28 37.31,47.14 59.66,63.07 -12.88,6.63 -25.95,14 -39.02,22.16 -26.52,-16.31 -53.98,-31.46 -82.39,-43.75zm16.29 -122.56c1.51,-7.58 3.41,-14.95 5.3,-22.52 1.7,0 3.41,-0.57 4.92,-1.7 20.27,-13.47 42.24,-27.48 65.16,-39.97 -0.57,3.6 0.76,7.37 3.6,10.04 1.33,1.33 2.65,2.44 3.98,3.96 3.22,24.45 5.87,50 8.52,75.02 2.84,28.6 5.69,58.15 9.66,86.18 -12.87,-12.52 -25.19,-27.84 -37.88,-44.13 -19.13,-24.26 -39.02,-49.45 -63.07,-66.69 -0.19,0 -0.19,0 -0.19,0l0 -0.19zm217.62 -110.4c8.14,3.77 16.29,7.58 24.43,11.34 16.86,7.77 33.52,15.53 50,23.49l-0.76 3.81c-10.42,53.79 -21.02,108.53 -30.49,163.24 -2.46,-1.52 -5.69,-2.07 -8.71,-1.33 -1.71,0.4 -3.6,0.97 -5.49,1.51l-0.19 0c3.03,-38.24 -2.27,-74.98 -7.76,-110.61 -3.98,-26.31 -7.76,-51.12 -8.33,-76.5 -0.19,-6.46 -5.3,-11.37 -11.55,-11.19 -6.25,0 -11.37,5.32 -11.17,11.58 0.56,26.89 4.54,53.79 8.52,79.74 4.35,27.46 8.53,55.68 8.71,84.28 -22.35,-25.76 -46.03,-52.86 -70.46,-78.98 0,-0.19 0,-0.19 0,-0.19l-32.2 -77.65c31.63,-13.64 63.07,-22.75 91.86,-22.37 1.33,0.21 2.46,0 3.6,-0.17zm-82.77 112.68c0,0 0,0 0,0.21 13.82,14.58 27.46,29.72 40.72,44.68 13.82,15.55 27.27,30.87 40.15,45.66l5.12 6.06c-8.33,2.25 -16.86,4.92 -25.38,7.76 -7.01,2.25 -14.21,4.74 -21.41,7.58 -14.96,5.3 -30.49,11.55 -46.21,18.73 0,0 0,0 -0.19,0 -6.06,-34.65 -9.85,-73.11 -13.64,-110.4 -1.51,-15.55 -3.22,-31.44 -4.92,-47.18 8.53,8.71 17.23,17.64 25.76,26.9zm-33.34 -80.5c3.6,8.16 7.19,16.31 10.61,24.43 -2.46,-2.44 -5.12,-4.91 -7.58,-7.18 -0.38,-1.92 -0.56,-3.98 -0.76,-5.87 -0.57,-4.19 -3.41,-7.22 -7.01,-8.92 1.51,-0.74 3.22,-1.7 4.74,-2.46zm127.28 1399.87c4.74,2.64 10.6,1.54 14.01,-2.29 11.18,7.02 20.08,17.25 26.9,30.7 17.23,33.34 19.32,83.13 11.93,139.21 -28.6,-26.34 -66.67,-46.97 -108.14,-62.33 -7.2,-2.44 -14.4,-4.92 -21.78,-7.18 -50.95,-16.08 -105.31,-24.22 -153.23,-24.64 27.27,-34.83 57.96,-63.07 91.1,-79.15 20.84,-10.04 42.05,-14.94 63.26,-14.94l1.33 0c1.71,5.1 7.01,8.5 12.5,7.54 4.35,-0.74 8.71,-1.12 12.87,-1.51 4.17,-0.38 8.14,-0.55 12.12,-0.55 3.6,0.95 7.2,2.07 10.8,3.39 8.71,3.05 17.62,7.02 26.33,11.76zm-13.64 401.89l6.25 -162.09c13.82,9.28 26.52,19.49 38.26,30.47 0.19,0.19 0.38,0.38 0.57,0.38 -12.31,45.27 -28.22,90.56 -45.08,131.24zm-18.18 -174.23c-26.89,22.9 -56.44,56.44 -82.58,86.2 -4.36,4.92 -8.71,9.83 -13.07,14.57l0 0.19c-4.36,4.93 -8.71,9.66 -12.69,14.02 0,-14.21 -0.19,-28.41 -0.76,-42.62 -1.33,-44.9 -4.74,-88.45 -8.14,-123.47 15.72,3.96 30.87,8.69 45.65,13.98 7.2,2.67 14.21,5.33 21.21,8.35 18.75,7.96 36.74,16.84 53.41,27.09 -1.13,0.38 -2.08,0.93 -3.03,1.7zm-5.3 193.36c-41.67,-5.28 -79.74,-15.32 -117.05,-29.34 -7.19,-2.48 -14.2,-5.28 -21.21,-8.14 -50.57,-20.81 -100,-48.49 -154.74,-80.89 0,0 -0.19,0 -0.19,-0.19 24.62,-12.69 49.06,-34.85 74.81,-58.33 27.09,-24.61 54.92,-49.98 83.72,-64.59 4.74,48.13 9.47,112.53 8.71,173.91l0 2.07c0,3.58 0,7.22 -0.19,10.8l-0.19 15.36c0.76,4.92 4.74,8.88 9.66,9.47 0.38,0.19 0.57,0.19 0.94,0.19l0.57 0c6.06,0 10.98,-4.92 11.37,-10.98 0,-1.35 0.19,-2.86 0.19,-4.19 12.12,-11.95 26.9,-28.6 43.37,-47.35 21.21,-24.06 44.7,-50.57 66.48,-71.22l-6.25 163.43zm-55.87 122.57c-60.61,61.91 -126.71,81.27 -181.26,53.22 -0.19,-0.19 -0.38,-0.19 -0.56,-0.19 -6.63,-3.61 -13.07,-7.58 -19.13,-12.12 -51.33,-39.4 -77.65,-117.6 -66.67,-202.09 39.4,38.07 87.13,69.87 138.64,92.81 7.01,3.22 14.02,6.25 21.02,9.11 42.05,16.82 85.99,27.83 129.36,31.8 -7.77,11.55 -14.96,20.84 -21.41,27.47zm-191.67 -384.69c30.5,0.23 60.42,2.86 89.21,7.76 -26.33,16.14 -51.14,38.66 -75.19,60.63 -22.92,20.83 -44.51,40.32 -64.97,52.08 13.07,-39.2 30.12,-81.08 50.95,-120.48zm-28.22 569.53c-6.82,30.89 -34.66,57.98 -67.81,65.74 -12.69,2.86 -32.57,4.55 -54.74,-5.28 -6.63,-2.86 -13.26,-6.67 -20.07,-11.95 -7.77,-5.7 -15.53,-13.05 -23.11,-22.52 -33.72,-41.88 -38.07,-77.88 -12.31,-101.36 16.48,-15.13 43.37,-23.28 72.35,-23.28 22.73,0 46.97,5.12 68.37,15.91 0.76,1.52 1.9,2.86 3.22,3.79 0.57,0.36 1.13,0.94 1.51,1.33 6.44,5.1 11.74,10.44 16.29,16.08 15.34,18.58 21.02,40 16.29,61.55zm429.37 -1181.08c-15.15,-25.57 -37.69,-42.24 -64.39,-48.49 4.35,-71.99 5.12,-149.45 0.76,-230.87 0.38,-0.19 0.57,-0.19 0.95,-0.36 59.47,-21.06 75,-77.5 63.82,-124.08 -8.33,-34.49 -32.38,-68.96 -69.51,-81.06 -1.33,-1.13 -2.84,-1.91 -4.74,-2.29 -4.35,-0.91 -8.52,-1.52 -12.5,-2.07 -4.17,-25.74 -8.71,-51.71 -14.21,-77.84 1.33,-0.95 2.46,-2.1 3.22,-3.62 2.27,-3.77 1.9,-8.32 -0.57,-11.73 4.35,-1.13 7.96,-4.94 8.52,-9.85 12.32,-113.85 35.04,-230.9 57.01,-344.14l2.27 -12.5c1.14,-5.13 -1.51,-10.06 -6.06,-12.31 -19.32,-9.28 -38.64,-18.39 -58.15,-27.48 -66.29,-30.85 -134.66,-62.86 -194.89,-100.74 -28.79,-53.43 -61.17,-107.01 -97.16,-160.23 -3.41,-5.33 -10.42,-6.63 -15.72,-3.22 -5.12,3.6 -6.63,10.59 -3.03,15.91 33.53,49.62 63.83,99.44 91.1,149.23 -0.19,1.33 -0.38,2.84 -0.19,4.35 -3.22,1.33 -5.69,4.35 -6.25,8.17 -7.2,42.61 -18,83.51 -28.41,122.9 -17.62,67.07 -35.8,136.39 -36.18,213.45 0,4.57 2.65,8.71 7.01,10.42 57.77,23.86 111.75,60.81 163.83,96.59 28.98,19.91 58.91,40.36 89.21,58.34 5.87,28.03 10.98,55.89 15.34,83.34 -40.53,1.9 -61.37,24.83 -70.84,40.55 -24.62,40.33 -18.94,102.66 13.07,142.05 18.18,22.35 42.24,34.11 68.94,34.11 3.79,0 7.77,-0.23 11.55,-0.78 3.98,76.7 3.41,149.43 -0.57,217.43 -42.42,-0.97 -78.98,21.2 -103.98,62.71 -31.82,52.82 -35.61,125.55 -9.09,172.71 12.12,21.78 35.23,46.97 77.85,53.23 -1.52,7.37 -2.85,14.77 -4.36,21.97 -10.04,49.24 -21.02,102.85 -33.52,158.7 -35.61,-7.35 -71.02,-2.61 -105.69,14.03 -118.57,57.41 -203.04,248.68 -229.17,375.39 0,0 0,0 0,0.19 -3.03,3.22 -3.6,7.76 -2.27,11.53 -0.19,1.16 -0.38,2.1 -0.57,3.03 -17.24,98.34 12.69,192.07 73.68,238.68 -7.39,9.47 -14.59,18.94 -22.16,28.41 -59.09,-35.82 -139.02,-29.37 -176.71,5.1 -16.66,15.36 -49.24,58.91 10.04,132.41 7.76,9.64 16.29,17.97 25.19,25 -41.1,43.71 -83.34,86.52 -125.38,128.58 -4.35,4.55 -4.35,11.73 0,16.1 2.27,2.29 5.11,3.39 8.14,3.39 2.84,0 5.68,-1.1 7.96,-3.39 43.18,-43 86.55,-87.13 128.79,-132 16.29,8.5 33.53,12.86 51.14,12.86 8.34,0 16.67,-0.95 25,-3.03 41.86,-9.64 75.95,-43.2 84.66,-82.98 3.41,-15.3 4.92,-40.91 -11.36,-67.8 2.84,-4.55 2.27,-10.57 -1.71,-14.38 -2.46,-2.27 -4.74,-4.56 -7.39,-6.63 7.77,-9.66 15.34,-19.49 22.73,-29.37 1.13,0.77 2.46,1.34 3.79,2.12 19.89,10.21 40.91,15.11 62.5,15.11 47.92,0 98.49,-24.77 145.46,-72.9 47.54,-48.7 121.79,-211.01 147.35,-353.8 0.38,-0.19 0.57,-0.36 0.95,-0.55 4.92,-3.99 5.68,-10.98 1.7,-15.72l0 -0.23c10.61,-67.58 9.28,-129.32 -12.12,-171.01 -12.31,-24.05 -36.18,-50.21 -81.82,-54.94 12.31,-55.3 23.11,-108.49 33.15,-157.36 1.7,-8.18 3.41,-16.69 4.92,-25.19 41.48,-0.97 76.52,-22.58 98.3,-61.01 29.36,-51.54 29.74,-124.07 0.76,-172.16z"/>
   <path class="fil0" d="M3972.58 1365.61c24.62,34.28 45.46,71.61 62.31,111.37 -56.06,-5.11 -154.17,-2.25 -205.12,14.96 -2.85,0.97 -5.12,3.03 -6.25,5.49 -29.73,-35.04 -60.23,-68.56 -91.48,-100.57 10.8,-1.87 22.16,-3.77 34.29,-6.06 64.21,-11.53 144.13,-25.95 200.19,-23.49 2.28,0 4.36,-0.74 6.06,-1.7zm84.66 172.92c-28.79,0.76 -65.15,3.41 -100.38,6.25 -32.01,2.46 -64.78,4.94 -90.72,5.7 -3.22,-4.36 -6.25,-8.92 -9.85,-13.28 -6.44,-7.94 -12.88,-15.89 -19.51,-23.68 0.19,0 0.19,0 0.19,0 47.35,-15.89 151.9,-19.87 207.77,-12.67 4.55,12.29 8.71,24.81 12.5,37.67zm2.65 327.68c-0.38,-0.38 -0.38,-1.14 -0.76,-1.52 -28.98,-42.61 -55.87,-90.36 -81.63,-136.38 -9.47,-17.05 -19.13,-34.08 -28.79,-51.12 31.44,-2.1 63.07,-1.51 93.76,-0.96 10.23,0.2 20.07,0.38 29.92,0.38 0.19,0 0.19,0 0.19,0 3.6,0 6.82,-1.87 8.9,-4.53 3.22,53.98 -10.61,133.13 -21.59,194.14zm-116.48 -46.8c-30.87,-13.45 -60.98,-27.65 -90.72,-42.41 19.13,-25.02 45.46,-76.35 57.39,-120.27 16.48,27.26 32.2,55.12 47.54,82.56 20.64,36.74 41.86,74.46 64.4,109.87 -28.22,-8.35 -53.41,-18.77 -78.61,-29.75zm-151.52 -74.04c0,0 0,0 0,-0.2 4.74,-7.94 9.47,-16.1 14.39,-24.43 22.92,-38.81 48.49,-82.56 61.75,-129.53 8.52,12.12 16.66,24.81 24.81,37.5 -6.25,45.44 -40.15,113.43 -60.98,137.87 -13.45,-6.82 -26.7,-14 -39.97,-21.2zm-19.7 -11.36c0,0.17 0,0.17 0,0.38 -28.03,-15.72 -55.49,-31.84 -82.2,-48.7 1.89,-0.92 3.6,-2.25 4.74,-4.35 31.25,-53.01 63.07,-124.04 91.1,-186.75l1.71 -3.96c17.23,19.7 34.47,39.94 51.14,60.78 2.27,2.85 4.17,5.89 6.44,8.71 -0.19,0.76 -0.38,1.54 -0.38,2.29 0,4.15 2.27,7.56 5.68,9.47 -0.76,1.14 -1.33,2.44 -1.71,3.77 -11.36,47.73 -37.12,91.31 -62.12,133.54 -4.92,8.5 -9.66,16.65 -14.39,24.81zm-227.47 -150.21c1.13,-0.55 2.27,-1.3 3.03,-2.44 38.07,-46.21 69.89,-115.93 98.11,-177.49 6.44,-14.21 12.69,-27.65 18.94,-40.91 21.4,20.28 42.61,41.12 63.45,62.9 -0.95,1.14 -1.51,2.27 -1.9,3.77 -14.58,59.47 -46.03,133.17 -92.99,218.77 -30.5,-20.66 -60.04,-42.24 -88.64,-64.6zm-16.67 -12.88c-13.26,-10.59 -26.52,-21.57 -39.4,-32.56 1.71,-0.95 3.03,-2.29 4.17,-3.98 23.49,-40.55 45.27,-84.85 66.48,-127.68 15.72,-31.63 32.01,-64.02 48.67,-94.87 13.07,11.36 26.33,22.91 39.21,34.83 -7.2,15.17 -14.59,31.25 -22.16,47.73 -27.46,60.42 -58.71,128.61 -94.7,172.54 -1.13,1.35 -1.7,2.65 -2.27,3.98zm-55.49 -46.21c-29.74,-25.75 -58.15,-52.25 -85.23,-79.36 1.13,-0.76 2.46,-1.51 3.41,-2.63 42.61,-50.01 85.23,-168.38 95.26,-226.54 35.42,25.19 70.27,51.91 104.17,80.32 -17.62,32.58 -34.66,66.84 -51.14,100.19 -21.02,42.41 -42.81,86.37 -65.91,126.31 -0.38,0.57 -0.38,1.15 -0.57,1.7zm-152.85 -151.52c-28.41,-32.38 -55.31,-65.32 -79.93,-99.23 25.95,-39.97 47.54,-109.66 63.64,-169.16 34.66,18.01 68.94,37.33 102.46,58.34 -15.15,62.71 -57.58,165.93 -84.47,205.52 -0.94,1.51 -1.51,3.03 -1.7,4.53zm-123.49 -162.32c0.38,-0.76 0.76,-1.3 0.76,-2.27l0.76 -3.98 0 -0.55c3.79,-12.52 7.95,-25.02 11.93,-37.71 10.23,-30.68 20.27,-62.32 25.19,-94.7 16.1,7.19 32.01,14.96 47.92,22.75 -14.96,55.1 -34.47,120.06 -57.39,159.48 -10.03,-14.21 -19.7,-28.62 -29.17,-43.02zm-16.28 -25.74c-33.53,-54.76 -62.13,-111.01 -85.42,-168.21 40.15,13.26 79.74,28.41 118.95,45.26 -4.17,32.59 -14.96,65.36 -25.38,97.16 -2.85,8.53 -5.5,17.24 -8.14,25.78zm206.44 -155.88c-12.69,2.46 -26.32,5.49 -40.34,8.5 -33.71,7.58 -68.56,15.34 -84.28,14.42 -3.22,-0.21 -6.25,0.93 -8.34,3.01 -55.87,-25.76 -112.69,-47.73 -170.46,-65.91 101.33,4.94 203.99,17.99 303.42,39.98zm183.53 53.01c42.61,15.53 83.71,33.36 122.92,53.03 -0.76,0.21 -1.33,0.21 -1.9,0.21 -74.06,0.38 -149.44,13.43 -212.13,36.72 -3.22,1.16 -5.49,3.81 -6.63,6.82 -36.55,-25 -73.68,-47.9 -111.75,-69.3 59.48,-9.85 153.8,-21.8 201.9,-23.88 3.03,-0.17 5.69,-1.52 7.58,-3.6zm184.47 87.31c-33.15,1.14 -72.54,11.19 -110.99,21.05 -41.29,10.6 -83.9,21.4 -110.61,18.35 -4.35,-0.38 -8.52,1.72 -10.8,5.33 -10.23,-7.6 -20.46,-14.96 -30.87,-22.37 59.47,-21.21 130.12,-33.31 199.82,-33.69 4.17,0 13.45,-6.83 19.7,-13.26 14.96,7.76 29.54,16.1 43.75,24.6zm19.32 23.13c3.98,0.38 7.77,-1.54 10.04,-4.56 43.18,28.24 82.77,59.85 118.38,95.08 -38.64,-3.77 -108.53,10.98 -183.15,26.7 -24.05,4.94 -44.7,9.3 -58.33,11.18 -2.08,0.38 -3.79,1.13 -5.12,2.27 -35.79,-32.18 -72.35,-62.69 -109.66,-91.27 28.98,-0.59 65.16,-9.68 103.23,-19.53 45.26,-11.55 91.86,-23.47 124.62,-19.87zm-722.56 -227.49c-6.06,-0.57 -11.37,4.56 -11.75,10.98l0.19 0.21c-116.86,-32.39 -237.13,-49.65 -359.67,-50.57 -6.25,0 -11.36,4.9 -11.36,11.17 0,6.25 4.92,11.37 11.36,11.53 131.83,0.97 261.38,21.23 386.38,59.49 132.77,342.61 457.21,653.6 868.02,832.21 33.15,14.42 66.29,27.86 106.07,37.33 2.27,3.22 5.87,4.91 9.28,4.91 2.27,0 4.55,-0.76 6.44,-2.06 0.56,-0.38 0.94,-0.97 1.33,-1.35l-2.46 13.64c-0.94,6.06 3.03,12.14 9.28,13.07 0.76,0.21 1.32,0.21 2.08,0.21 5.3,0 10.03,-3.81 11.17,-9.3l3.41 -18.94c11.74,-64.75 27.84,-153.59 22.92,-212.49 -3.22,-40.53 -10.23,-78.79 -19.89,-115.37 0,-0.17 0,-0.17 0,-0.17 0,-1.9 -0.56,-3.81 -1.51,-5.33 -110.61,-403.23 -590.55,-564.98 -1031.28,-579.18z"/>
   <path class="fil0" d="M1702.43 1672.83c-16.48,-97.37 26.32,-216.5 64.21,-321.6 9.85,-27.65 19.32,-53.98 27.46,-79.19l0 -0.17c2.08,-4.35 4.17,-8.35 6.44,-12.33 10.42,3.24 21.41,5.7 32.77,7.6 11.74,1.87 23.86,3.01 35.79,3.6 0.02,0 0.02,0 0.04,0 -1.02,38.6 4.51,77.01 9.98,114.17 5.21,35.38 10.59,71.93 10.04,108.11 -0.1,6.27 4.92,11.42 11.19,11.54 0.08,0 0.11,0 0.17,0 6.21,0 11.29,-4.98 11.38,-11.19 0.57,-38 -4.96,-75.5 -10.29,-111.75 -5.63,-38.17 -10.87,-74.22 -9.77,-111.08 19.3,-0.55 38.62,-3.01 57.56,-7.18 0.04,-0.02 0.08,-0.02 0.09,-0.04 -0.02,0.74 -0.2,1.46 -0.09,2.22 5.7,36.95 14.3,75.92 22.61,113.57 7.03,31.8 14.28,64.7 19.7,96.01 0.97,5.53 5.78,9.43 11.19,9.43 0.64,0 1.3,-0.06 1.95,-0.17 6.17,-1.06 10.32,-6.95 9.26,-13.13 -5.51,-31.84 -12.82,-65 -19.9,-97.05 -8.24,-37.31 -16.77,-75.89 -22.35,-112.12 -0.21,-1.4 -0.74,-2.65 -1.4,-3.81 0.05,-0.02 0.09,-0.02 0.15,-0.04 14.96,-4.17 29.54,-9.28 43.37,-15.51 0.04,-0.02 0.05,-0.04 0.09,-0.05 0.25,2.53 1.19,5 3.15,6.93 42.48,42.25 62.62,102.67 82.11,161.12l1.97 5.91c1.59,4.77 6.02,7.77 10.78,7.77 1.19,0 2.41,-0.17 3.6,-0.57 5.96,-1.99 9.17,-8.45 7.2,-14.39l-1.99 -5.91c-20.28,-60.87 -41.29,-123.83 -87.48,-169.85 0.04,-0.02 0.05,-0.02 0.09,-0.04 7.58,-3.98 14.96,-8.14 21.97,-12.5 4.55,2.82 9.09,5.87 13.64,9.26 0.19,0.2 0.19,0.2 0.19,0.2 0.19,0 0.19,0.17 0.38,0.17 10.42,9.68 20.46,18.94 30.5,28.24 14.58,13.62 28.79,26.88 43.56,39.94 76.7,83.93 148.68,205.9 150.19,310.83 0.94,61.93 -23.68,109.66 -73.11,142.22 -111.75,73.3 -295.28,119.51 -409.49,69.7 -60.04,-26.12 -96.78,-76.31 -108.9,-148.85zm-151.9 -38.84c-64.02,39.02 -133.34,51.15 -190.35,33.14 -45.08,-14 -79.93,-46.59 -100.76,-93.94 -5.68,-12.69 -8.33,-29.72 -10.98,-46.21 -3.79,-23.47 -7.77,-47.73 -20.64,-63.24 -1.33,-1.72 -2.85,-3.22 -4.55,-4.74 -9.85,-8.71 -25.19,-14.96 -42.62,-21.61 -1.33,-0.55 -2.84,-1.13 -4.17,-1.69 -20.07,-7.58 -40.72,-15.55 -52.08,-26.34 -3.98,-3.79 -7.58,-7.55 -10.98,-11.53 -5.49,-6.08 -10.42,-12.31 -14.59,-18.56 -16.85,-25.19 -25,-52.46 -24.05,-81.63 0.38,-13.82 2.84,-27.86 7.39,-42.06 4.92,-15.52 12.31,-31.04 21.78,-46.21 0.38,-0.38 0.76,-0.93 0.94,-1.51 5.87,-9.26 12.69,-18.18 20.08,-27.07 10.42,-11.95 21.97,-23.5 34.85,-34.49 11.74,-9.85 23.67,-18.73 36.18,-26.52 7.39,-4.9 14.96,-9.26 22.54,-13.44 18.37,-9.85 37.5,-18.16 57.2,-24.98 7.58,-2.86 15.34,-5.33 23.3,-7.6 77.84,-22.71 162.5,-26.14 245.65,-29.53 37.88,-1.72 76.9,-3.24 114.4,-6.83 0,0.2 0,0.2 0,0.38 -0.38,7.96 -0.57,15.72 -0.19,23.68 0.38,14.79 2.08,29.54 4.92,44.13 -2.27,0 -4.74,0.97 -6.63,2.46 -29.17,24.43 -74.05,39.78 -117.62,54.57 -18.94,6.61 -36.93,12.69 -53.22,19.49 -5.69,2.29 -8.53,9.09 -6.06,14.77 1.7,4.38 6.06,7.01 10.42,7.01 1.51,0 3.03,-0.17 4.35,-0.93 15.72,-6.44 33.34,-12.52 51.9,-18.77 44.32,-15.13 89.97,-30.67 122.16,-56.44 0.76,2.65 1.51,5.32 2.27,7.96 3.79,12.5 8.71,24.43 14.78,35.25 -2.65,-1.14 -5.69,-1.14 -8.34,0 -48.29,20.63 -95.46,63.62 -139.4,107.01 -4.55,4.53 -4.55,11.74 0,16.1 2.08,2.25 5.12,3.39 7.96,3.39 2.84,0 5.87,-1.14 7.95,-3.22 42.43,-41.86 87.69,-83.34 132.4,-102.28 3.79,-1.69 6.25,-5.11 6.63,-8.9 9.28,14.42 20.84,27.3 34.29,38.47 -67.24,61.73 -114.4,112.89 -143.95,156.25 -3.41,5.12 -2.08,12.12 3.03,15.72 2.08,1.31 4.17,1.9 6.44,1.9 3.6,0 7.2,-1.72 9.47,-4.94 28.98,-42.61 76.14,-93.54 143.94,-155.1 9.28,6.05 19.51,11.37 30.31,15.89 -1.33,4.36 -2.65,8.71 -4.36,13.28l0 0.17c-14.58,30.14 -28.03,62.69 -42.24,96.97 -44.13,107.01 -89.77,217.64 -179.74,272.36zm-656.46 -103.21c12.12,-41.48 39.21,-85.06 63.26,-123.87 6.44,-10.44 12.69,-20.66 18.56,-30.5 21.59,-36.55 47.35,-67.26 77.65,-95.29 -0.94,5.32 -1.33,10.42 -1.51,15.74 -1.14,36.18 10.03,70.64 32.57,101.33 -55.68,71.41 -133.72,126.33 -190.53,132.58zm288.84 -445.47c-9.47,-5.87 -18.57,-11.36 -26.9,-15.92 -7.95,-4.53 -16.86,-9.09 -25.95,-13.83 -40.34,-20.64 -85.42,-43.73 -101.14,-80.87 82.95,-4.91 159.09,19.9 210.8,68.94 4.55,4.35 11.37,10.98 19.32,19.15 -21.78,8.34 -42.99,18.18 -63.45,30.29 -4.35,-2.63 -8.52,-5.3 -12.69,-7.75zm349.63 -98.88c-99.62,-18.36 -205.5,-63.83 -265.54,-122.52 -0.19,-0.21 -0.19,-0.21 -0.38,-0.38 -18.18,-17.8 -32.2,-36.74 -40.34,-56.65 -25.57,-61.73 4.17,-124.42 88.83,-186.56 15.15,-11.17 29.73,-18.35 43.75,-25.17 20.46,-10.06 41.67,-20.46 63.26,-42.62 20.65,-21.21 33.9,-43.58 46.97,-65.34 18.94,-31.63 36.74,-61.55 75.38,-84.47 104.93,-61.93 246.03,-41.31 314.97,46.21 27.27,34.66 37.31,86.37 46.97,136.37 9.47,48.85 19.13,99.06 45.65,134.29l0 0.17c2.46,9.47 4.54,18.56 7.01,27.27 -33.15,2.1 -65.91,10.06 -96.97,22.55 -0.08,0.02 -0.13,0.06 -0.19,0.08 -0.72,-1.78 -1.7,-3.45 -3.29,-4.71 -29.74,-23.69 -44.38,-60.15 -59.87,-98.75 -7.9,-19.7 -16.08,-40.08 -26.42,-58.32 -3.07,-5.45 -9.96,-7.4 -15.47,-4.28 -5.48,3.09 -7.39,10.02 -4.3,15.47 9.6,16.93 17.14,35.72 25.12,55.59 15.23,37.96 31.14,77.03 62.67,104.38l-0.02 0.02c-29.55,14.38 -57.01,33.15 -81.25,55.3 -0.02,0.02 -0.04,0.04 -0.06,0.04 -5.72,-7.06 -12.1,-14.64 -18.87,-22.65 -23.16,-27.33 -49.38,-58.29 -60.81,-84.72 -2.5,-5.78 -9.17,-8.45 -14.95,-5.93 -5.78,2.5 -8.41,9.19 -5.93,14.95 12.78,29.52 40.18,61.85 64.34,90.4 7.04,8.33 13.77,16.25 19.62,23.54 0.05,0.09 0.17,0.11 0.25,0.21 -0.02,0.02 -0.04,0.04 -0.08,0.05 -11.17,11.76 -21.4,24.26 -30.68,37.5 -1.52,2.29 -3.03,4.36 -4.55,6.65 -0.02,0.02 -0.04,0.06 -0.06,0.08 -0.79,-0.67 -1.55,-1.36 -2.53,-1.82 -40.04,-18.15 -76.97,-46.57 -112.7,-74.06l-12.04 -9.26c-5.02,-3.81 -12.12,-2.88 -15.93,2.12 -3.81,4.98 -2.88,12.12 2.12,15.93l11.99 9.22c36.74,28.28 74.74,57.52 117.18,76.75 0.16,0.05 0.31,0.04 0.46,0.09 -0.02,0.02 -0.04,0.04 -0.04,0.06 -7.58,13.26 -14.02,27.09 -19.32,40.91l0 0.02c-18.6,-7.69 -41.22,-12.96 -65.23,-18.48 -35.44,-8.16 -72.07,-16.61 -96.25,-33.37 -5.15,-3.56 -12.24,-2.29 -15.82,2.88 -3.58,5.15 -2.29,12.24 2.86,15.8 27.78,19.26 66.57,28.2 104.11,36.84 23.52,5.44 45.74,10.55 62.73,17.75 0.21,0.08 0.4,0.04 0.61,0.11 0,0.02 -0.02,0.06 -0.02,0.08 -1.7,5.49 -3.03,10.98 -4.17,16.65 -39.02,5.3 -85.04,2.67 -132.77,-6.25zm-1124.47 -320.09c199.06,-21.76 450.4,14.6 638.28,93.94 57.77,24.43 114.02,61.01 168.38,96.61 11.75,7.77 23.68,15.34 35.61,23.09 0,0 0,0 0.19,0.21 32.01,31.61 75.38,58.71 123.3,80.29 -358.72,-46.97 -669.53,-141.84 -965.76,-294.14zm1596.65 -417.81c39.58,-40.53 99.62,-50.95 178.04,-30.68 40.53,10.43 80.12,32.98 122.16,56.65 36.37,20.63 73.87,41.86 112.32,54.74 53.41,17.97 98.68,44.7 134.66,79.15 5.5,5.32 10.8,10.81 15.91,16.48 29.17,32.39 50.94,70.48 64.59,113.64 0.19,0.19 0.19,0.19 0.19,0.4 2.65,8.32 5.11,16.65 7.01,24.61 7.01,27.86 10.04,53.6 9.28,77.65l0 1.14c-0.95,1.71 -1.52,2.84 -2.28,4.94 -6.25,18.56 -15.72,47.35 -18.37,75.55 -0.38,0.57 -0.56,1.33 -0.94,1.92 -16.86,31.8 -42.81,58.12 -74.62,80.5 -25.95,18.35 -56.07,34.07 -88.08,47.52 -39.39,17.23 -81.82,31.44 -124.06,44.51 -50.38,9.85 -106.25,25.21 -167.43,46.21 -1.14,0.38 -2.08,0.97 -3.03,1.72 0,-0.21 -0.19,-0.59 -0.19,-0.76 -4.54,-14.79 -10.8,-29.38 -18.37,-43.2 21.41,-3.6 42.42,-9.64 63.07,-17.05 9.66,-3.58 19.13,-7.18 28.41,-11.37 3.03,-1.13 6.06,-2.44 9.09,-3.98l0.19 0c26.14,-11.36 51.71,-24.22 76.9,-36.91 0,-0.21 0.19,-0.21 0.19,-0.21 0.19,-0.17 0.38,-0.17 0.57,-0.38l0.19 0c0.95,-0.55 2.08,-0.92 3.03,-1.51l20.07 -10.23c3.98,-2.08 6.25,-6.04 6.25,-10.23 0,-1.5 -0.38,-3.39 -1.13,-4.91 -2.85,-5.68 -9.66,-7.95 -15.34,-5.11l-20.07 10.23c-1.9,0.93 -3.6,1.9 -5.49,2.82 -16.48,8.33 -32.96,16.87 -49.81,24.62l0 0.21c-11.75,5.49 -23.68,10.78 -35.61,15.72 0,0 0,0.17 -0.19,0.17 -30.5,12.52 -61.55,22.54 -93.19,27.27 -6.06,-8.71 -12.88,-17.21 -20.26,-25.55 19.89,-12.33 40.53,-26.16 62.12,-40.36 39.4,-25.76 80.11,-52.25 119.89,-74.25l0.19 -0.17c10.04,-5.7 20.27,-11.19 30.3,-16.1 5.69,-2.84 7.96,-9.67 5.12,-15.36 -1.9,-4.17 -6.25,-6.42 -10.8,-6.25 -1.33,0 -2.84,0.38 -4.35,1.14 -50.76,25.21 -102.66,59.28 -152.66,92.05 -21.59,14.03 -42.24,27.65 -62.12,39.98 -1.33,0.76 -2.46,1.87 -3.22,3.22 -12.12,-11.76 -25.57,-22.75 -40.15,-32.77 39.58,-38.47 75.76,-88.07 110.99,-136.18 10.23,-14.03 20.07,-27.65 29.93,-40.53 3.79,-4.94 2.84,-12.14 -2.28,-15.91 -4.92,-3.81 -12.12,-2.86 -15.91,2.25 -9.85,12.88 -19.89,26.7 -30.11,40.74 -34.66,47.52 -70.65,96.57 -109.09,133.91 -0.95,0.92 -1.9,2.06 -2.46,3.41 -11.93,-7.22 -24.62,-14.03 -37.88,-20.08 2.46,-1.9 3.79,-4.94 3.97,-8.16 1.9,-53.6 18.75,-106.07 34.85,-156.81 5.49,-17.44 10.98,-34.87 15.91,-52.08 1.7,-6.08 -1.71,-12.33 -7.76,-14.03 -6.06,-1.69 -12.32,1.7 -14.02,7.78 -4.92,17.05 -10.42,34.28 -15.72,51.33 -12.88,40.33 -25.95,81.63 -32.2,124.42 -6.63,-4.74 -12.5,-10.23 -17.62,-16.48 -32.77,-144.14 -56.82,-370.45 31.44,-461zm1026.93 -205.29c-120.84,180.69 -246.6,338.25 -381.45,477.27 -15.16,-42.79 -37.69,-80.5 -67.05,-112.68 138.83,-151.14 290.54,-275.01 448.5,-364.6zm-181.45 425.01c-6.82,40.91 -27.27,74.06 -48.67,108.91 -7.01,11.54 -14.02,23.09 -21.02,35.21l-3.6 6.63c-27.08,48.13 -72.54,128.79 -116.67,141.12 -2.46,0.76 -4.35,2.09 -5.87,3.98 -4.17,-9.3 -5.12,-21.42 -3.98,-34.49 0,0 0,0 0,-0.17 12.31,-25.21 19.13,-52.84 20.64,-82.78 26.14,-69.7 105.31,-167.04 179.17,-178.4zm-243.38 321.39c8.53,-8.5 16.29,-17.42 23.3,-26.89 1.51,6.46 3.98,12.5 7.58,17.8 -10.23,3.03 -20.46,6.08 -30.87,9.09zm-618.77 -38.62c-1.7,-0.21 -3.22,-0.38 -4.73,-0.59 -0.19,-1.14 -0.57,-2.28 -0.95,-3.41 2.08,0.59 4.17,0.38 6.06,-0.19 -0.38,1.33 -0.38,2.67 -0.38,4.19zm-151.14 493.77c-11.37,-1.91 -22.16,-4.35 -32.39,-7.58 1.33,-5.87 -2.08,-11.57 -7.95,-13.28 -5.12,-1.51 -10.61,0.97 -12.88,5.49 -45.08,-19.7 -76.71,-54.15 -90.72,-100.36 -7.39,-24.27 -11.18,-49.08 -11.37,-73.3 -0.38,-7.96 0,-15.91 0.57,-23.68 3.79,-45.83 19.89,-90.72 48.3,-131.27 49.06,-70.27 129.17,-118.54 212.89,-129.53 2.65,2.27 6.25,3.41 9.85,2.65 2.28,-0.38 4.74,-0.76 7.39,-0.97 0.38,3.98 3.03,7.78 7.2,9.3 92.42,34.83 158.15,96.21 180.31,168.74 18.94,61.55 4.36,128.61 -41.86,193.57 -12.88,18.01 -29.36,34.09 -48.68,47.92 -3.6,-0.57 -7.19,0.76 -9.66,3.62 -1.13,1.33 -1.89,2.84 -2.27,4.35 -58.34,37.67 -137.13,55.86 -208.72,44.32zm765.18 -300.39c43.18,33.9 61.55,92.42 54.36,173.85 -2.28,24.81 -1.14,54.19 0.19,85.23 2.27,63.28 5.12,134.85 -21.78,175.58 -55.49,84.3 -171.97,82.22 -346.41,-6.42 -53.03,-26.9 -93.19,-58.35 -131.25,-92.26l-0.19 -0.17c-0.19,-0.21 -0.19,-0.21 -0.38,-0.38 -24.62,-26.73 -49.81,-49.62 -73.11,-67.05l-0.19 0c-2.27,-2.29 -4.54,-4.18 -6.82,-6.25 6.78,-5.11 13.39,-10.59 19.44,-16.42 1.06,0.89 2.29,1.65 3.71,2.1 37.16,12.18 72.2,40.66 106.1,68.18 18.98,15.42 38.6,31.36 58.28,44.11 1.9,1.25 4.05,1.84 6.17,1.84 3.71,0 7.37,-1.84 9.52,-5.19 3.43,-5.27 1.92,-12.29 -3.35,-15.72 -18.66,-12.09 -36.93,-26.94 -56.29,-42.67 -33.79,-27.45 -68.71,-55.59 -107.46,-69.91 0.02,-0.02 0.04,-0.02 0.05,-0.04 4.36,-4.74 8.34,-9.85 11.93,-14.96 3.41,-4.74 6.63,-9.47 9.66,-14.21 0.02,-0.04 0.04,-0.1 0.08,-0.13 0.78,0.59 1.5,1.23 2.44,1.63 20.38,8.29 41.86,15.7 62.64,22.88 42.91,14.81 87.31,30.11 124.79,54.13 1.91,1.21 4.02,1.78 6.12,1.78 3.75,0 7.4,-1.84 9.58,-5.22 3.39,-5.29 1.84,-12.32 -3.43,-15.7 -39.77,-25.45 -85.48,-41.23 -129.66,-56.46 -20.3,-7.03 -41.31,-14.28 -60.99,-22.28 7.37,-13.24 13.45,-26.67 18.36,-39.93 0.02,-0.08 0.04,-0.15 0.08,-0.23 1.69,0.99 3.54,1.72 5.64,1.74 51.23,0.38 103.83,7.75 154.69,14.87 24.68,3.47 49.22,6.89 73.54,9.55 0.42,0.06 0.83,0.08 1.25,0.08 5.72,0 10.64,-4.3 11.27,-10.11 0.7,-6.25 -3.81,-11.85 -10.04,-12.54 -24.09,-2.65 -48.43,-6.06 -72.88,-9.47 -51.27,-7.2 -104.3,-14.58 -156.75,-15.06l0.02 -0.02c4.35,-16.31 7.01,-32.39 7.76,-48.49 0,-0.06 -0.02,-0.13 0,-0.19 18.2,-0.12 36.48,-0.72 54.74,-1.36 30.28,-1.12 61.59,-2.22 91.8,-0.76 6.44,0.17 11.59,-4.54 11.91,-10.79 0.3,-6.27 -4.53,-11.61 -10.8,-11.91 -31.18,-1.52 -62.98,-0.38 -93.73,0.74 -18.13,0.67 -36.25,1.25 -54.32,1.39 -0.19,-6.01 -0.93,-12.03 -1.87,-18.03 35.99,-14 77.84,-26.7 122.35,-40.15 14.59,-4.35 29.36,-8.88 44.32,-13.44 119.7,-23.68 207.96,-15.72 258.91,24.26zm-1803.85 414.96c-73.48,83.92 -201.52,141.67 -283.72,147.75 27.27,-114.4 212.51,-200.01 313.65,-246.6 7.77,-3.6 14.96,-7.02 21.59,-10.06 -2.27,35.63 -19.7,72.75 -51.52,108.91zm-207.2 -217.22c-14.96,-8.33 -29.93,-16.67 -44.89,-24.43 -16.86,-8.92 -36.56,-16.67 -57.39,-25.02 -46.4,-18.57 -98.68,-39.21 -123.68,-74.25 75.76,-39.02 217.81,37.5 287.51,75l5.3 2.86c58.14,31.25 92.42,67.41 112.5,119.87 -64.4,-10.42 -120.46,-41.48 -179.36,-74.04zm-128.42 89.76c-76.7,6.46 -155.87,12.9 -233.72,6.83 -62.12,-5.11 -123.3,-17.44 -182.39,-29.37l-12.31 -2.44c91.1,-57.98 235.61,-48.88 343.76,-30.11 52.08,9.09 88.83,26.51 111.18,52.84 -8.71,0.74 -17.62,1.5 -26.52,2.25zm420.28 -109.84c-6.82,-3.98 -13.26,-7.78 -19.32,-11.17 -38.26,-22.18 -86.93,-56.82 -110.98,-100.78 5.87,-0.55 12.12,-0.93 18.75,-0.93 73.86,0 184.48,35.21 232.21,74.04 30.49,24.64 47.16,60.23 50.76,108.71l-0.57 0c-51.9,0 -120.65,-40.32 -170.84,-69.87zm1988.7 -298.89c9.47,5.7 18.37,11.19 26.71,15.93 8.14,4.36 16.85,8.89 26.14,13.62 40.34,20.66 85.42,43.58 101.14,80.7 -82.96,5.11 -159.09,-19.53 -210.8,-68.58 -15.34,-14.38 -58.14,-54.91 -66.1,-87.51 38.64,-5.49 85.04,22.75 122.92,45.83zm71.02 -275.95c54.74,-88.81 150.01,-162.68 216.3,-170.25 -11.93,41.47 -38.83,85.02 -62.89,124.05 -6.25,10.4 -12.5,20.63 -18.37,30.48 -40.35,68.56 -95.65,116.69 -166.29,167.62 -21.21,-53.01 9.85,-117.05 31.25,-151.9zm228.99 238.45c6.63,3.98 13.07,7.6 19.13,10.99 38.26,21.99 87.13,56.65 111.18,100.57 -6.06,0.59 -12.5,0.97 -19.32,0.97 -73.68,0 -184.29,-35.04 -231.83,-73.3 -30.5,-24.64 -47.16,-60.24 -50.95,-108.74l0.76 0c51.9,0 120.64,40.15 171.02,69.51zm83.72 -237.69c73.11,-84.08 201.14,-142.22 283.15,-148.47 -26.89,114.39 -211.75,200.55 -312.89,247.52 -7.58,3.6 -14.78,7.03 -21.59,10.04 2.27,-35.61 19.7,-72.73 51.33,-109.09zm207.59 216.68c15.15,8.16 30.11,16.49 45.26,24.43 16.66,8.71 36.56,16.5 57.39,24.83 46.59,18.36 98.68,39.02 123.87,73.68 -75.57,39.19 -217.81,-36.74 -287.51,-73.88l-5.49 -3.01c-58.14,-31.08 -92.62,-67.26 -112.88,-119.52 64.39,10.23 120.46,40.91 179.36,73.47zm128.6 -90.14c76.52,-6.63 155.69,-13.45 233.53,-7.39 62.12,4.74 123.3,17.03 182.58,28.79l12.32 2.44c-91.1,58.35 -235.62,49.65 -343.77,31.08 -52.27,-8.92 -88.83,-26.14 -111.55,-52.67 9.09,-0.76 17.99,-1.5 26.89,-2.25zm-1667.86 1190.36c106.44,0 227.09,-39.76 309.67,-93.94 56.25,-36.91 84.29,-91.29 83.34,-161.37 -1.13,-81.61 -42.61,-172.92 -96.59,-250.58 17.8,11.74 36.93,23.13 58.14,33.9 92.81,47.18 170.65,70.85 233.15,70.85 63.26,0 110.99,-24.05 142.43,-72.16 30.87,-46.81 28.03,-122.36 25.57,-188.85 -1.33,-30.29 -2.27,-59.07 -0.19,-82.37 7.76,-89.59 -13.45,-154.93 -63.07,-193.97 -39.02,-30.47 -94.89,-44.68 -167.05,-42.41 41.1,-16.1 79.93,-34.87 113.45,-57.96 31.82,-8.92 63.64,-18.39 94.7,-27.48 22.54,-6.63 45.46,-13.43 68.56,-20.07 6.25,35.43 41.86,73.11 73.3,103.03 51.52,48.7 124.81,75.21 205.12,75.21 12.5,0 25,-0.59 37.88,-1.92 3.22,-0.17 6.06,-1.89 7.96,-4.53 1.9,-2.65 2.65,-6.08 1.9,-9.3 -12.31,-54.91 -70.46,-84.66 -117.05,-108.5 -9.09,-4.57 -17.62,-8.92 -25.57,-13.28 -7.96,-4.53 -16.67,-9.85 -25.95,-15.53 -27.09,-16.48 -57.77,-35.21 -89.21,-44.3 25.76,-7.01 51.71,-13.44 77.65,-19.53 35.79,-8.12 70.83,-15.51 105.3,-21.57 4.17,54.93 23.86,95.65 59.47,124.23 51.71,41.67 166.68,78.41 246.03,78.41 14.59,0 27.46,-1.31 38.64,-3.77 3.22,-0.76 6.06,-2.86 7.58,-5.87 1.51,-2.86 1.7,-6.46 0.38,-9.47 -23.3,-56.27 -82.01,-98.88 -127.27,-124.83 -5.87,-3.39 -12.12,-6.99 -18.94,-10.98 -35.42,-20.65 -79.74,-46.6 -122.73,-61.35 43.18,-6.27 85.23,-10.8 125.95,-13.65 1.9,1.72 4.54,2.86 7.39,2.86 0.56,0 0.94,-0.21 1.51,-0.21 2.84,-0.38 5.3,-1.69 7.01,-3.77 18.56,-1.13 36.74,-1.89 54.74,-2.48l0.38 0c0.19,0.38 0.38,0.59 0.94,0.76 21.78,63.85 60.04,106.64 127.66,142.64l5.3 2.84c57.96,31.06 163.45,87.3 247.74,87.3 27.27,0 52.27,-5.87 72.92,-20.25 4.74,-3.43 6.06,-9.68 3.41,-14.8 -25.95,-47.73 -87.31,-71.78 -141.3,-93.18 -20.26,-7.96 -39.58,-15.72 -55.3,-23.85 -14.96,-7.78 -29.73,-15.93 -44.7,-24.05 -37.88,-21.04 -76.52,-42.24 -117.81,-57.58l2.27 0c59.09,0.55 120.08,1.3 182.01,-4.94 25.19,36 68.57,58.71 132.01,69.51 46.59,7.97 99.62,14.21 153.03,14.21 82.77,0 165.73,-14.95 224.25,-60.97 3.6,-2.85 5.12,-7.58 3.98,-11.93l-0.57 -2.1c0,-5.29 -3.79,-10.02 -9.09,-11.18l-32.01 -6.25c-59.85,-11.93 -121.79,-24.22 -185.24,-29.17 -79.54,-6.04 -159.66,0.76 -237.32,7.6 -16.86,1.33 -33.71,2.84 -50.76,4.14 -3.22,0.38 -6.06,1.92 -7.96,4.19l0 0.17c-57.96,4.94 -113.64,4.56 -172.16,3.98 -28.22,-0.17 -56.64,-0.38 -85.42,0 -10.6,0.2 -21.21,0.38 -32.01,0.76 117.05,-55.29 306.07,-144.5 322.36,-276.15 0.38,-3.22 -0.57,-6.63 -2.65,-8.89 -2.27,-2.48 -5.3,-3.43 -8.52,-3.98 -85.99,0.38 -232.58,63.43 -314.22,156.81 -38.64,44.32 -57.96,90.72 -56.82,135.42 -73.87,5.5 -151.71,16.1 -233.15,32.01 61.93,-46.76 111.55,-93.35 149.24,-157.37 5.69,-9.68 11.75,-19.7 18.18,-30.14 27.65,-45.06 59.09,-96.21 69.32,-145.65 0.57,-3.2 -0.19,-6.63 -2.28,-9.26 -2.08,-2.65 -5.11,-4.19 -8.52,-4.36 -75,-2.65 -187.13,78.4 -250.77,181.64 -41.29,67.43 -52.08,129.74 -31.06,176.88 -8.34,1.91 -16.86,3.81 -25.38,5.7 -55.11,12.48 -110.23,27.82 -164.02,43.56 37.88,-31.63 70.27,-89.58 93.75,-131.27l3.79 -6.61c6.63,-11.95 13.64,-23.32 20.64,-34.49 25,-40.91 48.87,-79.74 53.6,-132.37 0.19,-3.24 -0.76,-6.25 -3.03,-8.71 -2.08,-2.28 -5.68,-4 -8.33,-3.62 -74.43,0.76 -152.85,79.75 -194.33,153.41 -2.08,-17.05 -5.68,-34.66 -10.98,-52.85 148.87,-151.69 286.19,-325.58 418.01,-527.46 2.84,-4.17 2.46,-10.06 -1.14,-13.85 -3.41,-3.77 -9.09,-4.73 -13.64,-2.25 -174.43,91.86 -341.68,224.8 -493.95,390.16 -38.07,-36.38 -85.99,-64.59 -142.81,-83.73 -36.37,-12.31 -72.92,-32.94 -108.34,-53.02 -41.29,-23.5 -84.29,-47.75 -127.66,-58.9 -86.93,-22.37 -154.17,-10.06 -199.82,36.92 -67.8,69.34 -76.14,206.08 -62.5,334.67 -9.47,-48.29 -20.65,-96.95 -48.87,-132.58 -75.57,-96.2 -230.12,-119.32 -344.33,-51.71 -43.56,25.95 -63.83,59.68 -83.34,92.45 -12.31,20.65 -25,41.86 -43.75,60.97 -18.75,19.53 -37.31,28.62 -56.82,38.09 -14.96,7.37 -30.49,14.96 -47.35,27.27 -117.24,85.99 -117.05,163.64 -96.41,213.62 1.52,3.81 3.41,7.78 5.3,11.58 -50,-32.58 -101.52,-65.17 -155.31,-87.88 -202.66,-85.61 -478.42,-122.18 -686.01,-90.72 -4.92,0.76 -8.71,4.53 -9.47,9.26 -0.94,4.94 1.52,9.68 5.87,12.12 334.86,177.49 686.77,281.28 1103.64,324.82 0.19,0 0.19,0 0.38,0 50.19,13.82 100.57,21.8 145.08,22.92l0.57 0c-23.3,1.72 -46.97,2.65 -71.59,3.79 -88.07,3.6 -178.23,7.41 -261.18,33.34 -8.71,-9.66 -18.18,-18.94 -27.09,-27.65 -59.28,-56.44 -147.73,-83.51 -242.62,-74.04 -3.22,0.38 -6.25,2.06 -8.14,4.73 -1.9,2.46 -2.65,5.87 -1.9,9.09 12.12,55.1 70.27,84.85 116.86,108.91 8.9,4.53 17.62,8.88 25.38,13.44 7.96,4.36 16.67,9.64 25.95,15.34 1.14,0.76 2.27,1.3 3.41,2.06 -10.04,6.65 -19.7,14.03 -29.36,22.16 -21.21,18.01 -39.2,37.88 -53.6,58.53 -4.93,0.97 -9.66,1.89 -14.59,2.86 -3.98,-54.94 -23.3,-96.04 -58.9,-124.83 -51.9,-42.03 -167.24,-78.98 -246.6,-78.98 -14.21,0 -26.89,1.34 -37.88,3.6 -3.41,0.76 -6.25,2.86 -7.77,5.87 -1.51,3.05 -1.7,6.46 -0.38,9.67 23.1,56.23 81.82,99.06 126.9,124.99 6.06,3.41 12.31,7.22 19.13,11.19 35.42,20.84 79.93,46.97 122.73,61.55 -43.37,6.25 -85.61,10.61 -126.33,13.45 -2.27,-2.08 -5.49,-3.22 -8.9,-2.84 -2.84,0.38 -5.3,1.87 -7.01,3.77l0 0.21c-18.56,0.93 -36.74,1.69 -54.74,2.06 -0.38,-0.38 -0.76,-0.55 -1.33,-0.76 -21.59,-63.82 -59.66,-106.82 -127.09,-142.98l-5.3 -2.84c-76.71,-41.29 -236.19,-127.11 -320.47,-67.81 -4.74,3.22 -6.25,9.64 -3.6,14.59 25.95,47.73 87.13,72.16 141.1,93.73 20.27,7.95 39.4,15.72 55.12,23.88 14.96,7.75 29.74,15.89 44.51,24.22 37.88,21.02 76.52,42.24 117.8,57.79l-2.27 0c-59.09,-0.76 -119.89,-1.52 -182.01,4.35 -25.38,-36 -68.57,-58.71 -131.63,-69.7 -119.13,-20.85 -281.45,-29.74 -377.48,45.65 -3.6,2.84 -5.11,7.19 -4.17,11.55 0.19,0.76 0.57,2.65 0.57,3.58 0.19,1.71 0.76,3.43 1.71,4.94 1.7,2.64 4.35,4.53 7.38,5.1l32.01 6.46c59.85,11.91 121.79,24.43 185.05,29.54 22.91,1.88 45.65,2.64 68.56,2.64 56.82,0 113.64,-4.74 168.95,-9.26 16.86,-1.54 33.71,-2.84 50.76,-4.19 3.22,-0.38 6.06,-1.87 7.96,-4.14 57.96,-5.12 113.64,-4.57 172.17,-3.81 28.22,0.38 56.63,0.76 85.42,0.38 10.98,-0.17 22.16,-0.38 33.34,-0.93 -117.24,53.98 -307.78,143.73 -324.63,275.56 -0.38,3.22 0.76,6.44 2.84,8.92 2.08,2.46 5.3,3.77 8.52,3.77 85.8,0 232.78,-62.48 314.6,-155.87 38.63,-44.3 58.33,-90.72 57.2,-135.21 64.58,-4.56 132.39,-13.09 202.85,-25.78 -5.11,9.47 -9.28,19.32 -12.88,29 -42.42,35.78 -77.84,74.04 -106.44,122.52 -5.68,9.68 -11.93,19.7 -18.18,30.14 -27.84,44.87 -59.48,96.02 -69.7,145.27 -0.76,3.22 0,6.63 2.08,9.26 2.08,2.67 5.12,4.18 8.53,4.35 1.51,0.21 3.03,0.21 4.54,0.21 63.45,0 152.28,-57.96 215.92,-137.69 3.03,3.22 6.06,6.42 9.28,9.47 14.58,14 37.5,22.71 59.66,31.23 17.62,6.65 35.8,13.66 41.86,21.02 8.9,10.81 12.5,32.01 15.72,52.67 3.03,17.8 5.87,36.15 12.69,51.5 23.68,53.6 63.26,90.34 114.78,106.44 19.5,6.27 40.15,9.3 61.55,9.3 47.92,0 99.24,-15.34 147.35,-44.51 59.09,-36.2 100.57,-95.08 133.9,-159.48 -16.66,62.88 -25.75,125.57 -16.28,182.56 13.64,80.7 54.74,136.56 122.54,165.93 35.42,15.51 77.09,22.33 121.22,22.33z"/>
   <path class="fil0" d="M1907.17 850.25c-5.68,-2.44 -12.5,0.21 -14.78,6.06 -3.22,7.39 -5.11,15.55 -5.49,23.89 -0.19,6.42 4.55,11.74 10.98,11.91 0,0 0.19,0 0.38,0 6.06,0 11.17,-4.74 11.37,-10.99 0.19,-5.66 1.32,-10.78 3.6,-15.91 2.46,-5.87 -0.19,-12.5 -6.06,-14.96z"/>
   <path class="fil0" d="M1815.88 919.38c-12.5,5.32 -22.16,16.85 -26.52,31.63 -1.7,6.08 1.71,12.33 7.77,14.21 0.94,0.21 2.08,0.38 3.22,0.38 4.92,0 9.28,-3.22 10.8,-8.12 2.46,-8.33 7.58,-14.58 13.64,-17.26 5.87,-2.65 8.53,-9.26 6.06,-14.96 -2.65,-5.87 -9.28,-8.5 -14.96,-5.87z"/>
   <path class="fil0" d="M1878.19 996.27c-6.25,0 -11.36,5.12 -11.36,11.39l0 24.43c0,6.42 5.11,11.37 11.36,11.37 6.25,0 11.37,-4.94 11.37,-11.37l0 -24.43c0,-6.27 -5.11,-11.39 -11.37,-11.39z"/>
   <path class="fil0" d="M1996.38 965.42c-6.25,-1.33 -12.88,-4.74 -16.86,-8.34 -4.74,-4.35 -11.74,-3.97 -16.1,0.55 -4.17,4.74 -3.97,11.74 0.76,16.1 7.01,6.44 17.24,11.76 27.47,13.83 0.76,0.2 1.7,0.38 2.46,0.38 5.12,0 9.85,-3.79 10.98,-9.09 1.33,-6.05 -2.46,-12.12 -8.71,-13.43z"/>
   <path class="fil0" d="M1999.79 880.57c-6.44,0.55 -12.31,1.31 -18.75,2.27 -6.25,1.14 -10.42,6.82 -9.28,13.07 0.94,5.66 5.68,9.47 11.17,9.47l1.9 0c5.68,-0.97 10.98,-1.73 16.86,-2.29 6.25,-0.38 10.98,-5.87 10.42,-12.12 -0.57,-6.25 -5.87,-10.98 -12.31,-10.4z"/>
   <path class="fil0" d="M2067.59 1059.18c2.84,0 5.87,-1.14 7.96,-3.41 4.55,-4.35 4.55,-11.55 0,-16.12 -5.12,-5.12 -11.18,-10.23 -16.86,-14.38 -5.11,-3.81 -12.31,-2.65 -15.91,2.46 -3.79,5.11 -2.65,12.12 2.46,15.89 4.93,3.6 10.04,7.78 14.21,12.14 2.28,2.27 5.12,3.41 8.14,3.41z"/>
   <path class="fil0" d="M1969.48 1098.76c-6.25,0 -11.36,5.12 -11.36,11.37l0 17.8c0,6.25 5.11,11.37 11.36,11.37 6.44,0 11.37,-5.12 11.37,-11.37l0 -17.8c0,-6.25 -4.92,-11.37 -11.37,-11.37z"/>
   <path class="fil0" d="M1877.62 1125.64c-6.06,-0.93 -11.93,3.43 -12.88,9.66 -0.76,5.33 -2.65,11.37 -5.3,16.1 -3.03,5.49 -1.14,12.52 4.55,15.55 1.7,0.93 3.6,1.31 5.3,1.31 4.17,0 7.96,-2.07 10.04,-5.87 3.98,-7.39 6.82,-15.89 7.96,-23.85 0.94,-6.25 -3.41,-12.12 -9.66,-12.9z"/>
   <path class="fil0" d="M1807.92 1093.65c-9.47,5.49 -19.32,13.62 -27.27,22.14 -4.17,4.74 -3.79,11.93 0.95,16.12 2.08,2.06 4.74,3.03 7.58,3.03 3.03,0 6.06,-1.34 8.33,-3.79 6.25,-6.82 14.39,-13.66 21.78,-17.8 5.49,-3.22 7.39,-10.23 4.17,-15.55 -3.22,-5.47 -10.04,-7.37 -15.53,-4.14z"/>
   <path class="fil0" d="M1760.95 1031.89c-12.5,-0.55 -23.67,3.41 -32.95,11.95 -0.94,0.76 -1.7,1.87 -2.08,2.84 -2.46,4.14 -2.08,9.47 1.33,13.24 2.27,2.48 5.3,3.61 8.52,3.61 2.65,0 5.5,-0.96 7.58,-2.86 4.74,-4.36 10.42,-6.23 16.1,-6.06 6.44,0.4 11.74,-4.34 12.12,-10.61 0,-0.76 0,-1.69 -0.19,-2.44 -0.76,-5.11 -4.93,-9.3 -10.42,-9.67z"/>
   <path class="fil0" d="M2079.33 513.89c1.9,1.33 3.98,1.88 6.06,1.88 3.79,0 7.39,-1.88 9.47,-5.29 4.17,-6.44 8.9,-13.65 13.07,-19.71 3.79,-5.12 2.46,-12.12 -2.65,-15.72 -5.11,-3.6 -12.12,-2.44 -15.91,2.67 -4.35,6.42 -9.47,14 -13.64,20.63 -3.41,5.32 -1.7,12.31 3.6,15.55z"/>
   <path class="fil0" d="M2224.41 589.82c1.71,1.15 3.79,1.71 5.69,1.71 3.97,0 7.76,-2.08 9.85,-5.69 6.06,-10.23 14.58,-20.25 24.05,-28.22 4.92,-3.98 5.69,-11.17 1.51,-15.91 -3.97,-4.91 -10.98,-5.49 -15.91,-1.52 -11.74,9.68 -21.78,21.42 -29.36,34.11 -3.03,5.49 -1.33,12.48 4.17,15.51z"/>
   <path class="fil0" d="M2372.15 675.43c2.08,3.22 5.68,5.11 9.47,5.11 2.08,0 4.35,-0.55 6.25,-1.9 6.44,-4.14 13.82,-7.58 21.21,-9.64 6.06,-1.72 9.66,-8.17 7.96,-14.03 -1.71,-6.05 -8.14,-9.64 -14.02,-7.96 -5.87,1.71 -11.55,3.81 -17.05,6.65 -3.6,1.69 -7.19,3.77 -10.6,6.05 -4.93,3.22 -6.63,9.47 -3.79,14.58 0.19,0.38 0.38,0.76 0.57,1.14z"/>
   <path class="fil0" d="M2415.52 773.35c1.71,4.57 6.06,7.41 10.61,7.41 1.33,0 2.65,-0.21 3.98,-0.78l17.8 -6.63c5.87,-2.27 8.9,-8.71 6.63,-14.58 -2.08,-5.87 -8.71,-8.89 -14.59,-6.8l-14.96 5.66 -0.19 0.21 -2.65 0.93c-3.22,1.14 -5.49,3.6 -6.44,6.46 -1.14,2.46 -1.33,5.28 -0.19,8.12z"/>
   <path class="fil0" d="M2405.08 1014.11c10.17,3 22.14,5.57 32.8,7.05 0.55,0.08 1.08,0.11 1.59,0.11 5.59,0 10.45,-4.11 11.25,-9.79 0.87,-6.21 -3.47,-11.95 -9.68,-12.82 -9.49,-1.33 -20.55,-3.69 -29.57,-6.35 -5.99,-1.78 -12.33,1.69 -14.11,7.71 -1.76,6.02 1.69,12.33 7.71,14.09z"/>
   <path class="fil0" d="M2468.02 1116.73c8.86,2.12 18.17,4.24 27.09,6.29l1.95 0.43c0.83,0.21 1.69,0.28 2.53,0.28 5.17,0 9.87,-3.56 11.06,-8.83 1.41,-6.12 -2.42,-12.21 -8.54,-13.62l-1.95 -0.43c-8.84,-2.03 -18.09,-4.13 -26.88,-6.23 -6.14,-1.44 -12.24,2.33 -13.69,8.43 -1.46,6.1 2.33,12.24 8.42,13.67z"/>
   <path class="fil0" d="M2411.86 1242.9c-4.72,-2.82 -9.4,-6.8 -12.5,-10.71 -3.94,-4.89 -11.08,-5.68 -15.98,-1.76 -4.89,3.94 -5.69,11.08 -1.76,15.99 4.81,5.98 11.59,11.82 18.64,16 1.82,1.08 3.83,1.61 5.8,1.61 3.88,0 7.65,-1.99 9.77,-5.57 3.22,-5.38 1.46,-12.36 -3.96,-15.56z"/>
   <path class="fil0" d="M2345.01 1310.4c-5.25,0.38 -10.19,-1.08 -14.4,-4.34 -4.96,-3.84 -12.08,-2.97 -15.92,1.99 -3.87,4.96 -2.97,12.1 1.99,15.95 7.69,5.99 17.06,9.19 26.69,9.19 1.15,0 2.31,-0.04 3.46,-0.13 6.25,-0.49 10.93,-5.99 10.42,-12.24 -0.51,-6.25 -6.04,-11.06 -12.23,-10.42z"/>
   <path class="fil0" d="M2116.49 1484.15c1,5.45 5.78,9.28 11.16,9.28 0.68,0 1.38,-0.06 2.08,-0.19 6.17,-1.16 10.24,-7.09 9.09,-13.26 -1.42,-7.65 -2.88,-15.05 -4.49,-22.58 -1.33,-6.12 -7.29,-10.06 -13.5,-8.71 -6.12,1.31 -10.04,7.35 -8.71,13.49 1.55,7.31 2.99,14.53 4.38,21.97z"/>
   <path class="fil0" d="M1999.58 1555.27c1.12,0.34 2.23,0.51 3.35,0.51 4.85,0 9.34,-3.14 10.86,-8.01 2.38,-7.73 3.27,-15.62 2.73,-24.13 -0.4,-6.27 -5.63,-11.14 -12.05,-10.61 -6.27,0.4 -11.02,5.8 -10.62,12.05 0.36,5.72 -0.23,10.93 -1.78,15.98 -1.84,5.99 1.52,12.35 7.52,14.21z"/>
   <path class="fil0" d="M1896.01 1595.86c0.36,0 0.72,-0.02 1.1,-0.05 6.25,-0.61 10.81,-6.16 10.21,-12.41 -0.34,-3.52 0.15,-6.88 1.5,-10.27 2.33,-5.84 -0.51,-12.44 -6.35,-14.75 -5.78,-2.31 -12.44,0.51 -14.75,6.35 -2.69,6.74 -3.69,13.75 -3.01,20.87 0.57,5.87 5.51,10.27 11.31,10.27z"/>
   <path class="fil0" d="M1829.4 1371.71c3.05,-29.66 6.21,-60.32 13.13,-89.72 1.44,-6.12 -2.35,-12.24 -8.47,-13.66 -6.1,-1.48 -12.22,2.35 -13.66,8.45 -7.23,30.81 -10.47,62.24 -13.62,92.6 -3.36,32.59 -6.84,66.29 -15.29,98.68 -1.57,6.06 2.05,12.27 8.12,13.86 0.97,0.25 1.93,0.36 2.88,0.36 5.04,0 9.66,-3.39 10.98,-8.5 8.89,-34.05 12.47,-68.62 15.91,-102.07z"/>
   <path class="fil0" d="M1786.92 1553.09c-6.27,0 -11.37,5.1 -11.37,11.37l0 13.37c0,6.29 5.1,11.38 11.37,11.38 6.29,0 11.37,-5.1 11.37,-11.38l0 -13.37c0,-6.27 -5.08,-11.37 -11.37,-11.37z"/>
   <path class="fil0" d="M1558.48 1433.81c-6.81,6.63 -13.07,13.8 -18.94,21.38 -3.79,4.94 -2.84,12.14 2.27,15.93 1.9,1.5 4.35,2.25 6.82,2.25 3.41,0 6.82,-1.51 9.09,-4.53 5.12,-6.63 10.61,-12.9 16.67,-18.77 4.35,-4.36 4.54,-11.54 0.19,-16.1 -4.35,-4.35 -11.55,-4.53 -16.1,-0.17z"/>
   <path class="fil0" d="M1468.14 1321.48c-8.53,0.21 -16.48,4.19 -21.97,10.98 -3.79,4.74 -3.03,11.93 1.9,15.91 2.08,1.72 4.54,2.48 7.01,2.48 3.41,0 6.63,-1.35 8.9,-4.19 1.33,-1.69 2.84,-2.44 4.74,-2.44 6.25,-0.21 11.17,-5.32 11.17,-11.55 -0.19,-6.46 -5.3,-11.57 -11.74,-11.19z"/>
   <path class="fil0" d="M1425.71 1186.64c-0.76,-2.48 -2.65,-4.74 -5.12,-6.25 -5.11,-2.84 -10.8,-4.19 -16.66,-3.98 -4.74,0.17 -9.28,1.5 -14.02,3.77 -5.68,2.67 -7.95,9.47 -5.11,15.17 1.9,3.98 6.06,6.44 10.23,6.44 1.7,0 3.41,-0.4 4.92,-1.33 0.38,-0.21 0.76,-0.21 0.94,-0.38 3.03,-1.14 6.06,-1.14 8.53,0.17 5.3,2.85 11.74,1.33 15.15,-3.77 0,0 0,0 0,-0.2 0,0 0.38,-0.17 0.38,-0.38 1.7,-3.03 1.89,-6.25 0.76,-9.09 0.19,-0.17 0.19,-0.17 0,-0.17z"/>
   <path class="fil0" d="M1473.37 868.3c-5.61,-2.73 -10.27,-6.23 -14.24,-10.68 -4.15,-4.71 -11.34,-5.15 -16.03,-0.96 -4.7,4.17 -5.13,11.32 -0.97,16.04 5.99,6.74 12.98,12 21.35,16.06 1.59,0.78 3.27,1.14 4.92,1.14 4.25,0 8.28,-2.37 10.25,-6.42 2.74,-5.64 0.38,-12.44 -5.28,-15.17z"/>
   <path class="fil0" d="M1533.71 779.47c2.23,2.33 5.23,3.5 8.22,3.5 2.82,0 5.64,-1.04 7.86,-3.14 4.53,-4.34 4.68,-11.54 0.34,-16.08 -2.79,-2.92 -5.42,-6.21 -7.58,-9.51 -3.47,-5.27 -10.53,-6.71 -15.76,-3.26 -5.23,3.45 -6.71,10.49 -3.24,15.74 2.96,4.5 6.38,8.79 10.15,12.75z"/>
   <path class="fil0" d="M1622.63 684.3c1.72,4.54 6.04,7.35 10.62,7.35 1.35,0 2.71,-0.25 4.02,-0.74 5.89,-2.22 8.85,-8.79 6.61,-14.66 -2.1,-5.57 -4.5,-11.1 -7.08,-16.48 -2.73,-5.66 -9.53,-8.05 -15.17,-5.3 -5.66,2.73 -8.03,9.5 -5.3,15.17 2.31,4.77 4.41,9.72 6.31,14.66z"/>
   <path class="fil0" d="M1741.04 567.27c1.97,4.02 6.02,6.36 10.23,6.36 1.66,0 3.37,-0.36 4.98,-1.15 5.64,-2.75 7.97,-9.55 5.22,-15.19l-4.45 -9.01c-2.8,-5.58 -9.62,-7.88 -15.25,-5.07 -5.62,2.8 -7.9,9.64 -5.07,15.25l4.34 8.83z"/>
  </g>
 </g>
</svg>
