<?xml version="1.0" encoding="UTF-8"?>
<!DOCTYPE svg PUBLIC "-//W3C//DTD SVG 1.1//EN" "http://www.w3.org/Graphics/SVG/1.1/DTD/svg11.dtd">
<!-- Creator: CorelDRAW 2018 (64-Bit) -->
<svg xmlns="http://www.w3.org/2000/svg" xml:space="preserve" width="14.3614mm" height="14.3614mm" version="1.1" style="shape-rendering:geometricPrecision; text-rendering:geometricPrecision; image-rendering:optimizeQuality; fill-rule:evenodd; clip-rule:evenodd"
viewBox="0 0 117.51 117.51"
 xmlns:xlink="http://www.w3.org/1999/xlink">
 <defs>
  <style type="text/css">
   <![CDATA[
    .fil1 {fill:rgb(73, 73, 73)}
    .fil0 {fill:rgb(73, 73, 73)}
   ]]>
  </style>
 </defs>
 <g id="Layer_x0020_1">
  <metadata id="CorelCorpID_0Corel-Layer"/>
  <g id="_2862959878288">
   <path class="fil0" d="M58.75 0c16.22,0 30.91,6.58 41.55,17.21 10.63,10.63 17.21,25.32 17.21,41.54 0,16.22 -6.58,30.91 -17.21,41.55 -10.63,10.63 -25.32,17.21 -41.55,17.21 -16.22,0 -30.91,-6.58 -41.55,-17.21 -10.63,-10.63 -17.21,-25.32 -17.21,-41.55 0,-16.22 6.58,-30.91 17.21,-41.54 10.63,-10.63 25.32,-17.21 41.55,-17.21zm0 4.33c30.06,0 54.42,24.37 54.42,54.42 0,30.06 -24.37,54.42 -54.42,54.42 -30.06,0 -54.42,-24.37 -54.42,-54.42 0,-30.06 24.37,-54.42 54.42,-54.42z"/>
   <path class="fil1" d="M37.11 47.67c1.77,0.63 3.59,3.3 2.59,6.04 -0.39,1.06 -1.28,2.05 -1.82,2.76 -0.46,0.6 -1.61,2 -1.84,2.62 6.72,0.37 14.48,0.03 21.32,0.03 3.32,0 10.89,-0.9 10.96,5.04 0.03,2.29 -0.95,2.55 -1.6,3.8l1.19 0.9c4.48,-4.25 4.68,-15.62 -3.37,-20.68 -1.31,-0.82 -2.04,-0.96 -3.4,-1.59 -1.07,-0.5 -1.08,-2.17 -1.66,-3.32 -5.98,-11.71 -22.11,-6.86 -22.37,4.4z"/>
   <path class="fil1" d="M62.66 25.84c-5.87,1.96 -2.86,10 2.5,8.39 5.47,-1.65 2.94,-10.2 -2.5,-8.39z"/>
   <path class="fil1" d="M69.79 90.52c1.26,-2.73 -3.05,-4.4 -4.14,-1.88 -1.29,2.98 2.9,4.56 4.14,1.88z"/>
   <path class="fil1" d="M25.26 38.39c-2.93,1.42 -0.73,5.33 1.98,4.04 2.42,-1.16 0.8,-5.39 -1.98,-4.04z"/>
   <path class="fil1" d="M94.96 46.57c-2.98,1.08 -1.44,5.22 1.5,4.21 2.58,-0.88 1.33,-5.24 -1.5,-4.21z"/>
   <path class="fil1" d="M45.97 69.3c-2.77,-0.01 -2.33,-1.94 -0.42,-2.01l15.6 0.01c1.82,0 3.03,0.13 4.2,-0.95 0.89,-0.82 1.49,-2.35 0.5,-3.69 -0.82,-1.11 -1.72,-1.54 -3.69,-1.56l-25.97 0c-1.32,0 -4.03,0.32 -3.17,-1.51 1.36,-2.89 7.15,-6.61 4.03,-9.69 -0.79,-0.78 -2.52,-1.28 -3.98,-0.65 -1.25,0.54 -1.74,1.55 -2.57,2.62 -2.57,3.32 -11.86,15.05 -13.26,17.91 -4.87,9.99 3.04,22.13 16.35,22.13l18.78 0c4.36,0 5.18,-4.31 2.17,-5.78 -2.46,-1.21 -8.43,0.46 -10.33,-0.81 -0.45,-2.21 1.67,-1.6 3.57,-1.6 1.73,0 3.46,0 5.19,0 2.65,0 7.6,0.6 9.21,-0.98 1.85,-1.82 1.17,-5.18 -3.01,-5.22 -3.39,-0.04 -6.8,0 -10.19,0 -1.09,0 -4.31,0.32 -4.74,-0.5 -1.05,-1.99 2.36,-1.49 3.54,-1.49 3.39,0 6.81,-0.07 10.19,-0.04 3.19,0.02 7.24,0.64 8.82,-1.32 0.95,-1.18 0.6,-2.92 -0.24,-3.83 -0.94,-1.02 -2.26,-1 -3.99,-1l-16.58 -0.05z"/>
   <path class="fil1" d="M61.91 43.78c0.23,2.09 2.58,0.71 7.32,5.9 4.69,5.14 5.07,13.91 0.72,19.88 -0.71,0.97 -0.83,0.72 -0.61,2.19 0.63,4.3 -3.94,5.5 -4.29,5.79l6.23 4.05c1.74,1.15 4.8,3.99 7.33,2.23 0.98,-0.68 1.55,-2.24 0.77,-3.73 -0.59,-1.12 -1.61,-1.65 -2.76,-2.43 -1.06,-0.71 -1.99,-1.34 -3.11,-2.08 -1.15,-0.77 -2.74,-1.25 -2.14,-2.79 0.87,-0.93 4.18,1.75 5.02,2.32 1.19,0.81 8.71,5.86 9.48,6.11 2.37,0.75 4.52,-0.95 4.01,-3.44 -0.36,-1.76 -2.55,-2.86 -3.97,-3.8 -1.59,-1.06 -3.07,-2.02 -4.69,-3.1 -1.6,-1.06 -3.07,-2.02 -4.68,-3.11 -1.11,-0.76 -1.2,-2.08 0.18,-2.06 0.67,0.01 2.02,1.11 2.58,1.48l14.08 9.31c2.24,1.07 4.79,-0.08 4.63,-2.74 -0.13,-2.12 -2.39,-3.16 -3.79,-4.1l-11.74 -7.83c-0.81,-0.54 -1.85,-0.95 -2.23,-1.85 0.42,-2.61 3.68,0.41 4.62,1.04l9.71 6.48c1.44,0.98 3.68,2.98 5.9,1.44 2.23,-1.54 1.06,-4.14 -0.36,-5.18 -3.36,-2.47 -23.9,-15.55 -24.42,-16.35 -1.07,-1.65 1.98,-2.12 4.78,-3.07 2.02,-0.69 4.63,-1.2 4.3,-3.9 -0.24,-1.96 -2.34,-3.66 -4.69,-3.05l-18.16 6.42z"/>
  </g>
 </g>
</svg>
