<?xml version="1.0" encoding="UTF-8"?>
<!DOCTYPE svg PUBLIC "-//W3C//DTD SVG 1.1//EN" "http://www.w3.org/Graphics/SVG/1.1/DTD/svg11.dtd">
<!-- Creator: CorelDRAW 2018 (64-Bit) -->
<svg xmlns="http://www.w3.org/2000/svg" xml:space="preserve" width="14.3613mm" height="14.3613mm" version="1.1" style="shape-rendering:geometricPrecision; text-rendering:geometricPrecision; image-rendering:optimizeQuality; fill-rule:evenodd; clip-rule:evenodd"
viewBox="0 0 117.51 117.51"
 xmlns:xlink="http://www.w3.org/1999/xlink">
 <defs>
  <style type="text/css">
   <![CDATA[
    .fil1 {fill:rgb(73, 73, 73)}
    .fil0 {fill:rgb(73, 73, 73)}
   ]]>
  </style>
 </defs>
 <g id="Layer_x0020_1">
  <metadata id="CorelCorpID_0Corel-Layer"/>
  <g id="_2862700930176">
   <path class="fil0" d="M58.75 0c16.22,0 30.91,6.58 41.54,17.21 10.63,10.63 17.21,25.32 17.21,41.54 0,16.22 -6.58,30.91 -17.21,41.54 -10.63,10.63 -25.32,17.21 -41.54,17.21 -16.22,0 -30.91,-6.58 -41.54,-17.21 -10.63,-10.63 -17.21,-25.32 -17.21,-41.54 0,-16.22 6.58,-30.91 17.21,-41.54 10.63,-10.63 25.32,-17.21 41.54,-17.21zm0 4.33c30.06,0 54.42,24.37 54.42,54.42 0,30.06 -24.37,54.42 -54.42,54.42 -30.06,0 -54.42,-24.37 -54.42,-54.42 0,-30.06 24.37,-54.42 54.42,-54.42z"/>
   <path class="fil1" d="M76.94 77.49c-1.44,0.64 -5.9,2.17 -7.68,2.23 -1.42,0.87 -9.04,1.25 -11.19,1.21 -8.3,-0.15 -12.91,-1.73 -20.29,-4.46 -5.01,-1.85 -9.43,-2.83 -9.47,-9.04l0 -18.52c-0,-3.97 1.8,-6.44 4.8,-7.49 1.81,-0.63 8.22,-1.78 10.24,-1.98 1.74,-0.49 9.71,-1.87 12.11,-2.31 3.03,-0.56 3.22,-0.64 6.32,-0.05 1.55,0.29 4.72,0.67 5.8,1.2 0.63,-0.14 13.5,2.39 15.33,2.76 7.17,1.44 6.31,7.14 6.31,12.02 0,3.7 0.51,15.14 -0.6,17.75 -0.97,2.27 -2.8,3.38 -4.97,4.2 -2.01,0.76 -4.71,1.95 -6.7,2.49zm15.04 -13.52c0,-2.05 -0.21,-15.8 0.08,-16.54 0.14,-0.36 3.44,-3.82 4.01,-4.3 0.68,-0.57 1.43,-1.68 2.04,-2.12 1.19,-0.86 2.18,0.29 2.18,1.5 0,6.51 0.82,11.64 -2.62,16.42 -0.68,0.95 -1.71,2.02 -2.63,2.73 -0.82,0.64 -2.25,1.91 -3.06,2.32zm-74.75 -21.47c0,-1.22 0.99,-2.37 2.18,-1.5l6.05 6.43c0.29,0.75 0.07,14.49 0.07,16.55 -0.61,-0.31 -1.07,-0.78 -1.6,-1.18 -7.84,-5.95 -6.71,-10.14 -6.71,-20.29zm-2.77 -1.42l0 12.11c1.33,2.64 -0.22,5.43 7.23,11.49 5.01,4.07 3.36,1.86 4.11,5.24 1.26,5.7 5.7,7.17 9.95,8.74 8.13,2.99 13.29,5 23.01,5 9.69,0 14.89,-2 23.01,-5 4.24,-1.56 8.68,-3.03 9.95,-8.74 0.11,-0.48 0.22,-1.81 0.33,-2.1 0.48,-1.26 7.55,-4.34 10,-10.94 0.31,-0.84 0.76,-3.18 1.01,-3.69l0 -12.12c-0.4,-0.64 -0.38,-1.06 -0.96,-1.76 -1.35,-1.64 -3.91,-2.06 -5.77,-0.6l-4.03 4.1c-0.46,0.48 -0.83,0.9 -1.26,1.35 -2.97,-5.74 -6.77,-5.67 -14.22,-7.09 -2.99,-0.57 -6.03,-1.1 -9.03,-1.69 -2.31,-0.45 -6.81,-1.52 -9.02,-1.52 -1.97,0 -15.19,2.67 -18.2,3.24 -7.5,1.43 -11.02,1.33 -14.08,7.06 -0.47,-0.47 -0.85,-0.93 -1.35,-1.43 -2.88,-2.88 -4.78,-6.07 -8.23,-4.53 -0.66,0.29 -1.22,0.79 -1.55,1.22 -0.53,0.68 -0.52,1.08 -0.89,1.67z"/>
   <path class="fil1" d="M38.02 50.09c-1.47,0.15 -3.92,0.03 -4.17,1.43 -0.41,2.31 2.27,1.58 3.85,1.48l0.1 1.42 0.02 -1.49c3.77,-0.46 19.78,-2.6 22.3,-2.3 4.34,0.51 19.51,2.52 22.6,2.59 0.61,-0.41 1.35,-1 0.79,-2.08 -0.4,-0.77 -1.36,-0.7 -2.37,-0.89 -2.96,-0.02 -7.74,-0.86 -10.9,-1.24 -3.56,-0.43 -7.11,-0.83 -10.65,-1.26 -2,-0.24 -17.87,2.01 -21.58,2.34z"/>
   <path class="fil1" d="M44.33 65.88c-1.2,0.64 -8.87,0.72 -9.92,1.43 -0.82,0.55 -0.73,2.05 0.22,2.42 1.5,0.6 12.44,-1.77 13.51,-1.11 0.15,-0.5 -0.09,-0.28 1.81,-0.49 7.96,-0.88 6.39,-1.32 14.33,-0.38l15.33 1.79c0.04,0.01 0.43,0.08 0.44,0.08 0.94,0.26 -0.73,-0.28 0.29,0.1l0.29 0.13c0.85,-0.51 2.4,0.51 2.93,-0.82 0.43,-1.08 -0.21,-1.63 -0.98,-1.92 -0.74,-0.27 -0.38,0.17 -0.65,-0.37 -0.44,0.29 -0.42,0.22 -1.16,0.14 -4.16,-0.44 -20.98,-2.65 -22.37,-2.57 -3.6,0.2 -10.98,1.69 -14.07,1.56z"/>
   <path class="fil1" d="M38.54 58.11c-0.72,1 -5.45,-0.36 -4.64,2.48 0.52,1.8 4.41,0.52 6.04,0.45 3.42,-0.65 7.45,-0.9 10.97,-1.33 1.84,-0.23 3.71,-0.43 5.58,-0.65 3.84,-0.46 12.25,0.92 16.46,1.4 1.05,0.12 8.96,1.24 9.79,0.98 0.9,-0.27 0.29,-0.62 0.9,-0.27l0.05 -1.05c-0.12,-1.79 -3.03,-1.57 -4.77,-1.78l-17.35 -2.04c-2.6,-0.31 -3.36,-0.27 -5.94,0.04l-15.8 1.87c-0.61,0.08 -0.85,0.18 -1.28,-0.1z"/>
  </g>
 </g>
</svg>
