<?xml version="1.0" encoding="UTF-8"?>
<!DOCTYPE svg PUBLIC "-//W3C//DTD SVG 1.1//EN" "http://www.w3.org/Graphics/SVG/1.1/DTD/svg11.dtd">
<!-- Creator: CorelDRAW 2018 (64-Bit) -->
<svg xmlns="http://www.w3.org/2000/svg" xml:space="preserve" width="14.3611mm" height="14.3609mm" version="1.1" style="shape-rendering:geometricPrecision; text-rendering:geometricPrecision; image-rendering:optimizeQuality; fill-rule:evenodd; clip-rule:evenodd"
viewBox="0 0 527.17 527.16"
 xmlns:xlink="http://www.w3.org/1999/xlink">
 <defs>
  <style type="text/css">
   <![CDATA[
    .str0 {stroke:rgb(73, 73, 73);stroke-width:9.18;stroke-miterlimit:22.9256}
    .fil1 {fill:none}
    .fil2 {fill:rgb(73, 73, 73)}
    .fil0 {fill:rgb(73, 73, 73)}
   ]]>
  </style>
 </defs>
 <g id="Layer_x0020_1">
  <metadata id="CorelCorpID_0Corel-Layer"/>
  <g id="_2862958161008">
   <path class="fil0" d="M263.59 0c72.78,0 138.68,29.51 186.38,77.2 47.7,47.7 77.2,113.6 77.2,186.38 0,72.78 -29.51,138.68 -77.2,186.37 -47.7,47.7 -113.6,77.2 -186.38,77.2 -72.78,0 -138.68,-29.51 -186.38,-77.2 -47.7,-47.7 -77.2,-113.6 -77.2,-186.38 0,-72.78 29.51,-138.68 77.2,-186.38 47.7,-47.7 113.6,-77.2 186.38,-77.2zm0 19.42c134.84,0 244.16,109.32 244.16,244.16 0,134.84 -109.32,244.16 -244.16,244.16 -134.85,0 -244.16,-109.32 -244.16,-244.16 0,-134.84 109.32,-244.16 244.16,-244.16z"/>
   <line class="fil1 str0" x1="204.38" y1="174.81" x2="322.79" y2= "174.81" />
   <path class="fil2" d="M244.84 157.67l-8.42 0 0 -31.84c-3.07,2.89 -6.7,5.02 -10.88,6.41l0 -7.68c2.2,-0.72 4.59,-2.08 7.16,-4.1 2.58,-2 4.34,-4.35 5.3,-7.03l6.83 0 0 44.24zm14.39 0l0 -43.99 13.34 0 7.88 30 7.79 -30 13.38 0 0 43.99 -8.23 0 -0.03 -34.64 -8.67 34.64 -8.56 0 -8.64 -34.64 -0.03 34.64 -8.23 0z"/>
   <path class="fil2" d="M117.59 186.28c20.15,-13.57 37.21,-13.57 62.79,0 11.71,6.21 19.45,10.87 19.45,24.11l0 85.37 -16.69 0 -2.3 117.98 -19.87 0 -11.24 -116.79c-0.64,-6.71 -2.05,-6.71 -2.26,0l-3.74 116.79 -22.84 0 -6.05 -117.98 -15.13 0c-1.26,0 -2.33,-1.05 -2.33,-2.33l0 -83.04c0,-13.26 9.24,-16.7 20.23,-24.11z"/>
   <path class="fil2" d="M148.6 126.9c13.7,0 24.8,11.1 24.8,24.8 0,13.7 -11.1,24.8 -24.8,24.8 -13.7,0 -24.8,-11.1 -24.8,-24.8 0,-13.7 11.1,-24.8 24.8,-24.8z"/>
   <path class="fil2" d="M347.56 186.28c20.15,-13.57 37.21,-13.57 62.8,0 11.7,6.21 19.45,10.87 19.45,24.11l0 85.37 -16.69 0 -2.3 117.98 -19.87 0 -11.24 -116.79c-0.64,-6.71 -2.05,-6.71 -2.26,0l-3.75 116.79 -22.84 0 -6.05 -117.98 -15.13 0c-1.26,0 -2.33,-1.05 -2.33,-2.33l0 -83.04c0,-13.26 9.24,-16.7 20.23,-24.11z"/>
   <path class="fil2" d="M378.57 126.9c13.7,0 24.8,11.1 24.8,24.8 0,13.7 -11.1,24.8 -24.8,24.8 -13.7,0 -24.8,-11.1 -24.8,-24.8 0,-13.7 11.1,-24.8 24.8,-24.8z"/>
  </g>
 </g>
</svg>
