<?xml version="1.0" encoding="UTF-8"?>
<!DOCTYPE svg PUBLIC "-//W3C//DTD SVG 1.1//EN" "http://www.w3.org/Graphics/SVG/1.1/DTD/svg11.dtd">
<!-- Creator: CorelDRAW 2018 (64-Bit) -->
<svg xmlns="http://www.w3.org/2000/svg" xml:space="preserve" width="14.3614mm" height="14.3613mm" version="1.1" style="shape-rendering:geometricPrecision; text-rendering:geometricPrecision; image-rendering:optimizeQuality; fill-rule:evenodd; clip-rule:evenodd"
viewBox="0 0 117.51 117.51"
 xmlns:xlink="http://www.w3.org/1999/xlink">
 <defs>
  <style type="text/css">
   <![CDATA[
    .fil1 {fill:rgb(73, 73, 73)}
    .fil0 {fill:rgb(73, 73, 73)}
   ]]>
  </style>
 </defs>
 <g id="Layer_x0020_1">
  <metadata id="CorelCorpID_0Corel-Layer"/>
  <g id="_2862897436976">
   <path class="fil0" d="M58.75 0c16.22,0 30.91,6.58 41.55,17.21 10.63,10.63 17.21,25.32 17.21,41.55 0,16.22 -6.58,30.91 -17.21,41.54 -10.63,10.63 -25.32,17.21 -41.55,17.21 -16.22,0 -30.91,-6.58 -41.55,-17.21 -10.63,-10.63 -17.21,-25.32 -17.21,-41.54 0,-16.22 6.58,-30.91 17.21,-41.55 10.63,-10.63 25.32,-17.21 41.55,-17.21zm0 4.33c30.06,0 54.42,24.37 54.42,54.42 0,30.06 -24.37,54.42 -54.42,54.42 -30.06,0 -54.42,-24.37 -54.42,-54.42 0,-30.06 24.37,-54.42 54.42,-54.42z"/>
   <path class="fil1" d="M58.75 10.76c26.5,0 47.99,21.49 47.99,47.99 0,26.5 -21.49,47.99 -47.99,47.99 -26.5,0 -47.99,-21.49 -47.99,-47.99 0,-26.51 21.49,-47.99 47.99,-47.99zm0 5.09c23.69,0 42.9,19.21 42.9,42.9 0,23.69 -19.21,42.9 -42.9,42.9 -23.69,0 -42.9,-19.21 -42.9,-42.9 0,-23.69 19.21,-42.9 42.9,-42.9z"/>
   <path class="fil1" d="M58.75 55.12c2.01,0 3.64,1.63 3.64,3.64 0,2.01 -1.63,3.64 -3.64,3.64 -2.01,0 -3.64,-1.63 -3.64,-3.64 0,-2.01 1.63,-3.64 3.64,-3.64z"/>
   <path class="fil1" d="M58.75 21.67l0 0c0.91,0 1.65,0.74 1.65,1.65l0 34.15c0,0.91 -0.74,1.65 -1.65,1.65l-0 0c-0.91,0 -1.65,-0.74 -1.65,-1.65l0 -34.15c0,-0.91 0.74,-1.65 1.65,-1.65z"/>
   <path class="fil1" d="M58.75 31.48l0 0c0.91,0 1.65,0.74 1.65,1.65l0 24.34c0,0.91 -0.74,1.65 -1.65,1.65l-0 0c-0.91,0 -1.65,-0.74 -1.65,-1.65l0 -24.34c0,-0.91 0.74,-1.65 1.65,-1.65z"/>
   <path class="fil1" d="M45.16 36.01l0 -0c0.79,-0.45 1.8,-0.18 2.25,0.6l12.17 21.08c0.45,0.79 0.18,1.8 -0.6,2.25l-0 0c-0.78,0.45 -1.8,0.18 -2.25,-0.6l-12.17 -21.07c-0.45,-0.79 -0.18,-1.8 0.6,-2.25z"/>
   <polygon class="fil1" points="57.39,15.24 60.12,15.24 60.12,19.97 57.39,19.97 "/>
   <polygon class="fil1" points="57.39,97.54 60.12,97.54 60.12,102.27 57.39,102.27 "/>
   <polygon class="fil1" points="35.82,21.75 38.18,20.39 40.54,24.48 38.18,25.85 "/>
   <polygon class="fil1" points="76.97,93.03 79.33,91.66 81.69,95.75 79.33,97.12 "/>
   <polygon class="fil1" points="20.39,38.18 21.75,35.82 25.85,38.18 24.48,40.54 "/>
   <polygon class="fil1" points="91.66,79.33 93.03,76.97 97.12,79.33 95.76,81.69 "/>
   <polygon class="fil1" points="15.24,60.12 15.24,57.39 19.97,57.39 19.97,60.12 "/>
   <polygon class="fil1" points="97.54,60.12 97.54,57.39 102.27,57.39 102.27,60.12 "/>
   <polygon class="fil1" points="21.75,81.69 20.39,79.33 24.48,76.97 25.85,79.33 "/>
   <polygon class="fil1" points="93.03,40.54 91.66,38.18 95.76,35.82 97.12,38.18 "/>
   <polygon class="fil1" points="38.18,97.12 35.82,95.75 38.18,91.66 40.54,93.02 "/>
   <polygon class="fil1" points="79.33,25.84 76.97,24.48 79.33,20.39 81.69,21.75 "/>
  </g>
 </g>
</svg>
